<?xml version="1.0" encoding="UTF-8"?>
<svg version="1.1" xmlns="http://www.w3.org/2000/svg" width="640" height="480">
<path d="M0 0 C211.2 0 422.4 0 640 0 C640 158.4 640 316.8 640 480 C428.8 480 217.6 480 0 480 C0 321.6 0 163.2 0 0 Z " fill="#16308A" transform="translate(0,0)"/>
<path d="M0 0 C2.42704396 0.51281803 4.64511366 1.19833656 7 2 C7 2.66 7 3.32 7 4 C7.81082031 3.89300781 8.62164062 3.78601562 9.45703125 3.67578125 C16.99605403 2.85956575 24.01706479 2.63018632 31 6 C32.8046875 8.11328125 32.8046875 8.11328125 34 10 C28.25 14 28.25 14 26 14 C26 14.66 26 15.32 26 16 C26.99 16 27.98 16 29 16 C29 15.34 29 14.68 29 14 C30.9587043 14.14076315 32.91696093 14.2877676 34.875 14.4375 C36.51082031 14.55931641 36.51082031 14.55931641 38.1796875 14.68359375 C41 15 41 15 43 16 C44.485 15.505 44.485 15.505 46 15 C52.17547275 14.70310227 57.53376355 15.90546085 63.5 17.34375 C67.08199228 18.01537355 70.36460942 18.11128747 74 18 C73.34 17.67 72.68 17.34 72 17 C72 16.34 72 15.68 72 15 C74.37587624 15.11486425 76.75015171 15.24158156 79.125 15.375 C80.12273437 15.42140625 80.12273437 15.42140625 81.140625 15.46875 C86.82224331 15.80296284 92.10054235 17.02532928 97 20 C97.66 20.99 98.32 21.98 99 23 C101.8666949 24.23852312 101.8666949 24.23852312 105.125 25.1875 C106.22070312 25.53167969 107.31640625 25.87585938 108.4453125 26.23046875 C109.28835938 26.48441406 110.13140625 26.73835938 111 27 C110.34 25.68 109.68 24.36 109 23 C109.55945313 23.0721875 110.11890625 23.144375 110.6953125 23.21875 C118.14082655 24.08061015 125.51172488 24.0971102 133 24 C131.35 23.34 129.7 22.68 128 22 C128 21.34 128 20.68 128 20 C135.44204104 17.51931965 143.99550867 19.07420619 151.6875 19.8125 C152.48285156 19.88251221 153.27820313 19.95252441 154.09765625 20.0246582 C159.48923328 20.58609422 163.99598596 21.97732211 169 24 C175.77767474 26.40650849 181.92237526 26.10671935 188.99804688 25.83398438 C195.50541292 25.69633768 200.88210778 26.79142525 207 29 C207 29.66 207 30.32 207 31 C208.4774746 31.36116046 209.95704675 31.71375048 211.4375 32.0625 C212.26121094 32.25972656 213.08492188 32.45695312 213.93359375 32.66015625 C214.61550781 32.77230469 215.29742187 32.88445312 216 33 C216.33 32.67 216.66 32.34 217 32 C219.10221693 31.90031328 221.20792604 31.87031797 223.3125 31.875 C224.46363281 31.87242188 225.61476563 31.86984375 226.80078125 31.8671875 C229.41251737 31.97561122 231.52307984 32.22940262 234 33 C234 32.34 234 31.68 234 31 C235.98 31 237.96 31 240 31 C240 31.66 240 32.32 240 33 C242.64 33.66 245.28 34.32 248 35 C247.195625 34.731875 246.39125 34.46375 245.5625 34.1875 C244.716875 33.795625 243.87125 33.40375 243 33 C242.67 32.01 242.34 31.02 242 30 C242.68964844 30.0721875 243.37929688 30.144375 244.08984375 30.21875 C245.02957031 30.3115625 245.96929687 30.404375 246.9375 30.5 C247.85402344 30.5928125 248.77054687 30.685625 249.71484375 30.78125 C252.29647354 30.953154 254.76729461 30.99020785 257.34765625 30.94921875 C272.963472 30.89368714 284.7070872 36.89798749 297 46 C297.74862305 46.53399414 298.49724609 47.06798828 299.26855469 47.61816406 C300.00235352 48.14893555 300.73615234 48.67970703 301.4921875 49.2265625 C302.16362793 49.70947754 302.83506836 50.19239258 303.52685547 50.68994141 C304.01299316 51.12226074 304.49913086 51.55458008 305 52 C305 52.66 305 53.32 305 54 C303.515 54.495 303.515 54.495 302 55 C303.7015625 55.61875 303.7015625 55.61875 305.4375 56.25 C310.0471771 57.97347498 314.52367464 59.95871274 319 62 C319 62.99 319 63.98 319 65 C318.40832031 64.97679688 317.81664062 64.95359375 317.20703125 64.9296875 C312.66198041 64.82588536 309.14059941 64.86291643 305 67 C305 67.66 305 68.32 305 69 C304.34 69 303.68 69 303 69 C302.67 70.98 302.34 72.96 302 75 C301.22914063 74.9278125 300.45828125 74.855625 299.6640625 74.78125 C298.66117188 74.6884375 297.65828125 74.595625 296.625 74.5 C295.62726563 74.4071875 294.62953125 74.314375 293.6015625 74.21875 C291.10296264 73.97207053 291.10296264 73.97207053 289 74 C289 74.66 289 75.32 289 76 C287.35 75.34 285.7 74.68 284 74 C284 74.66 284 75.32 284 76 C282.68 76.33 281.36 76.66 280 77 C280.66 77.99 281.32 78.98 282 80 C282 81.32 282 82.64 282 84 C283.0725 84.061875 284.145 84.12375 285.25 84.1875 C289.76386128 85.16550328 290.39288902 86.35004462 293 90 C295.61857695 91.78962819 295.61857695 91.78962819 298 93 C296.515 93.495 296.515 93.495 295 94 C295 94.99 295 95.98 295 97 C295.804375 97.268125 296.60875 97.53625 297.4375 97.8125 C298.283125 98.204375 299.12875 98.59625 300 99 C300.33 99.99 300.66 100.98 301 102 C299.68 102 298.36 102 297 102 C297.309375 102.61875 297.61875 103.2375 297.9375 103.875 C298.625 105.25 299.3125 106.625 300 108 C299.34 108.66 298.68 109.32 298 110 C298.66 110.99 299.32 111.98 300 113 C299.625 116.1875 299.625 116.1875 299 119 C296.5 117.625 296.5 117.625 294 116 C294 115.34 294 114.68 294 114 C293.44828125 113.75636719 292.8965625 113.51273437 292.328125 113.26171875 C287.40096269 110.59146132 283.27018503 106.59780783 279 103 C278.21109375 102.33742188 277.4221875 101.67484375 276.609375 100.9921875 C270.76402112 95.99116251 267.76625133 92.96901385 267 85 C267.99 85 268.98 85 270 85 C269.97679687 84.15695313 269.95359375 83.31390625 269.9296875 82.4453125 C269.91164063 81.34960938 269.89359375 80.25390625 269.875 79.125 C269.85179687 78.03445312 269.82859375 76.94390625 269.8046875 75.8203125 C270 73 270 73 272 71 C270.35 68.69 268.7 66.38 267 64 C266.34 64.33 265.68 64.66 265 65 C265.99 65.99 266.98 66.98 268 68 C267.01 68 266.02 68 265 68 C264.34 69.65 263.68 71.3 263 73 C258.125 70.25 258.125 70.25 257 68 C253.7 68 250.4 68 247 68 C247 70.97 247 73.94 247 77 C248.65 77.33 250.3 77.66 252 78 C249.20986594 80.79013406 246.85920197 80.60077221 243 81 C241.68 81 240.36 81 239 81 C239 80.01 239 79.02 239 78 C237.56260487 77.97287934 236.12506137 77.95354933 234.6875 77.9375 C233.48673828 77.92009766 233.48673828 77.92009766 232.26171875 77.90234375 C229.83138666 77.90342145 229.83138666 77.90342145 227 79 C223.38138912 79.05789777 219.77791964 79.02133422 216.16015625 78.9609375 C212.83783916 78.92639001 210.17647842 78.94117386 207 80 C206.4667406 81.89973662 205.94752707 83.80562458 205.53125 85.734375 C204.41235091 90.50615052 202.72608091 94.91087864 200 99 C201.26839526 99.50615298 202.53983102 100.00469099 203.8125 100.5 C204.52019531 100.7784375 205.22789062 101.056875 205.95703125 101.34375 C208.11841216 102.1529162 208.11841216 102.1529162 211 102 C211 102.66 211 103.32 211 104 C211.66 104 212.32 104 213 104 C213 104.66 213 105.32 213 106 C213.66 106 214.32 106 215 106 C215.33 105.01 215.66 104.02 216 103 C221.61027311 102.43897269 225.29691325 104.20508687 230 107 C230.33 107.33 230.66 107.66 231 108 C231.66 106.68 232.32 105.36 233 104 C236.91745718 107.18363955 240.27792233 110.30076594 243.40625 114.28515625 C246.4779571 117.59025286 250.13194615 120.26415018 253.671875 123.046875 C256 125 256 125 257 127 C255.68 127 254.36 127 253 127 C255.3439244 132.27710354 257.66965806 136.15080717 262 140 C261.34 140 260.68 140 260 140 C259.67 140.99 259.34 141.98 259 143 C256.65537684 140.86792058 255.35206315 138.94602962 254.0625 136.0625 C252.45357111 132.70393741 250.73175616 130.5610214 248 128 C246.64721885 126.01310269 245.31431695 124.01254782 244 122 C241.34899537 118.32280003 239.01883914 116.12105399 235 114 C237.33684347 119.10132668 237.33684347 119.10132668 240.4140625 123.75 C244.96520546 129.44528505 244.27225838 135.20372617 243.51171875 142.0703125 C243.34285156 143.36710938 243.17398437 144.66390625 243 146 C242.82404297 147.54300781 242.82404297 147.54300781 242.64453125 149.1171875 C242.03319347 153.19680796 241.41240619 155.48154651 238.8125 158.75 C236 160 236 160 232.1875 159.25 C231.135625 158.8375 230.08375 158.425 229 158 C226.81378992 160.65247442 226.81378992 160.65247442 225 164 C225.32033957 166.00212229 225.65259077 168.00239695 226 170 C224.125 172.1875 224.125 172.1875 222 174 C221.67 174.99 221.34 175.98 221 177 C221.73089844 177.25394531 222.46179688 177.50789062 223.21484375 177.76953125 C230.33509329 180.91522354 235.88334431 186.95364802 239 194 C239 195.32 239 196.64 239 198 C236.69 198.33 234.38 198.66 232 199 C232 199.66 232 200.32 232 201 C230.35 201.33 228.7 201.66 227 202 C226.80664062 201.31292969 226.61328125 200.62585938 226.4140625 199.91796875 C226.15367187 199.01691406 225.89328125 198.11585938 225.625 197.1875 C225.36976563 196.29417969 225.11453125 195.40085938 224.8515625 194.48046875 C224.04733339 191.79532104 224.04733339 191.79532104 222 189 C222 187.68 222 186.36 222 185 C221.071875 185.04125 220.14375 185.0825 219.1875 185.125 C216 185 216 185 213 183 C211.8125 179.375 211.8125 179.375 211 176 C206.59957 174.9438968 204.70638261 174.60016078 200.6875 176.875 C199.800625 177.57625 198.91375 178.2775 198 179 C197.34 179.33 196.68 179.66 196 180 C195.67 176.7 195.34 173.4 195 170 C193.68 170 192.36 170 191 170 C189.53172611 171.75418428 189.53172611 171.75418428 188.4375 174 C187.24609375 176.25 187.24609375 176.25 186 178 C185.01 178 184.02 178 183 178 C183 178.99 183 179.98 183 181 C183.886875 181.226875 184.77375 181.45375 185.6875 181.6875 C189.43380532 183.17188513 191.33729434 185.02403485 194 188 C194.66 186.68 195.32 185.36 196 184 C197.48206495 184.254496 198.96068615 184.52911762 200.4375 184.8125 C201.26121094 184.96332031 202.08492188 185.11414063 202.93359375 185.26953125 C203.61550781 185.51058594 204.29742187 185.75164062 205 186 C205.33 186.99 205.66 187.98 206 189 C204.7934375 189.433125 204.7934375 189.433125 203.5625 189.875 C200.8673532 190.73262568 200.8673532 190.73262568 200 193 C199.34 193 198.68 193 198 193 C197.49830585 195.83073436 197.49830585 195.83073436 198 199 C200.76238866 201.14749996 200.76238866 201.14749996 204 203 C208 207.31578947 208 207.31578947 208 211 C208.99 211 209.98 211 211 211 C211 211.66 211 212.32 211 213 C211.99 213.33 212.98 213.66 214 214 C214 215.32 214 216.64 214 218 C214.66 218.33 215.32 218.66 216 219 C215.34 219.66 214.68 220.32 214 221 C214.98226562 221.58201172 214.98226562 221.58201172 215.984375 222.17578125 C218 224 218 224 218.390625 226.48046875 C218.34421875 227.37378906 218.2978125 228.26710938 218.25 229.1875 C218.21390625 230.08855469 218.1778125 230.98960937 218.140625 231.91796875 C218.09421875 232.60503906 218.0478125 233.29210937 218 234 C217.34 234 216.68 234 216 234 C215.855625 235.093125 215.71125 236.18625 215.5625 237.3125 C215 241 215 241 214 244 C214.33 244.99 214.66 245.98 215 247 C214.34 247 213.68 247 213 247 C212.34 248.65 211.68 250.3 211 252 C210.34 252 209.68 252 209 252 C208.67 252.99 208.34 253.98 208 255 C207.34 255 206.68 255 206 255 C206 255.66 206 256.32 206 257 C202.28532847 260.60210572 198.94332758 261.72155321 194 263 C191.65794699 263.97940398 189.32481174 264.98034573 187 266 C185.91912109 266.33837891 185.91912109 266.33837891 184.81640625 266.68359375 C182.34306245 267.41755458 182.34306245 267.41755458 179 269 C177.86559222 271.57080135 177.86559222 271.57080135 178 274 C175 272 175 272 174.0625 269.9375 C173.17126125 267.83539989 173.17126125 267.83539989 171.0625 267.1875 C168.80257287 266.84313191 168.80257287 266.84313191 166 268 C165.67 268.66 165.34 269.32 165 270 C164.01 270 163.02 270 162 270 C162 271.32 162 272.64 162 274 C161.34 274.33 160.68 274.66 160 275 C159.63740415 278.89790543 159.65172112 280.52111654 162 283.75 C162.66 284.4925 163.32 285.235 164 286 C164 286.66 164 287.32 164 288 C164.99 288.33 165.98 288.66 167 289 C167 289.66 167 290.32 167 291 C167.721875 291.185625 168.44375 291.37125 169.1875 291.5625 C174.58884333 294.32318659 176.96827087 299.30386343 178.9375 304.8125 C180.36494286 310.14705788 180.14030939 314.88061132 178 320 C174.73984887 322.91697733 173.42713904 323 169 323 C168.979375 323.721875 168.95875 324.44375 168.9375 325.1875 C167.55987495 329.32037516 164.60643381 330.78717508 161 333 C160.855625 332.071875 160.71125 331.14375 160.5625 330.1875 C160.07899889 326.99274889 160.07899889 326.99274889 159 324 C157.35 323.67 155.7 323.34 154 323 C154 322.34 154 321.68 154 321 C153.34 321 152.68 321 152 321 C151.7525 320.236875 151.505 319.47375 151.25 318.6875 C149.8478869 315.67295684 148.86077355 314.63472774 146 313 C143.35065178 312.28566879 143.35065178 312.28566879 141 312 C141 310.68 141 309.36 141 308 C140.01 308 139.02 308 138 308 C138.061875 309.7325 138.061875 309.7325 138.125 311.5 C138.13587957 314.57347982 137.80205965 317.22213862 137 320.1875 C136.16299385 323.37858593 135.79675013 325.74800211 136 329 C136.99 329 137.98 329 139 329 C139.14695312 329.68707031 139.29390625 330.37414062 139.4453125 331.08203125 C140.80820166 337.07605128 140.80820166 337.07605128 145.1875 341.125 C146.115625 341.41375 147.04375 341.7025 148 342 C148 342.66 148 343.32 148 344 C148.86625 344.37125 148.86625 344.37125 149.75 344.75 C152.42145435 346.2341413 154.04954973 347.63533039 156 350 C156.50390625 352.875 156.50390625 352.875 156.5625 356 C156.65955925 360.56749408 157.21017903 362.44797329 160 366 C160 367.32 160 368.64 160 370 C160.66 370 161.32 370 162 370 C162 370.66 162 371.32 162 372 C161.01 372 160.02 372 159 372 C159 371.34 159 370.68 159 370 C158.01 370 157.02 370 156 370 C156 369.34 156 368.68 156 368 C155.2575 367.731875 154.515 367.46375 153.75 367.1875 C148.55697214 364.94505615 146.33435924 362.498087 143.9375 357.4609375 C142.4735102 353.61796427 141.63764944 349.65841128 140.80859375 345.63671875 C139.95387943 342.84960684 139.2097195 341.82273816 137 340 C134.64820113 337.71946776 132.82877289 335.74315934 131 333 C131.05859375 329.75 131.05859375 329.75 131.4375 326 C132.01639705 320.91495003 132.01639705 320.91495003 131 316 C131.33 315.01 131.66 314.02 132 313 C131.34 312.67 130.68 312.34 130 312 C130 311.01 130 310.02 130 309 C129.39954857 307.58405174 128.74738924 306.18959046 128.0625 304.8125 C126.04272941 300.45893088 125.34688889 296.76972221 125 292 C124.34 292 123.68 292 123 292 C123 291.34 123 290.68 123 290 C122.34 290 121.68 290 121 290 C120.34 291.32 119.68 292.64 119 294 C118.34 294 117.68 294 117 294 C116.67 294.99 116.34 295.98 116 297 C114.02 296.34 112.04 295.68 110 295 C110.05220703 294.11248047 110.05220703 294.11248047 110.10546875 293.20703125 C110.27423044 288.28079723 110.24691546 284.99620364 107 281 C106.34 280.67 105.68 280.34 105 280 C105 278.35 105 276.7 105 275 C104.443125 274.95875 103.88625 274.9175 103.3125 274.875 C99.86837398 273.57181718 97.99793385 270.97549434 96 268 C95.33333333 266.33333333 94.66666667 264.66666667 94 263 C93.01 262.67 92.02 262.34 91 262 C90.67 262.99 90.34 263.98 90 265 C85.06208162 267.34551123 80.33555495 267.2134222 75 267 C75.061875 267.928125 75.12375 268.85625 75.1875 269.8125 C75 273 75 273 73.75 274.875 C72 276 72 276 68 276 C67.835 276.845625 67.67 277.69125 67.5 278.5625 C65.67378917 282.74756648 63.33806417 284.54608438 59.77734375 287.2890625 C57.80270915 289.18991954 57.37942183 290.32653543 57 293 C56.360625 293.12375 55.72125 293.2475 55.0625 293.375 C54.0415625 293.684375 54.0415625 293.684375 53 294 C52.67 294.66 52.34 295.32 52 296 C51.01 296.33 50.02 296.66 49 297 C49.12568359 298.75376953 49.12568359 298.75376953 49.25390625 300.54296875 C49.35711652 302.09112283 49.4599619 303.63930126 49.5625 305.1875 C49.61857422 305.95642578 49.67464844 306.72535156 49.73242188 307.51757812 C49.99312116 311.56710707 49.97730575 315.02464351 49 319 C49.061875 320.299375 49.061875 320.299375 49.125 321.625 C49 324 49 324 47.5625 325.625 C47.046875 326.07875 46.53125 326.5325 46 327 C45.67 327.99 45.34 328.98 45 330 C44.01 330 43.02 330 42 330 C41.67 331.65 41.34 333.3 41 335 C38.6875 334.8125 38.6875 334.8125 36 334 C33.51193546 330.46027931 32.04091064 326.73495207 30.5625 322.6875 C28.90441134 318.27420413 27.14097903 314.06029308 24.96484375 309.8828125 C17.78222914 295.86653622 13.07841894 281.60036806 11 266 C10.67 266 10.34 266 10 266 C10 266.99 10 267.98 10 269 C7 271 7 271 4.75 271.5625 C0.31446898 270.65523229 -2.07794509 267.30099574 -5 264 C-4 262 -4 262 -2 261 C-2.969375 260.566875 -3.93875 260.13375 -4.9375 259.6875 C-8 258 -8 258 -9 255 C-10.65 254.67 -12.3 254.34 -14 254 C-14.33 253.01 -14.66 252.02 -15 251 C-15.66 250.67 -16.32 250.34 -17 250 C-17 249.01 -17 248.02 -17 247 C-17.99 247.33 -18.98 247.66 -20 248 C-23.44896136 248.34851204 -26.9126326 248.46591825 -30.375 248.625 C-31.32117188 248.6765625 -32.26734375 248.728125 -33.2421875 248.78125 C-34.16 248.82507813 -35.0778125 248.86890625 -36.0234375 248.9140625 C-37.27519775 248.9752124 -37.27519775 248.9752124 -38.55224609 249.03759766 C-41.15490224 248.99762069 -43.46362185 248.56505664 -46 248 C-47.50626953 247.80470703 -47.50626953 247.80470703 -49.04296875 247.60546875 C-50.08066406 247.46753906 -51.11835938 247.32960938 -52.1875 247.1875 C-53.23292969 247.05730469 -54.27835938 246.92710937 -55.35546875 246.79296875 C-58 246 -58 246 -59.36328125 244.11328125 C-60 242 -60 242 -60 239 C-60.99 239.33 -61.98 239.66 -63 240 C-67.43085104 241.47695035 -70.46405175 242.37452977 -75 241 C-75 240.34 -75 239.68 -75 239 C-75.515625 238.9175 -76.03125 238.835 -76.5625 238.75 C-81.70422215 237.16793165 -85.12164393 235.41670334 -87.9375 230.875 C-89 228 -89 228 -89 226 C-89.66 226 -90.32 226 -91 226 C-91.33 225.34 -91.66 224.68 -92 224 C-94.9737344 222.90963072 -95.88407501 222.96135834 -99 224 C-99 228.36008185 -97.97525847 230.21408794 -96 234 C-96 234.66 -96 235.32 -96 236 C-95.34 236 -94.68 236 -94 236 C-94 236.66 -94 237.32 -94 238 C-93.401875 238.185625 -92.80375 238.37125 -92.1875 238.5625 C-88.90018201 240.72273753 -88.35145313 243.35107655 -87 247 C-86.34 245.68 -85.68 244.36 -85 243 C-83.4375 244.0625 -83.4375 244.0625 -82 246 C-82.3125 249.6875 -82.3125 249.6875 -83 253 C-78.84168171 253.62374774 -75.13488651 253.85723257 -71 253 C-67.62950411 250.08911719 -65.30291364 246.79303423 -63 243 C-61.5359722 245.69689332 -60.92956975 247.44605824 -60.4375 250.5625 C-59.41998802 254.06375197 -59.41998802 254.06375197 -57.046875 254.94140625 C-55.4596611 255.40127783 -53.86691 255.84240995 -52.26953125 256.265625 C-48.84091263 257.37505753 -47.06844986 259.1041702 -45 262 C-44.88655134 266.42449781 -47.32373236 269.61530857 -50 273 C-50.99 273 -51.98 273 -53 273 C-52.67 275.31 -52.34 277.62 -52 280 C-53.65 280.33 -55.3 280.66 -57 281 C-57.0825 281.61875 -57.165 282.2375 -57.25 282.875 C-58 285 -58 285 -60 286.0625 C-60.99 286.5265625 -60.99 286.5265625 -62 287 C-62.33 287.99 -62.66 288.98 -63 290 C-64.98805253 290.55404743 -66.98049797 291.09946556 -68.99609375 291.54296875 C-71.28164916 292.06423577 -73.06542347 292.66067778 -75 294 C-75.23847656 294.6290625 -75.47695312 295.258125 -75.72265625 295.90625 C-77.57281297 298.93892279 -79.7775499 299.41125205 -83.0625 300.625 C-87.32993312 301.88201059 -87.32993312 301.88201059 -90 305 C-91.97395523 305.74023321 -93.98271862 306.38761101 -96 307 C-97.56468235 307.49312817 -99.12711222 307.99344671 -100.6875 308.5 C-101.43386719 308.7371875 -102.18023437 308.974375 -102.94921875 309.21875 C-105.25722774 310.01104023 -105.25722774 310.01104023 -108 312 C-111.1875 312.125 -111.1875 312.125 -114 312 C-115.84330374 306.82119427 -117.25567658 301.83484817 -118.3125 296.4375 C-119.47561995 291.12303173 -121.12793354 287.86302787 -124.65625 283.78125 C-126.10510788 281.86067095 -126.56533698 280.45784184 -127.0625 278.125 C-127.371875 277.09375 -127.68125 276.0625 -128 275 C-130.40952023 273.75285597 -130.40952023 273.75285597 -133 273 C-135.6095477 270.14680903 -136.49128255 267.77926045 -137.125 264 C-137.82962939 259.4425659 -137.82962939 259.4425659 -139 255 C-139.78375 254.71125 -140.5675 254.4225 -141.375 254.125 C-145.01002096 252.56713387 -145.3128704 250.52801238 -147 247 C-148.30000065 244.9163296 -149.63410497 242.85358177 -151 240.8125 C-151.680625 239.78769531 -152.36125 238.76289063 -153.0625 237.70703125 C-154.83217973 235.05503759 -154.83217973 235.05503759 -156.75 233.3359375 C-158.86504863 231.07547928 -158 227.99202472 -158 225 C-158.50821615 223.7442197 -159.06065784 222.50572287 -159.6484375 221.28515625 C-161.55073302 216.44279705 -160.4112249 213.33168915 -158.625 208.625 C-156.39979509 202.09368427 -155.29548094 196.86870553 -157 190 C-157.99 190.33 -158.98 190.66 -160 191 C-160.70125 191.165 -161.4025 191.33 -162.125 191.5 C-163.99905107 191.83203898 -163.99905107 191.83203898 -165 193 C-167.33297433 193.04092937 -169.66705225 193.04241723 -172 193 C-172 192.34 -172 191.68 -172 191 C-174.31 190.34 -176.62 189.68 -179 189 C-179 189.99 -179 190.98 -179 192 C-182.20884927 193.00849549 -183.50861642 193.25168427 -186.5625 191.6875 C-187.366875 191.130625 -188.17125 190.57375 -189 190 C-189.7425 189.71125 -190.485 189.4225 -191.25 189.125 C-193 188 -193 188 -193.75 185.375 C-193.8325 184.59125 -193.915 183.8075 -194 183 C-195.32 182.67 -196.64 182.34 -198 182 C-197.505 179.03 -197.505 179.03 -197 176 C-197.66 176 -198.32 176 -199 176 C-199 174.35 -199 172.7 -199 171 C-195.37 170.67 -191.74 170.34 -188 170 C-189.9914056 169.61866701 -191.99279077 169.28674418 -194 169 C-194.33 169.33 -194.66 169.66 -195 170 C-196.66617115 170.04063832 -198.33388095 170.042721 -200 170 C-199.67 167.69 -199.34 165.38 -199 163 C-196 162 -196 162 -193.8125 162.9375 C-193.214375 163.288125 -192.61625 163.63875 -192 164 C-192 164.66 -192 165.32 -192 166 C-189.89807303 166.24887295 -187.79326036 166.4734719 -185.6875 166.6875 C-184.51574219 166.81511719 -183.34398437 166.94273437 -182.13671875 167.07421875 C-179.03171763 167.32261892 -179.03171763 167.32261892 -177.26953125 165.58203125 C-176.85058594 165.05996094 -176.43164062 164.53789062 -176 164 C-170.20792961 162.06930987 -164.50773391 162.38382639 -159 165 C-152.39591539 167.83221264 -147.08144777 168.44573981 -140 167 C-139.34 166.67 -138.68 166.34 -138 166 C-137.78717711 163.15949682 -137.78717711 163.15949682 -139 160 C-141.79908697 157.93596738 -144.88901947 156.53475039 -148 155 C-150 153.66666667 -152 152.33333333 -154 151 C-155.98507948 149.97069953 -157.98114251 148.96136071 -160 148 C-158.89131683 145.78263366 -157.50559539 143.96382007 -156 142 C-156.33 141.34 -156.66 140.68 -157 140 C-156.34 139.34 -155.68 138.68 -155 138 C-155.33 137.01 -155.66 136.02 -156 135 C-154.35 134.67 -152.7 134.34 -151 134 C-151.185625 133.05125 -151.37125 132.1025 -151.5625 131.125 C-152 128 -152 128 -151 126 C-151.63808594 125.86722656 -152.27617187 125.73445313 -152.93359375 125.59765625 C-153.75988281 125.42105469 -154.58617187 125.24445313 -155.4375 125.0625 C-156.26121094 124.88847656 -157.08492187 124.71445313 -157.93359375 124.53515625 C-160 124 -160 124 -161 123 C-162.51469448 122.76807135 -164.03754562 122.58784762 -165.5625 122.4375 C-166.80193359 122.31181641 -166.80193359 122.31181641 -168.06640625 122.18359375 C-168.70449219 122.12300781 -169.34257812 122.06242187 -170 122 C-170.33 120.68 -170.66 119.36 -171 118 C-171.78375 117.9175 -172.5675 117.835 -173.375 117.75 C-176 117 -176 117 -177.3125 114.9375 C-177.6528125 113.9784375 -177.6528125 113.9784375 -178 113 C-181.62885324 112.84850702 -181.62885324 112.84850702 -185 114 C-187.7839183 112.60804085 -187.97898997 110.84424221 -189 108 C-187.35 108 -185.7 108 -184 108 C-184.5878125 107.4121875 -184.5878125 107.4121875 -185.1875 106.8125 C-185.785625 106.214375 -186.38375 105.61625 -187 105 C-187.845625 104.195625 -188.69125 103.39125 -189.5625 102.5625 C-192 100 -192 100 -192.875 97.75 C-193.431875 96.88375 -193.431875 96.88375 -194 96 C-196.33157492 95.65458149 -198.66508361 95.32205743 -201 95 C-204.9355387 92.1576665 -206.5306796 88.56262651 -208 84 C-207.875 80.1875 -207.875 80.1875 -207 77 C-205.515 76.01 -205.515 76.01 -204 75 C-205.32 74.01 -206.64 73.02 -208 72 C-207.36191406 71.45730469 -206.72382813 70.91460937 -206.06640625 70.35546875 C-205.24011719 69.64003906 -204.41382813 68.92460938 -203.5625 68.1875 C-202.73878906 67.47980469 -201.91507813 66.77210937 -201.06640625 66.04296875 C-198.77835241 64.08890314 -198.77835241 64.08890314 -198 61 C-198.969375 60.7525 -199.93875 60.505 -200.9375 60.25 C-202.4534375 59.63125 -202.4534375 59.63125 -204 59 C-204.75 57 -204.75 57 -205 55 C-205.66 54.34 -206.32 53.68 -207 53 C-206.625 50.375 -206.625 50.375 -206 48 C-206.66 48 -207.32 48 -208 48 C-210 45 -210 45 -209.625 42.8125 C-209.41875 42.214375 -209.2125 41.61625 -209 41 C-209.825 40.566875 -210.65 40.13375 -211.5 39.6875 C-212.325 39.130625 -213.15 38.57375 -214 38 C-214 37.01 -214 36.02 -214 35 C-213.34 35 -212.68 35 -212 35 C-212 34.34 -212 33.68 -212 33 C-210.39950296 32.60963487 -208.79437629 32.23821381 -207.1875 31.875 C-206.29417969 31.66617188 -205.40085937 31.45734375 -204.48046875 31.2421875 C-202 31 -202 31 -199 33 C-197.0104587 33.35608268 -195.00727882 33.63856572 -193 33.875 C-185.30253457 34.95866552 -177.78589834 37.10495521 -171 41 C-170.1875 43 -170.1875 43 -170 45 C-170.495 45.99 -170.495 45.99 -171 47 C-178.74021885 49.58007295 -187.17565628 47.33586356 -195 46 C-194.20207031 46.25523438 -193.40414062 46.51046875 -192.58203125 46.7734375 C-190 48 -190 48 -188.6875 51.625 C-188.460625 52.73875 -188.23375 53.8525 -188 55 C-187.29875 55.12375 -186.5975 55.2475 -185.875 55.375 C-182.82343613 56.03838345 -179.94659062 56.97211955 -177 58 C-178.95216435 56.04783565 -180.53199953 55.15173355 -183 54 C-182.67 53.34 -182.34 52.68 -182 52 C-178.37 52.33 -174.74 52.66 -171 53 C-171.66 52.01 -172.32 51.02 -173 50 C-168.17970402 46.02325581 -168.17970402 46.02325581 -164.8203125 45.95703125 C-162.86662563 46.21775459 -160.93012925 46.60066291 -159 47 C-159.33 46.01 -159.66 45.02 -160 44 C-160.99 43.505 -160.99 43.505 -162 43 C-162.625 39.9375 -162.625 39.9375 -163 37 C-157.46153846 36.63076923 -157.46153846 36.63076923 -155.125 38.5 C-154.75375 38.995 -154.3825 39.49 -154 40 C-155.98 40.495 -155.98 40.495 -158 41 C-158 41.66 -158 42.32 -158 43 C-155.03 43.33 -152.06 43.66 -149 44 C-149 43.01 -149 42.02 -149 41 C-146.56495491 39.9936345 -144.12729136 38.99473587 -141.6875 38 C-140.99720703 37.71382812 -140.30691406 37.42765625 -139.59570312 37.1328125 C-136.58454326 35.91089256 -134.28113016 35 -131 35 C-131 35.99 -131 36.98 -131 38 C-130.443125 37.86722656 -129.88625 37.73445313 -129.3125 37.59765625 C-124.21948272 36.4190357 -119.22836863 35.27043286 -114 35 C-112 36.4375 -112 36.4375 -111 38 C-110.67 37.01 -110.34 36.02 -110 35 C-114.455 33.02 -114.455 33.02 -119 31 C-119 30.34 -119 29.68 -119 29 C-117.9171875 29.2165625 -117.9171875 29.2165625 -116.8125 29.4375 C-115.884375 29.623125 -114.95625 29.80875 -114 30 C-113.23042969 30.15984375 -112.46085937 30.3196875 -111.66796875 30.484375 C-108.95277927 31.00912612 -106.2358235 31.41039407 -103.5 31.8125 C-96.25199366 32.99951841 -88.60673307 34.69663346 -82 38 C-82 37.34 -82 36.68 -82 36 C-84.97 35.01 -87.94 34.02 -91 33 C-91.33 31.35 -91.66 29.7 -92 28 C-92.99 28 -93.98 28 -95 28 C-95 27.01 -95 26.02 -95 25 C-94.01 24.505 -94.01 24.505 -93 24 C-93.04125 23.236875 -93.0825 22.47375 -93.125 21.6875 C-93 19 -93 19 -91 16 C-89.35 16.33 -87.7 16.66 -86 17 C-86 17.33 -86 17.66 -86 18 C-85.05125 18.226875 -84.1025 18.45375 -83.125 18.6875 C-80 20 -80 20 -78.875 22.4375 C-78.441875 23.7059375 -78.441875 23.7059375 -78 25 C-77.38125 25.45375 -76.7625 25.9075 -76.125 26.375 C-73.92039882 28.06087149 -73.26116582 29.15436842 -72 31.5625 C-70.11203015 34.80744817 -69.46293922 35.88691239 -66 37 C-66.165 38.11375 -66.33 39.2275 -66.5 40.375 C-67.0455458 43.72032033 -67.0455458 43.72032033 -67 46 C-66.34 46.33 -65.68 46.66 -65 47 C-65 46.34 -65 45.68 -65 45 C-64.01 45 -63.02 45 -62 45 C-61.67 43.35 -61.34 41.7 -61 40 C-61.99 39.34 -62.98 38.68 -64 38 C-64 36 -64 36 -63 35 C-63.78375 34.855625 -64.5675 34.71125 -65.375 34.5625 C-68 34 -68 34 -70 33 C-70 31.35 -70 29.7 -70 28 C-70.804375 27.731875 -71.60875 27.46375 -72.4375 27.1875 C-73.283125 26.795625 -74.12875 26.40375 -75 26 C-75.33 25.01 -75.66 24.02 -76 23 C-75.01 22.34 -74.02 21.68 -73 21 C-73.33 20.34 -73.66 19.68 -74 19 C-70.83884224 20.36983503 -70.0072908 20.9890638 -68 24 C-68 23.34 -68 22.68 -68 22 C-67.34 21.34 -66.68 20.68 -66 20 C-63.23286597 20.18135551 -60.6080224 20.4643386 -57.875 20.875 C-57.12089844 20.97941406 -56.36679688 21.08382812 -55.58984375 21.19140625 C-53.72515844 21.45104598 -51.86237113 21.72425029 -50 22 C-51.3921875 21.566875 -51.3921875 21.566875 -52.8125 21.125 C-56 20 -56 20 -59 18 C-59 17.34 -59 16.68 -59 16 C-56.0384304 14.5192152 -53.16493705 14.64685963 -49.875 14.4375 C-48.59367188 14.35371094 -47.31234375 14.26992188 -45.9921875 14.18359375 C-45.00476563 14.12300781 -44.01734375 14.06242187 -43 14 C-43.99 13.505 -43.99 13.505 -45 13 C-44 10 -44 10 -42.2265625 8.87890625 C-32.52185363 5.04810012 -21.28737403 5.43005524 -11 5 C-11.33 4.01 -11.66 3.02 -12 2 C-7.93261417 -0.71159055 -4.77012858 -0.40999452 0 0 Z " fill="#257F2E" transform="translate(257,33)"/>
<path d="M0 0 C1.32 0.33 2.64 0.66 4 1 C4.04125 1.61875 4.0825 2.2375 4.125 2.875 C4.41375 3.57625 4.7025 4.2775 5 5 C7.92914165 6.17082878 7.92914165 6.17082878 11 7 C11.66 7.66 12.32 8.32 13 9 C11.02 9.99 11.02 9.99 9 11 C9 11.99 9 12.98 9 14 C8.01 14.33 7.02 14.66 6 15 C6.32578384 17.00124361 6.66055205 19.00102872 7 21 C7.1546875 22.3303125 7.1546875 22.3303125 7.3125 23.6875 C8.18460212 26.6209344 9.52262629 27.3217791 12 29 C12 29.66 12 30.32 12 31 C10.35 31.33 8.7 31.66 7 32 C6.9175 33.258125 6.835 34.51625 6.75 35.8125 C6.48046875 38.05078125 6.48046875 38.05078125 6 40 C4.68212715 41.02028865 3.34789347 42.01971384 2 43 C0.4339395 47.00600007 0 50.70992562 0 55 C-2.64 55.33 -5.28 55.66 -8 56 C-8 55.01 -8 54.02 -8 53 C-12.3164922 52.23826608 -15.74433453 51.83936396 -20 53 C-20 52.34 -20 51.68 -20 51 C-21.98 51 -23.96 51 -26 51 C-26.474375 49.88625 -26.94875 48.7725 -27.4375 47.625 C-29.18751465 43.40974198 -29.18751465 43.40974198 -32 40 C-32.484375 37.5390625 -32.484375 37.5390625 -32.75 34.625 C-32.89695312 33.19027344 -32.89695312 33.19027344 -33.046875 31.7265625 C-32.99778678 28.87126439 -32.48085988 27.40354949 -31 25 C-28.69 25.33 -26.38 25.66 -24 26 C-23.7215625 24.8553125 -23.7215625 24.8553125 -23.4375 23.6875 C-21.69083331 20.4219927 -20.17137338 20.15649088 -16.80078125 18.94921875 C-14.02231378 17.48464696 -12.84842992 15.18303417 -11.19921875 12.5859375 C-9.5138896 10.35713087 -7.65765623 9.68339732 -5 9 C-5 8.34 -5 7.68 -5 7 C-4 6 -3 5 -2 4 C-0.82425289 1.90010348 -0.82425289 1.90010348 0 0 Z " fill="#257F2E" transform="translate(471,374)"/>
<path d="M0 0 C6.89939915 1.28903365 11.51025072 2.49014198 15.71875 8.2890625 C17.46845453 10.62555818 19.72650859 12.19458035 22 14 C22 14.66 22 15.32 22 16 C22.66 16 23.32 16 24 16 C24 16.66 24 17.32 24 18 C25.98 18.33 27.96 18.66 30 19 C30 19.66 30 20.32 30 21 C30.99 21 31.98 21 33 21 C33 21.66 33 22.32 33 23 C34.2065625 23.309375 34.2065625 23.309375 35.4375 23.625 C36.7059375 24.305625 36.7059375 24.305625 38 25 C39.47368421 30.05263158 39.47368421 30.05263158 38 33 C38.61875 33.20625 39.2375 33.4125 39.875 33.625 C42.84653645 35.54775888 43.13024659 37.66594527 44 41 C45.98 40.505 45.98 40.505 48 40 C47.01 39.67 46.02 39.34 45 39 C45.495 38.01 45.495 38.01 46 37 C47.32 37.33 48.64 37.66 50 38 C50 39.32 50 40.64 50 42 C50.66 42 51.32 42 52 42 C52 42.99 52 43.98 52 45 C51.01 45.33 50.02 45.66 49 46 C48.34 50.29 47.68 54.58 47 59 C41 59 41 59 38.625 57.0625 C37.7408455 56.04958514 36.86730154 55.02738198 36 54 C35.35675781 53.32195312 34.71351563 52.64390625 34.05078125 51.9453125 C29.66125089 47.25557396 26.55300426 42.86844417 24 37 C23.32289106 35.55757635 22.63543374 34.11996326 21.9375 32.6875 C21.63714844 32.05199219 21.33679688 31.41648437 21.02734375 30.76171875 C20.05801503 28.92275557 20.05801503 28.92275557 18.4375 27.4609375 C17 26 17 26 16.0625 22.9375 C15.34682246 19.90427663 15.34682246 19.90427663 13.125 19.0625 C10.27299702 17.63649851 9.56975365 15.54511261 8.14453125 12.796875 C6.9005707 10.84389939 5.66832599 9.80168712 3.8125 8.4375 C1 6 1 6 0.125 2.6875 C0.08375 1.800625 0.0425 0.91375 0 0 Z " fill="#257F2E" transform="translate(376,380)"/>
<path d="M0 0 C0 2.31 0 4.62 0 7 C-1.98 7 -3.96 7 -6 7 C-6 8.32 -6 9.64 -6 11 C-6.99 11 -7.98 11 -9 11 C-9 11.66 -9 12.32 -9 13 C-8.01 13 -7.02 13 -6 13 C-5.566875 13.78375 -5.13375 14.5675 -4.6875 15.375 C-2.5455243 18.7069622 -0.76119793 19.08059606 3 20 C3.33 21.98 3.66 23.96 4 26 C4.33 25.34 4.66 24.68 5 24 C7.78211944 24.37596209 9.5879284 24.67318459 11.8125 26.4375 C13 28 13 28 13 30 C9.98968256 30.93423645 9.13349732 31.04449911 6 30 C6.34786708 31.97536745 6.34786708 31.97536745 7 34 C7.66 34.33 8.32 34.66 9 35 C9 35.99 9 36.98 9 38 C9.63421875 38.22429687 10.2684375 38.44859375 10.921875 38.6796875 C13 40 13 40 13.828125 42.3828125 C13.96734375 43.28773438 14.1065625 44.19265625 14.25 45.125 C14.39953125 46.03507812 14.5490625 46.94515625 14.703125 47.8828125 C14.80109375 48.58148438 14.8990625 49.28015625 15 50 C5.10279132 52.10146212 5.10279132 52.10146212 0.375 49.625 C-0.40875 49.08875 -1.1925 48.5525 -2 48 C-3.65369357 47.30177383 -5.31727014 46.62501395 -7 46 C-7.83154187 41.38032292 -8.19811544 37.57462259 -7 33 C-6.01 32.505 -6.01 32.505 -5 32 C-5.58652344 31.74992187 -6.17304688 31.49984375 -6.77734375 31.2421875 C-9.29415569 29.83560368 -10.70866201 28.32306294 -12.5625 26.125 C-13.14128906 25.44695312 -13.72007812 24.76890625 -14.31640625 24.0703125 C-17.26780668 20.44098018 -19.27981674 17.3577976 -21 13 C-21.66 12.34 -22.32 11.68 -23 11 C-21.26309892 5.29585894 -17.97065966 3.33030439 -13.04296875 0.31640625 C-8.4639984 -1.66448336 -4.74219887 -1.22412509 0 0 Z " fill="#16308A" transform="translate(161,172)"/>
<path d="M0 0 C1.37001429 3.1967 0.8252404 5.69903842 0 9 C0.66 9 1.32 9 2 9 C2.33 10.32 2.66 11.64 3 13 C6.26460973 11.19587357 7.88929795 10.16605307 10 7 C10.99 7 11.98 7 13 7 C13 6.34 13 5.68 13 5 C17.64651427 3.53866689 20.39346788 4.60739579 24.8125 6.4375 C25.97394531 6.91058594 27.13539063 7.38367188 28.33203125 7.87109375 C29.21246094 8.24363281 30.09289062 8.61617188 31 9 C31.12190858 16.24594097 30.64366635 23.34734819 30 30.5625 C29.90460937 31.66658203 29.80921875 32.77066406 29.7109375 33.90820312 C29.4773805 36.60578644 29.24032874 39.30301301 29 42 C28.01 41.67 27.02 41.34 26 41 C25.67 40.34 25.34 39.68 25 39 C21.37 39 17.74 39 14 39 C15 35 15 35 18 33 C17.54177532 29.53058454 17.10868317 26.32604951 16 23 C13.32186171 21.91114536 13.32186171 21.91114536 10 21 C8.64153416 20.51180134 7.28742699 20.01133598 5.9375 19.5 C5.26074219 19.24734375 4.58398438 18.9946875 3.88671875 18.734375 C2.32004586 18.12457272 0.78047816 17.44567189 -0.75 16.75 C-3.29531998 15.90156001 -4.51678568 16.08029099 -7 17 C-7.12375 16.21625 -7.2475 15.4325 -7.375 14.625 C-7.79117993 11.85942178 -7.79117993 11.85942178 -10 10 C-5.545 9.505 -5.545 9.505 -1 9 C-1.33 8.67 -1.66 8.34 -2 8 C-3.134375 8.04125 -4.26875 8.0825 -5.4375 8.125 C-6.613125 8.08375 -7.78875 8.0425 -9 8 C-9.66 7.01 -10.32 6.02 -11 5 C-12.63495707 3.94895617 -14.29883624 2.94011682 -16 2 C-9.93104888 -2.04596741 -7.07172025 -2.35724008 0 0 Z " fill="#257F2E" transform="translate(551,413)"/>
<path d="M0 0 C5.36502819 1.49721717 9.47919407 3.32048479 12.3125 8.3125 C13.1522727 11.59524782 13 14.62083452 13 18 C13.87483915 20.16715557 13.87483915 20.16715557 15 22 C15.85874129 24.95788667 16.41232462 27.97766948 17 31 C16.01 31 15.02 31 14 31 C13.67 30.67 13.34 30.34 13 30 C12.505 31.485 12.505 31.485 12 33 C5.125 34 5.125 34 4 34 C3.01 36.475 3.01 36.475 2 39 C-0.375 38.75 -0.375 38.75 -3 38 C-3.66 36.68 -4.32 35.36 -5 34 C-7.97 34.66 -10.94 35.32 -14 36 C-14.33 37.32 -14.66 38.64 -15 40 C-14.67 40.33 -14.34 40.66 -14 41 C-13.76807135 42.51469448 -13.58784762 44.03754562 -13.4375 45.5625 C-13.35371094 46.38878906 -13.26992188 47.21507812 -13.18359375 48.06640625 C-13.12300781 48.70449219 -13.06242188 49.34257812 -13 50 C-13.99 50.66 -14.98 51.32 -16 52 C-18.83886132 49.43586719 -20.34599314 47.79323979 -21 44 C-21.33 43.67 -21.66 43.34 -22 43 C-22.66 43 -23.32 43 -24 43 C-24.6875 41.1875 -24.6875 41.1875 -25 39 C-23.6875 37.4375 -23.6875 37.4375 -22 36 C-21.34 35.01 -20.68 34.02 -20 33 C-19.34 33 -18.68 33 -18 33 C-17.77183594 32.35675781 -17.54367187 31.71351563 -17.30859375 31.05078125 C-16 29 -16 29 -13.72265625 28.35546875 C-12.84480469 28.30003906 -11.96695313 28.24460938 -11.0625 28.1875 C-9.74958984 28.08501953 -9.74958984 28.08501953 -8.41015625 27.98046875 C-6 28 -6 28 -3 29 C-3.20625 28.4225 -3.4125 27.845 -3.625 27.25 C-4.08661261 24.48032433 -3.42944945 23.35438733 -2 21 C-1.34 21 -0.68 21 0 21 C2.18108265 20.14388536 2.18108265 20.14388536 3.1875 17.875 C4.21433995 14.24156633 3.84324854 11.65407699 3 8 C2.34 7.67 1.68 7.34 1 7 C0.59270772 4.67843403 0.25561323 2.3431213 0 0 Z " fill="#257E2F" transform="translate(526,200)"/>
<path d="M0 0 C0.66 0 1.32 0 2 0 C1.67 1.32 1.34 2.64 1 4 C0.34 4 -0.32 4 -1 4 C-1.33 4.99 -1.66 5.98 -2 7 C-7.94 7 -13.88 7 -20 7 C-20 8.65 -20 10.3 -20 12 C-18.68 12.66 -17.36 13.32 -16 14 C-15.34 13.34 -14.68 12.68 -14 12 C-11.34462628 11.43479997 -8.70855287 11.26211802 -6 11 C-5.67 12.65 -5.34 14.3 -5 16 C-5.763125 15.938125 -6.52625 15.87625 -7.3125 15.8125 C-10.48780806 16.03403312 -10.95735659 16.71775032 -13 19 C-12.7834375 19.55429687 -12.566875 20.10859375 -12.34375 20.6796875 C-12.0653125 21.40414063 -11.786875 22.12859375 -11.5 22.875 C-11.08234375 23.95394531 -11.08234375 23.95394531 -10.65625 25.0546875 C-10 27 -10 27 -10 29 C-9.01 29.33 -8.02 29.66 -7 30 C-7.66 32.31 -8.32 34.62 -9 37 C-10.485 36.505 -10.485 36.505 -12 36 C-12 35.01 -12 34.02 -12 33 C-13.32 32.67 -14.64 32.34 -16 32 C-16.144375 31.401875 -16.28875 30.80375 -16.4375 30.1875 C-16.8872439 28.43849596 -17.42892341 26.71322977 -18 25 C-17.67 24.01 -17.34 23.02 -17 22 C-17.66 22.33 -18.32 22.66 -19 23 C-19.46954261 26.04581269 -19.46954261 26.04581269 -19.625 29.5625 C-19.69976562 30.76003906 -19.77453125 31.95757812 -19.8515625 33.19140625 C-19.90054687 34.11824219 -19.94953125 35.04507813 -20 36 C-22.475 36.495 -22.475 36.495 -25 37 C-24.67 33.37 -24.34 29.74 -24 26 C-24.99 26 -25.98 26 -27 26 C-26.47930262 21.10544462 -25.39048027 16.78544404 -23.75390625 12.14453125 C-23.11365389 10.32329527 -22.54843203 8.4759581 -22 6.625 C-20.94705805 3.86102739 -20.39451461 2.69481878 -18 1 C-15.2578125 1.21484375 -15.2578125 1.21484375 -12.125 1.9375 C-7.62587159 2.96925501 -5.15008791 3.14941829 -1 1 C-0.67 0.67 -0.34 0.34 0 0 Z " fill="#257E30" transform="translate(509,401)"/>
<path d="M0 0 C-0.33 0.99 -0.66 1.98 -1 3 C-4.48150713 3.99202207 -7.92701716 4.69786857 -11.47851562 5.37304688 C-18.82891217 6.89667634 -23.53648035 9.81974202 -28 16 C-26.9802693 19.77300358 -26.34127338 20.80206144 -22.875 22.8125 C-21.92625 23.204375 -20.9775 23.59625 -20 24 C-20 24.33 -20 24.66 -20 25 C-23.96 25 -27.92 25 -32 25 C-32 24.34 -32 23.68 -32 23 C-33.11375 22.896875 -34.2275 22.79375 -35.375 22.6875 C-37.169375 22.3471875 -37.169375 22.3471875 -39 22 C-39.66 21.01 -40.32 20.02 -41 19 C-40.01 19 -39.02 19 -38 19 C-38.33 18.01 -38.66 17.02 -39 16 C-37.1875 12.8125 -37.1875 12.8125 -35 10 C-34.34 10 -33.68 10 -33 10 C-33.33 8.68 -33.66 7.36 -34 6 C-27.37671239 3.47110837 -20.8225578 2.14505005 -13.85375977 1.00268555 C-3.1200945 -0.75894191 -3.1200945 -0.75894191 0 0 Z " fill="#257E2F" transform="translate(152,36)"/>
<path d="M0 0 C4.5067218 -0.17673419 7.96625544 -0.13551182 12 2 C12.33 2.66 12.66 3.32 13 4 C14.89533342 4.46523063 14.89533342 4.46523063 17.0625 4.625 C18.361875 4.74875 19.66125 4.8725 21 5 C21 4.34 21 3.68 21 3 C21.66386719 3.144375 22.32773437 3.28875 23.01171875 3.4375 C23.89472656 3.623125 24.77773438 3.80875 25.6875 4 C26.99267578 4.2784375 26.99267578 4.2784375 28.32421875 4.5625 C30.93712964 4.98972047 33.35813038 5.07616201 36 5 C36 5.66 36 6.32 36 7 C34.35 7 32.7 7 31 7 C31 7.66 31 8.32 31 9 C32.0725 8.95875 33.145 8.9175 34.25 8.875 C38.87156223 9.02905207 40.78438347 9.78438347 44 13 C40.12797097 14.31390188 36.32689146 14.00715958 32.3125 13.75 C31.59570068 13.70552734 30.87890137 13.66105469 30.14038086 13.61523438 C25.45298081 13.2627903 21.41075929 12.43120627 17.0234375 10.69140625 C14.07112666 9.68260506 11.14313441 9.49494251 8.04296875 9.30859375 C4.47578375 8.76976466 1.9738773 6.98258487 -1 5 C-0.67 3.35 -0.34 1.7 0 0 Z " fill="#257F2E" transform="translate(423,439)"/>
<path d="M0 0 C2.64 0 5.28 0 8 0 C10.66687625 9.53552155 10.66687625 9.53552155 8.5 13.8125 C6.65366816 16.8747485 6.65366816 16.8747485 7.6875 19.875 C8.82351119 22.13090947 8.82351119 22.13090947 11 23 C11 22.34 11 21.68 11 21 C12.48117801 21.28127421 13.95993249 21.57533732 15.4375 21.875 C16.26121094 22.03742188 17.08492188 22.19984375 17.93359375 22.3671875 C18.61550781 22.57601563 19.29742187 22.78484375 20 23 C20.33 23.66 20.66 24.32 21 25 C20.01 25 19.02 25 18 25 C18.66 26.65 19.32 28.3 20 30 C19.319375 29.54625 18.63875 29.0925 17.9375 28.625 C14.67690696 26.82126768 11.60356658 25.91727149 8 25 C7.195625 24.79375 6.39125 24.5875 5.5625 24.375 C5.046875 24.25125 4.53125 24.1275 4 24 C4 23.01 4 22.02 4 21 C3.38125 20.814375 2.7625 20.62875 2.125 20.4375 C-1.05602866 18.28562767 -1.19451947 15.62466237 -2 12 C-1.34 11.67 -0.68 11.34 0 11 C0 7.37 0 3.74 0 0 Z " fill="#257E2F" transform="translate(482,315)"/>
<path d="M0 0 C1.8125 0.5 1.8125 0.5 4 2 C6.02846155 5.63977979 7.12138444 8.8347094 6.6875 13 C6.460625 13.66 6.23375 14.32 6 15 C5.01 14.67 4.02 14.34 3 14 C3 15.98 3 17.96 3 20 C-0.57575896 20 -2.05295935 18.91159393 -5 17 C-4.67 15.02 -4.34 13.04 -4 11 C-4.969375 11.185625 -5.93875 11.37125 -6.9375 11.5625 C-7.948125 11.706875 -8.95875 11.85125 -10 12 C-10.33 11.67 -10.66 11.34 -11 11 C-11.33 11.99 -11.66 12.98 -12 14 C-12.66 14 -13.32 14 -14 14 C-14 12.35 -14 10.7 -14 9 C-12.68 8.67 -11.36 8.34 -10 8 C-10 7.34 -10 6.68 -10 6 C-9.01 5.67 -8.02 5.34 -7 5 C-6.34 5.66 -5.68 6.32 -5 7 C-2.47411298 4.63707344 -1.11179163 3.33537489 0 0 Z " fill="#257D30" transform="translate(509,360)"/>
<path d="M0 0 C2.42351283 0.938134 4.81121194 1.91055611 7.16015625 3.0234375 C12.80821471 5.75964201 12.80821471 5.75964201 19 6 C19 6.66 19 7.32 19 8 C19.66 8 20.32 8 21 8 C21.33 9.32 21.66 10.64 22 12 C20.35 12.33 18.7 12.66 17 13 C17 14.32 17 15.64 17 17 C15.9790625 16.7834375 15.9790625 16.7834375 14.9375 16.5625 C11.63026704 15.92920007 8.34565395 15.38603699 5 15 C4.67 15.33 4.34 15.66 4 16 C5.65 16.33 7.3 16.66 9 17 C8.67 17.66 8.34 18.32 8 19 C7.01 19.33 6.02 19.66 5 20 C5 19.01 5 18.02 5 17 C4.01 16.67 3.02 16.34 2 16 C2 14.35 2 12.7 2 11 C2.99 11 3.98 11 5 11 C4.72285156 10.45730469 4.44570313 9.91460937 4.16015625 9.35546875 C3.79792969 8.64003906 3.43570313 7.92460937 3.0625 7.1875 C2.70285156 6.47980469 2.34320312 5.77210938 1.97265625 5.04296875 C1 3 1 3 0 0 Z " fill="#257F2E" transform="translate(518,179)"/>
<path d="M0 0 C0.66 0 1.32 0 2 0 C2 0.66 2 1.32 2 2 C2.99 2.33 3.98 2.66 5 3 C6.38671875 4.890625 6.38671875 4.890625 7.6875 7.25 C8.12449219 8.01828125 8.56148438 8.7865625 9.01171875 9.578125 C10.11395024 12.27924564 10.31678051 14.10998704 10 17 C8.25 18.8125 8.25 18.8125 6 20 C4.68 20 3.36 20 2 20 C0.19320413 15.37630977 -0.21839082 11.57471347 -0.125 6.625 C-0.10695313 5.37976563 -0.08890625 4.13453125 -0.0703125 2.8515625 C-0.04710937 1.91054688 -0.02390625 0.96953125 0 0 Z " fill="#257E2F" transform="translate(306,359)"/>
<path d="M0 0 C2.19548503 0.77303789 2.19548503 0.77303789 4.921875 1.12109375 C7.85104345 1.87430849 9.15636396 3.44124774 11.109375 5.68359375 C3.20506703 5.94275139 -4.35225755 5.1963829 -11.890625 2.68359375 C-13.89024064 2.6443856 -15.89111864 2.63916028 -17.890625 2.68359375 C-17.560625 1.03359375 -17.230625 -0.61640625 -16.890625 -2.31640625 C-11.02979624 -4.34515467 -5.57194819 -1.95392143 0 0 Z " fill="#257D30" transform="translate(221.890625,23.31640625)"/>
<path d="M0 0 C2.27057377 -0.05398987 4.54151288 -0.09278742 6.8125 -0.125 C8.07707031 -0.14820313 9.34164063 -0.17140625 10.64453125 -0.1953125 C14 0 14 0 17 2 C17.804375 1.835 18.60875 1.67 19.4375 1.5 C22.43500803 0.91512038 23.47031315 1.4072342 26 3 C22.55126692 6.44873308 17.55542251 5.90102418 12.8671875 6.11328125 C7.8305318 5.96574285 4.22452059 4.66751571 0 2 C0 1.34 0 0.68 0 0 Z " fill="#257E2F" transform="translate(359,39)"/>
<path d="M0 0 C1.32 0.33 2.64 0.66 4 1 C4.2358396 6.77807024 3.86783046 11.51324804 2 17 C-0.55893347 14.85379773 -1.87166015 13.38501956 -2.9375 10.1875 C-3.01916901 6.02238062 -1.85289791 3.70579583 0 0 Z " fill="#257D31" transform="translate(478,281)"/>
<path d="M0 0 C5.75 1.625 5.75 1.625 8 5 C8.66 4.67 9.32 4.34 10 4 C9.49287967 7.71888239 8.88391785 10.73454239 7 14 C5.68 13.34 4.36 12.68 3 12 C3.33 10.68 3.66 9.36 4 8 C2.68 7.67 1.36 7.34 0 7 C0 4.69 0 2.38 0 0 Z " fill="#257D31" transform="translate(493,349)"/>
<path d="M0 0 C-1.45454545 6.54545455 -1.45454545 6.54545455 -3.875 8.5625 C-6.59179035 9.12183919 -7.70962813 8.47238192 -10 7 C-10.125 4.625 -10.125 4.625 -10 2 C-6.80505194 -1.19494806 -4.22040044 -1.35655728 0 0 Z " fill="#257F2E" transform="translate(439,308)"/>
<path d="M0 0 C0 0.99 0 1.98 0 3 C-0.61488281 3.25394531 -1.22976563 3.50789063 -1.86328125 3.76953125 C-2.67152344 4.11371094 -3.47976563 4.45789063 -4.3125 4.8125 C-5.11300781 5.14894531 -5.91351563 5.48539062 -6.73828125 5.83203125 C-8.98178882 6.99059561 -10.25555888 8.21591249 -12 10 C-14.6875 10.6875 -14.6875 10.6875 -17 11 C-15.8125 8.0625 -15.8125 8.0625 -14 5 C-11.3125 4.125 -11.3125 4.125 -9 4 C-9 3.34 -9 2.68 -9 2 C-6.03 1.34 -3.06 0.68 0 0 Z " fill="#257E2F" transform="translate(517,451)"/>
<path d="M0 0 C1.93784265 0.14120714 3.87526955 0.28812873 5.8125 0.4375 C7.43091797 0.55931641 7.43091797 0.55931641 9.08203125 0.68359375 C12 1 12 1 15 2 C15 2.66 15 3.32 15 4 C10.38 4.33 5.76 4.66 1 5 C0.67 3.35 0.34 1.7 0 0 Z " fill="#257D30" transform="translate(235,27)"/>
<path d="M0 0 C1.98 0 3.96 0 6 0 C5.67 1.65 5.34 3.3 5 5 C4.01 5 3.02 5 2 5 C1.67 5.99 1.34 6.98 1 8 C-2.875 6.25 -2.875 6.25 -4 4 C-3.34 3.01 -2.68 2.02 -2 1 C-1.34 1.33 -0.68 1.66 0 2 C0 1.34 0 0.68 0 0 Z " fill="#257E2F" transform="translate(516,235)"/>
<path d="M0 0 C1.65 0 3.3 0 5 0 C5.66 2.31 6.32 4.62 7 7 C6.34 7 5.68 7 5 7 C5.66 8.65 6.32 10.3 7 12 C5.68 12 4.36 12 3 12 C3 10.68 3 9.36 3 8 C2.34 8 1.68 8 1 8 C1.20625 7.236875 1.4125 6.47375 1.625 5.6875 C2.33391203 2.78114056 2.33391203 2.78114056 0 0 Z " fill="#257C32" transform="translate(503,346)"/>
<path d="M0 0 C2.97 0.495 2.97 0.495 6 1 C6 1.99 6 2.98 6 4 C4.2300132 4.19532961 2.45895721 4.38098882 0.6875 4.5625 C-0.29863281 4.66691406 -1.28476562 4.77132813 -2.30078125 4.87890625 C-5 5 -5 5 -8 4 C-8 3.01 -8 2.02 -8 1 C-5.36 1.33 -2.72 1.66 0 2 C0 1.34 0 0.68 0 0 Z " fill="#257E2F" transform="translate(476,450)"/>
<path d="M0 0 C2.475 0.99 2.475 0.99 5 2 C4.835 2.598125 4.67 3.19625 4.5 3.8125 C3.8885876 6.11344336 3.8885876 6.11344336 4 9 C3.01 8.67 2.02 8.34 1 8 C1.33 9.65 1.66 11.3 2 13 C0 12 0 12 -0.625 10.375 C-1.1235825 7.21731083 -1.12039087 4.19035805 -1 1 C-0.67 0.67 -0.34 0.34 0 0 Z " fill="#257D31" transform="translate(522,399)"/>
<path d="M0 0 C0.8125 2.125 0.8125 2.125 1 4 C-0.2684375 3.5359375 -0.2684375 3.5359375 -1.5625 3.0625 C-5.0497854 1.98461179 -8.38177535 1.43418696 -12 1 C-12 0.34 -12 -0.32 -12 -1 C-7.40328841 -1.901316 -4.10637637 -2.53629129 0 0 Z " fill="#257E30" transform="translate(535,425)"/>
<path d="M0 0 C2.27141109 0.11402064 4.54214552 0.24158505 6.8125 0.375 C8.07707031 0.44460937 9.34164063 0.51421875 10.64453125 0.5859375 C14 1 14 1 17 3 C5.47835991 3.3690205 5.47835991 3.3690205 0 1 C0 0.67 0 0.34 0 0 Z " fill="#257C32" transform="translate(388,41)"/>
<path d="M0 0 C1.64666203 0.1135629 3.29236082 0.24117381 4.9375 0.375 C5.85402344 0.44460938 6.77054687 0.51421875 7.71484375 0.5859375 C8.84599609 0.79089844 8.84599609 0.79089844 10 1 C10.33 1.66 10.66 2.32 11 3 C6.6835078 3.76173392 3.25566547 4.16063604 -1 3 C-0.67 2.01 -0.34 1.02 0 0 Z " fill="#257E2F" transform="translate(486,451)"/>
<path d="M0 0 C1.98 0 3.96 0 6 0 C6.66 1.32 7.32 2.64 8 4 C4.23312136 4 3.08809695 3.76462683 0 2 C0 1.34 0 0.68 0 0 Z " fill="#257B33" transform="translate(481,457)"/>
<path d="M0 0 C0.99 0.33 1.98 0.66 3 1 C3 2.98 3 4.96 3 7 C1.68 7 0.36 7 -1 7 C-0.67 4.69 -0.34 2.38 0 0 Z " fill="#1B4D68" transform="translate(503,353)"/>
<path d="M0 0 C1.65 0 3.3 0 5 0 C5.33 1.65 5.66 3.3 6 5 C5.01 5.33 4.02 5.66 3 6 C2.01 4.02 1.02 2.04 0 0 Z " fill="#257E30" transform="translate(485,341)"/>
<path d="M0 0 C0.71285156 0.17144531 1.42570312 0.34289063 2.16015625 0.51953125 C3.9375 1.1875 3.9375 1.1875 4.9375 3.1875 C1.3075 2.8575 -2.3225 2.5275 -6.0625 2.1875 C-6.0625 1.5275 -6.0625 0.8675 -6.0625 0.1875 C-3.55328542 -1.06710729 -2.67419775 -0.67461613 0 0 Z " fill="#257C31" transform="translate(388.0625,47.8125)"/>
<path d="M0 0 C1.65 0 3.3 0 5 0 C4.34 1.98 3.68 3.96 3 6 C2.01 5.67 1.02 5.34 0 5 C0 3.33333333 0 1.66666667 0 0 Z " fill="#23723E" transform="translate(497,432)"/>
<path d="M0 0 C0.33 0.99 0.66 1.98 1 3 C0 4 0 4 -3.0625 4.0625 C-4.5165625 4.0315625 -4.5165625 4.0315625 -6 4 C-6 3.34 -6 2.68 -6 2 C-4.02 1.34 -2.04 0.68 0 0 Z " fill="#257F2E" transform="translate(92,229)"/>
<path d="M0 0 C1.65 0 3.3 0 5 0 C5.33 0.99 5.66 1.98 6 3 C4.68 3.33 3.36 3.66 2 4 C1.34 2.68 0.68 1.36 0 0 Z " fill="#267F2E" transform="translate(514,425)"/>
<path d="M0 0 C0.66 0 1.32 0 2 0 C2 1.65 2 3.3 2 5 C0.02 5.99 0.02 5.99 -2 7 C-1.34 4.69 -0.68 2.38 0 0 Z " fill="#247A34" transform="translate(551,437)"/>
</svg>
