<?xml version="1.0" encoding="UTF-8"?>
<svg version="1.1" xmlns="http://www.w3.org/2000/svg" width="640" height="480">
<path d="M0 0 C211.2 0 422.4 0 640 0 C640 158.4 640 316.8 640 480 C428.8 480 217.6 480 0 480 C0 321.6 0 163.2 0 0 Z " fill="#16308A" transform="translate(0,0)"/>
<path d="M0 0 C1.34771484 -0.00386719 1.34771484 -0.00386719 2.72265625 -0.0078125 C4.9375 0.125 4.9375 0.125 5.9375 1.125 C7.45678038 1.19679964 8.97917482 1.20892007 10.5 1.1875 C11.32628906 1.17847656 12.15257812 1.16945312 13.00390625 1.16015625 C13.96103516 1.14275391 13.96103516 1.14275391 14.9375 1.125 C15.4325 3.105 15.4325 3.105 15.9375 5.125 C17.2575 5.125 18.5775 5.125 19.9375 5.125 C19.9375 5.785 19.9375 6.445 19.9375 7.125 C21.5875 7.125 23.2375 7.125 24.9375 7.125 C25.4325 9.105 25.4325 9.105 25.9375 11.125 C26.67355469 11.29515625 27.40960938 11.4653125 28.16796875 11.640625 C33.75430074 13.02798354 37.57574775 14.24788689 41.9375 18.125 C45.62677027 19.9348307 49.12659282 21.20782189 53.125 22.0625 C57.22560997 23.20529294 58.12295604 24.13454704 60.9375 27.125 C62.91620254 28.20887528 64.9384556 29.15478528 66.98046875 30.11328125 C69.57404579 31.45407257 71.6702511 33.29860505 73.9375 35.125 C76.11964568 35.90333534 76.11964568 35.90333534 77.9375 36.125 C77.9375 35.465 77.9375 34.805 77.9375 34.125 C81.4025 33.63 81.4025 33.63 84.9375 33.125 C84.9375 33.785 84.9375 34.445 84.9375 35.125 C85.67355469 34.980625 86.40960938 34.83625 87.16796875 34.6875 C88.14378906 34.501875 89.11960938 34.31625 90.125 34.125 C91.56939453 33.8465625 91.56939453 33.8465625 93.04296875 33.5625 C95.7309206 33.15622388 98.22521019 33.04566428 100.9375 33.125 C100.9375 33.785 100.9375 34.445 100.9375 35.125 C103.80474686 34.55155063 104.7989515 34.2635485 106.9375 32.125 C107.34742188 32.69089844 107.75734375 33.25679687 108.1796875 33.83984375 C108.71851563 34.57332031 109.25734375 35.30679688 109.8125 36.0625 C110.34617188 36.79339844 110.87984375 37.52429688 111.4296875 38.27734375 C112.81762104 40.23598235 112.81762104 40.23598235 114.9375 41.125 C115.2675 39.805 115.5975 38.485 115.9375 37.125 C116.2675 38.445 116.5975 39.765 116.9375 41.125 C117.67355469 41.01800781 118.40960938 40.91101563 119.16796875 40.80078125 C127.21734344 39.81188845 127.21734344 39.81188845 130.8125 41.375 C131.51375 41.9525 132.215 42.53 132.9375 43.125 C137.56155813 46.25066996 141.98765109 47.17429925 147.390625 48.28125 C148.23109375 48.5596875 149.0715625 48.838125 149.9375 49.125 C150.2675 50.115 150.5975 51.105 150.9375 52.125 C149.9475 52.455 148.9575 52.785 147.9375 53.125 C147.6075 53.785 147.2775 54.445 146.9375 55.125 C148.19046875 55.10179687 149.4434375 55.07859375 150.734375 55.0546875 C152.3854107 55.03592573 154.03645285 55.01772597 155.6875 55 C156.5125 54.98324219 157.3375 54.96648437 158.1875 54.94921875 C158.98671875 54.94277344 159.7859375 54.93632813 160.609375 54.9296875 C161.3425293 54.91921387 162.07568359 54.90874023 162.83105469 54.89794922 C165.23646076 55.15722456 166.85001494 55.93274075 168.9375 57.125 C168.9375 57.785 168.9375 58.445 168.9375 59.125 C169.9275 59.455 170.9175 59.785 171.9375 60.125 C172.625 62.1875 172.625 62.1875 172.9375 64.125 C173.93185406 61.03145403 173.81590996 59.22220845 172.9375 56.125 C174.20112492 55.56672391 175.4737919 55.02887903 176.75 54.5 C177.81154297 54.04753906 177.81154297 54.04753906 178.89453125 53.5859375 C179.56871094 53.43382812 180.24289062 53.28171875 180.9375 53.125 C181.9275 53.785 182.9175 54.445 183.9375 55.125 C189.19252121 57.09563295 193.62157612 57.18584915 199.203125 57.0625 C203.03225348 57.15002294 206.28113388 58.02119136 209.9375 59.125 C209.9375 58.135 209.9375 57.145 209.9375 56.125 C208.6175 56.125 207.2975 56.125 205.9375 56.125 C205.9375 55.465 205.9375 54.805 205.9375 54.125 C206.9275 53.795 207.9175 53.465 208.9375 53.125 C209.5975 53.455 210.2575 53.785 210.9375 54.125 C210.9375 54.785 210.9375 55.445 210.9375 56.125 C211.5975 56.125 212.2575 56.125 212.9375 56.125 C212.9375 57.775 212.9375 59.425 212.9375 61.125 C214.2575 61.125 215.5775 61.125 216.9375 61.125 C216.6075 59.475 216.2775 57.825 215.9375 56.125 C216.7625 55.733125 217.5875 55.34125 218.4375 54.9375 C219.2625 54.339375 220.0875 53.74125 220.9375 53.125 C221.35530879 50.49805578 221.35530879 50.49805578 220.9375 48.125 C221.5975 48.125 222.2575 48.125 222.9375 48.125 C222.9375 47.465 222.9375 46.805 222.9375 46.125 C219.9675 45.795 216.9975 45.465 213.9375 45.125 C213.9375 44.465 213.9375 43.805 213.9375 43.125 C213.2775 43.125 212.6175 43.125 211.9375 43.125 C211.64453125 37.0703125 211.64453125 37.0703125 211.9375 35.125 C214.9375 33.125 214.9375 33.125 217.9375 32.125 C222.62251224 33.88187959 224.75215264 35.639287 226.9375 40.125 C227.2675 40.785 227.5975 41.445 227.9375 42.125 C227.2775 42.125 226.6175 42.125 225.9375 42.125 C225.9375 43.115 225.9375 44.105 225.9375 45.125 C227.9175 45.455 229.8975 45.785 231.9375 46.125 C232.2675 48.435 232.5975 50.745 232.9375 53.125 C233.5975 53.125 234.2575 53.125 234.9375 53.125 C235.2675 51.475 235.5975 49.825 235.9375 48.125 C237.4225 47.63 237.4225 47.63 238.9375 47.125 C238.9375 47.785 238.9375 48.445 238.9375 49.125 C239.9275 49.455 240.9175 49.785 241.9375 50.125 C241.6075 52.435 241.2775 54.745 240.9375 57.125 C242.5875 57.455 244.2375 57.785 245.9375 58.125 C245.9375 56.475 245.9375 54.825 245.9375 53.125 C247.2575 53.455 248.5775 53.785 249.9375 54.125 C249.9375 52.805 249.9375 51.485 249.9375 50.125 C250.5975 50.125 251.2575 50.125 251.9375 50.125 C251.6075 49.526875 251.2775 48.92875 250.9375 48.3125 C249.9375 46.125 249.9375 46.125 249.9375 43.125 C259.12369583 42.81360353 259.12369583 42.81360353 262.9375 45.125 C263.75 47.25 263.75 47.25 263.9375 49.125 C262.9475 49.125 261.9575 49.125 260.9375 49.125 C261.411875 49.8675 261.88625 50.61 262.375 51.375 C264.86089261 55.750171 264.86089261 55.750171 264.9375 58.125 C263.25 60.375 263.25 60.375 260.9375 62.125 C259.6175 62.125 258.2975 62.125 256.9375 62.125 C256.9375 61.465 256.9375 60.805 256.9375 60.125 C256.2775 60.455 255.6175 60.785 254.9375 61.125 C254.9375 62.115 254.9375 63.105 254.9375 64.125 C250.9775 63.63 250.9775 63.63 246.9375 63.125 C246.9375 63.785 246.9375 64.445 246.9375 65.125 C247.5975 65.125 248.2575 65.125 248.9375 65.125 C248.2775 66.775 247.6175 68.425 246.9375 70.125 C243.6375 69.795 240.3375 69.465 236.9375 69.125 C239.94367269 72.13117269 242.76131598 71.72085316 246.9375 72.125 C244.6428608 76.97904447 244.6428608 76.97904447 242.9375 79.125 C239.75 79.9375 239.75 79.9375 236.9375 80.125 C236.6075 80.785 236.2775 81.445 235.9375 82.125 C234.3329444 81.98351011 232.72886233 81.83664314 231.125 81.6875 C229.78501953 81.56568359 229.78501953 81.56568359 228.41796875 81.44140625 C225.9375 81.125 225.9375 81.125 222.9375 80.125 C222.9375 80.785 222.9375 81.445 222.9375 82.125 C224.195625 82.269375 225.45375 82.41375 226.75 82.5625 C229.36417123 82.86248686 231.41189892 83.28313297 233.9375 84.125 C233.6075 85.115 233.2775 86.105 232.9375 87.125 C231.2875 87.125 229.6375 87.125 227.9375 87.125 C227.793125 87.74375 227.64875 88.3625 227.5 89 C226.9375 91.125 226.9375 91.125 225.9375 93.125 C225.2775 93.125 224.6175 93.125 223.9375 93.125 C222.1737764 99.78056077 220.59715039 106.26463599 219.9375 113.125 C221.9175 113.125 223.8975 113.125 225.9375 113.125 C228.13482813 117.06187957 229.12095639 119.63796237 228.9375 124.125 C229.5665625 124.01800781 230.195625 123.91101563 230.84375 123.80078125 C237.21189998 122.90885663 241.14536471 123.27974056 246.9375 126.125 C247.42476563 126.62257813 247.91203125 127.12015625 248.4140625 127.6328125 C253.94142784 133.04679599 263.72944799 132.7713054 270.9375 133.125 C273.08035714 140.55357143 273.08035714 140.55357143 273.9375 144.125 C275.5875 144.455 277.2375 144.785 278.9375 145.125 C278.6075 145.785 278.2775 146.445 277.9375 147.125 C276.9475 146.795 275.9575 146.465 274.9375 146.125 C274.9375 147.445 274.9375 148.765 274.9375 150.125 C276.5875 150.785 278.2375 151.445 279.9375 152.125 C279.9375 153.445 279.9375 154.765 279.9375 156.125 C281.5875 156.125 283.2375 156.125 284.9375 156.125 C284.9375 155.465 284.9375 154.805 284.9375 154.125 C285.9275 154.125 286.9175 154.125 287.9375 154.125 C288.3476374 147.42608916 286.66782446 143.00887409 283.25 137.3125 C281.9375 135.125 281.9375 135.125 281.9375 133.125 C283.0203125 132.50625 283.0203125 132.50625 284.125 131.875 C287.70329726 129.64850393 289.68282606 127.70595273 291.9375 124.125 C292.38007026 120.86607354 292.0841396 118.20730349 290.9375 115.125 C288.71593747 112.4090435 286.07831327 110.69540663 282.9375 109.125 C283.5975 106.815 284.2575 104.505 284.9375 102.125 C285.5975 102.125 286.2575 102.125 286.9375 102.125 C286.298125 100.990625 285.65875 99.85625 285 98.6875 C282.73987891 94.22316188 282.16687207 90.07943682 281.9375 85.125 C282.82953125 85.06441406 283.7215625 85.00382812 284.640625 84.94140625 C285.81109375 84.85761719 286.9815625 84.77382812 288.1875 84.6875 C289.34765625 84.60628906 290.5078125 84.52507812 291.703125 84.44140625 C294.79824384 84.23248672 294.79824384 84.23248672 297.16015625 83.5078125 C300.25213166 82.84184857 302.34700802 84.57070481 304.9375 86.125 C305.2675 86.785 305.5975 87.445 305.9375 88.125 C308.06326782 88.59151207 308.06326782 88.59151207 310.5 88.75 C311.32628906 88.82476562 312.15257812 88.89953125 313.00390625 88.9765625 C313.96103516 89.05003906 313.96103516 89.05003906 314.9375 89.125 C315.13267554 91.06174185 315.31837873 92.99944009 315.5 94.9375 C315.60441406 96.01644531 315.70882813 97.09539062 315.81640625 98.20703125 C315.9375 101.125 315.9375 101.125 314.9375 104.125 C315.5975 104.125 316.2575 104.125 316.9375 104.125 C317.2675 103.135 317.5975 102.145 317.9375 101.125 C320.00586418 101.64209105 321.9580679 102.13335571 323.9375 102.9375 C326.0671156 103.33978786 326.0671156 103.33978786 328.0625 101.8125 C330.793721 97.8977499 331.26119564 93.78794057 331.9375 89.125 C335.7009889 90.3794963 337.32806445 92.17221767 339.9375 95.125 C340.1025 95.846875 340.2675 96.56875 340.4375 97.3125 C340.6025 97.910625 340.7675 98.50875 340.9375 99.125 C343.42784386 100.42160434 343.42784386 100.42160434 345.9375 101.125 C345.9375 102.115 345.9375 103.105 345.9375 104.125 C346.5975 104.125 347.2575 104.125 347.9375 104.125 C348.2675 106.435 348.5975 108.745 348.9375 111.125 C349.535625 111.269375 350.13375 111.41375 350.75 111.5625 C352.49900404 112.0122439 354.22427023 112.55392341 355.9375 113.125 C355.9375 114.115 355.9375 115.105 355.9375 116.125 C360.2275 116.125 364.5175 116.125 368.9375 116.125 C368.9375 116.785 368.9375 117.445 368.9375 118.125 C369.5975 118.455 370.2575 118.785 370.9375 119.125 C370.9375 120.445 370.9375 121.765 370.9375 123.125 C371.5975 123.125 372.2575 123.125 372.9375 123.125 C372.9375 122.465 372.9375 121.805 372.9375 121.125 C374.5875 121.455 376.2375 121.785 377.9375 122.125 C380.25322838 129.43782647 380.25322838 129.43782647 378.875 132.4375 C373.49305556 137.125 373.49305556 137.125 369.9375 137.125 C369.628125 138.48625 369.628125 138.48625 369.3125 139.875 C367.55104868 144.0384304 365.95686703 145.11531649 361.9375 147.125 C359.94615882 147.4410859 357.95068655 147.75411725 355.94140625 147.921875 C352.80021723 148.24028012 349.93613688 149.16115243 346.9375 150.125 C346.21820313 150.32996094 345.49890625 150.53492188 344.7578125 150.74609375 C342.27462482 151.47580176 342.27462482 151.47580176 338.9375 153.125 C338.19225806 155.60108101 338.19225806 155.60108101 337.9375 158.125 C336.29416496 159.16289581 334.62506133 160.16067924 332.9375 161.125 C331.91445052 162.77761839 330.91133946 164.44291365 329.9375 166.125 C328.9475 166.455 327.9575 166.785 326.9375 167.125 C327.5975 167.455 328.2575 167.785 328.9375 168.125 C326.3226719 173.55579682 323.99616106 177.62285003 318.9375 181.125 C318.2775 181.125 317.6175 181.125 316.9375 181.125 C316.64875 181.888125 316.36 182.65125 316.0625 183.4375 C314.9375 186.125 314.9375 186.125 312.9375 189.125 C316.18599977 187.40273504 316.18599977 187.40273504 316.9375 184.125 C318.60416667 182.79166667 320.27083333 181.45833333 321.9375 180.125 C325.2306884 176.73673267 327.95063035 173.21468033 330.3125 169.125 C333.29586764 164.13976353 337.7059744 159.7407628 342.9375 157.125 C345.2704866 157.08477609 347.60456666 157.08179753 349.9375 157.125 C350.2675 158.445 350.5975 159.765 350.9375 161.125 C349.2875 162.445 347.6375 163.765 345.9375 165.125 C347.2575 165.125 348.5775 165.125 349.9375 165.125 C350.06125 165.888125 350.185 166.65125 350.3125 167.4375 C351.04375054 170.5818773 351.98971059 172.50275565 354.734375 174.3046875 C357.35531421 175.28056912 359.39883092 175.32338603 362.1875 175.25 C363.07953125 175.23195312 363.9715625 175.21390625 364.890625 175.1953125 C365.56609375 175.17210937 366.2415625 175.14890625 366.9375 175.125 C367.081875 174.01125 367.22625 172.8975 367.375 171.75 C367.9375 168.125 367.9375 168.125 368.9375 166.125 C369.5975 166.125 370.2575 166.125 370.9375 166.125 C370.9375 167.115 370.9375 168.105 370.9375 169.125 C371.9275 169.125 372.9175 169.125 373.9375 169.125 C373.2775 170.775 372.6175 172.425 371.9375 174.125 C371.2775 174.125 370.6175 174.125 369.9375 174.125 C369.9065625 174.99125 369.9065625 174.99125 369.875 175.875 C368.34194461 179.55433295 365.45351757 180.39783347 361.9375 182.125 C361.2775 182.125 360.6175 182.125 359.9375 182.125 C359.6075 182.785 359.2775 183.445 358.9375 184.125 C357.94442179 185.46349671 356.94392948 186.79651309 355.9375 188.125 C355.2775 189.115 354.6175 190.105 353.9375 191.125 C352.6175 190.795 351.2975 190.465 349.9375 190.125 C349.6875 187.875 349.6875 187.875 349.9375 185.125 C352.23869637 182.24850453 354.5653951 180.57018781 357.9375 179.125 C356.9475 179.125 355.9575 179.125 354.9375 179.125 C354.6075 178.465 354.2775 177.805 353.9375 177.125 C353.31875 177.785 352.7 178.445 352.0625 179.125 C349.9375 181.125 349.9375 181.125 347.9375 181.125 C347.9375 181.785 347.9375 182.445 347.9375 183.125 C346.6175 183.125 345.2975 183.125 343.9375 183.125 C343.9375 184.445 343.9375 185.765 343.9375 187.125 C340.4725 188.115 340.4725 188.115 336.9375 189.125 C336.9375 190.115 336.9375 191.105 336.9375 192.125 C335.2875 192.785 333.6375 193.445 331.9375 194.125 C331.88312393 195.70794782 331.84453729 197.29144256 331.8125 198.875 C331.77769531 200.19757813 331.77769531 200.19757813 331.7421875 201.546875 C331.94610498 204.2385858 332.57198279 205.82404974 333.9375 208.125 C332.2875 208.125 330.6375 208.125 328.9375 208.125 C328.9375 209.115 328.9375 210.105 328.9375 211.125 C325.6375 212.115 322.3375 213.105 318.9375 214.125 C318.9684375 216.2596875 318.9684375 216.2596875 319 218.4375 C319.04331883 221.42649956 318.89820434 223.24288698 317.9375 226.125 C316.2875 225.795 314.6375 225.465 312.9375 225.125 C313.453125 225.66125 313.96875 226.1975 314.5 226.75 C315.9375 229.125 315.9375 229.125 315.625 232.375 C315.2846875 233.73625 315.2846875 233.73625 314.9375 235.125 C313 234 313 234 310.9375 232.125 C310.1875 228.9375 310.1875 228.9375 309.9375 226.125 C309.9375 228.435 309.9375 230.745 309.9375 233.125 C308.9475 232.795 307.9575 232.465 306.9375 232.125 C306.6075 232.785 306.2775 233.445 305.9375 234.125 C307.5875 234.455 309.2375 234.785 310.9375 235.125 C310.9375 237.105 310.9375 239.085 310.9375 241.125 C311.9275 241.455 312.9175 241.785 313.9375 242.125 C313.9375 243.445 313.9375 244.765 313.9375 246.125 C313.2775 246.455 312.6175 246.785 311.9375 247.125 C312.9275 247.785 313.9175 248.445 314.9375 249.125 C314.9375 249.785 314.9375 250.445 314.9375 251.125 C313.9475 251.125 312.9575 251.125 311.9375 251.125 C312.2675 252.445 312.5975 253.765 312.9375 255.125 C312.31875 255.3725 311.7 255.62 311.0625 255.875 C308.80003506 256.94643729 308.80003506 256.94643729 307.9375 259.125 C306.9375 261.125 306.9375 261.125 304.9375 262.0625 C302.18763332 263.52336667 301.84916696 265.23805462 300.9375 268.125 C300.2775 268.125 299.6175 268.125 298.9375 268.125 C298.6075 269.115 298.2775 270.105 297.9375 271.125 C297.2775 271.125 296.6175 271.125 295.9375 271.125 C295.628125 271.929375 295.31875 272.73375 295 273.5625 C293.9375 276.125 293.9375 276.125 292.9375 277.125 C291.6414099 286.62966073 297.04312993 296.25904811 301.9375 304.125 C303.4496867 307.14937339 303.11013369 309.78741534 302.9375 313.125 C301.9375 315.5625 301.9375 315.5625 300.9375 317.125 C298.9375 317.125 298.9375 317.125 297.4296875 315.69921875 C296.89601563 315.07660156 296.36234375 314.45398438 295.8125 313.8125 C295.00425781 312.89017578 295.00425781 312.89017578 294.1796875 311.94921875 C292.9375 310.125 292.9375 310.125 292.9375 307.125 C291.9475 306.795 290.9575 306.465 289.9375 306.125 C288.12954568 302.0333139 287.72593778 298.56780672 287.9375 294.125 C287.339375 293.856875 286.74125 293.58875 286.125 293.3125 C283.96525192 292.14006533 282.57959744 290.93130718 280.9375 289.125 C280.36 289.475625 279.7825 289.82625 279.1875 290.1875 C276.51981777 291.29903426 275.59087601 291.1521133 272.9375 290.125 C271.9475 289.465 270.9575 288.805 269.9375 288.125 C267.36429652 287.80730451 267.36429652 287.80730451 264.5625 287.875 C263.62664062 287.86984375 262.69078125 287.8646875 261.7265625 287.859375 C258.78359616 288.13965751 256.64056539 288.97108637 253.9375 290.125 C251.125 290.25 251.125 290.25 248.9375 290.125 C249.9275 290.785 250.9175 291.445 251.9375 292.125 C251.9375 292.785 251.9375 293.445 251.9375 294.125 C251.2775 294.125 250.6175 294.125 249.9375 294.125 C249.9375 294.785 249.9375 295.445 249.9375 296.125 C247.9575 296.455 245.9775 296.785 243.9375 297.125 C243.2775 296.135 242.6175 295.145 241.9375 294.125 C240.34808594 294.25068359 240.34808594 294.25068359 238.7265625 294.37890625 C237.33856375 294.48206832 235.95054165 294.58491663 234.5625 294.6875 C233.86382812 294.74357422 233.16515625 294.79964844 232.4453125 294.85742188 C227.1640625 295.23828125 227.1640625 295.23828125 224.9375 294.125 C224.834375 294.90875 224.73125 295.6925 224.625 296.5 C223.9375 299.125 223.9375 299.125 220.9375 301.125 C219.9475 301.125 218.9575 301.125 217.9375 301.125 C217.9375 301.785 217.9375 302.445 217.9375 303.125 C217.2775 303.125 216.6175 303.125 215.9375 303.125 C213.84233752 308.49385385 213.24681294 313.15504562 214.5625 318.8125 C214.9375 321.125 214.9375 321.125 213.98413086 322.97558594 C212.08648339 326.87269075 212.52653633 331.11149606 212.5 335.375 C212.46712891 336.29152344 212.43425781 337.20804687 212.40039062 338.15234375 C212.3474846 344.89545746 213.91001317 348.79008275 217.9375 354.125 C218.9375 355.79166667 219.9375 357.45833333 220.9375 359.125 C223.19737714 362.51481571 224.27281169 362.75074188 227.9375 364.125 C228.5975 364.785 229.2575 365.445 229.9375 366.125 C232.38713177 366.14753443 232.38713177 366.14753443 235.0625 365.75 C235.97257812 365.63914062 236.88265625 365.52828125 237.8203125 365.4140625 C238.86832031 365.27097656 238.86832031 365.27097656 239.9375 365.125 C239.9375 364.465 239.9375 363.805 239.9375 363.125 C242.5775 363.455 245.2175 363.785 247.9375 364.125 C248.06125 363.568125 248.185 363.01125 248.3125 362.4375 C248.9375 360.125 248.9375 360.125 249.9375 357.875 C251.24355918 354.28333726 251.55102165 350.92537045 251.9375 347.125 C258.42093811 344.49403961 263.96080843 343.73174181 270.9375 344.125 C270.40784911 347.03807991 269.73673991 349.78632736 268.875 352.625 C268.05547592 355.68455656 267.74776325 357.99434356 267.9375 361.125 C266.9475 361.125 265.9575 361.125 264.9375 361.125 C264.96070313 362.01703125 264.98390625 362.9090625 265.0078125 363.828125 C265.02585937 364.99859375 265.04390625 366.1690625 265.0625 367.375 C265.08570313 368.53515625 265.10890625 369.6953125 265.1328125 370.890625 C264.9478949 373.95286046 264.54573023 375.56702751 262.9375 378.125 C266.17287338 379.13558283 268.76735606 379.11700982 272.125 378.75 C273.00542969 378.65976562 273.88585937 378.56953125 274.79296875 378.4765625 C276.91398853 378.34297825 276.91398853 378.34297825 277.9375 377.125 C285.23161765 376.88970588 285.23161765 376.88970588 288.9375 378.125 C288.9375 378.785 288.9375 379.445 288.9375 380.125 C290.5875 380.125 292.2375 380.125 293.9375 380.125 C295.05254584 386.28623869 294.73997117 391.86603606 294.16601562 398.07226562 C293.8595918 402.02055418 293.67682646 404.78554891 295.9375 408.125 C296.39125 408.99125 296.845 409.8575 297.3125 410.75 C299.05122638 413.29121548 300.18035546 413.93023737 302.9375 415.125 C303.2675 415.785 303.5975 416.445 303.9375 417.125 C306.93083105 417.89913734 308.91987253 418.37465983 311.9375 418.125 C313.71873935 417.10253975 313.71873935 417.10253975 315.3125 415.6875 C319.06919407 412.53222563 322.23373543 412.7008096 326.99609375 412.94921875 C327.63675781 413.00722656 328.27742188 413.06523437 328.9375 413.125 C328.9375 413.785 328.9375 414.445 328.9375 415.125 C329.576875 415.33125 330.21625 415.5375 330.875 415.75 C332.9375 417.125 332.9375 417.125 333.6875 420.25 C333.77 421.19875 333.8525 422.1475 333.9375 423.125 C333.2775 423.125 332.6175 423.125 331.9375 423.125 C331.9375 423.785 331.9375 424.445 331.9375 425.125 C330.9475 424.795 329.9575 424.465 328.9375 424.125 C327.9375 421.125 327.9375 421.125 328.9375 418.125 C325.92797523 417.54454659 323.00830418 417.06489529 319.9375 417.125 C317.93571137 418.92995431 317.93571137 418.92995431 316.9375 421.125 C316.2775 421.125 315.6175 421.125 314.9375 421.125 C315.9275 422.775 316.9175 424.425 317.9375 426.125 C316.6175 426.785 315.2975 427.445 313.9375 428.125 C313.6075 427.135 313.2775 426.145 312.9375 425.125 C311.6175 425.125 310.2975 425.125 308.9375 425.125 C308.9375 424.465 308.9375 423.805 308.9375 423.125 C304.9775 423.125 301.0175 423.125 296.9375 423.125 C296.2775 421.475 295.6175 419.825 294.9375 418.125 C292.48045238 416.89209799 292.48045238 416.89209799 289.9375 416.125 C289.2775 415.465 288.6175 414.805 287.9375 414.125 C287.9375 414.785 287.9375 415.445 287.9375 416.125 C286.01171875 415.87890625 286.01171875 415.87890625 283.9375 415.125 C283.20703125 413.33984375 283.20703125 413.33984375 282.75 411.0625 C281.2364939 405.67063453 278.13181673 403.20863306 273.80078125 399.8515625 C273.18589844 399.28179687 272.57101562 398.71203125 271.9375 398.125 C271.9375 397.135 271.9375 396.145 271.9375 395.125 C270.4215625 395.2178125 270.4215625 395.2178125 268.875 395.3125 C257.0223234 395.27016901 247.72078013 392.77378525 239.25 384.5 C238.486875 383.71625 237.72375 382.9325 236.9375 382.125 C235.1697188 380.17341514 235.1697188 380.17341514 232.9375 379.125 C229.611282 379.30319025 226.96030257 379.56047964 224.01953125 381.18359375 C220.1127511 382.95007408 216.02087127 382.00771945 211.9375 381.125 C208.4375 379.3125 208.4375 379.3125 206.7890625 378.23046875 C204.54707992 376.89190109 202.25758926 376.03740057 199.8125 375.125 C196.82237439 373.97841048 194.89499963 373.09079239 192.375 371.0625 C189.91884324 369.11017027 188.33042996 368.51258854 185.375 367.625 C181.55154289 366.45584369 179.56484025 365.22150815 176.9375 362.125 C176.07125 361.50625 175.205 360.8875 174.3125 360.25 C171.4589009 357.69677976 170.72771211 355.8389969 169.9375 352.125 C170.2675 351.135 170.5975 350.145 170.9375 349.125 C170.05097779 341.14630011 167.47607553 336.17129063 162.3984375 330.078125 C160.9375 328.125 160.9375 328.125 160.9375 326.125 C159.9475 325.795 158.9575 325.465 157.9375 325.125 C157.9375 324.135 157.9375 323.145 157.9375 322.125 C155.9575 321.465 153.9775 320.805 151.9375 320.125 C152.123125 318.5471875 152.123125 318.5471875 152.3125 316.9375 C152.34013494 313.26719408 152.34013494 313.26719408 150.6015625 311.6875 C150.05242187 311.275 149.50328125 310.8625 148.9375 310.4375 C147.9475 309.674375 146.9575 308.91125 145.9375 308.125 C145.9375 306.805 145.9375 305.485 145.9375 304.125 C145.02484375 303.76921875 145.02484375 303.76921875 144.09375 303.40625 C141.40349778 301.80769433 140.75601471 300.44020709 139.4375 297.625 C139.02113281 296.738125 138.60476563 295.85125 138.17578125 294.9375 C132.9375 283.0398265 132.9375 283.0398265 132.9375 280.125 C131.2875 279.795 129.6375 279.465 127.9375 279.125 C127.35687122 286.14415677 127.5476949 290.8263993 131.84375 296.56640625 C132.9375 298.125 132.9375 298.125 132.9375 300.125 C133.5975 300.125 134.2575 300.125 134.9375 300.125 C135.22625 301.053125 135.515 301.98125 135.8125 302.9375 C136.825 306.22291667 136.825 306.22291667 138.9375 309.125 C138.9375 310.445 138.9375 311.765 138.9375 313.125 C139.5975 313.125 140.2575 313.125 140.9375 313.125 C141.16824219 314.08921875 141.39898437 315.0534375 141.63671875 316.046875 C141.96285156 317.31015625 142.28898438 318.5734375 142.625 319.875 C142.93824219 321.12796875 143.25148438 322.3809375 143.57421875 323.671875 C145.10726003 327.5549939 146.69493182 328.65139907 149.9375 331.125 C149.9375 332.445 149.9375 333.765 149.9375 335.125 C148.6175 335.125 147.2975 335.125 145.9375 335.125 C145.751875 334.444375 145.56625 333.76375 145.375 333.0625 C143.92548156 330.10044059 142.72253379 328.90685852 140.3125 326.75 C136.95334926 323.57670391 136.95334926 323.57670391 136.8125 319.5625 C136.85375 318.428125 136.895 317.29375 136.9375 316.125 C134.03570827 311.73085824 131.75662239 309.94845171 126.9375 308.125 C125.625 306 125.625 306 124.9375 304.125 C126.2575 304.455 127.5775 304.785 128.9375 305.125 C128.52384898 299.85094947 127.64776864 296.94770102 123.9375 293.125 C123.2775 292.795 122.6175 292.465 121.9375 292.125 C121.9375 290.475 121.9375 288.825 121.9375 287.125 C121.2775 287.125 120.6175 287.125 119.9375 287.125 C115.803215 274.51062344 115.803215 274.51062344 115.4375 269.4375 C115.2725 268.344375 115.1075 267.25125 114.9375 266.125 C113.01685207 264.5350567 113.01685207 264.5350567 110.9375 264.125 C110.9375 263.465 110.9375 262.805 110.9375 262.125 C110.40125 262.00125 109.865 261.8775 109.3125 261.75 C106.4736714 261.00293984 103.71526798 260.07196636 100.9375 259.125 C100.9375 256.815 100.9375 254.505 100.9375 252.125 C100.2775 252.125 99.6175 252.125 98.9375 252.125 C96.84399311 248.7230513 96.75807837 246.07227588 96.9375 242.125 C96.2775 242.125 95.6175 242.125 94.9375 242.125 C95.2675 240.145 95.5975 238.165 95.9375 236.125 C94.9475 235.795 93.9575 235.465 92.9375 235.125 C91.10224365 231.53820074 90.40321199 227.89115153 89.75 223.9375 C89.57082031 222.89207031 89.39164063 221.84664062 89.20703125 220.76953125 C88.9375 218.125 88.9375 218.125 89.9375 216.125 C90.21672763 212.58811669 90.38474658 209.05133561 90.55859375 205.5078125 C90.91511394 202.32485905 91.46244017 200.85899367 92.9375 198.125 C93.52673544 195.88698651 94.06524917 193.63523105 94.5625 191.375 C94.82289063 190.20453125 95.08328125 189.0340625 95.3515625 187.828125 C95.54492188 186.93609375 95.73828125 186.0440625 95.9375 185.125 C96.5975 185.125 97.2575 185.125 97.9375 185.125 C97.73253906 184.33996094 97.52757812 183.55492187 97.31640625 182.74609375 C95.89795756 177.21482255 94.58253363 171.80129598 93.9375 166.125 C93.2775 166.125 92.6175 166.125 91.9375 166.125 C91.6075 164.805 91.2775 163.485 90.9375 162.125 C90.2775 162.125 89.6175 162.125 88.9375 162.125 C88.9375 161.135 88.9375 160.145 88.9375 159.125 C87.9475 159.125 86.9575 159.125 85.9375 159.125 C85.9375 158.465 85.9375 157.805 85.9375 157.125 C85.2775 157.125 84.6175 157.125 83.9375 157.125 C82.9475 154.65 82.9475 154.65 81.9375 152.125 C82.9275 152.125 83.9175 152.125 84.9375 152.125 C84.9375 151.465 84.9375 150.805 84.9375 150.125 C86.2575 149.465 87.5775 148.805 88.9375 148.125 C88.2775 147.795 87.6175 147.465 86.9375 147.125 C86.9375 146.465 86.9375 145.805 86.9375 145.125 C87.5975 145.125 88.2575 145.125 88.9375 145.125 C88.9375 144.465 88.9375 143.805 88.9375 143.125 C87.9475 143.125 86.9575 143.125 85.9375 143.125 C84.10058743 139.34312119 83.77912374 137.17931692 84.9375 133.125 C82.9575 134.115 82.9575 134.115 80.9375 135.125 C78.72211538 128.725 78.72211538 128.725 79.8125 125.6875 C80.369375 124.9140625 80.369375 124.9140625 80.9375 124.125 C80.40125 124.49625 79.865 124.8675 79.3125 125.25 C76.9375 126.125 76.9375 126.125 73.875 125.75 C70.08052517 123.65092882 69.91258779 121.91271797 68.71484375 117.9296875 C68.45832031 117.33414063 68.20179688 116.73859375 67.9375 116.125 C67.1125 115.83625 66.2875 115.5475 65.4375 115.25 C62.9375 114.125 62.9375 114.125 62.01953125 111.97265625 C61.2662808 109.36878033 60.59095726 106.75547765 59.9375 104.125 C57.73022297 97.91703334 55.13374454 94.19773221 49.9375 90.125 C49.9375 89.465 49.9375 88.805 49.9375 88.125 C49.36 88.021875 48.7825 87.91875 48.1875 87.8125 C45.9375 87.125 45.9375 87.125 44.25 85.75 C40.80297483 83.3277661 36.94469103 82.33229473 32.9375 81.125 C32.9375 80.135 32.9375 79.145 32.9375 78.125 C31.9475 78.125 30.9575 78.125 29.9375 78.125 C29.463125 77.485625 28.98875 76.84625 28.5 76.1875 C26.71259389 73.82812394 25.80082753 73.51994173 22.9375 73.125 C22.9375 72.465 22.9375 71.805 22.9375 71.125 C21.9475 71.62 21.9475 71.62 20.9375 72.125 C20.28194881 74.65233235 20.28194881 74.65233235 19.9375 77.125 C18.968125 77.104375 17.99875 77.08375 17 77.0625 C14.06284105 76.76881501 14.06284105 76.76881501 12.9375 78.125 C10.26691149 78.26615161 7.61317762 78.16747107 4.9375 78.125 C5.5975 76.475 6.2575 74.825 6.9375 73.125 C7.5975 73.125 8.2575 73.125 8.9375 73.125 C9.4325 71.145 9.4325 71.145 9.9375 69.125 C12.2475 69.455 14.5575 69.785 16.9375 70.125 C16.6075 69.465 16.2775 68.805 15.9375 68.125 C10.32237152 67.55202771 7.81189042 68.50838641 3.58203125 71.87890625 C1.51860636 73.44240397 -0.61680054 74.30976685 -3.0625 75.125 C-2.7325 76.115 -2.4025 77.105 -2.0625 78.125 C-3.64217807 78.80028223 -5.22641903 79.46489694 -6.8125 80.125 C-7.69421875 80.49625 -8.5759375 80.8675 -9.484375 81.25 C-12.0625 82.125 -12.0625 82.125 -16.0625 82.125 C-16.0625 82.785 -16.0625 83.445 -16.0625 84.125 C-21.0125 84.62 -21.0125 84.62 -26.0625 85.125 C-26.0625 85.785 -26.0625 86.445 -26.0625 87.125 C-30.0225 87.125 -33.9825 87.125 -38.0625 87.125 C-38.0625 86.465 -38.0625 85.805 -38.0625 85.125 C-39.5475 86.115 -39.5475 86.115 -41.0625 87.125 C-42.3825 87.125 -43.7025 87.125 -45.0625 87.125 C-44.0625 85.125 -44.0625 85.125 -41.0625 83.125 C-38.72835471 83.45259934 -36.39497761 83.78573053 -34.0625 84.125 C-33.0725 83.135 -33.0725 83.135 -32.0625 82.125 C-29.7318782 81.77320803 -27.39814933 81.44169821 -25.0625 81.125 C-21.52360514 80.15984686 -20.40502954 79.62656112 -18.3125 76.5625 C-17.9 75.758125 -17.4875 74.95375 -17.0625 74.125 C-16.7325 73.795 -16.4025 73.465 -16.0625 73.125 C-17.0525 73.125 -18.0425 73.125 -19.0625 73.125 C-19.0625 72.135 -19.0625 71.145 -19.0625 70.125 C-21.0425 70.62 -21.0425 70.62 -23.0625 71.125 C-23.0625 70.465 -23.0625 69.805 -23.0625 69.125 C-23.7225 69.125 -24.3825 69.125 -25.0625 69.125 C-25.0625 68.465 -25.0625 67.805 -25.0625 67.125 C-27.0425 67.125 -29.0225 67.125 -31.0625 67.125 C-31.0625 64.155 -31.0625 61.185 -31.0625 58.125 C-32.7125 58.125 -34.3625 58.125 -36.0625 58.125 C-37.5231285 55.47761084 -38.0625 54.23051666 -38.0625 51.125 C-37.0725 51.125 -36.0825 51.125 -35.0625 51.125 C-35.7225 50.5475 -36.3825 49.97 -37.0625 49.375 C-39.0625 47.125 -39.0625 47.125 -39.0625 43.125 C-36.55765403 40.70652803 -35.60236194 40.125 -32.0625 40.125 C-32.0625 39.465 -32.0625 38.805 -32.0625 38.125 C-30.4125 38.125 -28.7625 38.125 -27.0625 38.125 C-27.0625 38.785 -27.0625 39.445 -27.0625 40.125 C-25.7321875 39.8775 -25.7321875 39.8775 -24.375 39.625 C-21.52653108 39.19504243 -18.93245198 39.04058965 -16.0625 39.125 C-15.4025 36.815 -14.7425 34.505 -14.0625 32.125 C-15.01125 32.2075 -15.96 32.29 -16.9375 32.375 C-21.89991109 32.36483112 -26.93661342 30.88349505 -31.0625 28.125 C-31.9140625 25.54296875 -31.9140625 25.54296875 -32.0625 23.125 C-31.7325 22.795 -31.4025 22.465 -31.0625 22.125 C-32.3825 20.805 -33.7025 19.485 -35.0625 18.125 C-30.4425 18.125 -25.8225 18.125 -21.0625 18.125 C-20.4025 19.445 -19.7425 20.765 -19.0625 22.125 C-16.10585481 23.6033226 -13.32020263 23.18532783 -10.0625 23.125 C-10.7225 22.795 -11.3825 22.465 -12.0625 22.125 C-12.0625 21.135 -12.0625 20.145 -12.0625 19.125 C-13.2071875 18.50625 -13.2071875 18.50625 -14.375 17.875 C-17.94823103 15.54824491 -18.56856594 13.03768444 -20.0625 9.125 C-20.7225 8.465 -21.3825 7.805 -22.0625 7.125 C-21.6875 5 -21.6875 5 -21.0625 3.125 C-20.546875 3.29 -20.03125 3.455 -19.5 3.625 C-16.25407262 4.29083126 -13.36706168 4.36533176 -10.0625 4.125 C-8.2270201 2.79121425 -8.2270201 2.79121425 -7.0625 1.125 C-4.56110398 -0.12569801 -2.78857309 -0.00802467 0 0 Z " fill="#257F2E" transform="translate(136.0625,47.875)"/>
<path d="M0 0 C0 0.66 0 1.32 0 2 C0.99 2 1.98 2 3 2 C3 2.99 3 3.98 3 5 C3.99 5.33 4.98 5.66 6 6 C8.00781177 6.98422146 10.00892752 7.98234073 12 9 C12 8.34 12 7.68 12 7 C13.65 7 15.3 7 17 7 C17 7.66 17 8.32 17 9 C16.01 9 15.02 9 14 9 C14.495 9.99 14.495 9.99 15 11 C16.32 10.34 17.64 9.68 19 9 C19 9.66 19 10.32 19 11 C21.64 10.67 24.28 10.34 27 10 C27 10.66 27 11.32 27 12 C26.67 12.33 26.34 12.66 26 13 C26.33 13.33 26.66 13.66 27 14 C27.33 13.34 27.66 12.68 28 12 C29.32 12.33 30.64 12.66 32 13 C32 13.66 32 14.32 32 15 C32.66 15.33 33.32 15.66 34 16 C34 16.66 34 17.32 34 18 C33.0409375 18.433125 33.0409375 18.433125 32.0625 18.875 C29.84793921 19.82823451 29.84793921 19.82823451 29 22 C29.94875 22.12375 30.8975 22.2475 31.875 22.375 C36.62254802 23.04765054 41.30640153 24.02728241 46 25 C46 25.66 46 26.32 46 27 C47.32 26.67 48.64 26.34 50 26 C50 26.66 50 27.32 50 28 C51.98 28 53.96 28 56 28 C56 28.99 56 29.98 56 31 C55.01 31.495 55.01 31.495 54 32 C53.65657551 33.33076989 53.32380126 34.66431979 53 36 C52.01 36.99 52.01 36.99 51 38 C51 38.66 51 39.32 51 40 C49.02 40 47.04 40 45 40 C44.95875 39.38125 44.9175 38.7625 44.875 38.125 C44.58625 37.42375 44.2975 36.7225 44 36 C41.08333333 34.75 41.08333333 34.75 38 34 C37.34 33.67 36.68 33.34 36 33 C35.67 34.32 35.34 35.64 35 37 C34.34 37 33.68 37 33 37 C34.48992799 39.97985598 36.78519552 40.27763437 39.8125 41.5625 C44.33324315 43.72880142 46.7477719 45.21780276 48.75 49.875 C49.20838119 51.23666178 49.64136305 52.60873595 50 54 C46.0398336 55.32005547 43.95512328 54.15926027 40 53 C37.20755955 52.83071457 37.20755955 52.83071457 35 53 C37.65197185 55.65197185 40.55356766 56.584501 44 58 C44.66 58.33 45.32 58.66 46 59 C46 59.66 46 60.32 46 61 C38.48193151 61.44032071 32.15775723 60.28612778 25 58 C25 57.01 25 56.02 25 55 C23.35 54.67 21.7 54.34 20 54 C20 53.34 20 52.68 20 52 C14.87569024 51.7908445 10.89276342 52.55029232 6 54 C3.0625 54.125 3.0625 54.125 1 54 C0.375 52.1875 0.375 52.1875 0 50 C0.66 49.01 1.32 48.02 2 47 C4.33333333 47 6.66666667 47 9 47 C12.35161246 45.61785878 12.35161246 45.61785878 15 44 C14.01 43.34 13.02 42.68 12 42 C12.33 41.01 12.66 40.02 13 39 C13.66 39 14.32 39 15 39 C15 38.34 15 37.68 15 37 C15.66 37 16.32 37 17 37 C17 35.02 17 33.04 17 31 C16.01 30.505 16.01 30.505 15 30 C15 29.01 15 28.02 15 27 C14.01 27 13.02 27 12 27 C12 26.34 12 25.68 12 25 C10.68 25.33 9.36 25.66 8 26 C8 28.64 8 31.28 8 34 C4.535 34.495 4.535 34.495 1 35 C1 33.35 1 31.7 1 30 C2.65 29.34 4.3 28.68 6 28 C6 27.34 6 26.68 6 26 C4.35 26.33 2.7 26.66 1 27 C-0.0625 24.625 -0.0625 24.625 -1 22 C-0.67 21.34 -0.34 20.68 0 20 C-0.99 20 -1.98 20 -3 20 C-3 19.34 -3 18.68 -3 18 C-4.32 18 -5.64 18 -7 18 C-7 18.66 -7 19.32 -7 20 C-7.62648438 20.06058594 -8.25296875 20.12117188 -8.8984375 20.18359375 C-9.71570313 20.26738281 -10.53296875 20.35117188 -11.375 20.4375 C-12.18710937 20.51871094 -12.99921875 20.59992188 -13.8359375 20.68359375 C-16.04272805 20.89090114 -16.04272805 20.89090114 -18 22 C-25.84966132 22.44825423 -33.47934956 22.42190438 -41 20 C-41.33 19.01 -41.66 18.02 -42 17 C-40.68 16.67 -39.36 16.34 -38 16 C-40.31 15.67 -42.62 15.34 -45 15 C-45.27338445 9.62343913 -45.38994303 6.43300242 -42 2 C-39.50494038 -0.49505962 -38.32671112 -0.35948376 -34.875 -0.625 C-33.96492188 -0.69976562 -33.05484375 -0.77453125 -32.1171875 -0.8515625 C-31.06917969 -0.92503906 -31.06917969 -0.92503906 -30 -1 C-30.680625 -0.319375 -31.36125 0.36125 -32.0625 1.0625 C-34.34281077 3.91801692 -34.34281077 3.91801692 -33.9375 7.625 C-33.05246381 10.81113027 -32.60015121 12.07814911 -30 14 C-30.66 14.66 -31.32 15.32 -32 16 C-30.35 16.33 -28.7 16.66 -27 17 C-27 15.35 -27 13.7 -27 12 C-28.32 11.67 -29.64 11.34 -31 11 C-31 10.34 -31 9.68 -31 9 C-30.34 9 -29.68 9 -29 9 C-29 8.34 -29 7.68 -29 7 C-29.66 7 -30.32 7 -31 7 C-30.9375 4.1875 -30.9375 4.1875 -30 1 C-21.74056553 -3.69654117 -8.01788294 -6.06122527 0 0 Z " fill="#257D30" transform="translate(415,67)"/>
<path d="M0 0 C-1 3 -1 3 -2.56640625 4.09765625 C-7.32430177 6.39746093 -11.82942547 7.89201974 -17 9 C-17 9.66 -17 10.32 -17 11 C-14.03 10.01 -11.06 9.02 -8 8 C-10.9490021 10.9490021 -13.70653309 12.72856616 -17.2578125 14.81640625 C-19.15127981 15.89545329 -19.15127981 15.89545329 -20 18 C-20.804375 18.28875 -21.60875 18.5775 -22.4375 18.875 C-25.49509703 20.21735967 -25.60652081 21.120143 -27 24 C-28.31942571 24.38471376 -29.65652583 24.71023106 -31 25 C-32.34009098 25.4815952 -33.67360415 25.98187662 -35 26.5 C-37.06420673 27.30633075 -39.03209303 28.00779402 -41.1875 28.53125 C-43.0075614 28.83838278 -43.0075614 28.83838278 -44 30 C-41.03 30.33 -38.06 30.66 -35 31 C-35.99 31.33 -36.98 31.66 -38 32 C-38 32.66 -38 33.32 -38 34 C-38.66 34 -39.32 34 -40 34 C-40.33 34.99 -40.66 35.98 -41 37 C-41.99 37.33 -42.98 37.66 -44 38 C-44 38.99 -44 39.98 -44 41 C-47.3 41 -50.6 41 -54 41 C-54 41.66 -54 42.32 -54 43 C-51.69 43 -49.38 43 -47 43 C-47 43.66 -47 44.32 -47 45 C-44.525 44.505 -44.525 44.505 -42 44 C-42 44.66 -42 45.32 -42 46 C-46.64969697 48.72420896 -49.89026784 49.31886265 -55.25 49.125 C-59.78862491 48.77942641 -59.78862491 48.77942641 -64 50 C-66.37402501 50.07116382 -68.75000677 50.08409085 -71.125 50.0625 C-72.40632813 50.05347656 -73.68765625 50.04445312 -75.0078125 50.03515625 C-76.48894531 50.01775391 -76.48894531 50.01775391 -78 50 C-77.67 49.01 -77.34 48.02 -77 47 C-74.03 46.505 -74.03 46.505 -71 46 C-71 45.34 -71 44.68 -71 44 C-71.99 43.67 -72.98 43.34 -74 43 C-74 42.34 -74 41.68 -74 41 C-71.125 40.875 -71.125 40.875 -68 41 C-67.34 41.66 -66.68 42.32 -66 43 C-62.47105052 42.91256309 -62.47105052 42.91256309 -59 42 C-58.34 41.01 -57.68 40.02 -57 39 C-57.66 39 -58.32 39 -59 39 C-59.33 39.99 -59.66 40.98 -60 42 C-61.65 42 -63.3 42 -65 42 C-65.33 41.01 -65.66 40.02 -66 39 C-67.98 39 -69.96 39 -72 39 C-71.1875 37.0625 -71.1875 37.0625 -70 35 C-66.71480525 33.90493508 -64.26336585 33.90039392 -60.8125 33.9375 C-59.18248047 33.95103516 -59.18248047 33.95103516 -57.51953125 33.96484375 C-56.68808594 33.97644531 -55.85664063 33.98804688 -55 34 C-55 33.34 -55 32.68 -55 32 C-56.3303125 32.3403125 -56.3303125 32.3403125 -57.6875 32.6875 C-61.65382707 33.0616818 -62.78768362 32.19790068 -66 30 C-68.19130534 29.30420546 -68.19130534 29.30420546 -70 29 C-70 28.01 -70 27.02 -70 26 C-63.80112515 25.62047705 -59.5522888 26.1647887 -54 29 C-55.25541557 26.48916886 -56.50063488 26.12874554 -59 25 C-59 24.67 -59 24.34 -59 24 C-55.12315913 22.80712589 -52.08378077 22 -48 22 C-47.34 20.35 -46.68 18.7 -46 17 C-45.01 17 -44.02 17 -43 17 C-43 16.34 -43 15.68 -43 15 C-47.23084903 16.68807908 -47.23084903 16.68807908 -50 20 C-54.35884089 22.37754958 -58.16543441 22.16388358 -63 22 C-63 22.66 -63 23.32 -63 24 C-65.64 24 -68.28 24 -71 24 C-68.79038253 21.45893991 -67.26011642 20.69378511 -64 20 C-69.67355671 20.61726196 -75.33861055 21.27945952 -81 22 C-80.01 21.01 -79.02 20.02 -78 19 C-80.31 18.67 -82.62 18.34 -85 18 C-85 17.67 -85 17.34 -85 17 C-83.02 17 -81.04 17 -79 17 C-79 16.34 -79 15.68 -79 15 C-78.28972656 14.95101563 -77.57945312 14.90203125 -76.84765625 14.8515625 C-75.46900391 14.73941406 -75.46900391 14.73941406 -74.0625 14.625 C-73.14597656 14.55539062 -72.22945313 14.48578125 -71.28515625 14.4140625 C-70.15400391 14.20910156 -70.15400391 14.20910156 -69 14 C-68.67 13.34 -68.34 12.68 -68 12 C-65.03 12 -62.06 12 -59 12 C-59 11.34 -59 10.68 -59 10 C-58.33613281 9.86722656 -57.67226563 9.73445312 -56.98828125 9.59765625 C-55.66376953 9.33275391 -55.66376953 9.33275391 -54.3125 9.0625 C-51.59765625 8.51953125 -48.8828125 7.9765625 -46.16796875 7.43359375 C-45.45253906 7.29050781 -44.73710937 7.14742188 -44 7 C-44 6.34 -44 5.68 -44 5 C-42.700625 4.896875 -41.40125 4.79375 -40.0625 4.6875 C-36.73983636 4.33150032 -33.92557001 3.69958525 -30.8125 2.5 C-21.17704585 -0.94123363 -10.10293455 -0.16653189 0 0 Z " fill="#257D31" transform="translate(447,0)"/>
<path d="M0 0 C0 0.99 0 1.98 0 3 C2.31 3 4.62 3 7 3 C7.33 3.99 7.66 4.98 8 6 C9.65 5.67 11.3 5.34 13 5 C12.34 4.34 11.68 3.68 11 3 C13.96175123 3.61277612 15.38058783 4.25372522 18 6 C18.6875 8.625 18.6875 8.625 19 11 C19.66 11 20.32 11 21 11 C20.505 6.545 20.505 6.545 20 2 C23.25 1.9375 23.25 1.9375 27 3 C29.89733417 7.12473511 31 10.99378136 31 16 C34.96 17.98 38.92 19.96 43 22 C43 22.66 43 23.32 43 24 C36.25 25.125 36.25 25.125 34 24 C34 24.66 34 25.32 34 26 C35.65 26 37.3 26 39 26 C39.495 27.485 39.495 27.485 40 29 C38.25034642 29.05429959 36.50020213 29.09292823 34.75 29.125 C33.77546875 29.14820312 32.8009375 29.17140625 31.796875 29.1953125 C28.95364213 28.99676272 27.45230383 28.35937019 25 27 C22.67500156 27.2999998 20.96782708 28.01561678 18.859375 29.0390625 C15.26425785 30.24725761 11.92887603 30.21808687 8.1875 30.125 C7.14819336 30.11146484 7.14819336 30.11146484 6.08789062 30.09765625 C4.39177605 30.07426157 2.69584129 30.03839641 1 30 C0.505 27.525 0.505 27.525 0 25 C-0.61488281 24.96261719 -1.22976563 24.92523438 -1.86328125 24.88671875 C-2.67152344 24.82097656 -3.47976563 24.75523438 -4.3125 24.6875 C-5.11300781 24.62949219 -5.91351563 24.57148437 -6.73828125 24.51171875 C-9.39066259 23.91161175 -10.36503879 23.14291033 -12 21 C-12 20.34 -12 19.68 -12 19 C-6.06 19 -0.12 19 6 19 C6 18.34 6 17.68 6 17 C-0.6 16.34 -7.2 15.68 -14 15 C-14.33 14.01 -14.66 13.02 -15 12 C-12.36 11.67 -9.72 11.34 -7 11 C-9.01822917 10.54427083 -11.03645833 10.08854167 -13.0546875 9.6328125 C-15 9 -15 9 -17 7 C-16.02278662 4.48419535 -15.46656835 3.25008064 -13.046875 1.953125 C-8.56989458 0.58262079 -4.74363363 -0.36489489 0 0 Z " fill="#257D30" transform="translate(290,69)"/>
<path d="M0 0 C1.75098126 2.62647188 3.38731308 5.28775382 5 8 C5.556875 7.855625 6.11375 7.71125 6.6875 7.5625 C9.11387604 6.97230042 11.55038269 6.48342365 14 6 C17.81525688 12.51458882 20.94304503 18.85348434 22.8125 26.1875 C24.44355889 30.05053421 26.65067482 31.52441183 30 34 C29.1282469 36.76055149 28.51588954 38.57623359 26.25 40.4375 C22.77301606 41.30674598 21.12364454 40.72797358 18 39 C17.04213063 36.97308 16.42250823 34.9501457 15.77734375 32.8046875 C15.52082031 32.20914063 15.26429688 31.61359375 15 31 C13.7625 30.566875 13.7625 30.566875 12.5 30.125 C10 29 10 29 9.08203125 26.84765625 C8.3287808 24.24378033 7.65345726 21.63047765 7 19 C4.79272297 12.79203334 2.19624454 9.07273221 -3 5 C-3 4.34 -3 3.68 -3 3 C-3.99 2.67 -4.98 2.34 -6 2 C-4.02 1.34 -2.04 0.68 0 0 Z " fill="#23713E" transform="translate(189,133)"/>
<path d="M0 0 C2.41926039 0.06018061 4.83248672 0.14722217 7.25 0.25 C7.93191406 0.26417969 8.61382812 0.27835938 9.31640625 0.29296875 C12.78258532 0.46122987 14.70984008 0.77553667 17.484375 2.921875 C19 5 19 5 19 7 C19.66 7 20.32 7 21 7 C20.67 7.99 20.34 8.98 20 10 C18.02 10.33 16.04 10.66 14 11 C13.67 13.64 13.34 16.28 13 19 C11.68 19 10.36 19 9 19 C8.67 17.68 8.34 16.36 8 15 C6.35 15.66 4.7 16.32 3 17 C3.33 13.7 3.66 10.4 4 7 C2.68 6.67 1.36 6.34 0 6 C-0.99 5.67 -1.98 5.34 -3 5 C-3.33 6.65 -3.66 8.3 -4 10 C-4.99 10.33 -5.98 10.66 -7 11 C-6.97679687 12.19238281 -6.95359375 13.38476562 -6.9296875 14.61328125 C-6.91092822 16.17968124 -6.89272819 17.746088 -6.875 19.3125 C-6.85824219 20.09818359 -6.84148437 20.88386719 -6.82421875 21.69335938 C-6.81777344 22.45068359 -6.81132812 23.20800781 -6.8046875 23.98828125 C-6.79421387 24.68477783 -6.78374023 25.38127441 -6.77294922 26.09887695 C-7 28 -7 28 -9 31 C-10.32 31 -11.64 31 -13 31 C-14.4970102 26.5089694 -14.444219 21.95624564 -14.71875 17.25 C-14.87350971 13.9907069 -14.87350971 13.9907069 -16 11 C-15.375 8 -15.375 8 -13 5 C-8.7397779 3.54948302 -4.43643856 2.72147503 0 2 C0 1.34 0 0.68 0 0 Z " fill="#173683" transform="translate(405,235)"/>
<path d="M0 0 C1.62463842 -0.05395478 3.24978541 -0.09277195 4.875 -0.125 C6.23238281 -0.15980469 6.23238281 -0.15980469 7.6171875 -0.1953125 C10 0 10 0 12 2 C14.99629974 2.83424672 18.01429494 3.4674467 21.0546875 4.12109375 C24.00817459 5.00243937 25.76963067 5.89354008 28 8 C28 8.66 28 9.32 28 10 C25.9170757 10.64715133 23.83364461 11.29267166 21.75 11.9375 C20.58984375 12.29714844 19.4296875 12.65679687 18.234375 13.02734375 C15.82910942 13.75066637 13.44345956 14.42542411 11 15 C10.67 16.65 10.34 18.3 10 20 C6.9726333 20.66615259 4.10531628 21.12504629 1 21 C-2.37586568 18.48605747 -4.41404295 15.89280367 -6 12 C-5.34 11.01 -4.68 10.02 -4 9 C-3.34 9 -2.68 9 -2 9 C-0.43727811 4.60746227 -0.43727811 4.60746227 0 0 Z " fill="#257C32" transform="translate(258,58)"/>
<path d="M0 0 C0.99 0.33 1.98 0.66 3 1 C2.67 3.97 2.34 6.94 2 10 C2.33 9.34 2.66 8.68 3 8 C3.66 8 4.32 8 5 8 C5 8.99 5 9.98 5 11 C8.3 10.34 11.6 9.68 15 9 C15 10.65 15 12.3 15 14 C16.32 13.67 17.64 13.34 19 13 C18.34 14.32 17.68 15.64 17 17 C17.99 16.67 18.98 16.34 20 16 C22.1519437 19.22791555 22.20086443 20.28400809 22 24 C20.35 24.33 18.7 24.66 17 25 C17 23.35 17 21.7 17 20 C16.34 20 15.68 20 15 20 C14.731875 20.78375 14.46375 21.5675 14.1875 22.375 C13 25 13 25 10 27 C10.66 25.35 11.32 23.7 12 22 C9.72872279 22.47705823 7.45799168 22.95671706 5.1875 23.4375 C3.92292969 23.70433594 2.65835938 23.97117188 1.35546875 24.24609375 C-1.97045413 24.93427886 -1.97045413 24.93427886 -5 26 C-2.26213592 2.26213592 -2.26213592 2.26213592 0 0 Z " fill="#247A34" transform="translate(515,182)"/>
<path d="M0 0 C2.97 0 5.94 0 9 0 C9 0.66 9 1.32 9 2 C9.61488281 1.97679687 10.22976563 1.95359375 10.86328125 1.9296875 C11.67152344 1.91164062 12.47976563 1.89359375 13.3125 1.875 C14.11300781 1.85179687 14.91351563 1.82859375 15.73828125 1.8046875 C18 2 18 2 21 4 C20.01 4.495 20.01 4.495 19 5 C19.99 5.33 20.98 5.66 22 6 C22.66 6.66 23.32 7.32 24 8 C28.82524326 8.21838385 33.41637797 6.92489491 37.9375 5.375 C43.17374783 3.67342496 47.63728461 4.05296728 53 5 C52.34 6.98 51.68 8.96 51 11 C49.2675 11.185625 49.2675 11.185625 47.5 11.375 C44.61000933 11.72484098 41.92037696 12.25811602 39.125 13.0625 C34.42580027 14.32121421 29.82908793 14.161568 25 14 C24.34 14 23.68 14 23 14 C21.45721239 13.84405035 19.91562095 13.67607097 18.375 13.5 C17.14910156 13.36078125 17.14910156 13.36078125 15.8984375 13.21875 C15.27195312 13.1465625 14.64546875 13.074375 14 13 C13.80664062 12.43410156 13.61328125 11.86820313 13.4140625 11.28515625 C13.15367187 10.55167969 12.89328125 9.81820312 12.625 9.0625 C12.36976563 8.33160156 12.11453125 7.60070313 11.8515625 6.84765625 C11.14728587 4.81317884 11.14728587 4.81317884 9 4 C7.46331135 3.77532169 5.92031946 3.59203195 4.375 3.4375 C3.55773437 3.35371094 2.74046875 3.26992188 1.8984375 3.18359375 C1.27195312 3.12300781 0.64546875 3.06242187 0 3 C0 2.01 0 1.02 0 0 Z " fill="#247A33" transform="translate(348,48)"/>
<path d="M0 0 C1.216875 0.474375 2.43375 0.94875 3.6875 1.4375 C7 3 7 3 8 5 C11.02934491 5.65772428 11.02934491 5.65772428 14 6 C14 6.66 14 7.32 14 8 C15.65 8 17.3 8 19 8 C19.495 8.99 19.495 8.99 20 10 C14.25 13 14.25 13 12 13 C11.78601563 13.64453125 11.57203125 14.2890625 11.3515625 14.953125 C10 17 10 17 7.3984375 17.609375 C6.40070313 17.65578125 5.40296875 17.7021875 4.375 17.75 C3.37210937 17.80671875 2.36921875 17.8634375 1.3359375 17.921875 C0.56507813 17.94765625 -0.20578125 17.9734375 -1 18 C-1 17.34 -1 16.68 -1 16 C-2.65 15.67 -4.3 15.34 -6 15 C-5.67 14.01 -5.34 13.02 -5 12 C-1.535 11.505 -1.535 11.505 2 11 C0.64455078 11.06960937 0.64455078 11.06960937 -0.73828125 11.140625 C-1.91777344 11.17671875 -3.09726562 11.2128125 -4.3125 11.25 C-6.07013672 11.31960937 -6.07013672 11.31960937 -7.86328125 11.390625 C-11 11 -11 11 -12.91796875 8.984375 C-13.27503906 8.32953125 -13.63210938 7.6746875 -14 7 C-13.34 6.67 -12.68 6.34 -12 6 C-12 5.34 -12 4.68 -12 4 C-10.68 4 -9.36 4 -8 4 C-8 3.34 -8 2.68 -8 2 C-8.99 1.67 -9.98 1.34 -11 1 C-3.54098361 -1.43852459 -3.54098361 -1.43852459 0 0 Z " fill="#257B32" transform="translate(361,22)"/>
<path d="M0 0 C5.3726585 0.35230548 5.3726585 0.35230548 8 1 C9.75 3 9.75 3 11 5 C13.09415804 5.79623822 13.09415804 5.79623822 15 6 C15 6.99 15 7.98 15 9 C15.66 9 16.32 9 17 9 C17.495 11.97 17.495 11.97 18 15 C5.24234115 16.41964926 5.24234115 16.41964926 0.9375 14.9375 C-2.64071746 13.7955157 -2.8320795 14.40140056 -6 16 C-8.359375 16.1953125 -8.359375 16.1953125 -10.75 16.125 C-11.54921875 16.10695312 -12.3484375 16.08890625 -13.171875 16.0703125 C-13.77515625 16.04710937 -14.3784375 16.02390625 -15 16 C-13.58214152 12.57041562 -11.96809658 10.97606696 -8.9375 8.875 C-5.95372478 6.88925353 -5.95372478 6.88925353 -4 4 C-3.01 4 -2.02 4 -1 4 C-0.67 2.68 -0.34 1.36 0 0 Z " fill="#173683" transform="translate(386,220)"/>
<path d="M0 0 C0 0.66 0 1.32 0 2 C-0.99 2.33 -1.98 2.66 -3 3 C-2.505 3.99 -2.505 3.99 -2 5 C-2.99 5 -3.98 5 -5 5 C-5 5.66 -5 6.32 -5 7 C-8.3 7.99 -11.6 8.98 -15 10 C-13.68 10.66 -12.36 11.32 -11 12 C-11 12.66 -11 13.32 -11 14 C-11.969375 13.690625 -12.93875 13.38125 -13.9375 13.0625 C-18.23664491 11.82032903 -22.55342634 11.38315147 -27 11 C-27 11.99 -27 12.98 -27 14 C-26.071875 14.12375 -25.14375 14.2475 -24.1875 14.375 C-21 15 -21 15 -18 17 C-14.87478167 17.16699232 -14.87478167 17.16699232 -12 17 C-12 17.66 -12 18.32 -12 19 C-15.37447043 20.12482348 -18.51116096 19.96406125 -22.03515625 19.8984375 C-24.61745009 20.03191591 -26.65345314 20.96475874 -29 22 C-29.66 21.67 -30.32 21.34 -31 21 C-31.33 21.66 -31.66 22.32 -32 23 C-31.875 21.125 -31.875 21.125 -31 19 C-28 17.8125 -28 17.8125 -25 17 C-24.67 16.67 -24.34 16.34 -24 16 C-26.475 15.505 -26.475 15.505 -29 15 C-29 14.34 -29 13.68 -29 13 C-30.98 13 -32.96 13 -35 13 C-35.33 12.01 -35.66 11.02 -36 10 C-36.94875 9.87625 -37.8975 9.7525 -38.875 9.625 C-42 9 -42 9 -44 7 C-46.44963177 6.97746557 -46.44963177 6.97746557 -49.125 7.375 C-50.03507812 7.48585938 -50.94515625 7.59671875 -51.8828125 7.7109375 C-52.93082031 7.85402344 -52.93082031 7.85402344 -54 8 C-52.73046875 6.51171875 -52.73046875 6.51171875 -51 5 C-47.3125 4.8125 -47.3125 4.8125 -44 5 C-43.67 4.01 -43.34 3.02 -43 2 C-39.7 2.33 -36.4 2.66 -33 3 C-33.99 3.99 -34.98 4.98 -36 6 C-35.46632813 5.855625 -34.93265625 5.71125 -34.3828125 5.5625 C-28.49771237 4.09631589 -23.04990224 3.77265503 -17 4 C-20.28463659 6.18975773 -23.20696275 6.99806563 -27 8 C-24.69 8.33 -22.38 8.66 -20 9 C-20 8.34 -20 7.68 -20 7 C-15.71 6.34 -11.42 5.68 -7 5 C-6.67 4.01 -6.34 3.02 -6 2 C-3.85412616 0.684787 -2.52986895 0 0 0 Z " fill="#194374" transform="translate(404,15)"/>
<path d="M0 0 C1.99640639 0.67735217 3.99504414 1.34838935 6 2 C6 2.33 6 2.66 6 3 C8.31 3.66 10.62 4.32 13 5 C13 5.66 13 6.32 13 7 C9.59648662 9.03219488 6.6767073 9.36891039 2.75 9.625 C1.67234375 9.69976562 0.5946875 9.77453125 -0.515625 9.8515625 C-1.33546875 9.90054687 -2.1553125 9.94953125 -3 10 C-2.67 8.68 -2.34 7.36 -2 6 C-3.7015625 5.566875 -3.7015625 5.566875 -5.4375 5.125 C-6.613125 4.75375 -7.78875 4.3825 -9 4 C-9.33 3.34 -9.66 2.68 -10 2 C-10.886875 2.061875 -11.77375 2.12375 -12.6875 2.1875 C-16 2 -16 2 -18.4375 0.5 C-21.75321438 -1.44090598 -24.2248512 -1.22206758 -28 -1 C-27.67 -1.99 -27.34 -2.98 -27 -4 C-32.17930997 -2.75696561 -35.70166639 -1.14512215 -40 2 C-40.33 1.01 -40.66 0.02 -41 -1 C-30.83324928 -13.55892736 -11.93486178 -4.6886957 0 0 Z " fill="#247737" transform="translate(461,385)"/>
<path d="M0 0 C2.64 0.33 5.28 0.66 8 1 C8.33 2.32 8.66 3.64 9 5 C11.37570543 5.0816082 13.74855841 5.14077222 16.125 5.1875 C16.79015625 5.21263672 17.4553125 5.23777344 18.140625 5.26367188 C22.91512544 5.33388512 25.86275718 4.27367426 30 2 C32.75210325 2.2501912 34.54415212 2.77207606 37 4 C38.66272703 4.20222356 40.33054185 4.36411387 42 4.5 C46.77777778 4.88888889 46.77777778 4.88888889 49 6 C49 6.66 49 7.32 49 8 C48.01 8 47.02 8 46 8 C46 7.34 46 6.68 46 6 C43.69 6.33 41.38 6.66 39 7 C38.67 7.99 38.34 8.98 38 10 C37.46375 9.79375 36.9275 9.5875 36.375 9.375 C33.16732692 8.8685253 30.98682934 9.84599775 28 11 C28.20625 11.928125 28.4125 12.85625 28.625 13.8125 C29 17 29 17 27 20 C26.71125 19.195625 26.4225 18.39125 26.125 17.5625 C25.26737432 14.8673532 25.26737432 14.8673532 23 14 C23 13.34 23 12.68 23 12 C18.89193864 11.00031967 15.0938899 10.92834157 10.875 11 C4.33199195 11.11066398 4.33199195 11.11066398 1 10 C1.33 9.01 1.66 8.02 2 7 C2.99 7 3.98 7 5 7 C3.06745228 4.9754262 1.36841312 3.57894208 -1 2 C-0.67 1.34 -0.34 0.68 0 0 Z " fill="#173584" transform="translate(282,93)"/>
<path d="M0 0 C1.65 0 3.3 0 5 0 C5 0.66 5 1.32 5 2 C5.763125 2.12375 6.52625 2.2475 7.3125 2.375 C10 3 10 3 13 5 C13 5.66 13 6.32 13 7 C15.31 7 17.62 7 20 7 C19.34 5.02 18.68 3.04 18 1 C19.32 0.67 20.64 0.34 22 0 C22.33 1.32 22.66 2.64 23 4 C25.64 4.33 28.28 4.66 31 5 C31 9 31 9 30 11 C27.4736235 11.28628332 25.03433175 11.46717192 22.5 11.5625 C17.87778611 11.35294651 17.87778611 11.35294651 14 13 C12.48071962 13.07179964 10.95832518 13.08392007 9.4375 13.0625 C8.61121094 13.05347656 7.78492188 13.04445313 6.93359375 13.03515625 C6.29550781 13.02355469 5.65742188 13.01195312 5 13 C4.67 12.34 4.34 11.68 4 11 C4.99 10.67 5.98 10.34 7 10 C3.79619983 7.86413322 2.98060033 7.76867825 -0.6875 7.875 C-1.89986328 7.90207031 -1.89986328 7.90207031 -3.13671875 7.9296875 C-3.75160156 7.95289063 -4.36648438 7.97609375 -5 8 C-5.33 7.34 -5.66 6.68 -6 6 C-4.71034824 4.62437146 -3.37310707 3.29233607 -2 2 C-1.34 2 -0.68 2 0 2 C0 1.34 0 0.68 0 0 Z " fill="#247935" transform="translate(287,49)"/>
<path d="M0 0 C0.66 0.33 1.32 0.66 2 1 C2 1.66 2 2.32 2 3 C4.64 3 7.28 3 10 3 C10.66666667 5.66666667 11.33333333 8.33333333 12 11 C12.99 11 13.98 11 15 11 C15.33 11.66 15.66 12.32 16 13 C16.66 13 17.32 13 18 13 C20.48351814 18.55139349 19.85330338 23.16524985 19 29 C18.01 29.33 17.02 29.66 16 30 C16 29.34 16 28.68 16 28 C16.66 28 17.32 28 18 28 C17.67 27.01 17.34 26.02 17 25 C17.33 24.34 17.66 23.68 18 23 C17.05125 22.87625 16.1025 22.7525 15.125 22.625 C12 22 12 22 10 20 C9.375 17.875 9.375 17.875 9 16 C8.34 16 7.68 16 7 16 C6.67 14.68 6.34 13.36 6 12 C5.34 12 4.68 12 4 12 C4 11.01 4 10.02 4 9 C3.01 9 2.02 9 1 9 C1 8.34 1 7.68 1 7 C0.34 7 -0.32 7 -1 7 C-1.66 5.35 -2.32 3.7 -3 2 C-2.01 2 -1.02 2 0 2 C0 1.34 0 0.68 0 0 Z " fill="#1A486E" transform="translate(221,198)"/>
<path d="M0 0 C0.66 0 1.32 0 2 0 C2 1.65 2 3.3 2 5 C2.99 5 3.98 5 5 5 C5.10957031 5.59167969 5.21914062 6.18335938 5.33203125 6.79296875 C6.08291894 10.53519766 6.70602942 13.51004904 8.6875 16.8125 C10 19 10 19 9.5625 21.125 C9.376875 21.74375 9.19125 22.3625 9 23 C9.66 23.99 10.32 24.98 11 26 C11 26.99 11 27.98 11 29 C8.6875 29 8.6875 29 6 28 C5.06784979 25.98991305 4.46689395 23.95546965 3.8125 21.83984375 C3.544375 21.23269531 3.27625 20.62554687 3 20 C2.175 19.71125 1.35 19.4225 0.5 19.125 C-2 18 -2 18 -2.98828125 15.8125 C-4.24964863 11.69960541 -5 8.33213757 -5 4 C-4.34 4 -3.68 4 -3 4 C-3.33 3.01 -3.66 2.02 -4 1 C-3.34 1 -2.68 1 -2 1 C-2 1.99 -2 2.98 -2 4 C-1.34 4 -0.68 4 0 4 C0 2.68 0 1.36 0 0 Z " fill="#194374" transform="translate(201,144)"/>
<path d="M0 0 C0.66 0.66 1.32 1.32 2 2 C4.31765729 2.71927295 6.65095874 3.3909893 9 4 C9 4.66 9 5.32 9 6 C6.36 6.33 3.72 6.66 1 7 C1 7.66 1 8.32 1 9 C-0.98 9 -2.96 9 -5 9 C-5 10.32 -5 11.64 -5 13 C-6.155 12.814375 -7.31 12.62875 -8.5 12.4375 C-11.61307377 12.02759349 -14.2757751 12.0743437 -17.375 12.5625 C-19.169375 12.7790625 -19.169375 12.7790625 -21 13 C-21.66 12.34 -22.32 11.68 -23 11 C-18.545 10.505 -18.545 10.505 -14 10 C-14 7.37886292 -14.31292445 5.49064888 -15 3 C-16.32 2.67 -17.64 2.34 -19 2 C-15.60179033 -1.39820967 -4.54962167 -0.49893621 0 0 Z " fill="#247638" transform="translate(499,390)"/>
<path d="M0 0 C0.33 0.66 0.66 1.32 1 2 C3.12576782 2.46651207 3.12576782 2.46651207 5.5625 2.625 C6.38878906 2.69976562 7.21507812 2.77453125 8.06640625 2.8515625 C8.70449219 2.90054688 9.34257812 2.94953125 10 3 C9.39169139 9.44807122 9.39169139 9.44807122 7.625 11.9375 C6 13 6 13 3 13 C3.33 14.65 3.66 16.3 4 18 C2.68 18 1.36 18 0 18 C0 16.35 0 14.7 0 13 C-0.66 13 -1.32 13 -2 13 C-2 12.34 -2 11.68 -2 11 C-3.65 11 -5.3 11 -7 11 C-7 11.66 -7 12.32 -7 13 C-5.68 13 -4.36 13 -3 13 C-3 13.99 -3 14.98 -3 16 C-5.97 15.505 -5.97 15.505 -9 15 C-8.67 12.36 -8.34 9.72 -8 7 C-8.99 6.67 -9.98 6.34 -11 6 C-10.01 5.67 -9.02 5.34 -8 5 C-7.67 4.01 -7.34 3.02 -7 2 C-4.83125748 2.50603992 -3.00032373 2.99983813 -1 4 C-0.67 2.68 -0.34 1.36 0 0 Z " fill="#183E7A" transform="translate(349,91)"/>
<path d="M0 0 C0 0.66 0 1.32 0 2 C-0.99 2 -1.98 2 -3 2 C-3 2.66 -3 3.32 -3 4 C1.455 3.505 1.455 3.505 6 3 C6 3.99 6 4.98 6 6 C5.34 6 4.68 6 4 6 C4 6.99 4 7.98 4 9 C1.03 8.505 1.03 8.505 -2 8 C-2.33 8.99 -2.66 9.98 -3 11 C-6.0625 12.1875 -6.0625 12.1875 -9 13 C-9 12.34 -9 11.68 -9 11 C-10.98 11 -12.96 11 -15 11 C-15.33 10.34 -15.66 9.68 -16 9 C-15.34 9 -14.68 9 -14 9 C-14 8.34 -14 7.68 -14 7 C-13.34 6.67 -12.68 6.34 -12 6 C-12 5.34 -12 4.68 -12 4 C-14.97 3.67 -17.94 3.34 -21 3 C-21 2.67 -21 2.34 -21 2 C-18.81347261 1.66034526 -16.62571975 1.32857523 -14.4375 1 C-13.21933594 0.814375 -12.00117188 0.62875 -10.74609375 0.4375 C-7.12372152 0.01444923 -3.64287954 -0.07501425 0 0 Z " fill="#183B7D" transform="translate(268,106)"/>
<path d="M0 0 C0 0.66 0 1.32 0 2 C2.29199177 1.85936865 4.58359186 1.71234057 6.875 1.5625 C8.15117187 1.48128906 9.42734375 1.40007813 10.7421875 1.31640625 C13.88300152 1.20793973 13.88300152 1.20793973 16 0 C17.83037287 -0.12145993 19.66564133 -0.17543185 21.5 -0.1875 C22.4796875 -0.20167969 23.459375 -0.21585938 24.46875 -0.23046875 C27 0 27 0 29 2 C28.34 2 27.68 2 27 2 C27 2.66 27 3.32 27 4 C27.99 4.33 28.98 4.66 30 5 C28.88625 4.938125 27.7725 4.87625 26.625 4.8125 C22.27423392 4.7971804 18.71164622 5.91518789 14.609375 7.265625 C10.46597122 8.43173265 6.2830966 8.73572383 2 9 C1.67 8.01 1.34 7.02 1 6 C-1.97 5.505 -1.97 5.505 -5 5 C-4.34 4.34 -3.68 3.68 -3 3 C-4.65 2.67 -6.3 2.34 -8 2 C-4.91190305 0.23537317 -3.76687864 0 0 0 Z " fill="#173881" transform="translate(369,48)"/>
<path d="M0 0 C4.29 0 8.58 0 13 0 C12.01 0.495 12.01 0.495 11 1 C10.67 1.99 10.34 2.98 10 4 C10.66 4.33 11.32 4.66 12 5 C12 5.66 12 6.32 12 7 C12.99 7 13.98 7 15 7 C15 8.65 15 10.3 15 12 C13.02 12.33 11.04 12.66 9 13 C9 13.66 9 14.32 9 15 C5.09427217 14.42137365 2.98939189 12.47900791 0 10 C-0.928125 9.46375 -1.85625 8.9275 -2.8125 8.375 C-3.8953125 7.694375 -3.8953125 7.694375 -5 7 C-5 6.34 -5 5.68 -5 5 C-2.69 5.33 -0.38 5.66 2 6 C2 5.34 2 4.68 2 4 C1.01 3.67 0.02 3.34 -1 3 C-0.67 2.01 -0.34 1.02 0 0 Z " fill="#247A34" transform="translate(333,68)"/>
<path d="M0 0 C0.99 0 1.98 0 3 0 C3.66 0.66 4.32 1.32 5 2 C6.47936498 2.57684194 7.98338137 3.09224974 9.5 3.5625 C11.77462048 4.27516518 13.86739849 4.93369925 16 6 C16 6.99 16 7.98 16 9 C17.65 9 19.3 9 21 9 C20.67 9.99 20.34 10.98 20 12 C17.03 11.505 17.03 11.505 14 11 C14 10.34 14 9.68 14 9 C12.35 9 10.7 9 9 9 C9 9.99 9 10.98 9 12 C8.34 12 7.68 12 7 12 C6.67 12.99 6.34 13.98 6 15 C5.01 15 4.02 15 3 15 C3 14.34 3 13.68 3 13 C1.02 13.33 -0.96 13.66 -3 14 C-2.67 13.01 -2.34 12.02 -2 11 C-1.34 11 -0.68 11 0 11 C0 7.37 0 3.74 0 0 Z " fill="#247A34" transform="translate(386,116)"/>
<path d="M0 0 C0.66 0 1.32 0 2 0 C2 0.99 2 1.98 2 3 C2.99 3 3.98 3 5 3 C4.34 4.65 3.68 6.3 3 8 C2.34 8 1.68 8 1 8 C0.979375 8.5775 0.95875 9.155 0.9375 9.75 C-0.59555539 13.42933295 -3.48398243 14.27283347 -7 16 C-7.66 16 -8.32 16 -9 16 C-9.33 16.66 -9.66 17.32 -10 18 C-10.99307821 19.33849671 -11.99357052 20.67151309 -13 22 C-13.66 22.99 -14.32 23.98 -15 25 C-16.32 24.67 -17.64 24.34 -19 24 C-19.25 21.75 -19.25 21.75 -19 19 C-16.69880363 16.12350453 -14.3721049 14.44518781 -11 13 C-11.99 13 -12.98 13 -14 13 C-13.67 12.01 -13.34 11.02 -13 10 C-7.555 9.505 -7.555 9.505 -2 9 C-1.855625 7.88625 -1.71125 6.7725 -1.5625 5.625 C-1 2 -1 2 0 0 Z " fill="#257B32" transform="translate(505,214)"/>
<path d="M0 0 C2.31 0.66 4.62 1.32 7 2 C7 2.66 7 3.32 7 4 C12.17667168 4.48095335 12.17667168 4.48095335 16.5 1.9375 C19 0 19 0 22.8125 0.25 C23.864375 0.4975 24.91625 0.745 26 1 C26 1.66 26 2.32 26 3 C22 4.33333333 18 5.66666667 14 7 C14 7.66 14 8.32 14 9 C12.02 9 10.04 9 8 9 C8 9.99 8 10.98 8 12 C6.41705218 12.05437607 4.83355744 12.09296271 3.25 12.125 C2.36828125 12.14820313 1.4865625 12.17140625 0.578125 12.1953125 C-2.1135858 11.99139502 -3.69904974 11.36551721 -6 10 C-5 8 -5 8 -2.0625 6.9375 C-1.051875 6.628125 -0.04125 6.31875 1 6 C1.66 5.67 2.32 5.34 3 5 C2.01 3.35 1.02 1.7 0 0 Z " fill="#173782" transform="translate(277,134)"/>
<path d="M0 0 C1.89510699 -0.08160748 3.79124504 -0.13946459 5.6875 -0.1875 C6.74324219 -0.22230469 7.79898437 -0.25710937 8.88671875 -0.29296875 C12.38158604 0.03590835 14.22938553 0.87706164 17 3 C17 3.66 17 4.32 17 5 C17.99 5.33 18.98 5.66 20 6 C19.30132812 6.02578125 18.60265625 6.0515625 17.8828125 6.078125 C16.97273438 6.13484375 16.06265625 6.1915625 15.125 6.25 C14.22007812 6.29640625 13.31515625 6.3428125 12.3828125 6.390625 C9.82889456 6.75611148 9.82889456 6.75611148 8.6796875 9.046875 C8.34324219 10.01367188 8.34324219 10.01367188 8 11 C7.67 10.34 7.34 9.68 7 9 C5.68 9 4.36 9 3 9 C3 9.99 3 10.98 3 12 C2.34 12 1.68 12 1 12 C1 9.36 1 6.72 1 4 C0.34 4 -0.32 4 -1 4 C-0.67 2.68 -0.34 1.36 0 0 Z " fill="#1A476F" transform="translate(398,64)"/>
<path d="M0 0 C4.95 0 9.9 0 15 0 C12.16 5.68 12.16 5.68 10 8 C7.3125 8.75 7.3125 8.75 5 9 C4.67 9.99 4.34 10.98 4 12 C3.01 12 2.02 12 1 12 C-1.44576827 8.33134759 -1.23607254 6.32799657 -1 2 C-0.67 1.34 -0.34 0.68 0 0 Z " fill="#257B33" transform="translate(352,66)"/>
<path d="M0 0 C0.33 0 0.66 0 1 0 C1.25523437 0.94359375 1.25523437 0.94359375 1.515625 1.90625 C2.75083134 6.26889367 4.01145151 10.23117645 6.25 14.1875 C8.39868114 18.18372136 8.0861773 20.65529082 7 25 C6.34 25 5.68 25 5 25 C5 22.69 5 20.38 5 18 C4.34 18 3.68 18 3 18 C2.67 17.34 2.34 16.68 2 16 C1.34 16 0.68 16 0 16 C-2.04169485 13.09451118 -3 11.59857954 -3 8 C-3.66 8 -4.32 8 -5 8 C-4.67 6.35 -4.34 4.7 -4 3 C-3.01 3 -2.02 3 -1 3 C-0.67 2.01 -0.34 1.02 0 0 Z " fill="#173881" transform="translate(344,189)"/>
<path d="M0 0 C0.66 0.33 1.32 0.66 2 1 C1.46375 1.721875 0.9275 2.44375 0.375 3.1875 C-1.35911051 5.93706631 -1.35911051 5.93706631 -0.1875 8.8125 C0.204375 9.534375 0.59625 10.25625 1 11 C1.99 10.67 2.98 10.34 4 10 C4.33 13.3 4.66 16.6 5 20 C5.99 20 6.98 20 8 20 C8 20.66 8 21.32 8 22 C7.34 22 6.68 22 6 22 C6 22.66 6 23.32 6 24 C6.99 24.33 7.98 24.66 9 25 C7.125 26.0625 7.125 26.0625 5 27 C4.34 26.67 3.68 26.34 3 26 C3.061875 25.236875 3.12375 24.47375 3.1875 23.6875 C2.96270208 20.46539649 2.23215157 20.13914525 0 18 C0 16.68 0 15.36 0 14 C-0.99 14 -1.98 14 -3 14 C-4.125 7.25 -4.125 7.25 -3 5 C-3.66 4.67 -4.32 4.34 -5 4 C-3.35 2.68 -1.7 1.36 0 0 Z " fill="#1B4B6A" transform="translate(217,171)"/>
<path d="M0 0 C0.33 0.99 0.66 1.98 1 3 C-2.11713539 6.29525742 -5.00353633 8.84805802 -9 11 C-9.99 11.61875 -9.99 11.61875 -11 12.25 C-13.67997873 13.25499203 -15.31108973 12.87207901 -18 12 C-18.33 11.34 -18.66 10.68 -19 10 C-18.34 9.01 -17.68 8.02 -17 7 C-17 7.66 -17 8.32 -17 9 C-13.37206002 7.13433512 -13.37206002 7.13433512 -11 4 C-9.00390625 3.18359375 -9.00390625 3.18359375 -6.5625 2.4375 C-3.20847148 1.40082993 -3.20847148 1.40082993 0 0 Z " fill="#183A7E" transform="translate(430,253)"/>
<path d="M0 0 C1.66272703 0.20222356 3.33054185 0.36411387 5 0.5 C9.77777778 0.88888889 9.77777778 0.88888889 12 2 C12 2.66 12 3.32 12 4 C11.01 4 10.02 4 9 4 C9 3.34 9 2.68 9 2 C6.69 2.33 4.38 2.66 2 3 C1.67 3.99 1.34 4.98 1 6 C0.484375 5.79375 -0.03125 5.5875 -0.5625 5.375 C-4.00759148 4.84498593 -6.69447423 6.02058496 -10 7 C-10.66 6.67 -11.32 6.34 -12 6 C-12 4.02 -12 2.04 -12 0 C-7.45950903 -2.20538133 -4.52381649 -2.26190825 0 0 Z " fill="#194374" transform="translate(319,97)"/>
<path d="M0 0 C0.66 0 1.32 0 2 0 C2 0.66 2 1.32 2 2 C2.66 2.33 3.32 2.66 4 3 C3.32904297 3.49306641 3.32904297 3.49306641 2.64453125 3.99609375 C-1.83293975 7.51888011 -4.34908454 10.8882244 -6.76171875 16.046875 C-8.23441974 18.36974723 -9.53363219 18.89490648 -12 20 C-12.33 20.66 -12.66 21.32 -13 22 C-14 24 -14 24 -16.0625 25 C-16.701875 25.33 -17.34125 25.66 -18 26 C-18.36162029 27.32594105 -18.69728039 28.65938457 -19 30 C-19.99 30.33 -20.98 30.66 -22 31 C-21 29 -21 29 -20 27 C-19.59007812 26.02740234 -19.59007812 26.02740234 -19.171875 25.03515625 C-17.79046302 22.63610412 -16.42826438 21.6954863 -14.125 20.1875 C-10.01810418 17.26787043 -8.16688701 14.51434795 -6 10 C-7.65 9.67 -9.3 9.34 -11 9 C-11 8.67 -11 8.34 -11 8 C-10.071875 7.938125 -9.14375 7.87625 -8.1875 7.8125 C-4.83512336 7.32181759 -4.83512336 7.32181759 -3.25 4.5625 C-2.8375 3.716875 -2.425 2.87125 -2 2 C-1.34 1.34 -0.68 0.68 0 0 Z " fill="#183B7D" transform="translate(471,206)"/>
<path d="M0 0 C2.97 0.33 5.94 0.66 9 1 C9.33 3.31 9.66 5.62 10 8 C9.030625 7.979375 8.06125 7.95875 7.0625 7.9375 C4.12534105 7.64381501 4.12534105 7.64381501 3 9 C0.32941149 9.14115161 -2.32432238 9.04247107 -5 9 C-4.34 7.35 -3.68 5.7 -3 4 C-2.34 4 -1.68 4 -1 4 C-0.67 2.68 -0.34 1.36 0 0 Z " fill="#247639" transform="translate(146,117)"/>
<path d="M0 0 C-0.33 1.98 -0.66 3.96 -1 6 C-2.98 6.33 -4.96 6.66 -7 7 C-7.33 6.34 -7.66 5.68 -8 5 C-8.66 5 -9.32 5 -10 5 C-10 5.66 -10 6.32 -10 7 C-10.99 7 -11.98 7 -13 7 C-13 7.66 -13 8.32 -13 9 C-13.66 9 -14.32 9 -15 9 C-15 8.34 -15 7.68 -15 7 C-16.98 7 -18.96 7 -21 7 C-21 6.34 -21 5.68 -21 5 C-13.95822299 1.4208462 -7.87110124 0 0 0 Z " fill="#247737" transform="translate(287,42)"/>
<path d="M0 0 C4.08999548 0.65439928 7.74151823 2.4867671 11 5 C12.75 8 12.75 8 14 11 C14.5775 11.721875 15.155 12.44375 15.75 13.1875 C16.1625 13.785625 16.575 14.38375 17 15 C16.67 15.99 16.34 16.98 16 18 C13.5 16.625 13.5 16.625 11 15 C11 14.34 11 13.68 11 13 C10.34 13 9.68 13 9 13 C8.67 11.68 8.34 10.36 8 9 C7.34 9 6.68 9 6 9 C6 8.01 6 7.02 6 6 C5.01 6 4.02 6 3 6 C3 5.34 3 4.68 3 4 C2.34 4 1.68 4 1 4 C0.67 2.68 0.34 1.36 0 0 Z " fill="#247836" transform="translate(219,201)"/>
<path d="M0 0 C2.31 0 4.62 0 7 0 C7 2.97 7 5.94 7 9 C4.36 9 1.72 9 -1 9 C-1 8.34 -1 7.68 -1 7 C-3.31 6.67 -5.62 6.34 -8 6 C-7.67 5.34 -7.34 4.68 -7 4 C-6.34 4 -5.68 4 -5 4 C-4.67 3.01 -4.34 2.02 -4 1 C-3.01 1.66 -2.02 2.32 -1 3 C-0.67 2.01 -0.34 1.02 0 0 Z " fill="#257D31" transform="translate(336,51)"/>
<path d="M0 0 C-1.875 4.75 -1.875 4.75 -3 7 C-8.67276511 7.29341888 -11.99067246 7.00559652 -17 4 C-17 3.67 -17 3.34 -17 3 C-15.35 2.67 -13.7 2.34 -12 2 C-12 1.34 -12 0.68 -12 0 C-7.66726186 -0.92844389 -4.33273814 -0.92844389 0 0 Z " fill="#1A476F" transform="translate(308,37)"/>
<path d="M0 0 C0.66 0 1.32 0 2 0 C2 0.66 2 1.32 2 2 C2.99 2 3.98 2 5 2 C5 2.66 5 3.32 5 4 C5.99 3.67 6.98 3.34 8 3 C9 6 9 6 8 9 C7.96125079 10.66621616 7.9549714 12.33394172 8 14 C5.69 14.33 3.38 14.66 1 15 C1 13.35 1 11.7 1 10 C2.65 9.34 4.3 8.68 6 8 C6 7.34 6 6.68 6 6 C4.35 6.33 2.7 6.66 1 7 C-0.0625 4.625 -0.0625 4.625 -1 2 C-0.67 1.34 -0.34 0.68 0 0 Z " fill="#1B4A6B" transform="translate(415,87)"/>
<path d="M0 0 C0.99 0.33 1.98 0.66 3 1 C2.01 1.495 2.01 1.495 1 2 C2.98 2.66 4.96 3.32 7 4 C1.99926683 6.80041057 -3.25451416 8.34821126 -9 8 C-9.625 6.1875 -9.625 6.1875 -10 4 C-9.34 3.01 -8.68 2.02 -8 1 C-4.4375 0.875 -4.4375 0.875 -1 1 C-0.67 0.67 -0.34 0.34 0 0 Z " fill="#226F41" transform="translate(425,113)"/>
<path d="M0 0 C0.66 0.33 1.32 0.66 2 1 C0.125 6.875 0.125 6.875 -1 8 C-2.43193921 8.20912703 -3.87141054 8.36791979 -5.3125 8.5 C-8.30589146 8.77707425 -11.09908418 9.20340984 -14 10 C-13.75 8.125 -13.75 8.125 -13 6 C-9.82026536 3.64464101 -6.84875379 3.82505665 -3 4 C-2.67 3.01 -2.34 2.02 -2 1 C-1.34 0.67 -0.68 0.34 0 0 Z " fill="#173881" transform="translate(441,243)"/>
<path d="M0 0 C0.33 0.66 0.66 1.32 1 2 C0.34 3.32 -0.32 4.64 -1 6 C-4.96 6 -8.92 6 -13 6 C-13 5.34 -13 4.68 -13 4 C-13.99 4.66 -14.98 5.32 -16 6 C-17.32 6 -18.64 6 -20 6 C-19 4 -19 4 -16 2 C-13.66585471 2.32759934 -11.33247761 2.66073053 -9 3 C-8.34 2.34 -7.68 1.68 -7 1 C-4.67724823 0.59952556 -2.34260643 0.2602896 0 0 Z " fill="#23723D" transform="translate(111,129)"/>
<path d="M0 0 C1.65 0 3.3 0 5 0 C5 0.66 5 1.32 5 2 C5.99 2.33 6.98 2.66 8 3 C7.34 3 6.68 3 6 3 C5.67 5.31 5.34 7.62 5 10 C4.01 10.33 3.02 10.66 2 11 C1.67 10.01 1.34 9.02 1 8 C-0.65 8.33 -2.3 8.66 -4 9 C-3.67 7.68 -3.34 6.36 -3 5 C-3.66 5 -4.32 5 -5 5 C-5 4.34 -5 3.68 -5 3 C-2.36 3 0.28 3 3 3 C2.01 2.01 1.02 1.02 0 0 Z " fill="#1A4572" transform="translate(388,108)"/>
<path d="M0 0 C0.9375 1.6875 0.9375 1.6875 1 4 C-1.50386196 7.91228431 -3.30331051 10.08928406 -7.8125 11.375 C-8.864375 11.58125 -9.91625 11.7875 -11 12 C-11.33 11.34 -11.66 10.68 -12 10 C-11.360625 9.87625 -10.72125 9.7525 -10.0625 9.625 C-9.381875 9.41875 -8.70125 9.2125 -8 9 C-7.67 8.34 -7.34 7.68 -7 7 C-6.34 7 -5.68 7 -5 7 C-5 6.01 -5 5.02 -5 4 C-6.98 4 -8.96 4 -11 4 C-11.33 3.34 -11.66 2.68 -12 2 C-11.34 2 -10.68 2 -10 2 C-9.67 1.34 -9.34 0.68 -9 0 C-2.57142857 -1.28571429 -2.57142857 -1.28571429 0 0 Z " fill="#1A4571" transform="translate(414,27)"/>
<path d="M0 0 C3.3 0.33 6.6 0.66 10 1 C10 1.66 10 2.32 10 3 C10.78375 3.061875 11.5675 3.12375 12.375 3.1875 C13.24125 3.455625 14.1075 3.72375 15 4 C16.3125 6.5625 16.3125 6.5625 17 9 C15.35 9 13.7 9 12 9 C12 8.01 12 7.02 12 6 C11.13375 6.103125 10.2675 6.20625 9.375 6.3125 C4.74110256 5.88343542 3.28900932 4.21069957 0 1 C0 0.67 0 0.34 0 0 Z " fill="#237539" transform="translate(322,34)"/>
<path d="M0 0 C3.24208567 0.35049575 4.61527704 0.56221181 6.8125 3.0625 C7.204375 3.701875 7.59625 4.34125 8 5 C5.375 9.875 5.375 9.875 2 11 C1.71125 10.030625 1.4225 9.06125 1.125 8.0625 C0.35785318 4.89335797 0.35785318 4.89335797 -2 4 C-1.34 2.68 -0.68 1.36 0 0 Z " fill="#23753A" transform="translate(211,163)"/>
<path d="M0 0 C2.31 0.33 4.62 0.66 7 1 C7 1.66 7 2.32 7 3 C7.99 3 8.98 3 10 3 C9.34 4.32 8.68 5.64 8 7 C7.34 7 6.68 7 6 7 C5.01 8.485 5.01 8.485 4 10 C3.34 9.67 2.68 9.34 2 9 C2.66 7.35 3.32 5.7 4 4 C3.01 4.66 2.02 5.32 1 6 C-1.26171875 5.9765625 -1.26171875 5.9765625 -3.6875 5.625 C-4.49574219 5.51414062 -5.30398438 5.40328125 -6.13671875 5.2890625 C-7.05904297 5.14597656 -7.05904297 5.14597656 -8 5 C-6 3 -6 3 -3.8359375 2.8046875 C-2.61777344 2.83949219 -2.61777344 2.83949219 -1.375 2.875 C-0.14910156 2.90207031 -0.14910156 2.90207031 1.1015625 2.9296875 C2.04128906 2.96449219 2.04128906 2.96449219 3 3 C3 2.34 3 1.68 3 1 C2.01 0.67 1.02 0.34 0 0 Z " fill="#194374" transform="translate(405,84)"/>
<path d="M0 0 C0.66 1.32 1.32 2.64 2 4 C1.01 4 0.02 4 -1 4 C-1 4.99 -1 5.98 -1 7 C-4.375 7.625 -4.375 7.625 -8 8 C-8.66 7.34 -9.32 6.68 -10 6 C-10 5.01 -10 4.02 -10 3 C-5.05 1.515 -5.05 1.515 0 0 Z " fill="#1B486E" transform="translate(137,128)"/>
<path d="M0 0 C3.71599191 -0.20086443 4.77208445 -0.1519437 8 2 C8 3.32 8 4.64 8 6 C10.31 6 12.62 6 15 6 C14.67 6.66 14.34 7.32 14 8 C11.36 8 8.72 8 6 8 C6 7.34 6 6.68 6 6 C5.071875 5.9071875 5.071875 5.9071875 4.125 5.8125 C2 5 2 5 0.75 2.4375 C0.5025 1.633125 0.255 0.82875 0 0 Z " fill="#1F5F54" transform="translate(342,37)"/>
<path d="M0 0 C1.65 0 3.3 0 5 0 C5 0.66 5 1.32 5 2 C5.73605469 1.855625 6.47210938 1.71125 7.23046875 1.5625 C8.20628906 1.376875 9.18210938 1.19125 10.1875 1 C11.15042969 0.814375 12.11335937 0.62875 13.10546875 0.4375 C15.7934206 0.03122388 18.28771019 -0.07933572 21 0 C21 0.99 21 1.98 21 3 C17.0186217 4.3271261 13.14954773 4.06915913 9 4 C9 4.66 9 5.32 9 6 C8.01 5.67 7.02 5.34 6 5 C6.33 4.67 6.66 4.34 7 4 C6.01 3.67 5.02 3.34 4 3 C4 2.34 4 1.68 4 1 C2.68 1.33 1.36 1.66 0 2 C0 1.34 0 0.68 0 0 Z " fill="#1F5D56" transform="translate(216,81)"/>
<path d="M0 0 C0 0.66 0 1.32 0 2 C-3.63 2.66 -7.26 3.32 -11 4 C-11.33 3.01 -11.66 2.02 -12 1 C-12.66 1 -13.32 1 -14 1 C-14 0.34 -14 -0.32 -14 -1 C-4.22727273 -2.81818182 -4.22727273 -2.81818182 0 0 Z " fill="#247935" transform="translate(413,66)"/>
<path d="M0 0 C2.92879371 0.62759865 5.36095629 1.58622659 8 3 C8 4.32 8 5.64 8 7 C3.45194365 7.17835515 0.1205746 6.99785435 -4 5 C-3.01 4.34 -2.02 3.68 -1 3 C-0.67 2.01 -0.34 1.02 0 0 Z " fill="#247A34" transform="translate(342,93)"/>
<path d="M0 0 C2.31 0.66 4.62 1.32 7 2 C7.33 3.65 7.66 5.3 8 7 C7.01 7.33 6.02 7.66 5 8 C5 6.35 5 4.7 5 3 C4.17361624 5.89234315 4 7.88742431 4 11 C3.34 11 2.68 11 2 11 C-0.67927341 6.98108988 -0.15601248 4.75838077 0 0 Z " fill="#226E42" transform="translate(197,149)"/>
<path d="M0 0 C-0.33 0.99 -0.66 1.98 -1 3 C-1.515625 2.79375 -2.03125 2.5875 -2.5625 2.375 C-6.00759148 1.84498593 -8.69447423 3.02058496 -12 4 C-12.66 3.67 -13.32 3.34 -14 3 C-14 2.01 -14 1.02 -14 0 C-8.44766951 -2.1951074 -5.52852971 -1.84284324 0 0 Z " fill="#1D555E" transform="translate(321,100)"/>
<path d="M0 0 C0.66 0 1.32 0 2 0 C1.67 1.65 1.34 3.3 1 5 C1.66 5 2.32 5 3 5 C3 5.66 3 6.32 3 7 C2.34 7 1.68 7 1 7 C1.33 7.66 1.66 8.32 2 9 C2.99 9.33 3.98 9.66 5 10 C5 11.65 5 13.3 5 15 C2.69 15 0.38 15 -2 15 C-1.62875 14.4225 -1.2575 13.845 -0.875 13.25 C-0.441875 12.13625 -0.441875 12.13625 0 11 C-0.33 10.401875 -0.66 9.80375 -1 9.1875 C-2.54719186 5.80301781 -1.17172169 3.38497377 0 0 Z " fill="#194176" transform="translate(383,69)"/>
<path d="M0 0 C2.64 0 5.28 0 8 0 C7.67 0.66 7.34 1.32 7 2 C6.01 2 5.02 2 4 2 C4.4100567 4.07935207 4.4100567 4.07935207 6 6 C8.69658452 6.68790422 11.2017019 6.81946464 14 7 C14 7.33 14 7.66 14 8 C9.48382401 8.07654536 5.40914783 8.10228696 1 7 C0.67 4.69 0.34 2.38 0 0 Z " fill="#1B4A6B" transform="translate(320,33)"/>
<path d="M0 0 C0.66 0 1.32 0 2 0 C2 0.99 2 1.98 2 3 C2.99 3 3.98 3 5 3 C4.34 4.65 3.68 6.3 3 8 C2.34 8 1.68 8 1 8 C0.67 9.32 0.34 10.64 0 12 C-2 9 -2 9 -1.6875 5.4375 C-1 2 -1 2 0 0 Z " fill="#1F5E54" transform="translate(505,214)"/>
<path d="M0 0 C0.99 0.33 1.98 0.66 3 1 C4 5.75 4 5.75 4 8 C4.32205743 10.33491639 4.65458149 12.66842508 5 15 C1.88770267 12.45357491 1.22116068 9.74489276 0 6 C-0.66 5.67 -1.32 5.34 -2 5 C-2 3.68 -2 2.36 -2 1 C-1.34 0.67 -0.68 0.34 0 0 Z " fill="#20634F" transform="translate(204,158)"/>
<path d="M0 0 C6.75 1.875 6.75 1.875 9 3 C9 3.99 9 4.98 9 6 C5.37 5.67 1.74 5.34 -2 5 C-2 2 -2 2 0 0 Z " fill="#257E30" transform="translate(396,437)"/>
<path d="M0 0 C-5.01654669 3.34436446 -10.58540366 5.20815486 -16.625 4.6875 C-17.40875 4.460625 -18.1925 4.23375 -19 4 C-19 3.34 -19 2.68 -19 2 C-12.56986533 0.26044666 -6.65050424 -0.24991456 0 0 Z " fill="#1E595A" transform="translate(387,19)"/>
<path d="M0 0 C0.99 0 1.98 0 3 0 C3.33 0.66 3.66 1.32 4 2 C5.98 1.67 7.96 1.34 10 1 C10 2.32 10 3.64 10 5 C3.6 6.23076923 3.6 6.23076923 0.5625 5.0625 C0.046875 4.711875 -0.46875 4.36125 -1 4 C-0.67 2.68 -0.34 1.36 0 0 Z " fill="#1B4D68" transform="translate(489,217)"/>
<path d="M0 0 C1.4540625 0.0309375 1.4540625 0.0309375 2.9375 0.0625 C2.9375 1.7125 2.9375 3.3625 2.9375 5.0625 C0.6275 5.3925 -1.6825 5.7225 -4.0625 6.0625 C-4.105221 4.39638095 -4.10313832 2.72867115 -4.0625 1.0625 C-3.0625 0.0625 -3.0625 0.0625 0 0 Z " fill="#247935" transform="translate(420.0625,95.9375)"/>
<path d="M0 0 C1.41655793 -0.0272415 2.83327045 -0.04650467 4.25 -0.0625 C5.43335938 -0.07990234 5.43335938 -0.07990234 6.640625 -0.09765625 C8.96285143 -0.00153761 10.8300721 0.15987305 13 1 C13.33 1.99 13.66 2.98 14 4 C7.73 3.67 1.46 3.34 -5 3 C-5 2.67 -5 2.34 -5 2 C-3.35 1.67 -1.7 1.34 0 1 C0 0.67 0 0.34 0 0 Z " fill="#194374" transform="translate(283,85)"/>
<path d="M0 0 C3.46069717 5.19104576 4.17386794 6.77849991 3 13 C2.34 13 1.68 13 1 13 C1 10.69 1 8.38 1 6 C0.34 6 -0.32 6 -1 6 C-1.33 5.34 -1.66 4.68 -2 4 C-2.66 3.67 -3.32 3.34 -4 3 C-2.68 2.67 -1.36 2.34 0 2 C0 1.34 0 0.68 0 0 Z " fill="#1A4671" transform="translate(348,201)"/>
<path d="M0 0 C2.83341232 0.31179644 5.66672955 0.62441917 8.5 0.9375 C9.29148438 1.02451172 10.08296875 1.11152344 10.8984375 1.20117188 C15.93815103 1.75884509 20.97010066 2.35972612 26 3 C26 3.33 26 3.66 26 4 C17.86455314 4.28545428 10.02350304 3.18396883 2 2 C1.67 2.66 1.34 3.32 1 4 C0.67 2.68 0.34 1.36 0 0 Z " fill="#22713F" transform="translate(240,215)"/>
<path d="M0 0 C0.66 0 1.32 0 2 0 C2 1.65 2 3.3 2 5 C2.99 5 3.98 5 5 5 C5 5.99 5 6.98 5 8 C2.03 7.01 -0.94 6.02 -4 5 C-4.33 5.99 -4.66 6.98 -5 8 C-5 6.68 -5 5.36 -5 4 C-4.34 4 -3.68 4 -3 4 C-3.33 3.01 -3.66 2.02 -4 1 C-3.34 1 -2.68 1 -2 1 C-2 1.99 -2 2.98 -2 4 C-1.34 4 -0.68 4 0 4 C0 2.68 0 1.36 0 0 Z " fill="#1B4C6A" transform="translate(201,144)"/>
<path d="M0 0 C2.64 0.33 5.28 0.66 8 1 C8.33 2.65 8.66 4.3 9 6 C7.1875 6.6875 7.1875 6.6875 5 7 C3.4375 5.6875 3.4375 5.6875 2 4 C1.01 3.34 0.02 2.68 -1 2 C-0.67 1.34 -0.34 0.68 0 0 Z " fill="#194077" transform="translate(282,93)"/>
<path d="M0 0 C2.375 -0.125 2.375 -0.125 5 0 C7 2 7 2 7 5 C4.03 4.67 1.06 4.34 -2 4 C-1.34 2.68 -0.68 1.36 0 0 Z " fill="#257C32" transform="translate(350,57)"/>
<path d="M0 0 C0.66 0.33 1.32 0.66 2 1 C1.67 1.66 1.34 2.32 1 3 C2.32 2.67 3.64 2.34 5 2 C5 2.66 5 3.32 5 4 C2.04518508 6.74375671 1.22528092 7 -3 7 C-3.66 5.68 -4.32 4.36 -5 3 C-4.01 3 -3.02 3 -2 3 C-2 2.34 -2 1.68 -2 1 C-1.34 0.67 -0.68 0.34 0 0 Z " fill="#1A476F" transform="translate(279,46)"/>
<path d="M0 0 C0.33 0 0.66 0 1 0 C2.42857143 8.57142857 2.42857143 8.57142857 0 12 C-0.66 12 -1.32 12 -2 12 C-2.05395478 10.37536158 -2.09277195 8.75021459 -2.125 7.125 C-2.14820313 6.22007812 -2.17140625 5.31515625 -2.1953125 4.3828125 C-2 2 -2 2 0 0 Z " fill="#257E2F" transform="translate(399,414)"/>
<path d="M0 0 C0.66 0.33 1.32 0.66 2 1 C1.01 1.33 0.02 1.66 -1 2 C-1.309375 2.639375 -1.61875 3.27875 -1.9375 3.9375 C-3 6 -3 6 -5.0625 7 C-6.0215625 7.495 -6.0215625 7.495 -7 8 C-7.36162029 9.32594105 -7.69728039 10.65938457 -8 12 C-8.99 12.33 -9.98 12.66 -11 13 C-10.33333333 11.66666667 -9.66666667 10.33333333 -9 9 C-8.773125 8.360625 -8.54625 7.72125 -8.3125 7.0625 C-6.26248855 3.84105343 -3.16117557 2.06237123 0 0 Z " fill="#1F5D55" transform="translate(460,224)"/>
<path d="M0 0 C0.66 0.33 1.32 0.66 2 1 C2 1.66 2 2.32 2 3 C4.64 3 7.28 3 10 3 C9.67 4.65 9.34 6.3 9 8 C7.948125 7.525625 6.89625 7.05125 5.8125 6.5625 C2.89824149 5.30676259 0.15253086 4.47765619 -3 4 C-3 3.34 -3 2.68 -3 2 C-2.01 2 -1.02 2 0 2 C0 1.34 0 0.68 0 0 Z " fill="#1B4C69" transform="translate(221,198)"/>
<path d="M0 0 C0.33 0.99 0.66 1.98 1 3 C-3.455 3.495 -3.455 3.495 -8 4 C-8 4.66 -8 5.32 -8 6 C-6.68 6 -5.36 6 -4 6 C-4 6.99 -4 7.98 -4 9 C-6.97 8.505 -6.97 8.505 -10 8 C-9.67 5.69 -9.34 3.38 -9 1 C-6.03 1.33 -3.06 1.66 0 2 C0 1.34 0 0.68 0 0 Z " fill="#1B496D" transform="translate(350,98)"/>
<path d="M0 0 C0.66 0 1.32 0 2 0 C2 1.65 2 3.3 2 5 C2.66 4.67 3.32 4.34 4 4 C4 2.68 4 1.36 4 0 C4.99 0.33 5.98 0.66 7 1 C6.67 2.65 6.34 4.3 6 6 C4.68 6.33 3.36 6.66 2 7 C2 7.99 2 8.98 2 10 C1.01 10 0.02 10 -1 10 C-1 9.34 -1 8.68 -1 8 C-0.34 8 0.32 8 1 8 C0.67 5.36 0.34 2.72 0 0 Z " fill="#193F78" transform="translate(200,152)"/>
<path d="M0 0 C0.33 0.66 0.66 1.32 1 2 C-1.475 3.485 -1.475 3.485 -4 5 C-1.36 5.33 1.28 5.66 4 6 C4 6.33 4 6.66 4 7 C2.41705218 7.05437607 0.83355744 7.09296271 -0.75 7.125 C-1.63171875 7.14820313 -2.5134375 7.17140625 -3.421875 7.1953125 C-6.1135858 6.99139502 -7.69904974 6.36551721 -10 5 C-9 3 -9 3 -6.93359375 2.1484375 C-5.69802734 1.76558594 -5.69802734 1.76558594 -4.4375 1.375 C-3.61121094 1.11460937 -2.78492188 0.85421875 -1.93359375 0.5859375 C-1.29550781 0.39257812 -0.65742188 0.19921875 0 0 Z " fill="#1A476F" transform="translate(281,139)"/>
<path d="M0 0 C4.81938524 -0.23509196 8.46298506 0.54815522 13 2 C11.68 2.33 10.36 2.66 9 3 C9.33 3.99 9.66 4.98 10 6 C3.47692308 4.52307692 3.47692308 4.52307692 1.0625 1.875 C0.711875 1.25625 0.36125 0.6375 0 0 Z " fill="#1A4572" transform="translate(449,119)"/>
<path d="M0 0 C3.3 0.33 6.6 0.66 10 1 C9.67 2.32 9.34 3.64 9 5 C7.02 5.33 5.04 5.66 3 6 C0 1.125 0 1.125 0 0 Z " fill="#1B4D68" transform="translate(322,50)"/>
<path d="M0 0 C1.5 1.1875 1.5 1.1875 3 3 C3.1875 5.6875 3.1875 5.6875 3 8 C1.35 8.33 -0.3 8.66 -2 9 C-2 7.35 -2 5.7 -2 4 C-2.66 3.67 -3.32 3.34 -4 3 C-3.01 3 -2.02 3 -1 3 C-0.67 2.01 -0.34 1.02 0 0 Z " fill="#20644E" transform="translate(534,198)"/>
<path d="M0 0 C5.78898419 -0.20674944 10.42932723 0.40837921 16 2 C16 2.66 16 3.32 16 4 C9.9453125 4.1953125 9.9453125 4.1953125 8 4 C7.34 3.34 6.68 2.68 6 2 C4.01178687 1.60235737 2.01055661 1.26224651 0 1 C0 0.67 0 0.34 0 0 Z " fill="#1C4F66" transform="translate(367,116)"/>
<path d="M0 0 C1.32 0.33 2.64 0.66 4 1 C4 3.64 4 6.28 4 9 C3.01 9 2.02 9 1 9 C0.67 6.03 0.34 3.06 0 0 Z " fill="#1F5F54" transform="translate(204,177)"/>
<path d="M0 0 C3 1 3 1 4.16796875 3.28515625 C4.50441406 4.20167969 4.84085938 5.11820313 5.1875 6.0625 C5.53167969 6.98160156 5.87585938 7.90070313 6.23046875 8.84765625 C6.48441406 9.55792969 6.73835937 10.26820313 7 11 C4.58203125 10.640625 4.58203125 10.640625 2 10 C0.05074939 6.65842753 -0.21821974 3.81884554 0 0 Z " fill="#183E7A" transform="translate(202,163)"/>
<path d="M0 0 C0 0.66 0 1.32 0 2 C-1.45463481 2.38909985 -2.91391207 2.76088029 -4.375 3.125 C-5.18710937 3.33382812 -5.99921875 3.54265625 -6.8359375 3.7578125 C-7.55007813 3.83773437 -8.26421875 3.91765625 -9 4 C-9.66 3.34 -10.32 2.68 -11 2 C-7.374967 -1.625033 -4.81746234 -1.01907857 0 0 Z " fill="#194275" transform="translate(303,135)"/>
<path d="M0 0 C2.97 0.495 2.97 0.495 6 1 C6 3 6 3 3.75 5.6875 C1 8 1 8 -1.3125 7.8125 C-2.1478125 7.4103125 -2.1478125 7.4103125 -3 7 C-2.34 6.67 -1.68 6.34 -1 6 C-1 5.34 -1 4.68 -1 4 C-0.34 3.67 0.32 3.34 1 3 C0.67 2.01 0.34 1.02 0 0 Z " fill="#1B4A6B" transform="translate(255,109)"/>
<path d="M0 0 C0.66 0.66 1.32 1.32 2 2 C0.35 4.97 -1.3 7.94 -3 11 C-3.66 10.67 -4.32 10.34 -5 10 C-3.68 7.69 -2.36 5.38 -1 3 C-2.65 2.67 -4.3 2.34 -6 2 C-6 1.67 -6 1.34 -6 1 C-3.125 0.375 -3.125 0.375 0 0 Z " fill="#1B4A6B" transform="translate(466,213)"/>
<path d="M0 0 C2.97 0 5.94 0 9 0 C9 0.66 9 1.32 9 2 C5.12315913 3.19287411 2.08378077 4 -2 4 C-1.34 2.68 -0.68 1.36 0 0 Z " fill="#1A4473" transform="translate(429,184)"/>
<path d="M0 0 C0 0.99 0 1.98 0 3 C-1.65 3 -3.3 3 -5 3 C-5 2.34 -5 1.68 -5 1 C-5.99 1.66 -6.98 2.32 -8 3 C-9.32 3 -10.64 3 -12 3 C-9.25685822 -2.48628357 -5.00729182 -0.82086751 0 0 Z " fill="#216947" transform="translate(103,132)"/>
<path d="M0 0 C1.32 0.66 2.64 1.32 4 2 C4.66 1.34 5.32 0.68 6 0 C6 1.98 6 3.96 6 6 C3.03 5.67 0.06 5.34 -3 5 C-2.67 4.34 -2.34 3.68 -2 3 C-1.34 3 -0.68 3 0 3 C0 2.01 0 1.02 0 0 Z " fill="#226F40" transform="translate(331,52)"/>
<path d="M0 0 C3.96 0 7.92 0 12 0 C12.33 0.99 12.66 1.98 13 3 C9.37 2.67 5.74 2.34 2 2 C1.67 2.66 1.34 3.32 1 4 C0.67 2.68 0.34 1.36 0 0 Z " fill="#23743B" transform="translate(252,320)"/>
<path d="M0 0 C0.66 0.33 1.32 0.66 2 1 C-2.27575688 5.13782924 -6.31953056 6.05944297 -12 7 C-12 6.34 -12 5.68 -12 5 C-10.04578965 4.13644222 -8.08648653 3.28440066 -6.125 2.4375 C-5.03445313 1.96183594 -3.94390625 1.48617188 -2.8203125 0.99609375 C-1.88960938 0.66738281 -0.95890625 0.33867188 0 0 Z " fill="#1A4571" transform="translate(442,4)"/>
<path d="M0 0 C1.52519276 0.08937803 3.04681929 0.24537146 4.5625 0.4375 C5.80193359 0.59025391 5.80193359 0.59025391 7.06640625 0.74609375 C7.70449219 0.82988281 8.34257812 0.91367187 9 1 C8.67 1.66 8.34 2.32 8 3 C5.67843403 3.40729228 3.3431213 3.74438677 1 4 C0.34 3.01 -0.32 2.02 -1 1 C-0.67 0.67 -0.34 0.34 0 0 Z " fill="#23723D" transform="translate(457,404)"/>
<path d="M0 0 C0.66 0 1.32 0 2 0 C2 0.66 2 1.32 2 2 C2.99 2 3.98 2 5 2 C4.67 3.32 4.34 4.64 4 6 C2.35 6 0.7 6 -1 6 C-1.042721 4.33388095 -1.04063832 2.66617115 -1 1 C-0.67 0.67 -0.34 0.34 0 0 Z " fill="#1B4A6C" transform="translate(425,92)"/>
<path d="M0 0 C1.9375 0.6875 1.9375 0.6875 4 2 C4.75 4.625 4.75 4.625 5 7 C3.68 7 2.36 7 1 7 C0.34 5.02 -0.32 3.04 -1 1 C-0.67 0.67 -0.34 0.34 0 0 Z " fill="#23743A" transform="translate(281,376)"/>
<path d="M0 0 C3.3 0 6.6 0 10 0 C9.01 0.33 8.02 0.66 7 1 C7 1.99 7 2.98 7 4 C4.03 3.505 4.03 3.505 1 3 C0.67 2.01 0.34 1.02 0 0 Z " fill="#1A476F" transform="translate(410,236)"/>
<path d="M0 0 C0.66 0 1.32 0 2 0 C2 0.66 2 1.32 2 2 C2.66 2 3.32 2 4 2 C4 1.34 4 0.68 4 0 C5.65 0.33 7.3 0.66 9 1 C9 1.66 9 2.32 9 3 C6.69 3.33 4.38 3.66 2 4 C1.34 2.68 0.68 1.36 0 0 Z " fill="#23723D" transform="translate(127,132)"/>
<path d="M0 0 C4.29 0 8.58 0 13 0 C13 0.99 13 1.98 13 3 C11.20759337 2.88610125 9.41605165 2.75852313 7.625 2.625 C6.12839844 2.52058594 6.12839844 2.52058594 4.6015625 2.4140625 C2 2 2 2 0 0 Z " fill="#1A4572" transform="translate(384,89)"/>
<path d="M0 0 C3.71599191 -0.20086443 4.77208445 -0.1519437 8 2 C8 2.99 8 3.98 8 5 C6.68 5 5.36 5 4 5 C4 4.34 4 3.68 4 3 C2.68 2.67 1.36 2.34 0 2 C0 1.34 0 0.68 0 0 Z " fill="#247738" transform="translate(342,37)"/>
<path d="M0 0 C1.65 0 3.3 0 5 0 C5 0.99 5 1.98 5 3 C4.34 3 3.68 3 3 3 C3 4.32 3 5.64 3 7 C2.34 7 1.68 7 1 7 C-0.0625 4.625 -0.0625 4.625 -1 2 C-0.67 1.34 -0.34 0.68 0 0 Z " fill="#257C32" transform="translate(198,141)"/>
<path d="M0 0 C0.33 0.66 0.66 1.32 1 2 C2.32 1.67 3.64 1.34 5 1 C5 1.66 5 2.32 5 3 C6.98 3 8.96 3 11 3 C11 3.99 11 4.98 11 6 C9.68 6.33 8.36 6.66 7 7 C7 6.01 7 5.02 7 4 C4.69 3.67 2.38 3.34 0 3 C0 2.01 0 1.02 0 0 Z " fill="#216948" transform="translate(460,92)"/>
<path d="M0 0 C0 0.66 0 1.32 0 2 C2.97 2 5.94 2 9 2 C9 2.33 9 2.66 9 3 C2.72532201 4.0748291 -1.90660831 3.88341198 -8 2 C-4.91190305 0.23537317 -3.76687864 0 0 0 Z " fill="#1B496D" transform="translate(369,48)"/>
<path d="M0 0 C1.32 0.33 2.64 0.66 4 1 C4 1.66 4 2.32 4 3 C2.68 3 1.36 3 0 3 C0 3.66 0 4.32 0 5 C0.99 5.33 1.98 5.66 3 6 C1.02 6.66 -0.96 7.32 -3 8 C-2.45276317 4.62537285 -1.9451 2.91765 0 0 Z " fill="#194374" transform="translate(349,23)"/>
<path d="M0 0 C-1.32 0 -2.64 0 -4 0 C-4 0.66 -4 1.32 -4 2 C-6.64 2 -9.28 2 -12 2 C-10.28335317 -0.07804617 -9.14918841 -0.95027053 -6.5625 -1.8125 C-3.68335622 -2.02316906 -2.41021064 -1.51754003 0 0 Z " fill="#23713E" transform="translate(388,22)"/>
<path d="M0 0 C0.99 0.99 1.98 1.98 3 3 C1 5 1 5 -1.1640625 5.1953125 C-2.38222656 5.16050781 -2.38222656 5.16050781 -3.625 5.125 C-4.44226563 5.10695313 -5.25953125 5.08890625 -6.1015625 5.0703125 C-6.72804688 5.04710937 -7.35453125 5.02390625 -8 5 C-8 4.67 -8 4.34 -8 4 C-7.236875 3.896875 -6.47375 3.79375 -5.6875 3.6875 C-2.82940576 2.95635961 -1.84257115 2.23048087 0 0 Z " fill="#1A4472" transform="translate(484,396)"/>
<path d="M0 0 C-1.2739589 2.03833424 -2.61061923 4.03852126 -4 6 C-4.66 6 -5.32 6 -6 6 C-6 4.02 -6 2.04 -6 0 C-3 -1 -3 -1 0 0 Z " fill="#183B7E" transform="translate(528,204)"/>
<path d="M0 0 C6.75 -0.125 6.75 -0.125 9 1 C9 1.66 9 2.32 9 3 C6.36 3 3.72 3 1 3 C0.67 2.01 0.34 1.02 0 0 Z " fill="#247738" transform="translate(296,41)"/>
<path d="M0 0 C1.98 0 3.96 0 6 0 C5.67 0.99 5.34 1.98 5 3 C3.02 3.33 1.04 3.66 -1 4 C-0.67 2.68 -0.34 1.36 0 0 Z " fill="#247935" transform="translate(517,393)"/>
<path d="M0 0 C2.475 0.99 2.475 0.99 5 2 C4.67 3.32 4.34 4.64 4 6 C4.66 6 5.32 6 6 6 C6 6.66 6 7.32 6 8 C3.525 7.01 3.525 7.01 1 6 C1.66 5.67 2.32 5.34 3 5 C3 4.34 3 3.68 3 3 C1.68 2.67 0.36 2.34 -1 2 C-0.67 1.34 -0.34 0.68 0 0 Z " fill="#1B4B6A" transform="translate(385,337)"/>
<path d="M0 0 C0.66 0.33 1.32 0.66 2 1 C1.2884375 1.804375 1.2884375 1.804375 0.5625 2.625 C-1.28186076 5.42842836 -1.62456847 7.69620258 -2 11 C-2.66 11 -3.32 11 -4 11 C-3.67 9.02 -3.34 7.04 -3 5 C-3.66 4.67 -4.32 4.34 -5 4 C-3.35 2.68 -1.7 1.36 0 0 Z " fill="#194176" transform="translate(217,171)"/>
<path d="M0 0 C0.99 0.33 1.98 0.66 3 1 C3 3.31 3 5.62 3 8 C2.34 8 1.68 8 1 8 C-1 5 -1 5 -0.625 2.3125 C-0.41875 1.549375 -0.2125 0.78625 0 0 Z " fill="#1F5E55" transform="translate(198,152)"/>
<path d="M0 0 C0.66 0.33 1.32 0.66 2 1 C1.67 1.99 1.34 2.98 1 4 C3.47266765 3.65555119 3.47266765 3.65555119 6 3 C6.33 2.34 6.66 1.68 7 1 C7.66 1 8.32 1 9 1 C8.4375 2.9375 8.4375 2.9375 7 5 C3.375 5.75 3.375 5.75 0 6 C-1.24546405 3.50907189 -0.7767578 2.58919267 0 0 Z " fill="#1C4F67" transform="translate(381,38)"/>
<path d="M0 0 C0 0.66 0 1.32 0 2 C-8.57142857 2.28571429 -8.57142857 2.28571429 -12 0 C-7.66726186 -0.92844389 -4.33273814 -0.92844389 0 0 Z " fill="#20644E" transform="translate(308,37)"/>
<path d="M0 0 C0.33 0.66 0.66 1.32 1 2 C1.66 2.33 2.32 2.66 3 3 C3 4.98 3 6.96 3 9 C2.01 8.34 1.02 7.68 0 7 C0 6.01 0 5.02 0 4 C-1.65 3.67 -3.3 3.34 -5 3 C-4.360625 2.690625 -3.72125 2.38125 -3.0625 2.0625 C-1.06389179 1.1654837 -1.06389179 1.1654837 0 0 Z " fill="#194077" transform="translate(485,210)"/>
<path d="M0 0 C0.66 0 1.32 0 2 0 C1.1875 2.4375 1.1875 2.4375 0 5 C-0.99 5.33 -1.98 5.66 -3 6 C-3 6.66 -3 7.32 -3 8 C-3.66 8 -4.32 8 -5 8 C-4.67 6.68 -4.34 5.36 -4 4 C-3.34 4 -2.68 4 -2 4 C-1.34 2.68 -0.68 1.36 0 0 Z " fill="#1A4472" transform="translate(501,167)"/>
<path d="M0 0 C0.33 0.66 0.66 1.32 1 2 C2.97888961 2.72693904 4.97954558 3.39816251 7 4 C6.67 4.66 6.34 5.32 6 6 C5.01 6 4.02 6 3 6 C2.67 6.66 2.34 7.32 2 8 C1.34 8 0.68 8 0 8 C0 5.36 0 2.72 0 0 Z " fill="#1B4A6B" transform="translate(451,144)"/>
<path d="M0 0 C0.66 0.33 1.32 0.66 2 1 C1.79375 1.5775 1.5875 2.155 1.375 2.75 C0.91338739 5.51967567 1.57055055 6.64561267 3 9 C1.02 8.01 -0.96 7.02 -3 6 C-2.67 4.68 -2.34 3.36 -2 2 C-1.34 2 -0.68 2 0 2 C0 1.34 0 0.68 0 0 Z " fill="#1B4D69" transform="translate(451,100)"/>
<path d="M0 0 C0.66 0.33 1.32 0.66 2 1 C1.67 2.32 1.34 3.64 1 5 C-1.31 5.66 -3.62 6.32 -6 7 C-6.33 6.34 -6.66 5.68 -7 5 C-6.360625 4.87625 -5.72125 4.7525 -5.0625 4.625 C-4.381875 4.41875 -3.70125 4.2125 -3 4 C-2.67 3.34 -2.34 2.68 -2 2 C-1.34 2 -0.68 2 0 2 C0 1.34 0 0.68 0 0 Z " fill="#1B4D68" transform="translate(409,32)"/>
<path d="M0 0 C0.66 0.33 1.32 0.66 2 1 C0.87926138 1.83905565 -0.24674547 2.67107831 -1.375 3.5 C-2.31472656 4.19609375 -2.31472656 4.19609375 -3.2734375 4.90625 C-5 6 -5 6 -7 6 C-7 5.34 -7 4.68 -7 4 C-8.32 4.33 -9.64 4.66 -11 5 C-10 3 -10 3 -8.22265625 2.40234375 C-7.15337891 2.17224609 -7.15337891 2.17224609 -6.0625 1.9375 C-3.82845863 1.44690289 -2.05204395 1.02602198 0 0 Z " fill="#216749" transform="translate(437,8)"/>
<path d="M0 0 C2 1 4 2 6 3 C3 5 3 5 -0.1875 4.625 C-1.115625 4.41875 -2.04375 4.2125 -3 4 C-2.01 2.68 -1.02 1.36 0 0 Z " fill="#1B4D68" transform="translate(490,224)"/>
<path d="M0 0 C1.5778125 0.2475 1.5778125 0.2475 3.1875 0.5 C6.20468796 0.89569678 8.97093972 1.09178971 12 1 C12 1.99 12 2.98 12 4 C10.1858073 3.71905418 8.37364999 3.42493567 6.5625 3.125 C5.04849609 2.88136719 5.04849609 2.88136719 3.50390625 2.6328125 C2.67761719 2.42398438 1.85132813 2.21515625 1 2 C0.67 1.34 0.34 0.68 0 0 Z " fill="#226F41" transform="translate(367,225)"/>
<path d="M0 0 C5 6.36363636 5 6.36363636 5 11 C4.01 10.67 3.02 10.34 2 10 C0.47839986 6.3962102 0 3.94779314 0 0 Z " fill="#1B4C6A" transform="translate(206,155)"/>
<path d="M0 0 C5.94 0.99 5.94 0.99 12 2 C6.76844369 4.61577816 5.40261966 3.6207859 0 2 C0 1.34 0 0.68 0 0 Z " fill="#1D565E" transform="translate(359,128)"/>
<path d="M0 0 C4.8 2.46153846 4.8 2.46153846 5.8125 5.1875 C5.874375 5.785625 5.93625 6.38375 6 7 C5.01 7.33 4.02 7.66 3 8 C0 2.25 0 2.25 0 0 Z " fill="#1A4572" transform="translate(461,112)"/>
<path d="M0 0 C3.3 0 6.6 0 10 0 C9.01 0.495 9.01 0.495 8 1 C8.33 1.99 8.66 2.98 9 4 C6.03 3.01 3.06 2.02 0 1 C0 0.67 0 0.34 0 0 Z " fill="#1A4670" transform="translate(145,115)"/>
<path d="M0 0 C2.97 0 5.94 0 9 0 C8.67 0.99 8.34 1.98 8 3 C7.67 2.67 7.34 2.34 7 2 C6.34 2.66 5.68 3.32 5 4 C2.525 3.01 2.525 3.01 0 2 C0 1.34 0 0.68 0 0 Z " fill="#1A486E" transform="translate(324,93)"/>
<path d="M0 0 C1.65 0.33 3.3 0.66 5 1 C3 3 3 3 -0.2578125 3.1953125 C-1.53398437 3.17210938 -2.81015625 3.14890625 -4.125 3.125 C-6.04699219 3.09792969 -6.04699219 3.09792969 -8.0078125 3.0703125 C-9.48894531 3.03550781 -9.48894531 3.03550781 -11 3 C-11 2.67 -11 2.34 -11 2 C-7.37 2 -3.74 2 0 2 C0 1.34 0 0.68 0 0 Z " fill="#20644D" transform="translate(394,86)"/>
<path d="M0 0 C0.66 0 1.32 0 2 0 C2 0.99 2 1.98 2 3 C3.98 3 5.96 3 8 3 C8 3.99 8 4.98 8 6 C5.69 5.67 3.38 5.34 1 5 C0.67 3.35 0.34 1.7 0 0 Z " fill="#173880" transform="translate(373,36)"/>
<path d="M0 0 C3.3 0.33 6.6 0.66 10 1 C8.35 2.32 6.7 3.64 5 5 C4.67 4.34 4.34 3.68 4 3 C1.47266765 2.34444881 1.47266765 2.34444881 -1 2 C-0.67 1.34 -0.34 0.68 0 0 Z " fill="#1B4D69" transform="translate(361,17)"/>
<path d="M0 0 C3.3 0 6.6 0 10 0 C10 1.32 10 2.64 10 4 C9.34 4 8.68 4 8 4 C8 3.34 8 2.68 8 2 C5.69 2 3.38 2 1 2 C0.67 1.34 0.34 0.68 0 0 Z " fill="#1B4B6B" transform="translate(398,442)"/>
<path d="M0 0 C0.99 0.33 1.98 0.66 3 1 C3 1.66 3 2.32 3 3 C2.34 3 1.68 3 1 3 C1 6.63 1 10.26 1 14 C0.67 14 0.34 14 0 14 C-0.19393875 11.85473901 -0.37998676 9.70876323 -0.5625 7.5625 C-0.71912109 5.77005859 -0.71912109 5.77005859 -0.87890625 3.94140625 C-0.91886719 2.97074219 -0.95882813 2.00007813 -1 1 C-0.67 0.67 -0.34 0.34 0 0 Z " fill="#1B4B6B" transform="translate(401,408)"/>
<path d="M0 0 C0.99 0.66 1.98 1.32 3 2 C3.1875 4.625 3.1875 4.625 3 7 C1.02 6.34 -0.96 5.68 -3 5 C-3 4.34 -3 3.68 -3 3 C-2.01 2.67 -1.02 2.34 0 2 C0 1.34 0 0.68 0 0 Z " fill="#194275" transform="translate(405,235)"/>
<path d="M0 0 C0.226875 0.639375 0.45375 1.27875 0.6875 1.9375 C1.85250896 4.27193661 1.85250896 4.27193661 4.625 4.75 C5.40875 4.8325 6.1925 4.915 7 5 C6.67 5.66 6.34 6.32 6 7 C5.01 6.67 4.02 6.34 3 6 C2.67 6.66 2.34 7.32 2 8 C0 6 0 6 -0.125 2.875 C-0.08375 1.92625 -0.0425 0.9775 0 0 Z " fill="#1E5B58" transform="translate(408,188)"/>
<path d="M0 0 C0.33 0.99 0.66 1.98 1 3 C1.66 3.33 2.32 3.66 3 4 C2.01 4.33 1.02 4.66 0 5 C-1.20882096 7.00016466 -1.20882096 7.00016466 -2 9 C-2 7.68 -2 6.36 -2 5 C-2.99 4.67 -3.98 4.34 -5 4 C-4.01 3.67 -3.02 3.34 -2 3 C-1.34 2.01 -0.68 1.02 0 0 Z " fill="#1C5065" transform="translate(515,178)"/>
<path d="M0 0 C1.32 0 2.64 0 4 0 C4 2.64 4 5.28 4 8 C1 4.25 1 4.25 1 2 C0.34 1.67 -0.32 1.34 -1 1 C-0.67 0.67 -0.34 0.34 0 0 Z " fill="#20634E" transform="translate(210,166)"/>
<path d="M0 0 C-0.66 1.65 -1.32 3.3 -2 5 C-3.32 5 -4.64 5 -6 5 C-5.625 3.0625 -5.625 3.0625 -5 1 C-3 0 -3 0 0 0 Z " fill="#226D43" transform="translate(402,132)"/>
<path d="M0 0 C3.96 0 7.92 0 12 0 C10.515 1.485 10.515 1.485 9 3 C7.125 2.75 7.125 2.75 5 2 C3.33480481 1.65939189 1.66842534 1.32441604 0 1 C0 0.67 0 0.34 0 0 Z " fill="#1E5B59" transform="translate(421,1)"/>
<path d="M0 0 C0.886875 0.309375 1.77375 0.61875 2.6875 0.9375 C5.46709155 1.8290671 8.13136375 2.49377007 11 3 C11 3.33 11 3.66 11 4 C7.7 4 4.4 4 1 4 C0.67 2.68 0.34 1.36 0 0 Z " fill="#1D565E" transform="translate(432,467)"/>
<path d="M0 0 C0.66 0.33 1.32 0.66 2 1 C2.625 4.0625 2.625 4.0625 3 7 C1.68 7.33 0.36 7.66 -1 8 C-0.67 5.36 -0.34 2.72 0 0 Z " fill="#1E5C57" transform="translate(414,254)"/>
<path d="M0 0 C0.99 0 1.98 0 3 0 C2.67 1.32 2.34 2.64 2 4 C-0.875 4.125 -0.875 4.125 -4 4 C-4.66 3.34 -5.32 2.68 -6 2 C-5.34 1.67 -4.68 1.34 -4 1 C-1.875 1.9375 -1.875 1.9375 0 3 C0 2.01 0 1.02 0 0 Z " fill="#183C7C" transform="translate(237,216)"/>
<path d="M0 0 C0.99 0.33 1.98 0.66 3 1 C3.33 2.98 3.66 4.96 4 7 C3.01 6.67 2.02 6.34 1 6 C0.67 4.02 0.34 2.04 0 0 Z " fill="#183D7A" transform="translate(230,205)"/>
<path d="M0 0 C0.99 0.99 1.98 1.98 3 3 C2.67 3.99 2.34 4.98 2 6 C0.68 5.67 -0.64 5.34 -2 5 C-2 4.01 -2 3.02 -2 2 C-1.34 2 -0.68 2 0 2 C0 1.34 0 0.68 0 0 Z " fill="#194275" transform="translate(465,191)"/>
<path d="M0 0 C0.33 0.66 0.66 1.32 1 2 C1.61875 1.814375 2.2375 1.62875 2.875 1.4375 C5 1 5 1 7 2 C7 2.99 7 3.98 7 5 C4.07120629 4.37240135 1.63904371 3.41377341 -1 2 C-0.67 1.34 -0.34 0.68 0 0 Z " fill="#1A4571" transform="translate(461,126)"/>
<path d="M0 0 C-0.78375 0.5775 -1.5675 1.155 -2.375 1.75 C-4.80047244 3.82897637 -5.85694417 5.09040333 -7 8 C-7.66 7.67 -8.32 7.34 -9 7 C-9 4 -9 4 -7.3125 1.8125 C-4.6038423 -0.31050198 -3.35291118 -0.37254569 0 0 Z " fill="#194275" transform="translate(378,127)"/>
<path d="M0 0 C1.5625 1.6875 1.5625 1.6875 3 4 C2.6875 6.75 2.6875 6.75 2 9 C0.4375 7.875 0.4375 7.875 -1 6 C-0.6875 2.8125 -0.6875 2.8125 0 0 Z " fill="#1A486E" transform="translate(308,104)"/>
<path d="M0 0 C0 1.65 0 3.3 0 5 C-2.31 5 -4.62 5 -7 5 C-2.16129032 0 -2.16129032 0 0 0 Z " fill="#1E585C" transform="translate(388,79)"/>
<path d="M0 0 C1.65 0 3.3 0 5 0 C5 1.32 5 2.64 5 4 C3.0625 3.6875 3.0625 3.6875 1 3 C0.67 2.01 0.34 1.02 0 0 Z " fill="#247836" transform="translate(315,68)"/>
<path d="M0 0 C1.32 0.66 2.64 1.32 4 2 C2.35 3.65 0.7 5.3 -1 7 C-1.99 6.67 -2.98 6.34 -4 6 C-3.01 5.34 -2.02 4.68 -1 4 C-0.27617533 1.94074861 -0.27617533 1.94074861 0 0 Z " fill="#1A486E" transform="translate(361,342)"/>
<path d="M0 0 C0 0.66 0 1.32 0 2 C-0.99 2 -1.98 2 -3 2 C-3 2.66 -3 3.32 -3 4 C-4.32 3.67 -5.64 3.34 -7 3 C-7 2.34 -7 1.68 -7 1 C-4 0 -4 0 0 0 Z " fill="#1B4C69" transform="translate(422,125)"/>
<path d="M0 0 C0.33 0.99 0.66 1.98 1 3 C1.94875 2.95875 2.8975 2.9175 3.875 2.875 C7 3 7 3 9 5 C8.01 5.66 7.02 6.32 6 7 C5.67 6.34 5.34 5.68 5 5 C3.02111039 4.27306096 1.02045442 3.60183749 -1 3 C-0.67 2.01 -0.34 1.02 0 0 Z " fill="#1A4572" transform="translate(362,90)"/>
<path d="M0 0 C0 0.33 0 0.66 0 1 C-5.5415502 2.96263236 -9.20858017 3.01603857 -15 2 C-15 1.67 -15 1.34 -15 1 C-9.92928099 0.28832014 -5.11791642 -0.10662326 0 0 Z " fill="#216749" transform="translate(307,56)"/>
<path d="M0 0 C3.3 0 6.6 0 10 0 C6.55549263 2.29633824 4.06187717 2.54016485 0 3 C0 2.01 0 1.02 0 0 Z " fill="#1C5164" transform="translate(377,19)"/>
<path d="M0 0 C2.475 0.495 2.475 0.495 5 1 C4.67 3.31 4.34 5.62 4 8 C2.66666667 5.33333333 1.33333333 2.66666667 0 0 Z " fill="#1A4571" transform="translate(449,273)"/>
<path d="M0 0 C1.32 0.66 2.64 1.32 4 2 C1 4 1 4 -1.1875 3.625 C-1.785625 3.41875 -2.38375 3.2125 -3 3 C-2.01 2.01 -1.02 1.02 0 0 Z " fill="#1C5163" transform="translate(457,261)"/>
<path d="M0 0 C3 1 3 1 4.1875 3.0625 C4.455625 3.701875 4.72375 4.34125 5 5 C4.01 5.33 3.02 5.66 2 6 C1.67 5.01 1.34 4.02 1 3 C0.34 3.66 -0.32 4.32 -1 5 C-1.33 4.01 -1.66 3.02 -2 2 C-1.34 1.34 -0.68 0.68 0 0 Z " fill="#183C7C" transform="translate(533,196)"/>
<path d="M0 0 C0.66 0 1.32 0 2 0 C2 2.31 2 4.62 2 7 C1.01 7 0.02 7 -1 7 C-1.04254356 5.00045254 -1.04080783 2.99958364 -1 1 C-0.67 0.67 -0.34 0.34 0 0 Z " fill="#1D5361" transform="translate(219,181)"/>
<path d="M0 0 C0.33 0 0.66 0 1 0 C1.66 2.31 2.32 4.62 3 7 C0.625 7.625 0.625 7.625 -2 8 C-2.66 7.34 -3.32 6.68 -4 6 C-3.01 6 -2.02 6 -1 6 C-0.67 4.02 -0.34 2.04 0 0 Z " fill="#23713E" transform="translate(183,126)"/>
<path d="M0 0 C0.33 0.66 0.66 1.32 1 2 C2.65 2 4.3 2 6 2 C5.01 2.33 4.02 2.66 3 3 C3 3.66 3 4.32 3 5 C1.68 5 0.36 5 -1 5 C-0.67 3.35 -0.34 1.7 0 0 Z " fill="#1B496D" transform="translate(349,91)"/>
<path d="M0 0 C-2.75924185 1.80411967 -3.88972103 2.0127245 -7.25 1.625 C-8.1575 1.41875 -9.065 1.2125 -10 1 C-6.1496895 -1.56687367 -4.41430237 -0.83288724 0 0 Z " fill="#1C5065" transform="translate(345,67)"/>
</svg>
