<?xml version="1.0" encoding="UTF-8"?>
<svg version="1.1" xmlns="http://www.w3.org/2000/svg" width="640" height="480">
<path d="M0 0 C211.2 0 422.4 0 640 0 C640 158.4 640 316.8 640 480 C428.8 480 217.6 480 0 480 C0 321.6 0 163.2 0 0 Z " fill="#16308A" transform="translate(0,0)"/>
<path d="M0 0 C0.99 0 1.98 0 3 0 C3.19335938 0.78246094 3.38671875 1.56492188 3.5859375 2.37109375 C3.84632813 3.38300781 4.10671875 4.39492187 4.375 5.4375 C4.63023437 6.44683594 4.88546875 7.45617187 5.1484375 8.49609375 C5.72573954 11.15570324 5.72573954 11.15570324 8 12 C8.6328125 14.14453125 8.6328125 14.14453125 9.125 16.8125 C9.29257812 17.68519531 9.46015625 18.55789062 9.6328125 19.45703125 C10 22 10 22 10 26 C12.31 25.67 14.62 25.34 17 25 C17 25.66 17 26.32 17 27 C17.66 27 18.32 27 19 27 C21.4294516 30.6441774 21.16179575 32.71241272 21 37 C21.66 37 22.32 37 23 37 C23.99 41.455 23.99 41.455 25 46 C25.66 46 26.32 46 27 46 C27.99 52.93 27.99 52.93 29 60 C32.96 60.99 32.96 60.99 37 62 C37 62.66 37 63.32 37 64 C37.7425 64.28875 38.485 64.5775 39.25 64.875 C41.56739797 65.82302644 43.77917115 66.84845911 46 68 C46 69.65 46 71.3 46 73 C46.66 73 47.32 73 48 73 C48.50367757 74.45706726 49.00282556 75.91570096 49.5 77.375 C49.7784375 78.18710938 50.056875 78.99921875 50.34375 79.8359375 C51 82 51 82 51 84 C51.763125 84.144375 52.52625 84.28875 53.3125 84.4375 C56 85 56 85 59 86 C59 88.31 59 90.62 59 93 C60.32 93.33 61.64 93.66 63 94 C63 94.66 63 95.32 63 96 C64.32 96.33 65.64 96.66 67 97 C67.33 98.32 67.66 99.64 68 101 C68.66 101 69.32 101 70 101 C70.4021875 101.9590625 70.4021875 101.9590625 70.8125 102.9375 C71.88667752 105.33131686 71.88667752 105.33131686 75 106 C75 111.28 75 116.56 75 122 C75.66 122 76.32 122 77 122 C80.08732275 128.71946716 78.90864746 136.05056565 77 143 C76.34 143 75.68 143 75 143 C75.02320313 143.58007812 75.04640625 144.16015625 75.0703125 144.7578125 C75.18250423 149.61411166 74.87514915 153.42932395 73 158 C72.34 158 71.68 158 71 158 C70.938125 158.721875 70.87625 159.44375 70.8125 160.1875 C70 163 70 163 67.625 165.25 C64.23028829 168.80636465 63.25191405 172.32822318 62 177 C61.34 177 60.68 177 60 177 C59.87625 178.299375 59.7525 179.59875 59.625 180.9375 C59.4140625 183.15234375 59.4140625 183.15234375 59 185 C58.34 185.33 57.68 185.66 57 186 C54.52308375 190.8653712 54.58887831 195.6830089 54.34375 201.0390625 C54 204 54 204 52 207 C48.953125 207.484375 48.953125 207.484375 45.25 207.75 C40.17273961 208.25825225 40.17273961 208.25825225 35.84765625 210.6796875 C34.29857471 212.57052022 34.29857471 212.57052022 33.11328125 214.5390625 C32.74589844 215.02117187 32.37851562 215.50328125 32 216 C31.01 216 30.02 216 29 216 C28.67 216.99 28.34 217.98 28 219 C28 218.34 28 217.68 28 217 C26.68 216.67 25.36 216.34 24 216 C23.67 214.35 23.34 212.7 23 211 C22.01 211 21.02 211 20 211 C19.67 210.34 19.34 209.68 19 209 C18.34 209 17.68 209 17 209 C16.67 209.99 16.34 210.98 16 212 C12.75634176 214.34264206 9.94876098 215.43589129 6 216 C6 215.34 6 214.68 6 214 C1.71 213.34 -2.58 212.68 -7 212 C-7.33 211.01 -7.66 210.02 -8 209 C-8.7425 208.938125 -9.485 208.87625 -10.25 208.8125 C-14.10189192 207.67444102 -15.03087953 206.51628655 -17 203 C-17.6178994 199.33894603 -17.87012137 195.70803498 -18 192 C-18.99 191.67 -19.98 191.34 -21 191 C-21.33 190.34 -21.66 189.68 -22 189 C-25.02934491 188.34227572 -25.02934491 188.34227572 -28 188 C-27.67 187.34 -27.34 186.68 -27 186 C-26.54920374 181.73553292 -26.54920374 181.73553292 -28.5 178.125 C-28.995 177.75375 -29.49 177.3825 -30 177 C-30.33 179.64 -30.66 182.28 -31 185 C-32.98 185.33 -34.96 185.66 -37 186 C-37 184.68 -37 183.36 -37 182 C-35.68 182 -34.36 182 -33 182 C-32.67 179.03 -32.34 176.06 -32 173 C-31.01 172.67 -30.02 172.34 -29 172 C-29 169.36 -29 166.72 -29 164 C-29.66 164 -30.32 164 -31 164 C-31.3403125 165.0828125 -31.3403125 165.0828125 -31.6875 166.1875 C-33.26335128 169.56432417 -35.20876616 171.55767039 -38 174 C-38.66 174 -39.32 174 -40 174 C-40.99 176.97 -41.98 179.94 -43 183 C-47 182 -47 182 -49 181 C-49.33926947 178.66752239 -49.67240066 176.33414529 -50 174 C-50.66 173.34 -51.32 172.68 -52 172 C-52 170.68 -52 169.36 -52 168 C-53.32 168 -54.64 168 -56 168 C-56 166.02 -56 164.04 -56 162 C-56.66 162 -57.32 162 -58 162 C-58 161.34 -58 160.68 -58 160 C-59.485 159.814375 -59.485 159.814375 -61 159.625 C-64.40663516 159.14227842 -67.6844937 158.38254109 -71.0078125 157.5 C-71.66523438 157.335 -72.32265625 157.17 -73 157 C-73.75410156 156.80792969 -74.50820312 156.61585938 -75.28515625 156.41796875 C-83.589314 155.13948691 -93.01706473 156.55624431 -101 159 C-101 159.66 -101 160.32 -101 161 C-105.95 161.33 -110.9 161.66 -116 162 C-116 162.66 -116 163.32 -116 164 C-119.72965139 166.03435531 -121.66905042 167 -126 167 C-126.185625 168.175625 -126.185625 168.175625 -126.375 169.375 C-127 172 -127 172 -129 174 C-131.05957031 174.1953125 -131.05957031 174.1953125 -133.578125 174.125 C-134.49207031 174.10953125 -135.40601563 174.0940625 -136.34765625 174.078125 C-138.26693844 174.02646195 -140.18620956 173.97438551 -142.10546875 173.921875 C-147.10644636 173.83770707 -151.39166883 173.76921549 -156 176 C-156.66 176.99 -157.32 177.98 -158 179 C-160.625 179.1875 -160.625 179.1875 -163 179 C-163.66 180.65 -164.32 182.3 -165 184 C-167.41854446 184.13536629 -169.82949783 184.23420279 -172.25 184.3125 C-173.27287109 184.3753418 -173.27287109 184.3753418 -174.31640625 184.43945312 C-176.328125 184.48828125 -176.328125 184.48828125 -180 184 C-182.34375 181.53125 -182.34375 181.53125 -184 179 C-186.12946603 178.13034494 -186.12946603 178.13034494 -188 178 C-188 176.02 -188 174.04 -188 172 C-187.01 172 -186.02 172 -185 172 C-184.72191104 169.31281432 -184.47708155 166.6290842 -184.25 163.9375 C-184.16878906 163.18533203 -184.08757812 162.43316406 -184.00390625 161.65820312 C-183.61778137 156.70293387 -184.18493558 154.07372558 -187.00244141 149.79321289 C-188.82035298 146.52533219 -189.08613222 142.91387568 -189.5625 139.25 C-190.22973174 132.8910504 -190.22973174 132.8910504 -194 128 C-194.66015625 126.09765625 -194.66015625 126.09765625 -195.0625 124.0625 C-195.70930192 121.11112654 -196.46319606 118.63452103 -198 116 C-196.02 115.505 -196.02 115.505 -194 115 C-194.33 112.03 -194.66 109.06 -195 106 C-195.99 105.67 -196.98 105.34 -198 105 C-198.19477739 103.37585622 -198.38059458 101.75063577 -198.5625 100.125 C-198.66691406 99.22007812 -198.77132812 98.31515625 -198.87890625 97.3828125 C-199 95 -199 95 -198 93 C-197.96967814 90.75618252 -198.06643448 88.53088736 -198.16015625 86.2890625 C-197.98208151 83.74389667 -197.27356922 82.18754243 -196 80 C-195.34 80 -194.68 80 -194 80 C-193.67 80.66 -193.34 81.32 -193 82 C-192.649375 81.38125 -192.29875 80.7625 -191.9375 80.125 C-190 78 -190 78 -186.4375 77 C-184.7359375 76.505 -184.7359375 76.505 -183 76 C-182.72414063 75.34386719 -182.44828125 74.68773437 -182.1640625 74.01171875 C-181 72 -181 72 -178.21484375 71.20703125 C-177.13332031 71.07683594 -176.05179688 70.94664062 -174.9375 70.8125 C-171.15135491 70.64075681 -171.15135491 70.64075681 -168 69 C-166.00041636 68.95919217 -163.99954746 68.95745644 -162 69 C-161.505 67.515 -161.505 67.515 -161 66 C-160.19175781 65.91363281 -159.38351563 65.82726562 -158.55078125 65.73828125 C-151.79021323 64.91421349 -151.79021323 64.91421349 -145.9375 61.6875 C-143.95965233 59.03897136 -143.95965233 59.03897136 -142.375 56.1875 C-141.92125 55.465625 -141.4675 54.74375 -141 54 C-140.01 54 -139.02 54 -138 54 C-138.2475 52.80375 -138.495 51.6075 -138.75 50.375 C-139.22383819 46.72709503 -138.99694749 45.99410549 -137.1875 42.5 C-136.465625 41.675 -135.74375 40.85 -135 40 C-134.34 40 -133.68 40 -133 40 C-132.34 42.31 -131.68 44.62 -131 47 C-130.34 47 -129.68 47 -129 47 C-129 44.69 -129 42.38 -129 40 C-127.02 40 -125.04 40 -123 40 C-123.061875 38.906875 -123.12375 37.81375 -123.1875 36.6875 C-123 33 -123 33 -121.625 31.0625 C-120 30 -120 30 -118 30 C-118 29.01 -118 28.02 -118 27 C-116.02 27 -114.04 27 -112 27 C-112 26.01 -112 25.02 -112 24 C-102.90602679 22.40334821 -102.90602679 22.40334821 -99.4375 24.6875 C-98.08391866 26.86500041 -97.36065905 28.47538668 -97 31 C-96.443125 30.649375 -95.88625 30.29875 -95.3125 29.9375 C-92.46113217 28.78154007 -90.91482778 29.19032562 -88 30 C-87.505 28.515 -87.505 28.515 -87 27 C-87.66 27 -88.32 27 -89 27 C-88.42415568 24.61435923 -87.77772405 22.33317216 -87 20 C-86.01 19.67 -85.02 19.34 -84 19 C-83.690625 17.865625 -83.38125 16.73125 -83.0625 15.5625 C-82.34765625 13.65625 -82.34765625 13.65625 -81 12 C-76.11726953 10.39320075 -71.11964937 10 -66 10 C-66 8.35 -66 6.7 -66 5 C-65.42894531 5.19335938 -64.85789063 5.38671875 -64.26953125 5.5859375 C-57.2648671 7.83544809 -50.283594 9.02961522 -43 10 C-43 10.66 -43 11.32 -43 12 C-42.34 12 -41.68 12 -41 12 C-41 11.01 -41 10.02 -41 9 C-39.02 9.495 -39.02 9.495 -37 10 C-37.33 11.32 -37.66 12.64 -38 14 C-38.66 14 -39.32 14 -40 14 C-40 14.99 -40 15.98 -40 17 C-40.99 17.33 -41.98 17.66 -43 18 C-43.33 20.31 -43.66 22.62 -44 25 C-44.66 25 -45.32 25 -46 25 C-46.33 26.98 -46.66 28.96 -47 31 C-46.21625 31.103125 -45.4325 31.20625 -44.625 31.3125 C-42 32 -42 32 -40 35 C-37.91606503 35.86431361 -37.91606503 35.86431361 -35.5625 36.4375 C-32.54628169 37.35885286 -31.20485088 37.79514912 -28.9375 40.0625 C-28 42 -28 42 -28 44 C-26.02 44 -24.04 44 -22 44 C-21.67 44.99 -21.34 45.98 -21 47 C-17.02584132 49.22085338 -13.4785979 49.17563129 -9 49 C-8.85691406 48.27941406 -8.71382812 47.55882812 -8.56640625 46.81640625 C-8.21134665 45.05090298 -7.84578187 43.28744468 -7.46484375 41.52734375 C-6.24945192 35.55841944 -5.89819312 29.98771409 -5.9765625 23.90625 C-6.05036267 14.75502844 -4.20870933 8.16893397 0 0 Z " fill="#257F2E" transform="translate(266,129)"/>
<path d="M0 0 C2.890625 -0.1171875 2.890625 -0.1171875 6 0 C6.86625 0.928125 6.86625 0.928125 7.75 1.875 C10.75309114 4.71125274 13.32523704 4.77734186 17.31640625 5.4296875 C21.49534431 6.31778787 25.19168221 8.10503994 29 10 C29 10.66 29 11.32 29 12 C29.61875 12.12375 30.2375 12.2475 30.875 12.375 C33 13 33 13 35 15 C35.125 18.125 35.125 18.125 35 21 C36.546875 21.185625 36.546875 21.185625 38.125 21.375 C41.67868623 21.9481752 44.72144384 22.51684364 48 24 C48.875 26.125 48.875 26.125 49 28 C47.02 28 45.04 28 43 28 C44.92095631 33.35845708 45.97635529 35.14874219 51 38 C51 39.32 51 40.64 51 42 C51.99 42.33 52.98 42.66 54 43 C54 43.66 54 44.32 54 45 C55.65 45 57.3 45 59 45 C59.33 45.99 59.66 46.98 60 48 C60.99 48.33 61.98 48.66 63 49 C63.33 49.99 63.66 50.98 64 52 C65.98 52.33 67.96 52.66 70 53 C69.67 54.32 69.34 55.64 69 57 C67.02 57 65.04 57 63 57 C63 56.01 63 55.02 63 54 C62.030625 54.061875 61.06125 54.12375 60.0625 54.1875 C54.4310145 54.1875 49.3079257 52.29469003 44.4375 49.5625 C43 48 43 48 43 44 C42.01 44 41.02 44 40 44 C39.67 43.236875 39.34 42.47375 39 41.6875 C35.81277381 37.40466481 31.09575597 36.90969228 26 36 C24.68 36 23.36 36 22 36 C22 36.66 22 37.32 22 38 C20.35 38.66 18.7 39.32 17 40 C17.33 41.65 17.66 43.3 18 45 C14.87186463 46.83198669 12.60914709 47.24801923 9 47.1875 C8.154375 47.18105469 7.30875 47.17460938 6.4375 47.16796875 C4.16747523 47.01154076 2.18038396 46.63089814 0 46 C-1.32208388 30.62314747 -0.72572968 15.39995099 0 0 Z " fill="#257C31" transform="translate(256,72)"/>
<path d="M0 0 C0.99 0 1.98 0 3 0 C2.67 1.32 2.34 2.64 2 4 C2.66 4 3.32 4 4 4 C4 4.99 4 5.98 4 7 C5.32 6.67 6.64 6.34 8 6 C8 6.66 8 7.32 8 8 C8.66 8 9.32 8 10 8 C10.75 11.25 10.75 11.25 11 15 C9.1875 17.125 9.1875 17.125 7 19 C6.67 19.886875 6.34 20.77375 6 21.6875 C5.505 22.8321875 5.505 22.8321875 5 24 C2.875 24.8125 2.875 24.8125 1 25 C1 26.65 1 28.3 1 30 C1.66 30 2.32 30 3 30 C3 30.66 3 31.32 3 32 C-0.87684087 33.19287411 -3.91621923 34 -8 34 C-8.10957031 34.6290625 -8.21914063 35.258125 -8.33203125 35.90625 C-10.96446908 50.1171339 -10.96446908 50.1171339 -15.5 54.3125 C-16.325 54.869375 -17.15 55.42625 -18 56 C-18.44988281 56.5259375 -18.89976562 57.051875 -19.36328125 57.59375 C-21.55011601 59.47265337 -22.85026325 59.31085812 -25.6875 59.1875 C-26.89986328 59.14689453 -26.89986328 59.14689453 -28.13671875 59.10546875 C-28.75160156 59.07066406 -29.36648438 59.03585937 -30 59 C-30 58.34 -30 57.68 -30 57 C-30.69867188 56.96261719 -31.39734375 56.92523438 -32.1171875 56.88671875 C-33.02726562 56.82097656 -33.93734375 56.75523437 -34.875 56.6875 C-36.23238281 56.60048828 -36.23238281 56.60048828 -37.6171875 56.51171875 C-40 56 -40 56 -42 53 C-42 52.01 -42 51.02 -42 50 C-41.01 49.505 -41.01 49.505 -40 49 C-39.59270772 46.67843403 -39.25561323 44.3431213 -39 42 C-37.515 41.505 -37.515 41.505 -36 41 C-35.67 40.34 -35.34 39.68 -35 39 C-34.34 39 -33.68 39 -33 39 C-32.566875 38.071875 -32.566875 38.071875 -32.125 37.125 C-31 35 -31 35 -29 33 C-27.68 33 -26.36 33 -25 33 C-24.67 32.01 -24.34 31.02 -24 30 C-20.78715662 28.11420063 -18.75366417 27 -15 27 C-15 26.01 -15 25.02 -15 24 C-14.34 24 -13.68 24 -13 24 C-12.87625 23.360625 -12.7525 22.72125 -12.625 22.0625 C-12.315625 21.0415625 -12.315625 21.0415625 -12 20 C-11.34 19.67 -10.68 19.34 -10 19 C-9.26924352 16.6859378 -8.59861742 14.35171131 -8 12 C-7.01 12 -6.02 12 -5 12 C-5 11.34 -5 10.68 -5 10 C-4.34 10 -3.68 10 -3 10 C-2.814375 8.081875 -2.814375 8.081875 -2.625 6.125 C-2.25 2.25 -2.25 2.25 0 0 Z " fill="#257B32" transform="translate(511,358)"/>
<path d="M0 0 C0.99 0 1.98 0 3 0 C3.33 1.65 3.66 3.3 4 5 C6.97 5.495 6.97 5.495 10 6 C10 6.66 10 7.32 10 8 C10.99 8.33 11.98 8.66 13 9 C14.48882438 13.07467725 15.26270217 16.66541415 15 21 C15.99 21 16.98 21 18 21 C18 20.01 18 19.02 18 18 C18.66 18 19.32 18 20 18 C20 18.99 20 19.98 20 21 C20.99 21.33 21.98 21.66 23 22 C23.061875 22.94875 23.12375 23.8975 23.1875 24.875 C23.65139465 28.14472016 23.65139465 28.14472016 26.25 29.375 C29.02030332 30.00461439 31.1803646 30.38103181 34 30 C34.66 29.01 35.32 28.02 36 27 C37.65 27.33 39.3 27.66 41 28 C40.505 29.485 40.505 29.485 40 31 C39.34 31 38.68 31 38 31 C38.04125 31.9075 38.0825 32.815 38.125 33.75 C38.00289889 36.92462895 37.93569498 38.51124931 36 41 C34.34521394 41.38803607 32.67748972 41.72629005 31 42 C30.80083984 43.03060547 30.80083984 43.03060547 30.59765625 44.08203125 C30.42105469 44.98308594 30.24445312 45.88414062 30.0625 46.8125 C29.80146484 48.15248047 29.80146484 48.15248047 29.53515625 49.51953125 C29 52 29 52 28 55 C27.01 55 26.02 55 25 55 C24.938125 55.721875 24.87625 56.44375 24.8125 57.1875 C23.75543353 60.84657625 21.79449929 62.49211602 19 65 C17.0625 64.1875 17.0625 64.1875 15 63 C13.7922442 59.37673261 14.45688872 58.35853631 16 55 C16.66 55 17.32 55 18 55 C17.37788522 51.88942612 16.49883588 50.33742098 13.86328125 48.5546875 C11.59986587 47.31105268 9.3248716 46.12416631 7 45 C7 43.68 7 42.36 7 41 C8.65 40.34 10.3 39.68 12 39 C13.70832087 30.43982695 12.37168994 23.58542576 7.83984375 16.078125 C6.89852921 14.71507456 5.94993818 13.35705454 5 12 C5 11.01 5 10.02 5 9 C4.34 9 3.68 9 3 9 C1.76078698 6.02588876 0.69941596 3.14737182 0 0 Z " fill="#247A34" transform="translate(511,301)"/>
<path d="M0 0 C5.75 -0.125 5.75 -0.125 8 1 C8 1.66 8 2.32 8 3 C12.29 3 16.58 3 21 3 C21 2.34 21 1.68 21 1 C22.9375 0.4375 22.9375 0.4375 25 0 C26 1 26 1 26.09765625 3.72265625 C26.08605469 4.82480469 26.07445312 5.92695313 26.0625 7.0625 C26.05347656 8.16722656 26.04445313 9.27195312 26.03515625 10.41015625 C26.02355469 11.26480469 26.01195312 12.11945313 26 13 C25.34 13 24.68 13 24 13 C23.67 15.31 23.34 17.62 23 20 C22.01 20.33 21.02 20.66 20 21 C19.67 21.99 19.34 22.98 19 24 C18.34 24 17.68 24 17 24 C17 24.99 17 25.98 17 27 C11.66436996 26.82506131 11.66436996 26.82506131 9 26 C7.1193713 23.23782659 6 21.37036422 6 18 C5.34 18 4.68 18 4 18 C3.34 14.04 2.68 10.08 2 6 C1.34 6 0.68 6 0 6 C0 4.02 0 2.04 0 0 Z " fill="#257B33" transform="translate(282,362)"/>
<path d="M0 0 C6.27157141 1.79187755 11.90651337 4.80442081 16 10 C16.25 12.75 16.25 12.75 16 15 C14.68 15 13.36 15 12 15 C9.7226499 17.81509993 9.7226499 17.81509993 10 21 C9.113125 21.268125 8.22625 21.53625 7.3125 21.8125 C4.03254739 22.83067319 4.03254739 22.83067319 1.625 24.625 C-2.07814208 26.56474109 -4.85207491 26.21091145 -9 26 C-9 25.34 -9 24.68 -9 24 C-11.64 23.67 -14.28 23.34 -17 23 C-17 22.01 -17 21.02 -17 20 C-16.31292969 19.95101562 -15.62585938 19.90203125 -14.91796875 19.8515625 C-14.01691406 19.77679688 -13.11585938 19.70203125 -12.1875 19.625 C-11.29417969 19.55539063 -10.40085937 19.48578125 -9.48046875 19.4140625 C-6.75601501 19.13354964 -6.75601501 19.13354964 -4 17 C-4 17.99 -4 18.98 -4 20 C-0.95153135 19.67043582 0.58429646 19.4305501 2.75 17.1875 C3.94998168 15.08753207 4.57691378 13.36928283 5 11 C7.31 11 9.62 11 12 11 C8.93498981 7.55186353 5.56947881 5.41754808 1.609375 3.1484375 C1.07828125 2.76945312 0.5471875 2.39046875 0 2 C0 1.34 0 0.68 0 0 Z " fill="#23723D" transform="translate(325,72)"/>
<path d="M0 0 C0.99 0 1.98 0 3 0 C3.33 1.65 3.66 3.3 4 5 C6.97 5.495 6.97 5.495 10 6 C10 6.66 10 7.32 10 8 C10.99 8.33 11.98 8.66 13 9 C14.48882438 13.07467725 15.26270217 16.66541415 15 21 C15.99 21 16.98 21 18 21 C18 20.01 18 19.02 18 18 C18.66 18 19.32 18 20 18 C20 18.99 20 19.98 20 21 C20.99 21.33 21.98 21.66 23 22 C23.33 24.31 23.66 26.62 24 29 C23.34 29 22.68 29 22 29 C21.67 27.02 21.34 25.04 21 23 C20.67 23.66 20.34 24.32 20 25 C18 25 18 25 16.375 23.5 C15.92125 23.005 15.4675 22.51 15 22 C14.67 24.31 14.34 26.62 14 29 C12.92034475 26.84568791 11.84660053 24.68877608 10.78125 22.52734375 C10.3584375 21.67269531 9.935625 20.81804687 9.5 19.9375 C8.86578125 18.65166016 8.86578125 18.65166016 8.21875 17.33984375 C6.96630118 14.83289426 6.96630118 14.83289426 5 12 C5 11.01 5 10.02 5 9 C4.34 9 3.68 9 3 9 C1.76078698 6.02588876 0.69941596 3.14737182 0 0 Z " fill="#247638" transform="translate(511,301)"/>
<path d="M0 0 C0.33 2.31 0.66 4.62 1 7 C-1.88211302 7.96070434 -3.69850044 8.10581883 -6.6875 8.0625 C-7.89986328 8.04896484 -7.89986328 8.04896484 -9.13671875 8.03515625 C-10.05904297 8.01775391 -10.05904297 8.01775391 -11 8 C-11 7.34 -11 6.68 -11 6 C-12.98 6 -14.96 6 -17 6 C-16.67 4.35 -16.34 2.7 -16 1 C-10.65097076 0.40801257 -5.39115154 -0.14187241 0 0 Z " fill="#1A4670" transform="translate(199,132)"/>
<path d="M0 0 C6.27157141 1.79187755 11.90651337 4.80442081 16 10 C16.25 12.75 16.25 12.75 16 15 C14.68 15 13.36 15 12 15 C9.7226499 17.81509993 9.7226499 17.81509993 10 21 C8.35 21 6.7 21 5 21 C5.99 20.34 6.98 19.68 8 19 C5.525 18.01 5.525 18.01 3 17 C3.66 15.02 4.32 13.04 5 11 C7.31 11 9.62 11 12 11 C8.93498981 7.55186353 5.56947881 5.41754808 1.609375 3.1484375 C1.07828125 2.76945312 0.5471875 2.39046875 0 2 C0 1.34 0 0.68 0 0 Z " fill="#227040" transform="translate(325,72)"/>
<path d="M0 0 C3 1 3 1 4 3 C4.125 6.0625 4.125 6.0625 4 9 C3.67 9.33 3.34 9.66 3 10 C4.98 10.66 6.96 11.32 9 12 C8.484375 12.12375 7.96875 12.2475 7.4375 12.375 C5.52194662 12.86616753 3.6296247 13.44800731 1.75 14.0625 C-2.41348158 15.1033704 -5.73228122 15.14974452 -10 15 C-10 14.01 -10 13.02 -10 12 C-6.535 11.505 -6.535 11.505 -3 11 C-2.01 7.37 -1.02 3.74 0 0 Z " fill="#194078" transform="translate(236,306)"/>
<path d="M0 0 C4.52347147 1.46347606 7.44509356 3.88945686 11 7 C14.66885017 10.08775557 14.66885017 10.08775557 19 12 C19 12.99 19 13.98 19 15 C14.24518354 14.42365861 11.02951788 12.44931479 7 10 C7 9.34 7 8.68 7 8 C6.401875 7.938125 5.80375 7.87625 5.1875 7.8125 C2.09660471 6.66445318 1.4119656 4.89452948 0 2 C0 1.34 0 0.68 0 0 Z " fill="#226C44" transform="translate(419,198)"/>
<path d="M0 0 C2 2 2 2 2.125 5.625 C2.08375 6.73875 2.0425 7.8525 2 9 C0.35 9.66 -1.3 10.32 -3 11 C-3 10.34 -3 9.68 -3 9 C-3.66 9 -4.32 9 -5 9 C-6.0625 7.1875 -6.0625 7.1875 -7 5 C-6.67 4.01 -6.34 3.02 -6 2 C-3.9375 1.3125 -3.9375 1.3125 -2 1 C-2 1.66 -2 2.32 -2 3 C-1.34 3 -0.68 3 0 3 C0 2.01 0 1.02 0 0 Z " fill="#1D565D" transform="translate(70,235)"/>
<path d="M0 0 C0.33 0 0.66 0 1 0 C1 1.65 1 3.3 1 5 C1.99 5 2.98 5 4 5 C4 4.01 4 3.02 4 2 C4.66 2 5.32 2 6 2 C6 2.99 6 3.98 6 5 C6.99 5.33 7.98 5.66 9 6 C9.33 8.31 9.66 10.62 10 13 C9.34 13 8.68 13 8 13 C7.67 11.02 7.34 9.04 7 7 C6.67 7.66 6.34 8.32 6 9 C4 9 4 9 2.375 7.5 C1.92125 7.005 1.4675 6.51 1 6 C0.67 8.31 0.34 10.62 0 13 C-2.08379509 9.15299368 -3.49686624 5.09945571 -5 1 C-4.01 1.33 -3.02 1.66 -2 2 C-2 3.65 -2 5.3 -2 7 C-1.34 7 -0.68 7 0 7 C0 4.69 0 2.38 0 0 Z " fill="#1D5460" transform="translate(525,317)"/>
<path d="M0 0 C0.66 0 1.32 0 2 0 C3.69140625 1.86328125 3.69140625 1.86328125 5.5625 4.3125 C6.18253906 5.11300781 6.80257813 5.91351563 7.44140625 6.73828125 C9 9 9 9 10 12 C7.8125 12.5 7.8125 12.5 5 12 C1.64805307 8.19508726 0 5.09674098 0 0 Z " fill="#216A46" transform="translate(351,89)"/>
<path d="M0 0 C2.875 -0.125 2.875 -0.125 6 0 C8 2 8 2 8 5 C3.545 5.495 3.545 5.495 -1 6 C-0.67 4.02 -0.34 2.04 0 0 Z " fill="#247836" transform="translate(510,176)"/>
<path d="M0 0 C4.59306496 1.4859916 7.43569245 3.85014682 11 7 C10.67 7.66 10.34 8.32 10 9 C7.36752711 8.64426042 5.46948554 8.34776706 3.3125 6.75 C1.7211684 4.62822453 0.87597397 2.49315668 0 0 Z " fill="#247638" transform="translate(419,198)"/>
<path d="M0 0 C0 1.65 0 3.3 0 5 C-3.3 5.33 -6.6 5.66 -10 6 C-10 5.01 -10 4.02 -10 3 C-3.375 0 -3.375 0 0 0 Z " fill="#20654C" transform="translate(527,167)"/>
<path d="M0 0 C-0.33 1.32 -0.66 2.64 -1 4 C-1.99 4 -2.98 4 -4 4 C-3.67 5.98 -3.34 7.96 -3 10 C-3.66 9.34 -4.32 8.68 -5 8 C-5 6.68 -5 5.36 -5 4 C-5.66 4 -6.32 4 -7 4 C-7 3.34 -7 2.68 -7 2 C-7.66 1.67 -8.32 1.34 -9 1 C-3.375 -1.125 -3.375 -1.125 0 0 Z " fill="#1C5064" transform="translate(526,362)"/>
<path d="M0 0 C0.33 0 0.66 0 1 0 C1 1.98 1 3.96 1 6 C-0.98 6 -2.96 6 -5 6 C-4.7215625 7.175625 -4.7215625 7.175625 -4.4375 8.375 C-4 11 -4 11 -5 13 C-5.66 13 -6.32 13 -7 13 C-7.92054342 9.98731243 -8.27861489 8.57270838 -6.875 5.6875 C-5 4 -5 4 -2.3125 3.75 C-1.549375 3.8325 -0.78625 3.915 0 4 C0 2.68 0 1.36 0 0 Z " fill="#1C4F66" transform="translate(142,163)"/>
<path d="M0 0 C0.66 0 1.32 0 2 0 C1.67 6.93 1.34 13.86 1 21 C0.67 21 0.34 21 0 21 C0 15.72 0 10.44 0 5 C-1.32 4.67 -2.64 4.34 -4 4 C-3.67 3.34 -3.34 2.68 -3 2 C-2.01 2.33 -1.02 2.66 0 3 C0 2.01 0 1.02 0 0 Z " fill="#1C5064" transform="translate(341,230)"/>
<path d="M0 0 C5.86258862 1.67502532 10.55475199 3.83212798 14 9 C13.34 9.66 12.68 10.32 12 11 C11.505 10.443125 11.01 9.88625 10.5 9.3125 C7.73670413 6.75645132 4.86285603 5.01265838 1.609375 3.1484375 C1.07828125 2.76945312 0.5471875 2.39046875 0 2 C0 1.34 0 0.68 0 0 Z " fill="#1C5163" transform="translate(325,72)"/>
<path d="M0 0 C5.625 -0.25 5.625 -0.25 9 2 C9 2.99 9 3.98 9 5 C6.36 4.67 3.72 4.34 1 4 C0.67 2.68 0.34 1.36 0 0 Z " fill="#20624F" transform="translate(386,119)"/>
<path d="M0 0 C2.64 0 5.28 0 8 0 C7.67 1.32 7.34 2.64 7 4 C4.36 4 1.72 4 -1 4 C-0.67 2.68 -0.34 1.36 0 0 Z " fill="#23703F" transform="translate(183,133)"/>
<path d="M0 0 C-0.33 1.32 -0.66 2.64 -1 4 C-2.98 4 -4.96 4 -7 4 C-7 3.01 -7 2.02 -7 1 C-9.31 1 -11.62 1 -14 1 C-14 0.67 -14 0.34 -14 0 C-9.02936879 -0.91297308 -4.97063121 -0.91297308 0 0 Z " fill="#20664C" transform="translate(326,125)"/>
<path d="M0 0 C2.28062828 3.42094242 2.21925007 4.68187222 2.125 8.6875 C2.10695313 9.68136719 2.08890625 10.67523438 2.0703125 11.69921875 C2.03550781 12.83810547 2.03550781 12.83810547 2 14 C1.34 14 0.68 14 0 14 C-0.33 12.35 -0.66 10.7 -1 9 C-1.99 8.67 -2.98 8.34 -4 8 C-3.67 7.34 -3.34 6.68 -3 6 C-2.01 6 -1.02 6 0 6 C0 4.02 0 2.04 0 0 Z " fill="#206250" transform="translate(523,310)"/>
<path d="M0 0 C1.65 0 3.3 0 5 0 C4.01 0.33 3.02 0.66 2 1 C2 2.32 2 3.64 2 5 C3.32 5.33 4.64 5.66 6 6 C5.67 7.32 5.34 8.64 5 10 C3.35 10 1.7 10 0 10 C0.99 9.34 1.98 8.68 3 8 C0.525 7.01 0.525 7.01 -2 6 C-1.34 4.02 -0.68 2.04 0 0 Z " fill="#1F5E55" transform="translate(330,83)"/>
<path d="M0 0 C0.66 0 1.32 0 2 0 C4 2 4 2 4 5 C2.68 5.33 1.36 5.66 0 6 C0 8.64 0 11.28 0 14 C-0.66 13.67 -1.32 13.34 -2 13 C-2.05447047 11.58376784 -2.09300508 10.16691809 -2.125 8.75 C-2.14820312 7.96109375 -2.17140625 7.1721875 -2.1953125 6.359375 C-1.9828378 3.79268059 -1.28654105 2.2083933 0 0 Z " fill="#21674A" transform="translate(70,209)"/>
<path d="M0 0 C1.32 0 2.64 0 4 0 C6.09230769 4.43076923 6.09230769 4.43076923 5.625 7.3125 C5.41875 7.869375 5.2125 8.42625 5 9 C4.67 8.34 4.34 7.68 4 7 C3.34 7 2.68 7 2 7 C0.5393715 4.35261084 0 3.10551666 0 0 Z " fill="#1C4F66" transform="translate(63,237)"/>
<path d="M0 0 C1.4540625 0.0309375 1.4540625 0.0309375 2.9375 0.0625 C2.9375 1.3825 2.9375 2.7025 2.9375 4.0625 C0.6275 4.0625 -1.6825 4.0625 -4.0625 4.0625 C-4.0625 0.08290816 -4.0625 0.08290816 0 0 Z " fill="#163486" transform="translate(196.0625,134.9375)"/>
<path d="M0 0 C0.99 0.33 1.98 0.66 3 1 C3 1.66 3 2.32 3 3 C3.99 3 4.98 3 6 3 C6.33 4.32 6.66 5.64 7 7 C4.69 6.34 2.38 5.68 0 5 C-0.5625 3.0625 -0.5625 3.0625 -1 1 C-0.67 0.67 -0.34 0.34 0 0 Z " fill="#1E575C" transform="translate(283,337)"/>
<path d="M0 0 C0.33 2.97 0.66 5.94 1 9 C0.34 9 -0.32 9 -1 9 C-1 6.69 -1 4.38 -1 2 C-1.5775 1.87625 -2.155 1.7525 -2.75 1.625 C-5.02335767 0.99351176 -6.9253529 0.11141809 -9 -1 C-5.79937313 -2.60031344 -3.27728194 -1.03173691 0 0 Z " fill="#1D5361" transform="translate(326,213)"/>
<path d="M0 0 C2.125 0.375 2.125 0.375 4 1 C2.7934375 1.8971875 2.7934375 1.8971875 1.5625 2.8125 C-1.22327984 4.80947276 -1.22327984 4.80947276 -2 8 C-3.32 8 -4.64 8 -6 8 C-6 7.34 -6 6.68 -6 6 C-5.34 6 -4.68 6 -4 6 C-3.71125 5.38125 -3.4225 4.7625 -3.125 4.125 C-2 2 -2 2 0 0 Z " fill="#216A46" transform="translate(482,391)"/>
<path d="M0 0 C0.66 0 1.32 0 2 0 C2 2.64 2 5.28 2 8 C1.34 8 0.68 8 0 8 C-0.33 7.34 -0.66 6.68 -1 6 C-1.99 6.66 -2.98 7.32 -4 8 C-2.87548273 5.0280615 -1.77706209 2.66559313 0 0 Z " fill="#1D5361" transform="translate(235,293)"/>
<path d="M0 0 C0.99 0 1.98 0 3 0 C2.67 2.31 2.34 4.62 2 7 C1.34 7 0.68 7 0 7 C-0.33 6.34 -0.66 5.68 -1 5 C-4.02934491 4.34227572 -4.02934491 4.34227572 -7 4 C-7 3.34 -7 2.68 -7 2 C-4.03 2.495 -4.03 2.495 -1 3 C-0.67 2.01 -0.34 1.02 0 0 Z " fill="#1C5262" transform="translate(245,169)"/>
<path d="M0 0 C0.66 0 1.32 0 2 0 C2.433125 0.45375 2.86625 0.9075 3.3125 1.375 C5.35628817 3.34309231 7.34530324 4.06726871 10 5 C10 5.99 10 6.98 10 8 C5.60316512 6.80086322 2.90159066 5.5711885 0 2 C0 1.34 0 0.68 0 0 Z " fill="#1F5D55" transform="translate(379,106)"/>
<path d="M0 0 C0.99 0 1.98 0 3 0 C3 1.32 3 2.64 3 4 C3.66 4 4.32 4 5 4 C5.33 5.65 5.66 7.3 6 9 C5.34 9 4.68 9 4 9 C0 3.70588235 0 3.70588235 0 0 Z " fill="#1F6151" transform="translate(393,112)"/>
<path d="M0 0 C0.99 0.33 1.98 0.66 3 1 C3 2.65 3 4.3 3 6 C3.99 5.67 4.98 5.34 6 5 C5.67 7.31 5.34 9.62 5 12 C2.91620491 8.15299368 1.50313376 4.09945571 0 0 Z " fill="#1B4A6C" transform="translate(520,318)"/>
<path d="M0 0 C-2 2 -2 2 -5.625 2.125 C-6.73875 2.08375 -7.8525 2.0425 -9 2 C-9 1.34 -9 0.68 -9 0 C-5.93109813 -1.53445094 -3.29905734 -0.54984289 0 0 Z " fill="#247639" transform="translate(236,319)"/>
<path d="M0 0 C2.31 0.66 4.62 1.32 7 2 C7 2.66 7 3.32 7 4 C5.35 4.66 3.7 5.32 2 6 C1.34 4.02 0.68 2.04 0 0 Z " fill="#1E585C" transform="translate(439,165)"/>
<path d="M0 0 C0.99 0 1.98 0 3 0 C3.185625 1.2065625 3.185625 1.2065625 3.375 2.4375 C3.58125 3.283125 3.7875 4.12875 4 5 C4.66 5.33 5.32 5.66 6 6 C5.34 6 4.68 6 4 6 C3.67 6.99 3.34 7.98 3 9 C1.76078698 6.02588876 0.69941596 3.14737182 0 0 Z " fill="#1D565E" transform="translate(511,301)"/>
<path d="M0 0 C0.66 0.33 1.32 0.66 2 1 C1.34 2.98 0.68 4.96 0 7 C-1.65 7 -3.3 7 -5 7 C-3.625 5 -3.625 5 -2 3 C-1.34 3 -0.68 3 0 3 C0 2.01 0 1.02 0 0 Z " fill="#20644E" transform="translate(148,156)"/>
<path d="M0 0 C1.98 0.66 3.96 1.32 6 2 C6 2.99 6 3.98 6 5 C4.35 4.67 2.7 4.34 1 4 C0.67 2.68 0.34 1.36 0 0 Z " fill="#1F6052" transform="translate(399,125)"/>
<path d="M0 0 C1.98 0 3.96 0 6 0 C6.33 0.66 6.66 1.32 7 2 C4.29120665 3.35439668 1.99066732 3.06501451 -1 3 C-0.67 2.01 -0.34 1.02 0 0 Z " fill="#1E585B" transform="translate(296,67)"/>
<path d="M0 0 C2.3431213 0.25561323 4.67843403 0.59270772 7 1 C7.33 1.66 7.66 2.32 8 3 C6.54364629 3.22174933 5.08477044 3.42698698 3.625 3.625 C2.81289062 3.74101562 2.00078125 3.85703125 1.1640625 3.9765625 C0.44992188 3.98429687 -0.26421875 3.99203125 -1 4 C-1.66 3.34 -2.32 2.68 -3 2 C-2.01 2 -1.02 2 0 2 C0 1.34 0 0.68 0 0 Z " fill="#1B4D68" transform="translate(237,316)"/>
<path d="M0 0 C1.65 0 3.3 0 5 0 C5.33 2.31 5.66 4.62 6 7 C5.67 5.68 5.34 4.36 5 3 C3.35 2.67 1.7 2.34 0 2 C0 1.34 0 0.68 0 0 Z " fill="#1F6053" transform="translate(194,132)"/>
<path d="M0 0 C0.33 0.66 0.66 1.32 1 2 C1.66 2 2.32 2 3 2 C2.67 3.65 2.34 5.3 2 7 C1.34 7 0.68 7 0 7 C-1.125 2.25 -1.125 2.25 0 0 Z " fill="#1A4472" transform="translate(135,169)"/>
<path d="M0 0 C0.99 0 1.98 0 3 0 C3 1.65 3 3.3 3 5 C1.68 4.67 0.36 4.34 -1 4 C-0.67 2.68 -0.34 1.36 0 0 Z " fill="#1F5E54" transform="translate(226,150)"/>
<path d="M0 0 C0.33 0.66 0.66 1.32 1 2 C0.01 2 -0.98 2 -2 2 C-1.67 3.65 -1.34 5.3 -1 7 C-1.99 7.33 -2.98 7.66 -4 8 C-3.67 5.69 -3.34 3.38 -3 1 C-2.01 0.67 -1.02 0.34 0 0 Z " fill="#1F6151" transform="translate(475,399)"/>
<path d="M0 0 C0.99 0 1.98 0 3 0 C3.33 1.98 3.66 3.96 4 6 C3.01 6 2.02 6 1 6 C0.67 4.02 0.34 2.04 0 0 Z " fill="#1F5F54" transform="translate(305,354)"/>
<path d="M0 0 C0.66 0 1.32 0 2 0 C2.33 2.31 2.66 4.62 3 7 C0.13822943 8.43088528 -1.93375773 7.59991697 -5 7 C-5 6.67 -5 6.34 -5 6 C-3.02 6 -1.04 6 1 6 C0.67 4.02 0.34 2.04 0 0 Z " fill="#1A4374" transform="translate(526,166)"/>
<path d="M0 0 C0.66 0 1.32 0 2 0 C0.84826645 2.46800047 -0.04783565 4.04783565 -2 6 C-2.99 6 -3.98 6 -5 6 C-5 5.34 -5 4.68 -5 4 C-3.35 3.34 -1.7 2.68 0 2 C0 1.34 0 0.68 0 0 Z " fill="#193F78" transform="translate(278,108)"/>
<path d="M0 0 C1.98 0 3.96 0 6 0 C6 0.66 6 1.32 6 2 C4.68 2 3.36 2 2 2 C1.67 3.32 1.34 4.64 1 6 C0.67 4.02 0.34 2.04 0 0 Z " fill="#1C4F66" transform="translate(299,100)"/>
</svg>
