<?xml version="1.0" encoding="UTF-8"?>
<svg version="1.1" xmlns="http://www.w3.org/2000/svg" width="640" height="480">
<path d="M0 0 C211.2 0 422.4 0 640 0 C640 158.4 640 316.8 640 480 C428.8 480 217.6 480 0 480 C0 321.6 0 163.2 0 0 Z " fill="#16308A" transform="translate(0,0)"/>
<path d="M0 0 C0.87205078 0.34998047 0.87205078 0.34998047 1.76171875 0.70703125 C1.76171875 1.36703125 1.76171875 2.02703125 1.76171875 2.70703125 C0.55515625 3.14015625 0.55515625 3.14015625 -0.67578125 3.58203125 C-3.37092805 4.43965693 -3.37092805 4.43965693 -4.23828125 6.70703125 C-2.91828125 7.36703125 -1.59828125 8.02703125 -0.23828125 8.70703125 C0.33921875 8.21203125 0.91671875 7.71703125 1.51171875 7.20703125 C3.76171875 5.70703125 3.76171875 5.70703125 7.76171875 5.70703125 C7.76171875 3.72703125 7.76171875 1.74703125 7.76171875 -0.29296875 C8.42171875 -0.29296875 9.08171875 -0.29296875 9.76171875 -0.29296875 C10.25671875 1.68703125 10.25671875 1.68703125 10.76171875 3.70703125 C12.43234375 3.67609375 12.43234375 3.67609375 14.13671875 3.64453125 C17.76171875 3.70703125 17.76171875 3.70703125 19.76171875 4.70703125 C20.25671875 6.19203125 20.25671875 6.19203125 20.76171875 7.70703125 C21.67695313 7.62324219 22.5921875 7.53945313 23.53515625 7.453125 C25.31792969 7.30037109 25.31792969 7.30037109 27.13671875 7.14453125 C28.32007813 7.04011719 29.5034375 6.93570313 30.72265625 6.828125 C33.76171875 6.70703125 33.76171875 6.70703125 35.76171875 7.70703125 C41.28590878 8.27072411 44.64552272 7.01127691 49.47265625 4.6640625 C52.89725433 3.23227661 56.07519042 2.9751424 59.76171875 2.70703125 C58.44171875 3.69703125 57.12171875 4.68703125 55.76171875 5.70703125 C58.49912251 7.94785555 58.49912251 7.94785555 61.19921875 7.64453125 C64.32874889 7.72086125 65.46538876 8.66584904 67.76171875 10.70703125 C67.43171875 12.02703125 67.10171875 13.34703125 66.76171875 14.70703125 C67.60734375 14.64515625 68.45296875 14.58328125 69.32421875 14.51953125 C74.73477061 14.81465226 79.81879129 16.92182089 83.76171875 20.70703125 C83.76171875 21.69703125 83.76171875 22.68703125 83.76171875 23.70703125 C84.59703125 23.86171875 84.59703125 23.86171875 85.44921875 24.01953125 C87.76171875 24.70703125 87.76171875 24.70703125 89.8046875 26.2421875 C94.02410474 28.33238759 97.75261209 27.99352285 102.38671875 27.83203125 C104.08713431 27.78862725 105.78766262 27.74938757 107.48828125 27.71484375 C108.23674316 27.6905127 108.98520508 27.66618164 109.75634766 27.64111328 C111.76171875 27.70703125 111.76171875 27.70703125 114.76171875 28.70703125 C115.64859375 28.93390625 116.53546875 29.16078125 117.44921875 29.39453125 C121.22491513 30.89056189 123.89209429 32.92504865 127.02734375 35.46484375 C128.67716099 36.90112357 128.67716099 36.90112357 130.76171875 36.70703125 C131.07625 37.63386719 131.39078125 38.56070313 131.71484375 39.515625 C132.1428125 40.71316406 132.57078125 41.91070312 133.01171875 43.14453125 C133.63820313 44.93697266 133.63820313 44.93697266 134.27734375 46.765625 C135.43209314 49.84518608 135.43209314 49.84518608 137.93359375 50.6171875 C138.83851563 50.66166016 138.83851563 50.66166016 139.76171875 50.70703125 C140.20733898 54.21469908 139.90652304 55.49697564 137.86328125 58.4609375 C136.63738281 59.85119141 136.63738281 59.85119141 135.38671875 61.26953125 C131.54500996 65.64387683 131.54500996 65.64387683 128.76171875 70.70703125 C128.10171875 70.70703125 127.44171875 70.70703125 126.76171875 70.70703125 C126.76171875 71.36703125 126.76171875 72.02703125 126.76171875 72.70703125 C127.54546875 72.21203125 128.32921875 71.71703125 129.13671875 71.20703125 C131.76171875 69.70703125 131.76171875 69.70703125 133.76171875 69.70703125 C133.76171875 69.04703125 133.76171875 68.38703125 133.76171875 67.70703125 C134.42171875 67.70703125 135.08171875 67.70703125 135.76171875 67.70703125 C136.09171875 69.68703125 136.42171875 71.66703125 136.76171875 73.70703125 C138.04046875 73.54203125 139.31921875 73.37703125 140.63671875 73.20703125 C142.7079894 72.93977052 144.6727545 72.70703125 146.76171875 72.70703125 C149.20938706 70.66730766 150.39932657 68.54926322 151.76171875 65.70703125 C158.5729379 65.15773938 162.55475895 66.15527136 168.5 69.515625 C170.61274838 70.62855808 172.43148253 71.24311694 174.76171875 71.70703125 C174.97828125 72.66609375 174.97828125 72.66609375 175.19921875 73.64453125 C175.57179056 75.68248271 175.57179056 75.68248271 176.76171875 76.70703125 C177.93734375 76.52140625 179.11296875 76.33578125 180.32421875 76.14453125 C184.05845148 75.62239959 186.86135257 76.08270631 190.5 77.18359375 C193.25426892 77.82102386 195.87535725 77.86397624 198.69921875 77.95703125 C206.74597396 78.53469504 211.45881492 82.52535505 217.13671875 87.89453125 C220.09088523 90.58518053 222.62569186 91.30816851 226.51171875 92.14453125 C231.39376685 93.26807109 231.39376685 93.26807109 233.09765625 95.30078125 C233.88671875 97.14453125 233.88671875 97.14453125 234.76171875 100.70703125 C234.98859375 101.34640625 235.21546875 101.98578125 235.44921875 102.64453125 C236.66317437 110.65663837 235.27755798 115.85562971 230.55859375 122.3671875 C227.86493942 125.70015853 224.91523514 128.80920538 221.76171875 131.70703125 C221.10171875 131.70703125 220.44171875 131.70703125 219.76171875 131.70703125 C219.69984375 132.42890625 219.63796875 133.15078125 219.57421875 133.89453125 C218.51715228 137.5536075 216.55621804 139.19914727 213.76171875 141.70703125 C213.76171875 141.04703125 213.76171875 140.38703125 213.76171875 139.70703125 C213.10171875 139.70703125 212.44171875 139.70703125 211.76171875 139.70703125 C211.74189941 140.3211084 211.72208008 140.93518555 211.70166016 141.56787109 C211.60518073 144.40628508 211.49601073 147.24408282 211.38671875 150.08203125 C211.35578125 151.04753906 211.32484375 152.01304687 211.29296875 153.0078125 C210.61459244 169.85415756 210.61459244 169.85415756 206.76171875 173.70703125 C206.56281462 175.57920787 206.56281462 175.57920787 206.57421875 177.70703125 C206.12478842 183.07426648 203.60733101 186.21761827 200.40234375 190.40625 C198.52530043 193.0385798 197.75394169 195.65403759 196.76171875 198.70703125 C194.69921875 199.95703125 194.69921875 199.95703125 192.76171875 200.70703125 C192.43171875 201.36703125 192.10171875 202.02703125 191.76171875 202.70703125 C190.83359375 202.68640625 189.90546875 202.66578125 188.94921875 202.64453125 C185.73885864 202.54933521 185.73885864 202.54933521 182.76171875 203.70703125 C181.93671875 203.66578125 181.11171875 203.62453125 180.26171875 203.58203125 C177.73394794 203.4281737 177.73394794 203.4281737 176.390625 205.078125 C174.47192291 206.99682709 172.68432234 207.82597765 170.19921875 208.89453125 C169.41417969 209.23871094 168.62914062 209.58289063 167.8203125 209.9375 C165.76171875 210.70703125 165.76171875 210.70703125 163.76171875 210.70703125 C163.76171875 211.36703125 163.76171875 212.02703125 163.76171875 212.70703125 C162.83359375 213.10921875 162.83359375 213.10921875 161.88671875 213.51953125 C159.46219545 214.66259973 159.46219545 214.66259973 157.76171875 217.70703125 C157.10171875 217.70703125 156.44171875 217.70703125 155.76171875 217.70703125 C155.75914062 218.99738281 155.7565625 220.28773438 155.75390625 221.6171875 C155.71636566 223.33466936 155.67721784 225.05211661 155.63671875 226.76953125 C155.63929688 227.61708984 155.641875 228.46464844 155.64453125 229.33789062 C155.46509541 235.14712601 154.31196902 238.01670024 150.24072266 242.15893555 C148.25996993 244.23221931 147.18033996 246.48064842 146.01171875 249.08203125 C143.9609375 253.60742188 143.9609375 253.60742188 141.76171875 254.70703125 C142.75171875 251.73703125 142.75171875 251.73703125 143.76171875 248.70703125 C143.10171875 248.70703125 142.44171875 248.70703125 141.76171875 248.70703125 C140.77171875 250.68703125 139.78171875 252.66703125 138.76171875 254.70703125 C138.10171875 254.70703125 137.44171875 254.70703125 136.76171875 254.70703125 C136.86484375 255.51140625 136.96796875 256.31578125 137.07421875 257.14453125 C136.63928105 262.10282099 134.35526456 265.53883263 131.76171875 269.70703125 C131.10171875 269.70703125 130.44171875 269.70703125 129.76171875 269.70703125 C129.69984375 270.28453125 129.63796875 270.86203125 129.57421875 271.45703125 C128.32439375 274.91808509 126.98668792 275.90104851 123.76171875 277.70703125 C117.09474904 278.6432878 111.65265664 277.90862793 105.76171875 274.70703125 C104.76171875 273.70703125 104.76171875 273.70703125 104.73999023 271.66577148 C104.78712158 270.79122314 104.83425293 269.9166748 104.8828125 269.015625 C104.93115234 268.07138672 104.97949219 267.12714844 105.02929688 266.15429688 C105.08537109 265.16107422 105.14144531 264.16785156 105.19921875 263.14453125 C105.25142578 262.14744141 105.30363281 261.15035156 105.35742188 260.12304688 C105.48754245 257.65075603 105.62252056 255.17882495 105.76171875 252.70703125 C105.70113281 253.49207031 105.64054688 254.27710938 105.578125 255.0859375 C105.21510801 259.6376121 104.85289548 264.13261786 104.13671875 268.64453125 C103.75046605 271.79892833 103.53603851 273.76539868 104.76171875 276.70703125 C107.72878921 278.56619949 107.72878921 278.56619949 110.76171875 279.70703125 C110.76171875 282.01703125 110.76171875 284.32703125 110.76171875 286.70703125 C111.75171875 286.70703125 112.74171875 286.70703125 113.76171875 286.70703125 C112.72070929 295.55561169 112.72070929 295.55561169 110.76171875 298.70703125 C108.2200912 300.35565453 105.54918807 301.53564337 102.76171875 302.70703125 C101.95734375 303.09890625 101.15296875 303.49078125 100.32421875 303.89453125 C96.54058251 305.09422079 92.70528624 305.38054854 88.76171875 305.70703125 C88.79652344 306.55007813 88.83132813 307.393125 88.8671875 308.26171875 C88.89425781 309.35742188 88.92132813 310.453125 88.94921875 311.58203125 C88.98402344 312.67257812 89.01882813 313.763125 89.0546875 314.88671875 C88.95800781 315.81742187 88.86132812 316.748125 88.76171875 317.70703125 C84.55360227 320.51244224 82.66251634 319.56272607 77.76171875 318.70703125 C77.10171875 318.37703125 76.44171875 318.04703125 75.76171875 317.70703125 C76.05046875 318.98578125 76.33921875 320.26453125 76.63671875 321.58203125 C76.79914063 322.30132812 76.9615625 323.020625 77.12890625 323.76171875 C77.66646303 325.91423089 77.66646303 325.91423089 79.76171875 327.70703125 C79.43171875 328.69703125 79.10171875 329.68703125 78.76171875 330.70703125 C79.42171875 331.03703125 80.08171875 331.36703125 80.76171875 331.70703125 C80.10171875 332.03703125 79.44171875 332.36703125 78.76171875 332.70703125 C78.42253447 334.48702399 78.16408818 336.28279495 77.94921875 338.08203125 C77.46484375 341.12109375 77.46484375 341.12109375 76.76171875 343.70703125 C74.19921875 345.45703125 74.19921875 345.45703125 71.76171875 346.70703125 C70.86579792 350.30622548 70.86579792 350.30622548 70.76171875 353.70703125 C73.67936875 355.65213125 75.3870916 356.15979442 78.76171875 356.70703125 C79.07421875 359.39453125 79.07421875 359.39453125 78.76171875 362.70703125 C77.09505208 364.37369792 75.42838542 366.04036458 73.76171875 367.70703125 C73.40628448 370.03710036 73.07034345 372.37030141 72.76171875 374.70703125 C70.69921875 376.14453125 70.69921875 376.14453125 68.76171875 376.70703125 C69.07109375 377.96515625 69.38046875 379.22328125 69.69921875 380.51953125 C69.96025391 381.58107422 69.96025391 381.58107422 70.2265625 382.6640625 C70.6718258 384.36386327 71.2060586 386.04005079 71.76171875 387.70703125 C69.63733536 387.78781766 67.51208645 387.84612266 65.38671875 387.89453125 C64.20335937 387.92933594 63.02 387.96414063 61.80078125 388 C60.79789062 387.90332031 59.795 387.80664062 58.76171875 387.70703125 C57.77171875 386.22203125 57.77171875 386.22203125 56.76171875 384.70703125 C57.42171875 386.02703125 58.08171875 387.34703125 58.76171875 388.70703125 C62.39171875 388.70703125 66.02171875 388.70703125 69.76171875 388.70703125 C69.76171875 389.36703125 69.76171875 390.02703125 69.76171875 390.70703125 C70.75171875 390.70703125 71.74171875 390.70703125 72.76171875 390.70703125 C72.76171875 392.02703125 72.76171875 393.34703125 72.76171875 394.70703125 C73.27734375 394.78953125 73.79296875 394.87203125 74.32421875 394.95703125 C77.19318732 395.83979081 79.50414274 397.19650242 82.078125 398.71875 C83.93123676 399.8065395 85.82483714 400.77732808 87.76171875 401.70703125 C86.76171875 402.70703125 86.76171875 402.70703125 84.2578125 402.8046875 C82.74380859 402.78728516 82.74380859 402.78728516 81.19921875 402.76953125 C80.18730469 402.76050781 79.17539062 402.75148438 78.1328125 402.7421875 C76.95912109 402.72478516 76.95912109 402.72478516 75.76171875 402.70703125 C75.43171875 402.04703125 75.10171875 401.38703125 74.76171875 400.70703125 C74.76171875 401.69703125 74.76171875 402.68703125 74.76171875 403.70703125 C75.42171875 403.70703125 76.08171875 403.70703125 76.76171875 403.70703125 C77.42171875 405.02703125 78.08171875 406.34703125 78.76171875 407.70703125 C73.01171875 407.83203125 73.01171875 407.83203125 70.76171875 406.70703125 C70.76171875 406.04703125 70.76171875 405.38703125 70.76171875 404.70703125 C68.12171875 404.70703125 65.48171875 404.70703125 62.76171875 404.70703125 C66.51171875 400.83203125 66.51171875 400.83203125 68.76171875 399.70703125 C69.09171875 398.71703125 69.42171875 397.72703125 69.76171875 396.70703125 C68.77171875 396.37703125 67.78171875 396.04703125 66.76171875 395.70703125 C67.42171875 394.05703125 68.08171875 392.40703125 68.76171875 390.70703125 C67.44171875 391.03703125 66.12171875 391.36703125 64.76171875 391.70703125 C64.76171875 394.01703125 64.76171875 396.32703125 64.76171875 398.70703125 C63.11171875 398.70703125 61.46171875 398.70703125 59.76171875 398.70703125 C59.76171875 396.70703125 59.76171875 396.70703125 60.76171875 395.70703125 C60.10171875 395.70703125 59.44171875 395.70703125 58.76171875 395.70703125 C58.76171875 396.36703125 58.76171875 397.02703125 58.76171875 397.70703125 C56.76171875 396.70703125 54.76171875 395.70703125 52.76171875 394.70703125 C52.34765625 392.640625 52.34765625 392.640625 52.13671875 390.14453125 C52.02457031 388.90509766 52.02457031 388.90509766 51.91015625 387.640625 C51.83667969 386.68349609 51.83667969 386.68349609 51.76171875 385.70703125 C50.77171875 385.70703125 49.78171875 385.70703125 48.76171875 385.70703125 C48.76171875 384.38703125 48.76171875 383.06703125 48.76171875 381.70703125 C47.77171875 381.70703125 46.78171875 381.70703125 45.76171875 381.70703125 C46.09171875 379.72703125 46.42171875 377.74703125 46.76171875 375.70703125 C46.10171875 375.37703125 45.44171875 375.04703125 44.76171875 374.70703125 C44.37953108 373.05088468 44.04776773 371.38246101 43.76171875 369.70703125 C43.43171875 369.04703125 43.10171875 368.38703125 42.76171875 367.70703125 C44.08171875 367.70703125 45.40171875 367.70703125 46.76171875 367.70703125 C45.11171875 367.37703125 43.46171875 367.04703125 41.76171875 366.70703125 C42.09171875 365.05703125 42.42171875 363.40703125 42.76171875 361.70703125 C41.11171875 361.37703125 39.46171875 361.04703125 37.76171875 360.70703125 C37.76171875 361.36703125 37.76171875 362.02703125 37.76171875 362.70703125 C37.10171875 362.70703125 36.44171875 362.70703125 35.76171875 362.70703125 C36.33756307 360.32139048 36.9839947 358.04020341 37.76171875 355.70703125 C39.82421875 355.01953125 39.82421875 355.01953125 41.76171875 354.70703125 C41.76171875 355.36703125 41.76171875 356.02703125 41.76171875 356.70703125 C42.42171875 356.70703125 43.08171875 356.70703125 43.76171875 356.70703125 C43.74109375 355.44890625 43.72046875 354.19078125 43.69921875 352.89453125 C43.65285792 350.06652038 43.84478914 348.45782009 44.76171875 345.70703125 C44.10171875 345.37703125 43.44171875 345.04703125 42.76171875 344.70703125 C42.3828125 342.88671875 42.3828125 342.88671875 42.19921875 340.58203125 C41.8419859 336.59505749 41.35134669 332.66596173 40.76171875 328.70703125 C39.44171875 329.36703125 38.12171875 330.02703125 36.76171875 330.70703125 C34.55482599 327.17772027 34.63632377 324.49449602 34.82421875 320.39453125 C34.95760809 314.94199942 34.95760809 314.94199942 33.19921875 309.89453125 C31.10138671 305.24281672 32.08091444 301.42861271 33.26977539 296.67602539 C34.66580819 291.05762382 35.06730323 285.7956851 35.01171875 280.01953125 C35.01945312 279.20419922 35.0271875 278.38886719 35.03515625 277.54882812 C35.01984679 272.81437742 34.36523634 269.20068332 32.76171875 264.70703125 C32.6015625 261.85546875 32.6015625 261.85546875 32.69921875 259.08203125 C32.83845876 255.3417399 32.83845876 255.3417399 32.23828125 251.6796875 C31.64366856 249.21838086 31.89342148 247.2800891 32.19921875 244.76953125 C32.85806366 238.42921853 33.09288943 232.07719669 32.76171875 225.70703125 C32.43171875 225.37703125 32.10171875 225.04703125 31.76171875 224.70703125 C30.9006149 219.04075531 30.72046183 213.36598447 30.82421875 207.64453125 C30.88186789 202.08859582 30.01362131 197.09690181 28.76171875 191.70703125 C28.41721761 189.70892463 28.07794652 187.7098071 27.76171875 185.70703125 C28.42171875 185.37703125 29.08171875 185.04703125 29.76171875 184.70703125 C30.48331299 183.06339991 31.15523296 181.39652739 31.76171875 179.70703125 C31.07421875 181.64453125 31.07421875 181.64453125 29.76171875 183.70703125 C27.44921875 184.70703125 27.44921875 184.70703125 24.76171875 184.70703125 C22.26171875 182.95703125 22.26171875 182.95703125 19.76171875 180.70703125 C16.57177141 178.33735609 13.92673279 177.48214299 10.07421875 176.83203125 C1.97925424 175.37228355 -5.48180617 171.6074182 -11.23828125 165.70703125 C-11.91853762 163.71161257 -12.58318622 161.71085134 -13.23828125 159.70703125 C-16.97526587 153.89177062 -16.97526587 153.89177062 -22.23828125 149.70703125 C-23.28381767 148.06854678 -24.27678814 146.39620524 -25.23828125 144.70703125 C-33.84482362 129.82388994 -33.84482362 129.82388994 -48.23828125 121.70703125 C-48.23828125 121.04703125 -48.23828125 120.38703125 -48.23828125 119.70703125 C-47.57828125 119.70703125 -46.91828125 119.70703125 -46.23828125 119.70703125 C-47.25921875 118.37671875 -47.25921875 118.37671875 -48.30078125 117.01953125 C-50.23828125 113.70703125 -50.23828125 113.70703125 -50.23828125 111.08203125 C-49.05193086 108.26444907 -47.52846029 106.70170332 -45.23828125 104.70703125 C-45.23828125 106.35703125 -45.23828125 108.00703125 -45.23828125 109.70703125 C-43.25828125 110.03703125 -41.27828125 110.36703125 -39.23828125 110.70703125 C-39.23828125 110.04703125 -39.23828125 109.38703125 -39.23828125 108.70703125 C-40.88828125 108.70703125 -42.53828125 108.70703125 -44.23828125 108.70703125 C-43.90828125 105.40703125 -43.57828125 102.10703125 -43.23828125 98.70703125 C-45.21828125 99.20203125 -45.21828125 99.20203125 -47.23828125 99.70703125 C-49.69671562 97.24859688 -49.91669207 95.25315168 -50.28515625 91.86328125 C-50.21093312 88.44901721 -48.67656618 85.75619531 -47.23828125 82.70703125 C-46.98437903 79.91362968 -46.98437903 79.91362968 -47.23828125 77.70703125 C-44.59828125 76.38703125 -41.95828125 75.06703125 -39.23828125 73.70703125 C-39.89828125 72.71703125 -40.55828125 71.72703125 -41.23828125 70.70703125 C-40.57828125 70.70703125 -39.91828125 70.70703125 -39.23828125 70.70703125 C-38.90828125 69.05703125 -38.57828125 67.40703125 -38.23828125 65.70703125 C-36.25828125 65.21203125 -36.25828125 65.21203125 -34.23828125 64.70703125 C-32.94603969 58.89194424 -33.40196274 53.56744644 -34.11328125 47.70703125 C-34.19191406 46.99546875 -34.27054688 46.28390625 -34.3515625 45.55078125 C-34.7933421 41.90779872 -35.28834524 38.85314649 -37.23828125 35.70703125 C-35.75328125 35.21203125 -35.75328125 35.21203125 -34.23828125 34.70703125 C-34.09390625 33.94390625 -33.94953125 33.18078125 -33.80078125 32.39453125 C-32.7478734 27.36397152 -31.04918264 25.14613738 -27.23828125 21.70703125 C-26.57828125 21.70703125 -25.91828125 21.70703125 -25.23828125 21.70703125 C-25.36203125 20.37671875 -25.36203125 20.37671875 -25.48828125 19.01953125 C-25.18311003 14.97601256 -24.11431239 13.50089007 -21.23828125 10.70703125 C-20.24828125 10.70703125 -19.25828125 10.70703125 -18.23828125 10.70703125 C-17.90828125 10.04703125 -17.57828125 9.38703125 -17.23828125 8.70703125 C-15.72234375 8.36671875 -15.72234375 8.36671875 -14.17578125 8.01953125 C-9.77391572 6.93265087 -7.25022421 4.23851707 -4.1328125 1.0703125 C-2.23828125 -0.29296875 -2.23828125 -0.29296875 0 0 Z " fill="#008000" transform="translate(227.23828125,37.29296875)"/>
<path d="M0 0 C0.87205078 0.34998047 0.87205078 0.34998047 1.76171875 0.70703125 C1.76171875 1.36703125 1.76171875 2.02703125 1.76171875 2.70703125 C0.55515625 3.14015625 0.55515625 3.14015625 -0.67578125 3.58203125 C-3.37092805 4.43965693 -3.37092805 4.43965693 -4.23828125 6.70703125 C-2.91828125 7.36703125 -1.59828125 8.02703125 -0.23828125 8.70703125 C0.33921875 8.21203125 0.91671875 7.71703125 1.51171875 7.20703125 C3.76171875 5.70703125 3.76171875 5.70703125 7.76171875 5.70703125 C7.76171875 3.72703125 7.76171875 1.74703125 7.76171875 -0.29296875 C8.42171875 -0.29296875 9.08171875 -0.29296875 9.76171875 -0.29296875 C10.25671875 1.68703125 10.25671875 1.68703125 10.76171875 3.70703125 C12.43234375 3.67609375 12.43234375 3.67609375 14.13671875 3.64453125 C17.76171875 3.70703125 17.76171875 3.70703125 19.76171875 4.70703125 C20.25671875 6.19203125 20.25671875 6.19203125 20.76171875 7.70703125 C21.67695313 7.62324219 22.5921875 7.53945313 23.53515625 7.453125 C25.31792969 7.30037109 25.31792969 7.30037109 27.13671875 7.14453125 C28.32007813 7.04011719 29.5034375 6.93570313 30.72265625 6.828125 C33.76171875 6.70703125 33.76171875 6.70703125 35.76171875 7.70703125 C41.28590878 8.27072411 44.64552272 7.01127691 49.47265625 4.6640625 C52.89725433 3.23227661 56.07519042 2.9751424 59.76171875 2.70703125 C58.44171875 3.69703125 57.12171875 4.68703125 55.76171875 5.70703125 C58.49912251 7.94785555 58.49912251 7.94785555 61.19921875 7.64453125 C64.32874889 7.72086125 65.46538876 8.66584904 67.76171875 10.70703125 C67.43171875 12.02703125 67.10171875 13.34703125 66.76171875 14.70703125 C67.60734375 14.64515625 68.45296875 14.58328125 69.32421875 14.51953125 C74.73477061 14.81465226 79.81879129 16.92182089 83.76171875 20.70703125 C83.76171875 21.69703125 83.76171875 22.68703125 83.76171875 23.70703125 C84.59703125 23.86171875 84.59703125 23.86171875 85.44921875 24.01953125 C88.40227169 24.89746591 90.37703115 25.71979159 92.76171875 27.70703125 C93.07421875 31.39453125 93.07421875 31.39453125 92.76171875 34.70703125 C91.44171875 35.03703125 90.12171875 35.36703125 88.76171875 35.70703125 C89.89985415 40.63895133 90.96133586 43.36730083 94.76171875 46.70703125 C95.27734375 47.42890625 95.79296875 48.15078125 96.32421875 48.89453125 C97.72345065 50.99804683 97.72345065 50.99804683 100.76171875 51.70703125 C100.76171875 50.71703125 100.76171875 49.72703125 100.76171875 48.70703125 C102.41171875 48.70703125 104.06171875 48.70703125 105.76171875 48.70703125 C104.77171875 49.36703125 103.78171875 50.02703125 102.76171875 50.70703125 C102.76171875 51.69703125 102.76171875 52.68703125 102.76171875 53.70703125 C102.12105469 53.7328125 101.48039063 53.75859375 100.8203125 53.78515625 C96.3104035 54.08088799 92.82723085 54.34799845 89.01171875 56.89453125 C85.76171875 58.70703125 85.76171875 58.70703125 82.57421875 58.33203125 C78.9689665 56.24899662 77.59380836 54.44167546 75.76171875 50.70703125 C75.42669492 46.82075486 75.57057642 43.42935103 76.76171875 39.70703125 C75.77171875 39.70703125 74.78171875 39.70703125 73.76171875 39.70703125 C74.09171875 38.38703125 74.42171875 37.06703125 74.76171875 35.70703125 C73.77171875 35.70703125 72.78171875 35.70703125 71.76171875 35.70703125 C71.53484375 36.30515625 71.30796875 36.90328125 71.07421875 37.51953125 C69.37606076 40.34979457 67.71027282 41.26703973 64.76171875 42.70703125 C61.94921875 43.39453125 61.94921875 43.39453125 59.76171875 43.70703125 C59.43171875 44.69703125 59.10171875 45.68703125 58.76171875 46.70703125 C55.79171875 46.37703125 52.82171875 46.04703125 49.76171875 45.70703125 C50.42171875 48.01703125 51.08171875 50.32703125 51.76171875 52.70703125 C53.08171875 52.70703125 54.40171875 52.70703125 55.76171875 52.70703125 C55.76171875 53.69703125 55.76171875 54.68703125 55.76171875 55.70703125 C54.44171875 56.03703125 53.12171875 56.36703125 51.76171875 56.70703125 C51.72046875 57.28453125 51.67921875 57.86203125 51.63671875 58.45703125 C50.29834632 61.89856035 47.89883956 62.92317824 44.76171875 64.70703125 C41.25733899 66.13068553 38.40866507 65.49984567 34.76171875 64.70703125 C32.25088761 63.45161568 31.89046429 62.20639637 30.76171875 59.70703125 C30.14296875 60.01640625 29.52421875 60.32578125 28.88671875 60.64453125 C24.57369581 62.11095905 20.28571915 62.37322151 15.76171875 62.70703125 C15.76171875 63.69703125 15.76171875 64.68703125 15.76171875 65.70703125 C17.41171875 66.03703125 19.06171875 66.36703125 20.76171875 66.70703125 C20.76171875 67.36703125 20.76171875 68.02703125 20.76171875 68.70703125 C19.44171875 69.03703125 18.12171875 69.36703125 16.76171875 69.70703125 C16.76171875 71.02703125 16.76171875 72.34703125 16.76171875 73.70703125 C17.42171875 74.03703125 18.08171875 74.36703125 18.76171875 74.70703125 C20.55085921 77.56926747 20.98876377 79.58741646 20.7734375 82.9296875 C20.72638672 83.71537109 20.67933594 84.50105469 20.63085938 85.31054688 C20.57091797 86.12201172 20.51097656 86.93347656 20.44921875 87.76953125 C20.40087891 88.58486328 20.35253906 89.40019531 20.30273438 90.24023438 C20.0819532 93.64138243 19.84669551 96.45210097 18.76171875 99.70703125 C16.78171875 99.70703125 14.80171875 99.70703125 12.76171875 99.70703125 C13.2989777 96.329975 13.87236498 93.01034525 14.76171875 89.70703125 C10.735391 88.09650015 7.77816672 89.5297965 3.76171875 90.70703125 C0.32421875 90.83203125 0.32421875 90.83203125 -2.23828125 90.70703125 C-2.56828125 89.71703125 -2.89828125 88.72703125 -3.23828125 87.70703125 C-3.89828125 87.70703125 -4.55828125 87.70703125 -5.23828125 87.70703125 C-6.26025117 86.72949481 -7.2580775 85.72644315 -8.23828125 84.70703125 C-9.22828125 84.04703125 -10.21828125 83.38703125 -11.23828125 82.70703125 C-11.23828125 82.04703125 -11.23828125 81.38703125 -11.23828125 80.70703125 C-14.20828125 79.71703125 -14.20828125 79.71703125 -17.23828125 78.70703125 C-17.01140625 79.55265625 -16.78453125 80.39828125 -16.55078125 81.26953125 C-16.14888388 85.69040235 -17.06663219 87.8541055 -19.23828125 91.70703125 C-22.00296638 94.35151268 -24.52225919 96.34069438 -27.92578125 98.08203125 C-32.54036792 101.32471378 -33.59349923 107.51964181 -35.23828125 112.70703125 C-36.55828125 112.70703125 -37.87828125 112.70703125 -39.23828125 112.70703125 C-39.23828125 111.38703125 -39.23828125 110.06703125 -39.23828125 108.70703125 C-40.88828125 108.70703125 -42.53828125 108.70703125 -44.23828125 108.70703125 C-43.90828125 105.40703125 -43.57828125 102.10703125 -43.23828125 98.70703125 C-45.21828125 99.20203125 -45.21828125 99.20203125 -47.23828125 99.70703125 C-49.69671562 97.24859688 -49.91669207 95.25315168 -50.28515625 91.86328125 C-50.21093312 88.44901721 -48.67656618 85.75619531 -47.23828125 82.70703125 C-46.98437903 79.91362968 -46.98437903 79.91362968 -47.23828125 77.70703125 C-44.59828125 76.38703125 -41.95828125 75.06703125 -39.23828125 73.70703125 C-39.89828125 72.71703125 -40.55828125 71.72703125 -41.23828125 70.70703125 C-40.57828125 70.70703125 -39.91828125 70.70703125 -39.23828125 70.70703125 C-38.90828125 69.05703125 -38.57828125 67.40703125 -38.23828125 65.70703125 C-36.25828125 65.21203125 -36.25828125 65.21203125 -34.23828125 64.70703125 C-32.94603969 58.89194424 -33.40196274 53.56744644 -34.11328125 47.70703125 C-34.19191406 46.99546875 -34.27054688 46.28390625 -34.3515625 45.55078125 C-34.7933421 41.90779872 -35.28834524 38.85314649 -37.23828125 35.70703125 C-35.75328125 35.21203125 -35.75328125 35.21203125 -34.23828125 34.70703125 C-34.09390625 33.94390625 -33.94953125 33.18078125 -33.80078125 32.39453125 C-32.7478734 27.36397152 -31.04918264 25.14613738 -27.23828125 21.70703125 C-26.57828125 21.70703125 -25.91828125 21.70703125 -25.23828125 21.70703125 C-25.36203125 20.37671875 -25.36203125 20.37671875 -25.48828125 19.01953125 C-25.18311003 14.97601256 -24.11431239 13.50089007 -21.23828125 10.70703125 C-20.24828125 10.70703125 -19.25828125 10.70703125 -18.23828125 10.70703125 C-17.90828125 10.04703125 -17.57828125 9.38703125 -17.23828125 8.70703125 C-15.72234375 8.36671875 -15.72234375 8.36671875 -14.17578125 8.01953125 C-9.77391572 6.93265087 -7.25022421 4.23851707 -4.1328125 1.0703125 C-2.23828125 -0.29296875 -2.23828125 -0.29296875 0 0 Z " fill="#048104" transform="translate(227.23828125,37.29296875)"/>
<path d="M0 0 C0.01417969 0.67546875 0.02835937 1.3509375 0.04296875 2.046875 C0.28449668 7.70299026 0.28449668 7.70299026 3 12.5 C6.26101191 14.13050595 9.17922399 14.83952527 12.7421875 15.50390625 C16.01220821 16.22240561 18.92813273 17.68348546 22 19 C23.60031152 19.31212687 25.20484605 19.60321161 26.8125 19.875 C30.79337395 20.69419345 30.79337395 20.69419345 32.5625 23.3125 C32.99182337 25.94977213 33.06666633 28.33334674 33 31 C33.495 33.475 33.495 33.475 34 36 C37.63 36 41.26 36 45 36 C45 37.98 45 39.96 45 42 C45.61875 42.061875 46.2375 42.12375 46.875 42.1875 C49 43 49 43 50.375 45 C51.15703781 48.75378149 50.43367451 51.36505188 49.41015625 55.01171875 C48.77338866 57.06235669 48.77338866 57.06235669 50 59 C49.34 59 48.68 59 48 59 C48.66 59.99 49.32 60.98 50 62 C50.1953125 64.26171875 50.1953125 64.26171875 50.125 66.6875 C50.10695313 67.49574219 50.08890625 68.30398437 50.0703125 69.13671875 C50.04710937 69.75160156 50.02390625 70.36648437 50 71 C50.60328125 70.90460938 51.2065625 70.80921875 51.828125 70.7109375 C52.62734375 70.60007812 53.4265625 70.48921875 54.25 70.375 C55.03890625 70.25898438 55.8278125 70.14296875 56.640625 70.0234375 C59.42905684 69.99573785 60.75427758 70.34525716 63 72 C63.828125 74.1640625 63.828125 74.1640625 64.25 76.625 C64.39953125 77.44226563 64.5490625 78.25953125 64.703125 79.1015625 C64.80109375 79.72804688 64.8990625 80.35453125 65 81 C66.175625 80.690625 66.175625 80.690625 67.375 80.375 C68.24125 80.25125 69.1075 80.1275 70 80 C70.66 80.66 71.32 81.32 72 82 C71.96712417 84.72869407 71.43602229 87.2966618 71 90 C71.639375 90.165 72.27875 90.33 72.9375 90.5 C75 92 75 92 75.5234375 93.84375 C76.275 99.45 76.275 99.45 75 102 C74.34 101.67 73.68 101.34 73 101 C73 98.36 73 95.72 73 93 C71.515 92.505 71.515 92.505 70 92 C70.103125 92.86625 70.20625 93.7325 70.3125 94.625 C69.87637767 99.33512115 68.36210366 100.71430778 65 104 C61.43116581 105.4179743 58.01416521 104.90127487 54.25 104.5625 C53.07953125 104.46066406 51.9090625 104.35882813 50.703125 104.25390625 C49.36507812 104.12822266 49.36507812 104.12822266 48 104 C48.14308594 103.43796875 48.28617187 102.8759375 48.43359375 102.296875 C49.01120902 99.95454547 49.54283307 97.60582341 50.0625 95.25 C50.32740234 94.05117188 50.32740234 94.05117188 50.59765625 92.828125 C50.73042969 92.22484375 50.86320312 91.6215625 51 91 C44.80520671 88.05223604 38.61242722 85.82221376 32 84 C32 83.34 32 82.68 32 82 C30.824375 81.62875 30.824375 81.62875 29.625 81.25 C27 80 27 80 26.1875 77.9375 C25.19162859 75.86662052 25.19162859 75.86662052 23.24609375 75.34375 C21.02888458 74.91909115 19.24294556 74.71630728 17 75 C14.43965247 77.28075185 14.43965247 77.28075185 13 80 C12.67 78.68 12.34 77.36 12 76 C10.55989519 76.25662245 9.1229313 76.53090821 7.6875 76.8125 C6.88699219 76.96332031 6.08648437 77.11414063 5.26171875 77.26953125 C2.68206547 78.10268352 1.60776211 78.82952115 0 81 C-0.57017808 83.04100238 -0.57017808 83.04100238 -0.6875 85.1875 C-0.790625 86.445625 -0.89375 87.70375 -1 89 C-1.99 89.33 -2.98 89.66 -4 90 C-6.40676908 93.3461854 -6.06909217 96.08047351 -5.625 100.0625 C-5.30455793 103.07689114 -5 105.96756391 -5 109 C-5.66 109 -6.32 109 -7 109 C-8.87628547 116.04932111 -10.33570917 121.72780562 -9 129 C-9.63106429 131.01151741 -10.29373761 133.01363702 -11 135 C-10.52553187 137.9417024 -9.43458109 140.22287017 -8 142.8125 C-4.83491515 149.0275757 -4.8667743 154.20064581 -6 161 C-6 161.94875 -6 162.8975 -6 163.875 C-6 164.57625 -6 165.2775 -6 166 C-6.33 166.33 -6.66 166.66 -7 167 C-7.33604693 173.29527281 -7.33604693 173.29527281 -5 179 C-5 179.99 -5 180.98 -5 182 C-5.66 182 -6.32 182 -7 182 C-6.69026416 187.00190425 -6.3542139 192.00109395 -6 197 C-5.90912109 198.38058594 -5.90912109 198.38058594 -5.81640625 199.7890625 C-5.41917588 204.50718652 -4.26265355 207.86819786 -2 212 C-2 212.99 -2 213.98 -2 215 C-1.01 215 -0.02 215 1 215 C1.05813173 219.56244637 1.09364122 224.12479724 1.125 228.6875 C1.14175781 229.98107422 1.15851563 231.27464844 1.17578125 232.60742188 C1.18544922 234.47817383 1.18544922 234.47817383 1.1953125 236.38671875 C1.21102295 238.10701294 1.21102295 238.10701294 1.22705078 239.86206055 C0.99979777 243.00279488 0.20211808 245.12554757 -1 248 C-0.23396041 250.2857711 -0.23396041 250.2857711 1 252 C1.99 252 2.98 252 4 252 C4.66 254.31 5.32 256.62 6 259 C9.9813783 260.3271261 13.85045227 260.06915913 18 260 C18 260.66 18 261.32 18 262 C18.99 262 19.98 262 21 262 C21 263.32 21 264.64 21 266 C21.515625 266.0825 22.03125 266.165 22.5625 266.25 C25.43146857 267.13275956 27.74242399 268.48947117 30.31640625 270.01171875 C32.16951801 271.09950825 34.06311839 272.07029683 36 273 C35 274 35 274 32.49609375 274.09765625 C30.98208984 274.08025391 30.98208984 274.08025391 29.4375 274.0625 C28.42558594 274.05347656 27.41367187 274.04445313 26.37109375 274.03515625 C25.19740234 274.01775391 25.19740234 274.01775391 24 274 C23.67 273.34 23.34 272.68 23 272 C23 272.99 23 273.98 23 275 C23.66 275 24.32 275 25 275 C25.66 276.32 26.32 277.64 27 279 C21.25 279.125 21.25 279.125 19 278 C19 277.34 19 276.68 19 276 C16.36 276 13.72 276 11 276 C14.75 272.125 14.75 272.125 17 271 C17.33 270.01 17.66 269.02 18 268 C17.01 267.67 16.02 267.34 15 267 C15.66 265.35 16.32 263.7 17 262 C15.68 262.33 14.36 262.66 13 263 C13 265.31 13 267.62 13 270 C11.35 270 9.7 270 8 270 C8 268 8 268 9 267 C8.34 267 7.68 267 7 267 C7 267.66 7 268.32 7 269 C4 267.5 4 267.5 1 266 C0.5859375 263.93359375 0.5859375 263.93359375 0.375 261.4375 C0.30023438 260.61121094 0.22546875 259.78492188 0.1484375 258.93359375 C0.09945312 258.29550781 0.05046875 257.65742188 0 257 C-0.99 257 -1.98 257 -3 257 C-3 255.68 -3 254.36 -3 253 C-3.99 253 -4.98 253 -6 253 C-5.505 250.03 -5.505 250.03 -5 247 C-5.66 246.67 -6.32 246.34 -7 246 C-7.38218767 244.34385343 -7.71395102 242.67542976 -8 241 C-8.33 240.34 -8.66 239.68 -9 239 C-7.68 239 -6.36 239 -5 239 C-6.65 238.67 -8.3 238.34 -10 238 C-9.67 236.35 -9.34 234.7 -9 233 C-10.65 232.67 -12.3 232.34 -14 232 C-14 232.66 -14 233.32 -14 234 C-14.66 234 -15.32 234 -16 234 C-15.42415568 231.61435923 -14.77772405 229.33317216 -14 227 C-11.9375 226.3125 -11.9375 226.3125 -10 226 C-10 226.66 -10 227.32 -10 228 C-9.34 228 -8.68 228 -8 228 C-8.020625 226.741875 -8.04125 225.48375 -8.0625 224.1875 C-8.10886083 221.35948913 -7.91692961 219.75078884 -7 217 C-7.66 216.67 -8.32 216.34 -9 216 C-9.37890625 214.1796875 -9.37890625 214.1796875 -9.5625 211.875 C-9.91973285 207.88802624 -10.41037206 203.95893048 -11 200 C-12.98 200.99 -12.98 200.99 -15 202 C-17.20689276 198.47068902 -17.12539498 195.78746477 -16.9375 191.6875 C-16.80411066 186.23496817 -16.80411066 186.23496817 -18.5625 181.1875 C-20.66033204 176.53578547 -19.68080431 172.72158146 -18.49194336 167.96899414 C-17.09591056 162.35059257 -16.69441552 157.08865385 -16.75 151.3125 C-16.74226563 150.49716797 -16.73453125 149.68183594 -16.7265625 148.84179688 C-16.74187196 144.10734617 -17.39648241 140.49365207 -19 136 C-19.16015625 133.1484375 -19.16015625 133.1484375 -19.0625 130.375 C-18.92325999 126.63470865 -18.92325999 126.63470865 -19.5234375 122.97265625 C-20.11805019 120.51134961 -19.86829727 118.57305785 -19.5625 116.0625 C-18.90365509 109.72218728 -18.66882932 103.37016544 -19 97 C-19.495 96.505 -19.495 96.505 -20 96 C-20.86110385 90.33372406 -21.04125692 84.65895322 -20.9375 78.9375 C-20.87985086 73.38156457 -21.74809744 68.38987056 -23 63 C-23.34450114 61.00189338 -23.68377223 59.00277585 -24 57 C-23.01 56.505 -23.01 56.505 -22 56 C-21.34786708 53.97536745 -21.34786708 53.97536745 -21 52 C-20.34 52 -19.68 52 -19 52 C-19.39692764 46.09384093 -19.39692764 46.09384093 -21.125 40.5 C-22.27180737 37.22340752 -21.776973 34.75309893 -21.29296875 31.359375 C-20.86191525 27.88795744 -20.93646447 24.4944539 -21 21 C-20.34 21 -19.68 21 -19 21 C-20.24717912 17.25846263 -22.09887781 15.62482484 -25 13 C-27.92824652 12.02391783 -29.95613276 11.91773332 -33 12 C-33.66 10.02 -34.32 8.04 -35 6 C-35.763125 6.33 -36.52625 6.66 -37.3125 7 C-40 8 -40 8 -43 8 C-43.33 7.34 -43.66 6.68 -44 6 C-46.52733235 5.34444881 -46.52733235 5.34444881 -49 5 C-48.67 4.34 -48.34 3.68 -48 3 C-46.6696875 3.495 -46.6696875 3.495 -45.3125 4 C-42.2331346 4.92961974 -40.1675634 5.42804911 -37 5 C-35.31201173 3.56249809 -35.31201173 3.56249809 -34 2 C-33.34 2 -32.68 2 -32 2 C-32 4.97 -32 7.94 -32 11 C-22.52761865 10.52638093 -16.67239681 8.02883041 -9.55859375 1.99609375 C-5.9391949 -0.82758993 -4.3622526 -1.4540842 0 0 Z " fill="#078307" transform="translate(279,166)"/>
<path d="M0 0 C1.8125 0.125 1.8125 0.125 4 1 C5.625 3.9375 5.625 3.9375 7 7 C7.66 7.66 8.32 8.32 9 9 C8.625 12.625 8.625 12.625 8 16 C8.66 16 9.32 16 10 16 C10 16.99 10 17.98 10 19 C10.66 19 11.32 19 12 19 C15 25.625 15 25.625 15 29 C16.32 29 17.64 29 19 29 C19.66 27.35 20.32 25.7 21 24 C21.66 24 22.32 24 23 24 C23 23.34 23 22.68 23 22 C26.3 22.33 29.6 22.66 33 23 C33 23.33 33 23.66 33 24 C32.38511719 24.10957031 31.77023437 24.21914062 31.13671875 24.33203125 C30.32847656 24.49058594 29.52023437 24.64914063 28.6875 24.8125 C27.88699219 24.96332031 27.08648437 25.11414063 26.26171875 25.26953125 C23.68206547 26.10268352 22.60776211 26.82952115 21 29 C20.42982192 31.04100238 20.42982192 31.04100238 20.3125 33.1875 C20.209375 34.445625 20.10625 35.70375 20 37 C18.515 37.495 18.515 37.495 17 38 C14.59323092 41.3461854 14.93090783 44.08047351 15.375 48.0625 C15.69544207 51.07689114 16 53.96756391 16 57 C15.34 57 14.68 57 14 57 C12.12371453 64.04932111 10.66429083 69.72780562 12 77 C11.36893571 79.01151741 10.70626239 81.01363702 10 83 C10.47446813 85.9417024 11.56541891 88.22287017 13 90.8125 C16.16508485 97.0275757 16.1332257 102.20064581 15 109 C15 109.94875 15 110.8975 15 111.875 C15 112.57625 15 113.2775 15 114 C14.67 114.33 14.34 114.66 14 115 C13.66395307 121.29527281 13.66395307 121.29527281 16 127 C16 127.99 16 128.98 16 130 C15.34 130 14.68 130 14 130 C14.30973584 135.00190425 14.6457861 140.00109395 15 145 C15.09087891 146.38058594 15.09087891 146.38058594 15.18359375 147.7890625 C15.58082412 152.50718652 16.73734645 155.86819786 19 160 C19 160.99 19 161.98 19 163 C19.99 163 20.98 163 22 163 C22.05813173 167.56244637 22.09364122 172.12479724 22.125 176.6875 C22.14175781 177.98107422 22.15851563 179.27464844 22.17578125 180.60742188 C22.18222656 181.85458984 22.18867188 183.10175781 22.1953125 184.38671875 C22.20578613 185.53358154 22.21625977 186.68044434 22.22705078 187.86206055 C21.99979777 191.00279488 21.20211808 193.12554757 20 196 C20.76603959 198.2857711 20.76603959 198.2857711 22 200 C22.99 200 23.98 200 25 200 C25.99 203.465 25.99 203.465 27 207 C30.9813783 208.3271261 34.85045227 208.06915913 39 208 C39 208.66 39 209.32 39 210 C39.99 210 40.98 210 42 210 C42 211.32 42 212.64 42 214 C42.515625 214.0825 43.03125 214.165 43.5625 214.25 C46.43146857 215.13275956 48.74242399 216.48947117 51.31640625 218.01171875 C53.16951801 219.09950825 55.06311839 220.07029683 57 221 C56 222 56 222 53.49609375 222.09765625 C51.98208984 222.08025391 51.98208984 222.08025391 50.4375 222.0625 C49.42558594 222.05347656 48.41367187 222.04445313 47.37109375 222.03515625 C46.19740234 222.01775391 46.19740234 222.01775391 45 222 C44.67 221.34 44.34 220.68 44 220 C44 220.99 44 221.98 44 223 C44.66 223 45.32 223 46 223 C46.99 224.98 46.99 224.98 48 227 C42.25 227.125 42.25 227.125 40 226 C40 225.34 40 224.68 40 224 C37.36 224 34.72 224 32 224 C35.75 220.125 35.75 220.125 38 219 C38.33 218.01 38.66 217.02 39 216 C38.01 215.67 37.02 215.34 36 215 C36.66 213.35 37.32 211.7 38 210 C36.68 210.33 35.36 210.66 34 211 C34 213.31 34 215.62 34 218 C32.35 218 30.7 218 29 218 C29 216 29 216 30 215 C29.34 215 28.68 215 28 215 C28 215.66 28 216.32 28 217 C26 216 24 215 22 214 C21.5859375 211.93359375 21.5859375 211.93359375 21.375 209.4375 C21.30023438 208.61121094 21.22546875 207.78492188 21.1484375 206.93359375 C21.09945313 206.29550781 21.05046875 205.65742188 21 205 C20.01 205 19.02 205 18 205 C18 203.68 18 202.36 18 201 C17.01 201 16.02 201 15 201 C15.495 198.03 15.495 198.03 16 195 C15.34 194.67 14.68 194.34 14 194 C13.61781233 192.34385343 13.28604898 190.67542976 13 189 C12.67 188.34 12.34 187.68 12 187 C13.32 187 14.64 187 16 187 C14.35 186.67 12.7 186.34 11 186 C11.33 184.35 11.66 182.7 12 181 C10.35 180.67 8.7 180.34 7 180 C7 180.66 7 181.32 7 182 C6.34 182 5.68 182 5 182 C5.57584432 179.61435923 6.22227595 177.33317216 7 175 C9.0625 174.3125 9.0625 174.3125 11 174 C11 174.66 11 175.32 11 176 C11.66 176 12.32 176 13 176 C12.979375 174.741875 12.95875 173.48375 12.9375 172.1875 C12.89113917 169.35948913 13.08307039 167.75078884 14 165 C13.34 164.67 12.68 164.34 12 164 C11.62109375 162.1796875 11.62109375 162.1796875 11.4375 159.875 C11.08026715 155.88802624 10.58962794 151.95893048 10 148 C8.02 148.99 8.02 148.99 6 150 C3.79310724 146.47068902 3.87460502 143.78746477 4.0625 139.6875 C4.19588934 134.23496817 4.19588934 134.23496817 2.4375 129.1875 C0.33966796 124.53578547 1.31919569 120.72158146 2.50805664 115.96899414 C3.90408944 110.35059257 4.30558448 105.08865385 4.25 99.3125 C4.25773437 98.49716797 4.26546875 97.68183594 4.2734375 96.84179688 C4.25812804 92.10734617 3.60351759 88.49365207 2 84 C1.83984375 81.1484375 1.83984375 81.1484375 1.9375 78.375 C2.07674001 74.63470865 2.07674001 74.63470865 1.4765625 70.97265625 C0.88194981 68.51134961 1.13170273 66.57305785 1.4375 64.0625 C2.09634491 57.72218728 2.33117068 51.37016544 2 45 C1.67 44.67 1.34 44.34 1 44 C0.13889615 38.33372406 -0.04125692 32.65895322 0.0625 26.9375 C0.12014914 21.38156457 -0.74809744 16.38987056 -2 11 C-2.34450114 9.00189338 -2.68377223 7.00277585 -3 5 C-2.34 4.67 -1.68 4.34 -1 4 C-0.34786708 1.97536745 -0.34786708 1.97536745 0 0 Z " fill="#118712" transform="translate(258,218)"/>
<path d="M0 0 C0.144375 0.61875 0.28875 1.2375 0.4375 1.875 C0.93152225 4.03258322 0.93152225 4.03258322 2 6 C1.34 6 0.68 6 0 6 C0.99 7.485 0.99 7.485 2 9 C2.1953125 11.26171875 2.1953125 11.26171875 2.125 13.6875 C2.10695313 14.49574219 2.08890625 15.30398437 2.0703125 16.13671875 C2.04710937 16.75160156 2.02390625 17.36648437 2 18 C2.90492188 17.85691406 2.90492188 17.85691406 3.828125 17.7109375 C5.02695312 17.54464844 5.02695312 17.54464844 6.25 17.375 C7.03890625 17.25898438 7.8278125 17.14296875 8.640625 17.0234375 C11.42905684 16.99573785 12.75427758 17.34525716 15 19 C15.828125 21.1640625 15.828125 21.1640625 16.25 23.625 C16.39953125 24.44226563 16.5490625 25.25953125 16.703125 26.1015625 C16.85007812 27.04128906 16.85007812 27.04128906 17 28 C17.78375 27.79375 18.5675 27.5875 19.375 27.375 C20.674375 27.189375 20.674375 27.189375 22 27 C22.66 27.66 23.32 28.32 24 29 C23.96712417 31.72869407 23.43602229 34.2966618 23 37 C23.639375 37.165 24.27875 37.33 24.9375 37.5 C27 39 27 39 27.5234375 40.84375 C28.275 46.45 28.275 46.45 27 49 C26.01 48.505 26.01 48.505 25 48 C25 45.36 25 42.72 25 40 C24.01 39.67 23.02 39.34 22 39 C22.1546875 40.299375 22.1546875 40.299375 22.3125 41.625 C21.87637767 46.33512115 20.36210366 47.71430778 17 51 C13.43116581 52.4179743 10.01416521 51.90127487 6.25 51.5625 C5.07953125 51.46066406 3.9090625 51.35882813 2.703125 51.25390625 C1.81109375 51.17011719 0.9190625 51.08632813 0 51 C0.14308594 50.43796875 0.28617187 49.8759375 0.43359375 49.296875 C1.01120902 46.95454547 1.54283307 44.60582341 2.0625 42.25 C2.23910156 41.45078125 2.41570312 40.6515625 2.59765625 39.828125 C2.73042969 39.22484375 2.86320312 38.6215625 3 38 C-3.19479329 35.05223604 -9.38757278 32.82221376 -16 31 C-16 30.34 -16 29.68 -16 29 C-16.78375 28.7525 -17.5675 28.505 -18.375 28.25 C-21 27 -21 27 -21.8125 25 C-22.80851003 22.84528563 -22.80851003 22.84528563 -24.89453125 22.296875 C-26.91524169 21.80142936 -28.95734643 21.3953523 -31 21 C-31 20.67 -31 20.34 -31 20 C-29.02 20 -27.04 20 -25 20 C-24.96261719 19.26394531 -24.92523438 18.52789062 -24.88671875 17.76953125 C-24.17280453 7.17280453 -24.17280453 7.17280453 -21 4 C-14.63926713 0.8832409 -7.85783582 -0.19450746 -1 2 C-0.67 1.34 -0.34 0.68 0 0 Z " fill="#158A15" transform="translate(327,219)"/>
<path d="M0 0 C2.32120407 0.54185836 4.17260193 0.6724063 6.5390625 0.578125 C12.37866101 0.578125 17.57738246 1.31200498 22.4765625 4.578125 C22.1465625 5.568125 21.8165625 6.558125 21.4765625 7.578125 C21.4765625 6.918125 21.4765625 6.258125 21.4765625 5.578125 C19.4965625 4.918125 17.5165625 4.258125 15.4765625 3.578125 C15.816875 4.8465625 15.816875 4.8465625 16.1640625 6.140625 C16.56595987 10.5614961 15.64821156 12.72519925 13.4765625 16.578125 C10.71187737 19.22260643 8.19258456 21.21178813 4.7890625 22.953125 C0.17447583 26.19580753 -0.87865548 32.39073556 -2.5234375 37.578125 C-3.8434375 37.578125 -5.1634375 37.578125 -6.5234375 37.578125 C-6.5234375 36.258125 -6.5234375 34.938125 -6.5234375 33.578125 C-8.1734375 33.578125 -9.8234375 33.578125 -11.5234375 33.578125 C-11.1934375 30.278125 -10.8634375 26.978125 -10.5234375 23.578125 C-11.8434375 23.908125 -13.1634375 24.238125 -14.5234375 24.578125 C-16.98187187 22.11969063 -17.20184832 20.12424543 -17.5703125 16.734375 C-17.49608937 13.32011096 -15.96172243 10.62728906 -14.5234375 7.578125 C-14.26953528 4.78472343 -14.26953528 4.78472343 -14.5234375 2.578125 C-9.11427941 -1.41994837 -6.44348061 -1.67413696 0 0 Z " fill="#108711" transform="translate(194.5234375,112.421875)"/>
<path d="M0 0 C2.54190395 1.21043045 4.5593543 2.3373651 6.625 4.25 C6.625 5.24 6.625 6.23 6.625 7.25 C7.4603125 7.4046875 7.4603125 7.4046875 8.3125 7.5625 C11.26555294 8.44043466 13.2403124 9.26276034 15.625 11.25 C15.9375 14.9375 15.9375 14.9375 15.625 18.25 C14.305 18.58 12.985 18.91 11.625 19.25 C12.7631354 24.18192008 13.82461711 26.91026958 17.625 30.25 C18.3984375 31.3328125 18.3984375 31.3328125 19.1875 32.4375 C20.5867319 34.54101558 20.5867319 34.54101558 23.625 35.25 C23.625 34.26 23.625 33.27 23.625 32.25 C25.275 32.25 26.925 32.25 28.625 32.25 C27.635 32.91 26.645 33.57 25.625 34.25 C25.625 35.24 25.625 36.23 25.625 37.25 C24.98433594 37.27578125 24.34367187 37.3015625 23.68359375 37.328125 C19.17368475 37.62385674 15.6905121 37.8909672 11.875 40.4375 C8.625 42.25 8.625 42.25 5.4375 41.875 C1.83224775 39.79196537 0.45708961 37.98464421 -1.375 34.25 C-1.71002383 30.36372361 -1.56614233 26.97231978 -0.375 23.25 C-1.365 23.25 -2.355 23.25 -3.375 23.25 C-3.045 21.93 -2.715 20.61 -2.375 19.25 C-3.365 19.25 -4.355 19.25 -5.375 19.25 C-5.601875 19.848125 -5.82875 20.44625 -6.0625 21.0625 C-7.76810766 23.90517943 -9.38468056 24.85915375 -12.375 26.25 C-15.1875 26.4375 -15.1875 26.4375 -17.375 26.25 C-16.83875 26.0025 -16.3025 25.755 -15.75 25.5 C-12.81075748 23.95303025 -10.11745592 22.11985631 -7.375 20.25 C-8.365 19.1671875 -8.365 19.1671875 -9.375 18.0625 C-11.375 15.25 -11.375 15.25 -11.875 12.625 C-11.375 10.25 -11.375 10.25 -9.375 8.4375 C-8.715 8.045625 -8.055 7.65375 -7.375 7.25 C-7.705 6.26 -8.035 5.27 -8.375 4.25 C-3.26446684 -1.03088427 -3.26446684 -1.03088427 0 0 Z " fill="#1A8C1C" transform="translate(304.375,53.75)"/>
<path d="M0 0 C0.9075 0.2475 1.815 0.495 2.75 0.75 C6.76125958 2.29279215 9.5833475 4.4033441 13 7 C12.73760976 8.67929755 12.37966646 10.34327363 12 12 C11.86207031 12.67417969 11.72414063 13.34835938 11.58203125 14.04296875 C10.95931729 16.33739803 10.35711965 18.04118005 9 20 C4.11342969 22.43848499 -0.78526252 22.22047047 -6 21 C-7.45644816 20.79837876 -8.91497925 20.61137287 -10.375 20.4375 C-11.57125 20.293125 -12.7675 20.14875 -14 20 C-14 20.99 -14 21.98 -14 23 C-15.75 22.875 -15.75 22.875 -18 22 C-19.3726682 20.02678947 -20.70427617 18.02456848 -22 16 C-22.7425 15.505 -23.485 15.01 -24.25 14.5 C-26 13 -26 13 -26.25 9.8125 C-26.1675 8.884375 -26.085 7.95625 -26 7 C-25.01 6.67 -24.02 6.34 -23 6 C-22.67 4.02 -22.34 2.04 -22 0 C-6.85714286 -2.28571429 -6.85714286 -2.28571429 0 0 Z " fill="#028002" transform="translate(342,66)"/>
<path d="M0 0 C2 2 2 2 2.9375 4.4375 C3.81977689 7.02688411 3.81977689 7.02688411 5.625 8.625 C6.07875 9.07875 6.5325 9.5325 7 10 C7 10.99 7 11.98 7 13 C7.99 13 8.98 13 10 13 C10.05813173 17.56244637 10.09364122 22.12479724 10.125 26.6875 C10.14175781 27.98107422 10.15851563 29.27464844 10.17578125 30.60742188 C10.18222656 31.85458984 10.18867188 33.10175781 10.1953125 34.38671875 C10.20578613 35.53358154 10.21625977 36.68044434 10.22705078 37.86206055 C9.99979777 41.00279488 9.20211808 43.12554757 8 46 C8.76603959 48.2857711 8.76603959 48.2857711 10 50 C10.99 50 11.98 50 13 50 C13.66 52.31 14.32 54.62 15 57 C18.9813783 58.3271261 22.85045227 58.06915913 27 58 C27 58.66 27 59.32 27 60 C27.99 60 28.98 60 30 60 C30 61.32 30 62.64 30 64 C30.515625 64.0825 31.03125 64.165 31.5625 64.25 C34.43146857 65.13275956 36.74242399 66.48947117 39.31640625 68.01171875 C41.16951801 69.09950825 43.06311839 70.07029683 45 71 C44 72 44 72 41.49609375 72.09765625 C40.48675781 72.08605469 39.47742188 72.07445312 38.4375 72.0625 C37.42558594 72.05347656 36.41367187 72.04445313 35.37109375 72.03515625 C34.58863281 72.02355469 33.80617188 72.01195312 33 72 C32.67 71.34 32.34 70.68 32 70 C32 70.99 32 71.98 32 73 C32.66 73 33.32 73 34 73 C34.66 74.32 35.32 75.64 36 77 C30.25 77.125 30.25 77.125 28 76 C28 75.34 28 74.68 28 74 C25.36 74 22.72 74 20 74 C23.75 70.125 23.75 70.125 26 69 C26.495 67.515 26.495 67.515 27 66 C26.01 65.67 25.02 65.34 24 65 C24.66 63.35 25.32 61.7 26 60 C24.02 60.495 24.02 60.495 22 61 C22 63.31 22 65.62 22 68 C20.35 68 18.7 68 17 68 C17 66 17 66 18 65 C17.34 65 16.68 65 16 65 C16 65.66 16 66.32 16 67 C14 66 12 65 10 64 C9.5859375 61.93359375 9.5859375 61.93359375 9.375 59.4375 C9.30023438 58.61121094 9.22546875 57.78492188 9.1484375 56.93359375 C9.09945313 56.29550781 9.05046875 55.65742188 9 55 C8.01 55 7.02 55 6 55 C6 53.68 6 52.36 6 51 C5.01 51 4.02 51 3 51 C3.495 48.03 3.495 48.03 4 45 C3.34 44.67 2.68 44.34 2 44 C1.61781233 42.34385343 1.28604898 40.67542976 1 39 C0.67 38.34 0.34 37.68 0 37 C1.32 37 2.64 37 4 37 C2.35 36.67 0.7 36.34 -1 36 C-0.67 34.35 -0.34 32.7 0 31 C-1.65 30.67 -3.3 30.34 -5 30 C-5 30.66 -5 31.32 -5 32 C-5.66 32 -6.32 32 -7 32 C-6.42415568 29.61435923 -5.77772405 27.33317216 -5 25 C-2.9375 24.3125 -2.9375 24.3125 -1 24 C-1 24.66 -1 25.32 -1 26 C-0.34 26 0.32 26 1 26 C0.979375 24.741875 0.95875 23.48375 0.9375 22.1875 C0.89113917 19.35948913 1.08307039 17.75078884 2 15 C1.34 14.67 0.68 14.34 0 14 C-1.10850248 9.33465044 -1.34383934 4.62877994 0 0 Z " fill="#17861D" transform="translate(270,368)"/>
<path d="M0 0 C1.65 0 3.3 0 5 0 C5.2475 0.969375 5.495 1.93875 5.75 2.9375 C6.63084057 6.02342156 6.63084057 6.02342156 8.625 6.875 C12.09199463 7.0574734 15.52785608 7.05786907 19 7 C19 7.66 19 8.32 19 9 C19.99 9 20.98 9 22 9 C22 10.32 22 11.64 22 13 C22.515625 13.0825 23.03125 13.165 23.5625 13.25 C26.43146857 14.13275956 28.74242399 15.48947117 31.31640625 17.01171875 C33.16951801 18.09950825 35.06311839 19.07029683 37 20 C36 21 36 21 33.49609375 21.09765625 C32.48675781 21.08605469 31.47742188 21.07445312 30.4375 21.0625 C29.42558594 21.05347656 28.41367187 21.04445313 27.37109375 21.03515625 C26.19740234 21.01775391 26.19740234 21.01775391 25 21 C24.67 20.34 24.34 19.68 24 19 C24 19.99 24 20.98 24 22 C24.66 22 25.32 22 26 22 C26.66 23.32 27.32 24.64 28 26 C22.25 26.125 22.25 26.125 20 25 C20 24.34 20 23.68 20 23 C17.36 23 14.72 23 12 23 C15.75 19.125 15.75 19.125 18 18 C18.33 17.01 18.66 16.02 19 15 C18.01 14.67 17.02 14.34 16 14 C16.66 12.35 17.32 10.7 18 9 C16.68 9.33 15.36 9.66 14 10 C14 12.31 14 14.62 14 17 C12.35 17 10.7 17 9 17 C9 15 9 15 10 14 C9.34 14 8.68 14 8 14 C8 14.66 8 15.32 8 16 C6 15 4 14 2 13 C1.60689586 10.67711188 1.49250305 8.38154824 1.34375 6.03125 C1.2303125 5.3609375 1.116875 4.690625 1 4 C0.34 3.67 -0.32 3.34 -1 3 C-0.67 2.01 -0.34 1.02 0 0 Z " fill="#057813" transform="translate(278,419)"/>
<path d="M0 0 C6.55327899 0.27305329 10.06930548 2.81211141 15 7 C14.73760976 8.67929755 14.37966646 10.34327363 14 12 C13.86207031 12.67417969 13.72414063 13.34835938 13.58203125 14.04296875 C12.95931729 16.33739803 12.35711965 18.04118005 11 20 C6.24637732 22.37214177 1.05864928 22.44532837 -4 21 C-4.99 20.34 -5.98 19.68 -7 19 C-5.35 19 -3.7 19 -2 19 C-0.91550927 14.95780727 -0.87105704 13.29914766 -2.5625 9.375 C-4 6 -4 6 -3.1875 3.5625 C-2.795625 3.046875 -2.40375 2.53125 -2 2 C-1.34 2 -0.68 2 0 2 C0 1.34 0 0.68 0 0 Z " fill="#208F21" transform="translate(340,66)"/>
<path d="M0 0 C0.66 0.33 1.32 0.66 2 1 C1.85924795 3.93782469 1.7126162 6.87515171 1.5625 9.8125 C1.50352539 11.06256836 1.50352539 11.06256836 1.44335938 12.33789062 C1.40146484 13.14033203 1.35957031 13.94277344 1.31640625 14.76953125 C1.26141968 15.87711792 1.26141968 15.87711792 1.20532227 17.00708008 C1 19 1 19 0 22 C-1.98 22 -3.96 22 -6 22 C-5.46274105 18.62294375 -4.88935377 15.303314 -4 12 C-5.32 11.34 -6.64 10.68 -8 10 C-7.34 9.67 -6.68 9.34 -6 9 C-3.875 9.9375 -3.875 9.9375 -2 11 C-2 11.99 -2 12.98 -2 14 C-1.34 14 -0.68 14 0 14 C0 9.38 0 4.76 0 0 Z " fill="#64B264" transform="translate(246,115)"/>
<path d="M0 0 C0 3.51716303 -0.82445585 4.37121748 -3 7 C-0.5352382 8.48675134 1.93315234 9.96163245 4.4296875 11.39453125 C9.79696724 14.50686759 14.41759219 17.81606244 19 22 C18.67 22.66 18.34 23.32 18 24 C17.5153125 23.52949219 17.030625 23.05898438 16.53125 22.57421875 C13.09896094 19.38615026 10.18157985 16.79663027 5.6875 15.3125 C2.01503637 14.00535193 0.84013542 13.33524545 -1 10 C-2.98 10.33 -4.96 10.66 -7 11 C-5.5140084 6.40693504 -3.14985318 3.56430755 0 0 Z " fill="#81C081" transform="translate(340,278)"/>
<path d="M0 0 C0 0.99 0 1.98 0 3 C0.66 3 1.32 3 2 3 C2.66 4.32 3.32 5.64 4 7 C-1.75 7.125 -1.75 7.125 -4 6 C-4 5.34 -4 4.68 -4 4 C-6.64 4 -9.28 4 -12 4 C-7.97476284 -0.30283972 -5.79398913 -1.40934871 0 0 Z " fill="#0D5947" transform="translate(302,438)"/>
<path d="M0 0 C0 0.99 0 1.98 0 3 C0.91362179 4.72386741 1.90237458 6.40873491 2.9375 8.0625 C5.98181818 12.96363636 5.98181818 12.96363636 7 15 C5.125 14.75 5.125 14.75 3 14 C1.75 11.9375 1.75 11.9375 1 10 C0.38125 10.309375 -0.2375 10.61875 -0.875 10.9375 C-5.18802294 12.4039278 -9.4759996 12.66619026 -14 13 C-14 13.99 -14 14.98 -14 16 C-12.68 16.33 -11.36 16.66 -10 17 C-11.65 17 -13.3 17 -15 17 C-15 15.35 -15 13.7 -15 12 C-14.08476562 11.80664062 -13.16953125 11.61328125 -12.2265625 11.4140625 C-10.44378906 11.02347656 -10.44378906 11.02347656 -8.625 10.625 C-6.84996094 10.24214844 -6.84996094 10.24214844 -5.0390625 9.8515625 C-1.91803033 9.24476035 -1.91803033 9.24476035 0 7 C-0.99 6.34 -1.98 5.68 -3 5 C-1.125 1.125 -1.125 1.125 0 0 Z " fill="#80C080" transform="translate(257,87)"/>
<path d="M0 0 C0.66 0 1.32 0 2 0 C2 2.97 2 5.94 2 9 C4.12560437 8.69163768 6.25047065 8.37818386 8.375 8.0625 C9.55835938 7.88847656 10.74171875 7.71445313 11.9609375 7.53515625 C14.90702381 7.16537214 14.90702381 7.16537214 17 6 C16.67 6.99 16.34 7.98 16 9 C14.43784452 9.16986545 12.8752548 9.33573964 11.3125 9.5 C10.44238281 9.5928125 9.57226562 9.685625 8.67578125 9.78125 C6.10276661 9.99159864 3.58015636 10.03719144 1 10 C0.34 8.02 -0.32 6.04 -1 4 C-1.763125 4.33 -2.52625 4.66 -3.3125 5 C-6 6 -6 6 -9 6 C-9.33 5.34 -9.66 4.68 -10 4 C-12.52733235 3.34444881 -12.52733235 3.34444881 -15 3 C-14.67 2.34 -14.34 1.68 -14 1 C-12.6696875 1.495 -12.6696875 1.495 -11.3125 2 C-8.2331346 2.92961974 -6.1675634 3.42804911 -3 3 C-1.31201173 1.56249809 -1.31201173 1.56249809 0 0 Z " fill="#84C184" transform="translate(245,168)"/>
<path d="M0 0 C3.3 0.33 6.6 0.66 10 1 C10 1.33 10 1.66 10 2 C9.07767578 2.16435547 9.07767578 2.16435547 8.13671875 2.33203125 C7.32847656 2.49058594 6.52023437 2.64914063 5.6875 2.8125 C4.48673828 3.03873047 4.48673828 3.03873047 3.26171875 3.26953125 C0.68206547 4.10268352 -0.39223789 4.82952115 -2 7 C-2.57017808 9.04100238 -2.57017808 9.04100238 -2.6875 11.1875 C-2.790625 12.445625 -2.89375 13.70375 -3 15 C-3.99 15 -4.98 15 -6 15 C-5.34 12.69 -4.68 10.38 -4 8 C-5.32 8.33 -6.64 8.66 -8 9 C-8.66 7.02 -9.32 5.04 -10 3 C-9.01 3.495 -9.01 3.495 -8 4 C-8 4.99 -8 5.98 -8 7 C-6.68 7 -5.36 7 -4 7 C-3.34 5.35 -2.68 3.7 -2 2 C-1.34 2 -0.68 2 0 2 C0 1.34 0 0.68 0 0 Z " fill="#6DB66D" transform="translate(281,240)"/>
<path d="M0 0 C0.66 0.33 1.32 0.66 2 1 C1.79375 1.5775 1.5875 2.155 1.375 2.75 C0.90469404 5.57183574 1.39230126 6.66883683 3 9 C3.99 9.33 4.98 9.66 6 10 C5.401875 10.103125 4.80375 10.20625 4.1875 10.3125 C1.71756736 11.08876455 0.67748765 12.07088921 -1 14 C-1 12.68 -1 11.36 -1 10 C-1.99 10 -2.98 10 -4 10 C-3.67 8.35 -3.34 6.7 -3 5 C-2.34 5 -1.68 5 -1 5 C-0.67 3.35 -0.34 1.7 0 0 Z " fill="#3E954B" transform="translate(277,409)"/>
<path d="M0 0 C0.144375 0.61875 0.28875 1.2375 0.4375 1.875 C0.93152225 4.03258322 0.93152225 4.03258322 2 6 C1.34 6 0.68 6 0 6 C-0.33 6.66 -0.66 7.32 -1 8 C-1.33 7.01 -1.66 6.02 -2 5 C-4.29420676 3.38895703 -5.55664785 2.96780941 -8.3671875 3.171875 C-9.19476563 3.36265625 -10.02234375 3.5534375 -10.875 3.75 C-11.74640625 3.94851562 -12.6178125 4.14703125 -13.515625 4.3515625 C-16.3957881 5.10330318 -19.20668491 5.97088392 -22 7 C-21 4 -21 4 -19.1796875 3.05078125 C-12.99773161 1.07045979 -7.36854657 -0.0379349 -1 2 C-0.67 1.34 -0.34 0.68 0 0 Z " fill="#7FBF7F" transform="translate(327,219)"/>
<path d="M0 0 C0.99 0.33 1.98 0.66 3 1 C2.63265306 7.36734694 2.63265306 7.36734694 -0.4375 10.4375 C-3 12 -3 12 -5 12 C-4.625 9.5625 -4.625 9.5625 -4 7 C-3.34 6.67 -2.68 6.34 -2 6 C-1.27306096 4.02111039 -0.60183749 2.02045442 0 0 Z " fill="#11406E" transform="translate(368,285)"/>
<path d="M0 0 C1.9375 0.6875 1.9375 0.6875 4 2 C4.75 4.625 4.75 4.625 5 7 C3.35 7.33 1.7 7.66 0 8 C-1.125 5.6875 -1.125 5.6875 -2 3 C-1.34 2.01 -0.68 1.02 0 0 Z " fill="#13397A" transform="translate(226,49)"/>
<path d="M0 0 C1.81293089 0.14037521 3.6253443 0.28744889 5.4375 0.4375 C6.95150391 0.55931641 6.95150391 0.55931641 8.49609375 0.68359375 C11 1 11 1 12 2 C12.33 1.34 12.66 0.68 13 0 C13.66 0.33 14.32 0.66 15 1 C14.67 1.99 14.34 2.98 14 4 C11.03 3.67 8.06 3.34 5 3 C4.67 4.32 4.34 5.64 4 7 C3.67 6.01 3.34 5.02 3 4 C2.01 3.34 1.02 2.68 0 2 C0 1.34 0 0.68 0 0 Z " fill="#76BB76" transform="translate(272,80)"/>
<path d="M0 0 C0 2.31 0 4.62 0 7 C-1.65 7 -3.3 7 -5 7 C-5 5 -5 5 -4 4 C-4.66 4 -5.32 4 -6 4 C-6 4.66 -6 5.32 -6 6 C-6.66 5.67 -7.32 5.34 -8 5 C-8 4.01 -8 3.02 -8 2 C-1.125 0 -1.125 0 0 0 Z " fill="#02770E" transform="translate(292,429)"/>
<path d="M0 0 C1.98 0.99 3.96 1.98 6 3 C6 2.01 6 1.02 6 0 C7.65 0 9.3 0 11 0 C10.01 0.66 9.02 1.32 8 2 C8 2.99 8 3.98 8 5 C4.7 5 1.4 5 -2 5 C-1.34 3.35 -0.68 1.7 0 0 Z " fill="#7CBE7C" transform="translate(322,86)"/>
<path d="M0 0 C0 0.99 0 1.98 0 3 C-3.63 3 -7.26 3 -11 3 C-7.02208716 -0.97791284 -5.25551963 -1.27836964 0 0 Z " fill="#076A27" transform="translate(302,438)"/>
<path d="M0 0 C0 0.99 0 1.98 0 3 C0.91362179 4.72386741 1.90237458 6.40873491 2.9375 8.0625 C5.98181818 12.96363636 5.98181818 12.96363636 7 15 C5.1875 14.875 5.1875 14.875 3 14 C1.93224776 12.03533587 0.93446535 10.03144641 0 8 C-1.56102491 6.18445841 -1.56102491 6.18445841 -3 5 C-1.125 1.125 -1.125 1.125 0 0 Z " fill="#96CA96" transform="translate(257,87)"/>
<path d="M0 0 C0.66 0.33 1.32 0.66 2 1 C0.54782324 2.50596108 -0.91192861 4.00462104 -2.375 5.5 C-3.18710937 6.3353125 -3.99921875 7.170625 -4.8359375 8.03125 C-7 10 -7 10 -9 10 C-7.61811547 6.78956118 -6.07578097 4.95063635 -3.375 2.75 C-2.74335938 2.22921875 -2.11171875 1.7084375 -1.4609375 1.171875 C-0.73777344 0.59179688 -0.73777344 0.59179688 0 0 Z " fill="#5CAE5C" transform="translate(350,268)"/>
<path d="M0 0 C0 3.3 0 6.6 0 10 C-2 6 -2 6 -2 2 C-3.3921875 2.2475 -3.3921875 2.2475 -4.8125 2.5 C-8 3 -8 3 -11 3 C-7.17860188 -0.1390056 -4.83859894 -1.61286631 0 0 Z " fill="#80C080" transform="translate(279,166)"/>
<path d="M0 0 C0.33 0.99 0.66 1.98 1 3 C-6.3697851 9.43181245 -6.3697851 9.43181245 -11 9.375 C-11.99 9.25125 -12.98 9.1275 -14 9 C-11.31064522 6.79088714 -9.33987557 5.80966681 -6 5 C-2.33466399 3.17120944 -2.33466399 3.17120944 0 0 Z " fill="#85C285" transform="translate(278,94)"/>
<path d="M0 0 C1.65 0 3.3 0 5 0 C5 1.65 5 3.3 5 5 C4.34 5 3.68 5 3 5 C3 5.66 3 6.32 3 7 C2.34 7 1.68 7 1 7 C1 6.01 1 5.02 1 4 C0.34 3.67 -0.32 3.34 -1 3 C-0.67 2.01 -0.34 1.02 0 0 Z " fill="#058107" transform="translate(278,419)"/>
<path d="M0 0 C-0.32742188 0.53109375 -0.65484375 1.0621875 -0.9921875 1.609375 C-2.2642989 4.62694157 -2.1959363 6.98693023 -2.125 10.25 C-2.10695313 11.32765625 -2.08890625 12.4053125 -2.0703125 13.515625 C-2.04710937 14.33546875 -2.02390625 15.1553125 -2 16 C-2.33 16 -2.66 16 -3 16 C-3.41644184 13.89981487 -3.80753303 11.79458958 -4.1875 9.6875 C-4.51814453 7.92986328 -4.51814453 7.92986328 -4.85546875 6.13671875 C-5 3 -5 3 -3.67578125 1.08203125 C-2 0 -2 0 0 0 Z " fill="#78BC78" transform="translate(275,256)"/>
<path d="M0 0 C-0.99 2.97 -1.98 5.94 -3 9 C-4.65 9 -6.3 9 -8 9 C-6.68 8.67 -5.36 8.34 -4 8 C-4 5.69 -4 3.38 -4 1 C-2 0 -2 0 0 0 Z " fill="#0E4C5A" transform="translate(296,428)"/>
<path d="M0 0 C1.98 0.495 1.98 0.495 4 1 C4 2.65 4 4.3 4 6 C2.68 6.33 1.36 6.66 0 7 C0.33 5.68 0.66 4.36 1 3 C0.01 3.495 0.01 3.495 -1 4 C-0.67 2.68 -0.34 1.36 0 0 Z " fill="#07731C" transform="translate(281,424)"/>
<path d="M0 0 C0.2475 0.639375 0.495 1.27875 0.75 1.9375 C1.81562433 4.18741541 1.81562433 4.18741541 4.125 4.75 C4.74375 4.8325 5.3625 4.915 6 5 C6 5.66 6 6.32 6 7 C4.02 7 2.04 7 0 7 C-1.04449911 3.86650268 -0.93423645 3.01031744 0 0 Z " fill="#7ABC7A" transform="translate(182,141)"/>
<path d="M0 0 C0.33 0.66 0.66 1.32 1 2 C3.02463255 2.65213292 3.02463255 2.65213292 5 3 C5 3.99 5 4.98 5 6 C3.02 6 1.04 6 -1 6 C-0.67 4.02 -0.34 2.04 0 0 Z " fill="#81C081" transform="translate(241,131)"/>
<path d="M0 0 C0.598125 0.20625 1.19625 0.4125 1.8125 0.625 C1.8125 1.285 1.8125 1.945 1.8125 2.625 C-0.1675 3.285 -2.1475 3.945 -4.1875 4.625 C-4.5175 3.635 -4.8475 2.645 -5.1875 1.625 C-2.1875 -0.375 -2.1875 -0.375 0 0 Z " fill="#057911" transform="translate(227.1875,37.375)"/>
<path d="M0 0 C0.99 0.495 0.99 0.495 2 1 C2 1.66 2 2.32 2 3 C3.32 3 4.64 3 6 3 C6 3.99 6 4.98 6 6 C4.68 6.33 3.36 6.66 2 7 C1.34 4.69 0.68 2.38 0 0 Z " fill="#7CBD7C" transform="translate(277,87)"/>
</svg>
