<?xml version="1.0" encoding="UTF-8"?>
<svg version="1.1" xmlns="http://www.w3.org/2000/svg" width="640" height="480">
<path d="M0 0 C211.2 0 422.4 0 640 0 C640 158.4 640 316.8 640 480 C428.8 480 217.6 480 0 480 C0 321.6 0 163.2 0 0 Z " fill="#16308A" transform="translate(0,0)"/>
<path d="M0 0 C3.96502948 0.45057153 7.35465276 1.39175857 11 3 C10.34 3.99 9.68 4.98 9 6 C9.26676204 7.98491642 9.26676204 7.98491642 10 10 C10.33333333 11.33333333 10.66666667 12.66666667 11 14 C9.47005208 15.20442708 7.94010417 16.40885417 6.41015625 17.61328125 C4.72844923 19.05683091 4.72844923 19.05683091 4 22 C5.65 21.67 7.3 21.34 9 21 C9.33 22.32 9.66 23.64 10 25 C11.16917969 25.19335938 12.33835937 25.38671875 13.54296875 25.5859375 C15.09119532 25.84866686 16.6393697 26.11170392 18.1875 26.375 C18.95642578 26.50132813 19.72535156 26.62765625 20.51757812 26.7578125 C28.39545265 28.11023731 28.39545265 28.11023731 32 30 C32.66666667 31.66666667 33.33333333 33.33333333 34 35 C36.0867944 36.27325863 36.0867944 36.27325863 39 37 C40.75049464 37.51916844 42.50045622 38.04013621 44.25 38.5625 C45.55710937 38.93568359 45.55710937 38.93568359 46.890625 39.31640625 C49 40 49 40 50 41 C52.5 41.16666667 52.5 41.16666667 55 41 C55.33 40.67 55.66 40.34 56 40 C55.896875 38.7625 55.79375 37.525 55.6875 36.25 C55.65388931 32.51249136 55.91782071 32.09861515 58.5 29 C62.30866742 26.30407864 65.45522045 26.5529725 70 27 C73 28 73 28 74 30 C76.3166794 30.65232141 76.3166794 30.65232141 79 31.0625 C83.90566038 31.90566038 83.90566038 31.90566038 85 33 C87.72750889 33.57032418 90.44350175 34.08577877 93.1875 34.5625 C94.32155273 34.77036133 94.32155273 34.77036133 95.47851562 34.98242188 C103.14172249 36.64475455 103.14172249 36.64475455 110.25 34.5 C114.33252119 32.27317026 118.43181037 32.56010026 123 33 C123.33 33.33 123.66 33.66 124 34 C127.55896985 34.15817644 130.57744416 33.9354491 134 33 C137.70552116 39.33908798 140.12216359 44.5616585 139 52 C138.67 52.66 138.34 53.32 138 54 C134.75480334 53.69593558 133.38099448 53.43719323 131.19921875 50.93359375 C130.70035156 50.10988281 130.20148438 49.28617188 129.6875 48.4375 C129.17574219 47.61121094 128.66398437 46.78492188 128.13671875 45.93359375 C127.57404297 44.97646484 127.57404297 44.97646484 127 44 C129.43374953 49.14831632 132.13341343 53.78934372 135.33984375 58.48828125 C144 71.59058824 144 71.59058824 144 75 C144.639375 75.20625 145.27875 75.4125 145.9375 75.625 C146.618125 76.07875 147.29875 76.5325 148 77 C148.103125 77.9075 148.20625 78.815 148.3125 79.75 C149.08661301 83.40944334 149.56457541 83.74900653 152.375 85.9375 C158.10493956 90.49567278 158.95522782 95.34502702 159.9375 102.3125 C160.04964844 103.33988281 160.16179687 104.36726563 160.27734375 105.42578125 C160.73871235 108.15213766 160.73871235 108.15213766 163.06640625 109.35546875 C163.70449219 109.56816406 164.34257812 109.78085938 165 110 C165 110.66 165 111.32 165 112 C165.60585938 112.20753906 166.21171875 112.41507812 166.8359375 112.62890625 C169.86348857 114.54708391 170.37768775 116.61803997 171.625 119.9375 C172.90218864 123.28503583 174.00617674 126.00926511 176 129 C176.66 129 177.32 129 178 129 C178 129.66 178 130.32 178 131 C178.8353125 131.1546875 178.8353125 131.1546875 179.6875 131.3125 C182.49459905 132.14704296 184.60599609 133.31772698 187 135 C187.33 135.99 187.66 136.98 188 138 C188.5775 138.28875 189.155 138.5775 189.75 138.875 C192.84625805 140.42312903 194.7497626 142.38485924 197 145 C197.8125 147.8125 197.8125 147.8125 198 150 C197.34 150.33 196.68 150.66 196 151 C196.7425 151.4125 197.485 151.825 198.25 152.25 C201 154 201 154 202.9375 156.25 C204.95574687 158.37077363 204.95574687 158.37077363 208.1875 157.8125 C210.88143219 157.27959359 210.88143219 157.27959359 212 156 C213.155 155.87625 214.31 155.7525 215.5 155.625 C219.43939878 155.17638519 222.90415719 154.14412099 226.6328125 152.828125 C229.15512239 151.94573276 231.69245067 151.14909505 234.25 150.375 C235.03890625 150.13523438 235.8278125 149.89546875 236.640625 149.6484375 C239.08817119 148.97576752 241.49084295 148.38935196 244 148 C245 149 245 149 245.1328125 150.78515625 C245.08610546 164.40025716 245.08610546 164.40025716 242.125 168.76171875 C239.83913669 172.24513913 238.55523278 175.71214118 237.25 179.625 C233.43668406 190.2573934 227.69898177 198.58112759 219.8125 206.625 C219.31347168 207.13450195 218.81444336 207.64400391 218.30029297 208.16894531 C215.40583823 210.99313228 212.87140785 212.79682023 209 214 C209 214.66 209 215.32 209 216 C207.4609375 217.48046875 207.4609375 217.48046875 205.375 219.1875 C201.91212733 222.1100663 199.02489092 225.15830902 196.2265625 228.71484375 C195.82179688 229.13894531 195.41703125 229.56304687 195 230 C194.34 230 193.68 230 193 230 C192.7525 230.61875 192.505 231.2375 192.25 231.875 C190.76259631 234.40358627 189.56321991 234.71839004 187 236 C185.73195434 238.0335948 185.73195434 238.0335948 185 240 C184.34 240 183.68 240 183 240 C182.6596875 241.4540625 182.6596875 241.4540625 182.3125 242.9375 C181.4289834 246.10663562 180.11443175 248.67441847 178.4375 251.5 C176.14866058 255.4799997 175 258.38509827 175 263 C175.50144531 263.41121094 176.00289063 263.82242187 176.51953125 264.24609375 C178 266 178 266 178.07421875 269.35546875 C177.88279297 271.25232422 177.88279297 271.25232422 177.6875 273.1875 C177.50767578 275.09595703 177.50767578 275.09595703 177.32421875 277.04296875 C177.21722656 278.01878906 177.11023438 278.99460937 177 280 C177.66 280 178.32 280 179 280 C179 281.98 179 283.96 179 286 C180.32 286.66 181.64 287.32 183 288 C182.83242188 288.94746094 182.66484375 289.89492188 182.4921875 290.87109375 C181.69092783 296.45882567 182.02357718 302.07934604 182.21484375 307.70507812 C182.30160571 312.9147393 181.9743393 316.50623918 179 321 C176.9375 322.125 176.9375 322.125 175 323 C174.71769531 323.63421875 174.43539063 324.2684375 174.14453125 324.921875 C172.6967829 327.55055119 171.50036138 328.01175849 168.75 329.125 C167.95207031 329.45242188 167.15414063 329.77984375 166.33203125 330.1171875 C163.57801071 331.15974804 160.81473779 332.13392683 158 333 C158 333.66 158 334.32 158 335 C157.34 335 156.68 335 156 335 C155.773125 335.598125 155.54625 336.19625 155.3125 336.8125 C153.63932418 339.60112637 151.82982147 340.45033586 149 342 C146.67488528 343.26352052 146.67488528 343.26352052 145 345 C144.58282721 347.58462162 144.58282721 347.58462162 145 350 C145.33 350.33 145.66 350.66 146 351 C146.14115161 353.67058851 146.04247107 356.32432238 146 359 C146.66 359 147.32 359 148 359 C147.77065591 360.91924787 147.51565657 362.8354406 147.25 364.75 C147.11078125 365.81734375 146.9715625 366.8846875 146.828125 367.984375 C145.86052538 371.50789814 144.85893121 372.76863906 142 375 C139.4921875 376.265625 139.4921875 376.265625 136.875 377.25 C136.00617188 377.58515625 135.13734375 377.9203125 134.2421875 378.265625 C132 379 132 379 130 379 C130.18820312 379.71027344 130.37640625 380.42054688 130.5703125 381.15234375 C131.39911725 386.64505886 129.57508511 391.18116127 127 396 C123.58287351 399.83224408 119.82433578 403.08163004 115.89550781 406.37451172 C112.50963816 409.2780563 109.29988544 412.37067304 106.0625 415.4375 C95.09256981 425.78703392 88.57009711 429.34803315 73.32080078 429.01489258 C71.54757376 428.97817145 69.77354563 428.98522045 68 429 C67.67 429.33 67.34 429.66 67 430 C65.0221231 430.26371692 63.04302999 430.5217669 61.05859375 430.73046875 C58.86724215 430.96061203 58.86724215 430.96061203 56.3125 431.8125 C54 432 54 432 51.375 430.4375 C48.02238427 426.99665754 46 423.87220712 46 419 C46.66 419 47.32 419 48 419 C46.59643356 413.57810122 44.68403225 408.63237943 42.3125 403.5625 C41.9616333 402.80461182 41.6107666 402.04672363 41.24926758 401.26586914 C39.30984791 397.23039275 37.47107029 394.05339862 34.1875 390.9375 C29.6611014 386.45234421 29.36615406 380.4643943 28.5078125 374.4140625 C28.20243929 371.14591487 28.20243929 371.14591487 27 369 C26.91828304 367.36402654 26.85629697 365.72704358 26.8046875 364.08984375 C26.23484427 357.29496215 23.52806377 352.36842963 20.125 346.5625 C19.58230469 345.59634766 19.03960937 344.63019531 18.48046875 343.63476562 C15.65784684 338.60475555 15.65784684 338.60475555 12.3425293 333.89941406 C9.31439663 329.61520381 10.66661673 323.01799306 11 318 C11.8125 314.125 11.8125 314.125 13 311 C13.20625 310.35804688 13.4125 309.71609375 13.625 309.0546875 C14.84977943 305.39426714 16.20611597 302.58087691 18.625 299.5625 C21.56663826 295.64922971 22.3387524 291.86413702 22 287 C21.0355414 284.65175298 20.03485877 282.31808364 19 280 C19.0078125 278.0234375 19.0078125 278.0234375 19.1875 275.875 C19.41598004 270.31531907 17.04600886 266.09201771 14.60546875 261.2109375 C13 258 13 258 11.640625 254.484375 C9.78194641 250.53689571 7.58337746 247.95653765 4.5625 244.875 C-5.87549727 233.97215264 -5.87549727 233.97215264 -6 227 C-5.0126546 225.32580562 -4.01187895 223.65948148 -3 222 C-2.96754038 220.08488215 -2.94411179 218.16731601 -3.03125 216.25390625 C-2.98369547 212.82403574 -2.14900895 209.61815437 -1.33984375 206.296875 C-0.97994544 203.86445883 -1.24010101 202.31689481 -2 200 C-3.32 199.67 -4.64 199.34 -6 199 C-6 198.34 -6 197.68 -6 197 C-7.32 197 -8.64 197 -10 197 C-11.6396875 196.9690625 -11.6396875 196.9690625 -13.3125 196.9375 C-16.96045087 196.99932968 -20.40290857 197.41271977 -24 198 C-25.88051981 195.67173738 -27.23701359 193.51649229 -28.5625 190.8125 C-29.69875811 187.90358047 -29.69875811 187.90358047 -32 187 C-42.5361034 186.40512771 -51.18031047 186.6815333 -60.76953125 191.34765625 C-69.57865655 195.58122517 -69.57865655 195.58122517 -75 194 C-81.62210058 192.71361222 -86.66077931 192.96858724 -93.125 195 C-103.68749705 198.25265143 -103.68749705 198.25265143 -109 196 C-112.92990114 193.28191276 -116.43605023 190.17438953 -120 187 C-123.54829047 184.18666953 -127.08672486 181.53274383 -131 179.25 C-131.66 178.8375 -132.32 178.425 -133 178 C-133 177.34 -133 176.68 -133 176 C-133.99 175.67 -134.98 175.34 -136 175 C-137.82700413 172.2594938 -138.29836115 171.12810043 -138.875 168.0625 C-139.73668056 164.29867932 -141.05569471 162.56439493 -144 160 C-144.33 159.01 -144.66 158.02 -145 157 C-145.99 156.67 -146.98 156.34 -148 156 C-148.33 154.02 -148.66 152.04 -149 150 C-149.99 150.33 -150.98 150.66 -152 151 C-152 150.34 -152 149.68 -152 149 C-153.65 148.34 -155.3 147.68 -157 147 C-156.97679687 146.10796875 -156.95359375 145.2159375 -156.9296875 144.296875 C-156.90261719 142.54117188 -156.90261719 142.54117188 -156.875 140.75 C-156.85179687 139.58984375 -156.82859375 138.4296875 -156.8046875 137.234375 C-156.9896051 134.17213954 -157.39176977 132.55797249 -159 130 C-158.39671875 129.45472656 -157.7934375 128.90945312 -157.171875 128.34765625 C-148.89112756 119.39670443 -149.34498242 107.268461 -149.69360352 95.87841797 C-149.92078603 93.67084517 -149.92078603 93.67084517 -152 91 C-151.65358161 87.53581611 -150.96713413 85.95070119 -149 83 C-148.34 83 -147.68 83 -147 83 C-146.835 82.195625 -146.67 81.39125 -146.5 80.5625 C-144.68740522 76.25758741 -142.11908596 73.68523916 -138.953125 70.30859375 C-137.11422364 68.13501235 -136.01237929 66.27551982 -134.875 63.6875 C-133.1080376 59.71379789 -130.70274774 58.28467414 -127 56 C-126.55269531 55.17886719 -126.10539062 54.35773438 -125.64453125 53.51171875 C-123.6086731 50.4023202 -122.26690942 50.02167201 -118.75 49 C-111.61016682 46.72501726 -111.61016682 46.72501726 -106 42 C-104.98116102 39.22020475 -104.30850591 36.48163214 -103.6796875 33.58984375 C-102.82567434 30.33575912 -101.28358869 28.43091699 -99 26 C-98.731875 25.36320312 -98.46375 24.72640625 -98.1875 24.0703125 C-96.61030415 21.32059605 -94.79818347 20.37517382 -92.0625 18.8125 C-91.18722656 18.30332031 -90.31195313 17.79414062 -89.41015625 17.26953125 C-87 16 -87 16 -84 15 C-82.39361414 13.05091849 -81.01825415 10.99748809 -79.59765625 8.91015625 C-77.88025486 6.85683283 -76.45211819 6.01156496 -74 5 C-73.01 6.485 -73.01 6.485 -72 8 C-69.60691231 8.54491374 -69.60691231 8.54491374 -66.9375 8.625 C-62.08244275 8.91755725 -62.08244275 8.91755725 -61 10 C-58.04195427 10.33340471 -58.04195427 10.33340471 -55 10 C-54.34 9.01 -53.68 8.02 -53 7 C-50.6859378 6.26924352 -48.35171131 5.59861742 -46 5 C-45.67 4.67 -45.34 4.34 -45 4 C-31.51759573 1.08980144 -17.09165916 0.89218313 -3.34375 1.0390625 C-1.04058242 1.27232412 -1.04058242 1.27232412 0 0 Z " fill="#257F2E" transform="translate(277,24)"/>
<path d="M0 0 C3.875 1.875 3.875 1.875 5 3 C5.15686249 4.55948542 5.25076639 6.12542668 5.31640625 7.69140625 C5.35830078 8.63564453 5.40019531 9.57988281 5.44335938 10.55273438 C5.48267578 11.54595703 5.52199219 12.53917969 5.5625 13.5625 C5.60568359 14.55958984 5.64886719 15.55667969 5.69335938 16.58398438 C5.79980298 19.0558415 5.90181928 21.5278031 6 24 C5.34 24 4.68 24 4 24 C4 23.01 4 22.02 4 21 C3.34 21 2.68 21 2 21 C2.05220703 21.88751953 2.05220703 21.88751953 2.10546875 22.79296875 C2.28294078 27.97346182 1.89260066 30.60753233 -1 35 C-1.40676472 36.34758842 -1.77627578 37.7065517 -2.125 39.0703125 C-4.25884181 46.37850592 -7.43433296 53.21946277 -10.62280273 60.1159668 C-11.33581586 61.67066567 -12.03659445 63.23103085 -12.7253418 64.79663086 C-13.73199598 67.08443791 -14.77346867 69.35326058 -15.82421875 71.62109375 C-16.12349777 72.31794785 -16.42277679 73.01480194 -16.73112488 73.73277283 C-18.57569344 77.58916226 -20.03194867 79.361922 -24.09301758 80.89868164 C-25.39000321 81.28423581 -26.69208286 81.65333515 -28 82 C-29.3303125 82.495 -29.3303125 82.495 -30.6875 83 C-33 83 -33 83 -35.75 81.3125 C-39.01990583 77.72582204 -38.70149403 73.17053187 -38.859375 68.546875 C-38.71238516 66.06526549 -38.71238516 66.06526549 -40 65 C-40.55620951 62.15715138 -40.7082893 60.76477064 -40 58 C-38.72940557 56.20392997 -37.38715937 54.45764945 -36 52.75 C-32.15900442 47.83189984 -31.18767549 44.68632807 -31.62109375 38.5078125 C-31.96548549 35.97098307 -31.96548549 35.97098307 -32.63671875 33.41015625 C-33.15675869 29.95999881 -32.04395787 28.37865161 -30.25 25.51953125 C-28.44864995 23.32976509 -26.74496494 22.57788736 -24 22 C-23.34 22.33 -22.68 22.66 -22 23 C-22 22.34 -22 21.68 -22 21 C-20.35 21.33 -18.7 21.66 -17 22 C-16.690625 21.1028125 -16.690625 21.1028125 -16.375 20.1875 C-14.49073918 17.18981233 -12.18867916 16.38638224 -9 15 C-9 14.01 -9 13.02 -9 12 C-8.34 12 -7.68 12 -7 12 C-6.67 10.68 -6.34 9.36 -6 8 C-5.34 8.33 -4.68 8.66 -4 9 C-4 8.34 -4 7.68 -4 7 C-3.34 6.67 -2.68 6.34 -2 6 C-1.27306096 4.02111039 -0.60183749 2.02045442 0 0 Z " fill="#257E2F" transform="translate(508,325)"/>
<path d="M0 0 C3.00067743 2.84274704 5.30757873 5.22459869 7 9 C7.66 9.66 8.32 10.32 9 11 C8.01 12.485 8.01 12.485 7 14 C5.99260254 12.33779419 4.99477045 10.66979326 4 9 C3.64035156 8.39929688 3.28070313 7.79859375 2.91015625 7.1796875 C0 2.22931495 0 2.22931495 0 0 Z " fill="#194177" transform="translate(403,67)"/>
</svg>
