<?xml version="1.0" encoding="UTF-8"?>
<svg version="1.1" xmlns="http://www.w3.org/2000/svg" width="640" height="480">
<path d="M0 0 C211.2 0 422.4 0 640 0 C640 158.4 640 316.8 640 480 C428.8 480 217.6 480 0 480 C0 321.6 0 163.2 0 0 Z " fill="#16308A" transform="translate(0,0)"/>
<path d="M0 0 C14.52 0 29.04 0 44 0 C45.09232315 14.20020096 45.09232315 14.20020096 44.2578125 19.98828125 C43.87088267 23.00750641 43.93531972 25.96002702 44 29 C43.01 29 42.02 29 41 29 C41.33 31.64 41.66 34.28 42 37 C42.66 37 43.32 37 44 37 C47.40946757 39.52004125 48.44581925 43.17930566 50 47 C51.6048978 50.82118523 52.71724807 52.76537606 55.9375 55.4375 C59.49397553 58.41332646 60.82505364 60.96081391 63 65 C63.66 65.33 64.32 65.66 65 66 C65.433125 67.175625 65.433125 67.175625 65.875 68.375 C66.76781053 71.08847883 66.76781053 71.08847883 68.9375 72.375 C72.63547214 75.28855381 73.72533453 79.18826428 74.40625 83.6796875 C74.65506985 86.11950432 74.85715195 88.55187991 75 91 C77.31 91.33 79.62 91.66 82 92 C82.33 92.99 82.66 93.98 83 95 C84.32 95.33 85.64 95.66 87 96 C86.67 98.97 86.34 101.94 86 105 C87.32 105 88.64 105 90 105 C90 105.99 90 106.98 90 108 C88.515 108.495 88.515 108.495 87 109 C87.4640625 110.0828125 87.4640625 110.0828125 87.9375 111.1875 C88.92560539 113.80307309 89.5287754 116.25118982 90 119 C89.34 119 88.68 119 88 119 C88 119.99 88 120.98 88 122 C88.99 122.33 89.98 122.66 91 123 C91.66 123.99 92.32 124.98 93 126 C96.93075644 125.42547254 96.93075644 125.42547254 100 123 C100.99 123 101.98 123 103 123 C103.33 122.34 103.66 121.68 104 121 C104.33 121.99 104.66 122.98 105 124 C106.65 124 108.3 124 110 124 C109.649375 125.11375 109.29875 126.2275 108.9375 127.375 C107.62760669 130.80264476 107.62760669 130.80264476 109 133 C106.03 133.33 103.06 133.66 100 134 C100.33 136.31 100.66 138.62 101 141 C103.97 141.33 106.94 141.66 110 142 C110 141.01 110 140.02 110 139 C110.99 139 111.98 139 113 139 C113.66 136.03 114.32 133.06 115 130 C115.99 130.33 116.98 130.66 118 131 C119.56912323 134.37361494 120.14062681 136.32499133 119.375 140 C118.84994896 144.20040832 120.48030201 145.71039429 123 149 C126 153.71428571 126 153.71428571 126 156 C127.65 156 129.3 156 131 156 C131.33 155.01 131.66 154.02 132 153 C133.65 152.67 135.3 152.34 137 152 C137 153.32 137 154.64 137 156 C142.15171623 156.09038099 146.91913204 155.84681133 152 155 C154 158 154 158 153.8125 161.0625 C153 164 153 164 150 166 C148.68 166 147.36 166 146 166 C146.33 167.65 146.66 169.3 147 171 C142.13948404 173.59227518 137.34728867 173.18689553 132 173 C132 174.32 132 175.64 132 177 C131.195625 177.12375 130.39125 177.2475 129.5625 177.375 C128.716875 177.58125 127.87125 177.7875 127 178 C126.67 178.66 126.34 179.32 126 180 C125.34 180 124.68 180 124 180 C123.67 182.64 123.34 185.28 123 188 C120.03 188.33 117.06 188.66 114 189 C114 189.99 114 190.98 114 192 C113.4328125 191.67515625 112.865625 191.3503125 112.28125 191.015625 C109.81289826 189.91670128 108.18396781 189.73161666 105.5 189.75 C104.7471875 189.74484375 103.994375 189.7396875 103.21875 189.734375 C100.76697724 190.02789709 99.17538435 190.87574674 97 192 C94.75 191.625 94.75 191.625 93 191 C92.67 192.65 92.34 194.3 92 196 C89.69 196 87.38 196 85 196 C85.0928125 197.60875 85.0928125 197.60875 85.1875 199.25 C84.97920718 203.41585639 84.36666859 203.85427841 82 207 C81.18380099 209.46807311 81.18380099 209.46807311 80.75 212.0625 C80.49476563 213.34833984 80.49476563 213.34833984 80.234375 214.66015625 C79.82353254 217.15260883 79.82353254 217.15260883 81 220 C81.66 220 82.32 220 83 220 C82.67 221.32 82.34 222.64 82 224 C78.7 223.34 75.4 222.68 72 222 C72.25537572 224.1060986 72.52985374 226.20988754 72.8125 228.3125 C72.96332031 229.48425781 73.11414063 230.65601563 73.26953125 231.86328125 C74.03194192 235.13716238 74.60312388 235.85811071 77 238 C77.6875 241.6875 77.6875 241.6875 78 245 C79.175625 245.1546875 79.175625 245.1546875 80.375 245.3125 C83 246 83 246 85 249 C85.721875 248.649375 86.44375 248.29875 87.1875 247.9375 C91.95745801 246.347514 94.98898577 247.92357835 99.3125 250.0625 C100.54470484 250.70251767 101.77493102 251.34642722 103 252 C103 252.66 103 253.32 103 254 C102.34 254 101.68 254 101 254 C101 254.66 101 255.32 101 256 C103.31 256 105.62 256 108 256 C107.74438677 258.3431213 107.40729228 260.67843403 107 263 C106.34 263.33 105.68 263.66 105 264 C101.67758502 268.29042724 101.4755584 272.09928997 101.3125 277.3125 C101.27833984 278.05306641 101.24417969 278.79363281 101.20898438 279.55664062 C101.12706446 281.37058164 101.06184178 283.18526353 101 285 C102.66289063 285.22816406 102.66289063 285.22816406 104.359375 285.4609375 C109.79230769 286.26538462 109.79230769 286.26538462 112 288 C113.01529541 290.32671865 114.01488198 292.6603447 115 295 C118.08197744 298.08197744 122.0213999 299.33622178 126 301 C126.99 301.66 127.98 302.32 129 303 C128.85950482 304.47968324 128.71245174 305.95874516 128.5625 307.4375 C128.48128906 308.26121094 128.40007812 309.08492188 128.31640625 309.93359375 C128 312 128 312 127 313 C122.29945543 312.78633888 117.58571459 312.03548394 113 311 C113.33 312.32 113.66 313.64 114 315 C115.32 315.33 116.64 315.66 118 316 C118 316.99 118 317.98 118 319 C114.37 319.66 110.74 320.32 107 321 C107.33 322.32 107.66 323.64 108 325 C109.32 325 110.64 325 112 325 C112.33 326.32 112.66 327.64 113 329 C114.98 329.33 116.96 329.66 119 330 C119 330.99 119 331.98 119 333 C121.31 333.66 123.62 334.32 126 335 C126 335.66 126 336.32 126 337 C126.66 337 127.32 337 128 337 C128 337.66 128 338.32 128 339 C128.66 339 129.32 339 130 339 C129.67 339.99 129.34 340.98 129 342 C128.278125 341.690625 127.55625 341.38125 126.8125 341.0625 C121.45415102 339.03823483 116.51323737 338.16225421 111 340 C109.48233461 340.11632729 107.9595654 340.17496239 106.4375 340.1875 C105.65246094 340.20167969 104.86742187 340.21585937 104.05859375 340.23046875 C102 340 102 340 100 338 C99.63261719 336.77216797 99.63261719 336.77216797 99.2578125 335.51953125 C98.1893687 332.73714484 98.1893687 332.73714484 95.1796875 331.63671875 C94.08914063 331.32347656 92.99859375 331.01023437 91.875 330.6875 C90.77929688 330.36136719 89.68359375 330.03523438 88.5546875 329.69921875 C87.71164062 329.46847656 86.86859375 329.23773438 86 329 C86 329.99 86 330.98 86 332 C83.69 332.66 81.38 333.32 79 334 C78.7525 333.2575 78.505 332.515 78.25 331.75 C76.90634806 328.79396573 75.31013315 327.23312872 73 325 C73 324.34 73 323.68 73 323 C72.21238281 322.97421875 71.42476563 322.9484375 70.61328125 322.921875 C61.73165542 322.45939981 53.03855858 321.01927929 45 317 C42.77348886 316.81806718 40.54340929 316.6786685 38.3125 316.5625 C33.22422727 316.23827296 28.79265824 315.71166366 24 314 C24.804375 313.360625 25.60875 312.72125 26.4375 312.0625 C29.45107541 308.46090987 29.61680317 306.5264271 29.76171875 301.98828125 C30 300 30 300 32 298 C30.02 297.34 28.04 296.68 26 296 C26.78281305 294.66144944 27.57651877 293.32926356 28.375 292 C28.81585938 291.2575 29.25671875 290.515 29.7109375 289.75 C30.13632812 289.1725 30.56171875 288.595 31 288 C31.66 288 32.32 288 33 288 C33.33 286.68 33.66 285.36 34 284 C33.01 284 32.02 284 31 284 C31 284.66 31 285.32 31 286 C30.01 286 29.02 286 28 286 C27.67 286.99 27.34 287.98 27 289 C25.34467377 290.01866229 23.67739862 291.01810813 22 292 C21.34 292.99 20.68 293.98 20 295 C19.34 295 18.68 295 18 295 C18 295.66 18 296.32 18 297 C17.113125 297.53625 16.22625 298.0725 15.3125 298.625 C11.23412163 301.1630882 9.26550465 304.86996497 7 309 C9.80804268 311.96404505 12.18315774 314.44499019 16 316 C16 315.34 16 314.68 16 314 C19 312 19 312 22 312 C22 313.65 22 315.3 22 317 C21.05125 317.2475 20.1025 317.495 19.125 317.75 C15.56696327 319.17321469 15.44765978 319.69106337 14 323 C13.34 323.309375 12.68 323.61875 12 323.9375 C9.25013332 325.39836667 8.91166696 327.11305462 8 330 C6.35 330 4.7 330 3 330 C2.34 328.35 1.68 326.7 1 325 C-1.97 324.67 -4.94 324.34 -8 324 C-6.79367548 320.56661484 -5.61522816 318.49635415 -3 316 C-3 315.34 -3 314.68 -3 314 C-4.299375 314.4640625 -4.299375 314.4640625 -5.625 314.9375 C-10.26544081 316.39837952 -14.27755841 317.63469132 -19 316 C-18.34 315.67 -17.68 315.34 -17 315 C-17.33 314.34 -17.66 313.68 -18 313 C-16.35 313 -14.7 313 -13 313 C-14.18424326 311.58422523 -14.18424326 311.58422523 -17.5625 311.9375 C-19.2640625 311.9684375 -19.2640625 311.9684375 -21 312 C-21 312.66 -21 313.32 -21 314 C-21.99 314.66 -22.98 315.32 -24 316 C-24.97348889 318.11184094 -24.97348889 318.11184094 -25.625 320.5 C-26.95901639 324.91803279 -26.95901639 324.91803279 -28 327 C-28.99 327 -29.98 327 -31 327 C-30.505 328.0725 -30.01 329.145 -29.5 330.25 C-28.11346089 333.25416808 -28 334.45934895 -28 338 C-29.32 338.66 -30.64 339.32 -32 340 C-32.10251672 345.12583611 -32.03590199 349.94997778 -31 355 C-31.99 355.33 -32.98 355.66 -34 356 C-33.97679687 356.60328125 -33.95359375 357.2065625 -33.9296875 357.828125 C-33.91164063 358.62734375 -33.89359375 359.4265625 -33.875 360.25 C-33.84019531 361.43335938 -33.84019531 361.43335938 -33.8046875 362.640625 C-34.0171622 365.20731941 -34.71345895 366.7916067 -36 369 C-35.13375 369.3403125 -35.13375 369.3403125 -34.25 369.6875 C-32 371 -32 371 -30.3125 373.5 C-27.04524573 377.03216678 -23.63577723 377.33633104 -19 378 C-19.33 379.32 -19.66 380.64 -20 382 C-21.6396875 382.4640625 -21.6396875 382.4640625 -23.3125 382.9375 C-28.55596369 384.13769207 -28.55596369 384.13769207 -31.875 388 C-34 391 -34 391 -36.2265625 391.6875 C-40.4432826 392.16262339 -44.60728139 392.01668633 -48.84375 391.9375 C-51.71161456 391.9942894 -54.21827333 392.33570706 -57 393 C-57.33 393.99 -57.66 394.98 -58 396 C-58.99 396 -59.98 396 -61 396 C-59.60804085 398.7839183 -57.84424221 398.97898997 -55 400 C-56 402 -56 402 -57 403 C-58.32594105 403.36162029 -59.65938457 403.69728039 -61 404 C-60.67 404.66 -60.34 405.32 -60 406 C-60.99 406 -61.98 406 -63 406 C-63.33 405.34 -63.66 404.68 -64 404 C-65.64142963 402.9590934 -67.30712215 401.95495674 -69 401 C-69.33 402.98 -69.66 404.96 -70 407 C-69.1646875 407.37125 -69.1646875 407.37125 -68.3125 407.75 C-65.55839521 409.23870529 -63.30825486 410.88409972 -61 413 C-61 413.99 -61 414.98 -61 416 C-60.28972656 416.17015625 -59.57945312 416.3403125 -58.84765625 416.515625 C-57.92855469 416.75796875 -57.00945312 417.0003125 -56.0625 417.25 C-55.14597656 417.48203125 -54.22945313 417.7140625 -53.28515625 417.953125 C-51 419 -51 419 -50.18359375 421.109375 C-50.12300781 421.73328125 -50.06242187 422.3571875 -50 423 C-50.66 423 -51.32 423 -52 423 C-51.34 424.98 -50.68 426.96 -50 429 C-51.1446875 428.690625 -51.1446875 428.690625 -52.3125 428.375 C-55.21885944 427.66608797 -55.21885944 427.66608797 -58 430 C-57.01 430.66 -56.02 431.32 -55 432 C-55.33 432.99 -55.66 433.98 -56 435 C-57.32 435 -58.64 435 -60 435 C-59.38125 435.7425 -58.7625 436.485 -58.125 437.25 C-55.0727592 441.19995868 -54 442.94053359 -54 448 C-54.66 448 -55.32 448 -56 448 C-56.103125 447.38125 -56.20625 446.7625 -56.3125 446.125 C-56.87525373 443.63473516 -56.87525373 443.63473516 -60 442 C-60 442.66 -60 443.32 -60 444 C-61.65 443.34 -63.3 442.68 -65 442 C-65.33 442.66 -65.66 443.32 -66 444 C-67.32 443.34 -68.64 442.68 -70 442 C-70 440.35 -70 438.7 -70 437 C-71.65 436.34 -73.3 435.68 -75 435 C-75 431 -75 431 -73 428 C-74.65 428 -76.3 428 -78 428 C-78.33 427.01 -78.66 426.02 -79 425 C-79.66 425 -80.32 425 -81 425 C-81 425.66 -81 426.32 -81 427 C-81.66 427 -82.32 427 -83 427 C-82.91878906 426.24976563 -82.83757812 425.49953125 -82.75390625 424.7265625 C-82.73403796 421.91325425 -82.73403796 421.91325425 -84.71484375 420.0859375 C-85.44832031 419.52132813 -86.18179687 418.95671875 -86.9375 418.375 C-90.90627482 415.28117554 -90.90627482 415.28117554 -92 412 C-93.65 411.67 -95.3 411.34 -97 411 C-98.98256527 405.05230418 -99.10876141 399.19940062 -99 393 C-100.32 393 -101.64 393 -103 393 C-103 392.34 -103 391.68 -103 391 C-103.721875 390.731875 -104.44375 390.46375 -105.1875 390.1875 C-108 389 -108 389 -110.375 387.4375 C-113.04080259 385.77521791 -113.04080259 385.77521791 -116.625 385.5 C-120.29487058 384.95631547 -120.60910994 384.49956688 -123 382 C-125.62570704 381.74930087 -125.62570704 381.74930087 -128 382 C-128 381.01 -128 380.02 -128 379 C-129.65 379.33 -131.3 379.66 -133 380 C-133 379.34 -133 378.68 -133 378 C-135.01822917 377.83723958 -137.03645833 377.67447917 -139.0546875 377.51171875 C-141 377 -141 377 -143 374 C-142.34 374 -141.68 374 -141 374 C-141.474375 373.46375 -141.94875 372.9275 -142.4375 372.375 C-144.28186076 369.57157164 -144.62456847 367.30379742 -145 364 C-145.66 365.65 -146.32 367.3 -147 369 C-147.66 368.67 -148.32 368.34 -149 368 C-148.67 366.35 -148.34 364.7 -148 363 C-148.66 362.67 -149.32 362.34 -150 362 C-150.33 363.98 -150.66 365.96 -151 368 C-151.99 367.67 -152.98 367.34 -154 367 C-155.31035007 363.82757352 -156 361.44118336 -156 358 C-157.0828125 358.7115625 -157.0828125 358.7115625 -158.1875 359.4375 C-160.89475226 360.94152903 -162.96194275 361.56599182 -166 362 C-165.67 362.763125 -165.34 363.52625 -165 364.3125 C-164 367 -164 367 -164 370 C-163.9292787 373.01889282 -163.9292787 373.01889282 -163 376 C-160.67689682 377.94646225 -160.67689682 377.94646225 -157.75 379.375 C-152.53396414 382.42051379 -149.33808238 385.38085173 -147 391 C-147 391.66 -147 392.32 -147 393 C-146.46375 393.268125 -145.9275 393.53625 -145.375 393.8125 C-143 395 -143 395 -140.3125 396.625 C-136.07692821 398.38316187 -132.51839191 398.27110351 -128 398 C-128 399.65 -128 401.3 -128 403 C-127.21496094 403.18175781 -126.42992187 403.36351562 -125.62109375 403.55078125 C-109.18126095 407.48423818 -109.18126095 407.48423818 -105 412 C-104.75 415.1875 -104.75 415.1875 -105 418 C-108 417 -108 417 -110 414 C-111.96361864 413.42251197 -111.96361864 413.42251197 -114.125 413.3125 C-115.40375 413.209375 -116.6825 413.10625 -118 413 C-118.66 415.97 -119.32 418.94 -120 422 C-118.68 422.33 -117.36 422.66 -116 423 C-115.34 423.33 -114.68 423.66 -114 424 C-114 425.98 -114 427.96 -114 430 C-115.32 430.33 -116.64 430.66 -118 431 C-117.95875 432.0725 -117.9175 433.145 -117.875 434.25 C-118.04878049 439.46341463 -118.04878049 439.46341463 -120 442 C-122.13002316 442.79875868 -123.73304965 443 -126 443 C-127.38177162 444.1551251 -127.38177162 444.1551251 -127.125 447.3125 C-127.1360484 450.78974338 -127.1360484 450.78974338 -126.4375 453.25 C-126 455 -126 455 -127 458 C-129.31 457.67 -131.62 457.34 -134 457 C-134 456.34 -134 455.68 -134 455 C-135.2684375 455.0928125 -135.2684375 455.0928125 -136.5625 455.1875 C-140.60810909 454.96683041 -143.33098704 453.66773316 -147 452 C-149.77888613 451.30859478 -149.77888613 451.30859478 -152 451 C-152.33 449.35 -152.66 447.7 -153 446 C-149.57928624 443.91419893 -147.83335124 442.85005798 -143.80859375 443.57421875 C-139.0578643 444.10532594 -136.00493721 443.07696455 -131.625 441.375 C-130.90183594 441.12621094 -130.17867187 440.87742187 -129.43359375 440.62109375 C-127.08087468 439.78937137 -127.08087468 439.78937137 -124 438 C-122.89904939 435.41033117 -122.89904939 435.41033117 -123 433 C-122.34 433 -121.68 433 -121 433 C-124.40077681 425.45409566 -124.40077681 425.45409566 -130.0234375 419.7578125 C-132.10353778 419.14552933 -132.10353778 419.14552933 -135 419 C-135.33 417.35 -135.66 415.7 -136 414 C-137.32 414.33 -138.64 414.66 -140 415 C-140 414.34 -140 413.68 -140 413 C-140.804375 412.87625 -141.60875 412.7525 -142.4375 412.625 C-143.7059375 412.315625 -143.7059375 412.315625 -145 412 C-145.33 411.34 -145.66 410.68 -146 410 C-148.01944741 409.57004709 -148.01944741 409.57004709 -150.4375 409.3125 C-156.63458295 408.21258484 -161.35437846 405.19094369 -166 401 C-166 400.34 -166 399.68 -166 399 C-167.65 399 -169.3 399 -171 399 C-171.33 398.01 -171.66 397.02 -172 396 C-172.78375 395.608125 -173.5675 395.21625 -174.375 394.8125 C-178.03272954 392.28692484 -178.95154706 389.22790781 -180 385 C-180 384.01 -180 383.02 -180 382 C-180.721875 381.87625 -181.44375 381.7525 -182.1875 381.625 C-185 381 -185 381 -187.5 379.875 C-190.55405173 378.80608189 -191.99198727 378.81262656 -195 380 C-195.474375 380.804375 -195.94875 381.60875 -196.4375 382.4375 C-198.48936388 385.80255677 -200.33031501 385.85322344 -204 387 C-205.73425773 389.03317007 -205.73425773 389.03317007 -207 391 C-207.66 391 -208.32 391 -209 391 C-209.33 391.99 -209.66 392.98 -210 394 C-216.625 395.125 -216.625 395.125 -220 394 C-220 393.34 -220 392.68 -220 392 C-220.60328125 392 -221.2065625 392 -221.828125 392 C-225.55208333 392 -229.27604167 392 -233 392 C-236.94546441 395.11750691 -236.94546441 395.11750691 -238.375 399.75 C-238.23007345 401.96367261 -238.23007345 401.96367261 -237 403 C-236.375 406.125 -236.375 406.125 -237 410 C-241.63462933 415.35605748 -247.20723445 417.8196724 -254.03125 419.19921875 C-254.6809375 419.46347656 -255.330625 419.72773438 -256 420 C-256.72673888 421.95380511 -256.72673888 421.95380511 -257 424 C-258.33333333 425.33333333 -259.66666667 426.66666667 -261 428 C-264.09933197 431.92353105 -266.02257226 434.64566416 -265.9375 439.75 C-265.1707448 442.40808469 -264.41777158 444.63704737 -263 447 C-263.763125 447.37125 -264.52625 447.7425 -265.3125 448.125 C-268.56246632 450.39241836 -269.55501768 452.34951834 -271 456 C-271 456.99 -271 457.98 -271 459 C-272.6396875 459.4021875 -272.6396875 459.4021875 -274.3125 459.8125 C-278.33649523 461.07360514 -278.33649523 461.07360514 -281 464 C-281.67848298 465.32735943 -282.3465996 466.66011563 -283 468 C-283.63502441 468.01981934 -284.27004883 468.03963867 -284.92431641 468.06005859 C-287.82493326 468.15581122 -290.72487905 468.26528546 -293.625 468.375 C-295.12353516 468.42140625 -295.12353516 468.42140625 -296.65234375 468.46875 C-301.80780631 468.67360282 -306.15086126 469.06976031 -311 471 C-311.66 471 -312.32 471 -313 471 C-313.66 472.32 -314.32 473.64 -315 475 C-317.22111286 474.61704951 -318.80380283 474.13079812 -320.6875 472.875 C-322.63305811 470.09563127 -322.68668789 467.32110837 -323 464 C-323.66 464 -324.32 464 -325 464 C-325 463.34 -325 462.68 -325 462 C-331.07252996 461.89031374 -331.07252996 461.89031374 -337 463 C-337.33 462.67 -337.66 462.34 -338 462 C-340.64 461.67 -343.28 461.34 -346 461 C-345.01 453.08 -345.01 453.08 -344 445 C-344.99 445 -345.98 445 -347 445 C-347 444.01 -347 443.02 -347 442 C-347.66 442 -348.32 442 -349 442 C-347.43769793 436.91420816 -345.74200149 432.57000249 -343 428 C-340.12719433 421.3579103 -339.56080723 415.30087834 -339.6875 408.125 C-339.68427734 407.18914062 -339.68105469 406.25328125 -339.67773438 405.2890625 C-339.61356979 399.82579798 -339.61356979 399.82579798 -342 395 C-341.625 392.8125 -341.625 392.8125 -341 391 C-339.2984375 390.566875 -339.2984375 390.566875 -337.5625 390.125 C-336.386875 389.75375 -335.21125 389.3825 -334 389 C-333.67 388.34 -333.34 387.68 -333 387 C-329.5625 386.25 -329.5625 386.25 -326 386 C-325.34 386.66 -324.68 387.32 -324 388 C-320.98566709 388.39298401 -320.98566709 388.39298401 -317.5 388.5 C-313.3105955 388.68537188 -309.37528963 389.09113882 -305.2890625 389.9921875 C-299.49910011 391.21193958 -293.77622137 391.44481003 -287.875 391.625 C-286.823125 391.66367187 -285.77125 391.70234375 -284.6875 391.7421875 C-282.12516244 391.83536341 -279.56281221 391.92117382 -277 392 C-276.49686083 388.22957855 -275.99802745 384.45859978 -275.5 380.6875 C-275.35691406 379.61564453 -275.21382813 378.54378906 -275.06640625 377.43945312 C-274.93105469 376.41142578 -274.79570312 375.38339844 -274.65625 374.32421875 C-274.53056641 373.37635498 -274.40488281 372.42849121 -274.27539062 371.4519043 C-273.94419239 368.91434448 -273.94419239 368.91434448 -274 366 C-274 363.66666667 -274 361.33333333 -274 359 C-274.598125 358.9175 -275.19625 358.835 -275.8125 358.75 C-278.73024575 357.74963003 -279.53950675 356.70191251 -281 354 C-281.1875 350.75 -281.1875 350.75 -281 348 C-281.99 348 -282.98 348 -284 348 C-284 347.01 -284 346.02 -284 345 C-285.7634375 344.566875 -285.7634375 344.566875 -287.5625 344.125 C-291.4018927 343.16686279 -295.2013318 342.10794489 -299 341 C-299 339.68 -299 338.36 -299 337 C-299.93283296 334.79932579 -299.93283296 334.79932579 -301 333 C-291.60176991 329.37584591 -291.60176991 329.37584591 -287 331 C-284.04282251 332.16140792 -284.04282251 332.16140792 -280.9375 332 C-278 332 -278 332 -276 333 C-276.99 329.04 -277.98 325.08 -279 321 C-277.35 321 -275.7 321 -274 321 C-273.67 321.66 -273.34 322.32 -273 323 C-270.88153715 323.68729254 -270.88153715 323.68729254 -268.4375 324.125 C-267.61121094 324.29257812 -266.78492188 324.46015625 -265.93359375 324.6328125 C-265.29550781 324.75398438 -264.65742188 324.87515625 -264 325 C-264 324.2575 -264 323.515 -264 322.75 C-262.79734194 319.44269033 -262.06428313 319.23836609 -259 317.75 C-258.278125 317.43546875 -257.55625 317.1209375 -256.8125 316.796875 C-255.01756903 316.13847421 -255.01756903 316.13847421 -254 315 C-253.7746669 312.9720021 -253.55232815 310.94325126 -253.37890625 308.91015625 C-253 307 -253 307 -251 305 C-249.7625 304.566875 -248.525 304.13375 -247.25 303.6875 C-240.36583648 301.13550448 -237.25215712 298.01337857 -234.1875 291.4375 C-233.10270977 288.9063228 -232.1157243 286.55628873 -231.5546875 283.859375 C-230.44748498 280.14790741 -227.20030911 277.95438725 -224 276 C-221.32057321 275.38315355 -218.7515832 275.23318502 -216 275 C-215.34 274.01 -214.68 273.02 -214 272 C-210.92078868 271.74339906 -208.78863007 271.60568496 -206 273 C-205.87625 272.360625 -205.7525 271.72125 -205.625 271.0625 C-205.41875 270.381875 -205.2125 269.70125 -205 269 C-204.34 268.67 -203.68 268.34 -203 268 C-203 266.68 -203 265.36 -203 264 C-203.66 264 -204.32 264 -205 264 C-205 263.34 -205 262.68 -205 262 C-204.34 262 -203.68 262 -203 262 C-203.99 260.515 -203.99 260.515 -205 259 C-205.66 259.33 -206.32 259.66 -207 260 C-207.84454356 256.62182575 -208.10844919 254.32534757 -207 251 C-207.99 250.34 -208.98 249.68 -210 249 C-210.29296875 246.1796875 -210.29296875 246.1796875 -210.1875 242.875 C-210.14689453 241.23144531 -210.14689453 241.23144531 -210.10546875 239.5546875 C-210.07066406 238.71164063 -210.03585938 237.86859375 -210 237 C-208.68 237 -207.36 237 -206 237 C-206 236.01 -206 235.02 -206 234 C-206.99 234.66 -207.98 235.32 -209 236 C-209.33 235.01 -209.66 234.02 -210 233 C-209.34 232.01 -208.68 231.02 -208 230 C-207.195625 229.87625 -206.39125 229.7525 -205.5625 229.625 C-202.75677908 229.25082643 -202.75677908 229.25082643 -201.375 226.5 C-200.92125 225.675 -200.4675 224.85 -200 224 C-199.01 223.67 -198.02 223.34 -197 223 C-196 224 -196 224 -195.90234375 226.50390625 C-195.91974609 228.01791016 -195.91974609 228.01791016 -195.9375 229.5625 C-195.94652344 230.57441406 -195.95554688 231.58632812 -195.96484375 232.62890625 C-195.98224609 233.80259766 -195.98224609 233.80259766 -196 235 C-194.68 235.33 -193.36 235.66 -192 236 C-192.33 237.32 -192.66 238.64 -193 240 C-193.99 240 -194.98 240 -196 240 C-196.2165625 241.423125 -196.2165625 241.423125 -196.4375 242.875 C-197 246 -197 246 -198 248 C-197.21625 247.79375 -196.4325 247.5875 -195.625 247.375 C-194.75875 247.25125 -193.8925 247.1275 -193 247 C-191 249 -191 249 -190.125 251.5625 C-189.2590293 254.18447843 -189.2590293 254.18447843 -186.875 254.8125 C-186.25625 254.874375 -185.6375 254.93625 -185 255 C-185 253.68 -185 252.36 -185 251 C-186.32 251 -187.64 251 -189 251 C-189 249.68 -189 248.36 -189 247 C-189.66 246.34 -190.32 245.68 -191 245 C-188.87330165 242.66063182 -186.93775144 241.19346152 -184 240 C-183.01 240 -182.02 240 -181 240 C-180.04414716 243.7172055 -180.09604295 246.28373213 -181 250 C-181 250.66 -181 251.32 -181 252 C-180.34 252.33 -179.68 252.66 -179 253 C-179.99 253.33 -180.98 253.66 -182 254 C-182 254.66 -182 255.32 -182 256 C-182.804375 256.20625 -183.60875 256.4125 -184.4375 256.625 C-185.7059375 257.305625 -185.7059375 257.305625 -187 258 C-187.82888749 260.97314468 -187.82888749 260.97314468 -188 264 C-188.33 264.66 -188.66 265.32 -189 266 C-185.61512277 264.93618144 -183.98865792 263.98809081 -181.5 261.375 C-179 259 -179 259 -176.1875 258.6875 C-175.465625 258.790625 -174.74375 258.89375 -174 259 C-174 257.68 -174 256.36 -174 255 C-173.01 255.33 -172.02 255.66 -171 256 C-171 257.32 -171 258.64 -171 260 C-168.57327433 261.78969026 -168.57327433 261.78969026 -166 263 C-166.33 263.66 -166.66 264.32 -167 265 C-165.68 265.33 -164.36 265.66 -163 266 C-163 265.34 -163 264.68 -163 264 C-163.66 263.67 -164.32 263.34 -165 263 C-163.37829621 261.99466333 -161.75252763 260.99588093 -160.125 260 C-159.22007812 259.443125 -158.31515625 258.88625 -157.3828125 258.3125 C-155 257 -155 257 -153 257 C-152.74734375 256.39671875 -152.4946875 255.7934375 -152.234375 255.171875 C-150.14969679 251.50389688 -146.76447817 249.73584271 -143 248 C-139.5 247.6875 -139.5 247.6875 -137 248 C-137 248.99 -137 249.98 -137 251 C-134.58354218 251.16687448 -134.58354218 251.16687448 -132 251 C-129.64046906 248.64046906 -129.50858587 247.22104383 -129 244 C-126.69 244.33 -124.38 244.66 -122 245 C-120.86642934 241.77368351 -120.75393085 239.62419858 -122.01171875 236.43359375 C-122.46160156 235.50675781 -122.91148437 234.57992187 -123.375 233.625 C-126.84824894 226.46565679 -127.75579722 220.7490053 -125.7265625 212.9296875 C-125 211 -125 211 -123.1875 208.8125 C-121 208 -121 208 -118.4375 208.625 C-116.16412106 209.90741889 -114.61378131 210.9615394 -113 213 C-113 213.66 -113 214.32 -113 215 C-111.35 214.01 -109.7 213.02 -108 212 C-108.11487748 210.41590006 -108.24234508 208.83271037 -108.375 207.25 C-108.47941406 205.92742187 -108.47941406 205.92742187 -108.5859375 204.578125 C-109.00497598 201.96901748 -109.55557694 200.20703804 -111 198 C-112.65821773 197.62690101 -114.32577014 197.29299023 -116 197 C-118.32749345 193.50875983 -118.50299316 192.10777749 -118 188 C-115.88093452 185.36943595 -113.81981355 183.8798757 -111 182 C-110.01 182 -109.02 182 -108 182 C-108 181.34 -108 180.68 -108 180 C-103.05 179.67 -98.1 179.34 -93 179 C-93.33 177.35 -93.66 175.7 -94 174 C-92.02 173.34 -90.04 172.68 -88 172 C-88 171.01 -88 170.02 -88 169 C-86.02 169 -84.04 169 -82 169 C-82 168.34 -82 167.68 -82 167 C-82.62648438 167.01160156 -83.25296875 167.02320313 -83.8984375 167.03515625 C-84.71570313 167.04417969 -85.53296875 167.05320313 -86.375 167.0625 C-87.18710937 167.07410156 -87.99921875 167.08570313 -88.8359375 167.09765625 C-91 167 -91 167 -93 166 C-93 165.01 -93 164.02 -93 163 C-93.66 163 -94.32 163 -95 163 C-95 163.66 -95 164.32 -95 165 C-95.66 165 -96.32 165 -97 165 C-97.33 165.66 -97.66 166.32 -98 167 C-99.96299854 167.84065632 -101.96070871 168.46517348 -103.9921875 169.12109375 C-106.24054963 170.10529896 -107.31919059 171.23255093 -109 173 C-110.43370527 174.05514264 -111.89423726 175.07448254 -113.375 176.0625 C-114.12523437 176.56910156 -114.87546875 177.07570312 -115.6484375 177.59765625 C-119.8506486 180.10362599 -121.92094061 181.24765297 -126.8125 180.125 C-128.3903125 179.568125 -128.3903125 179.568125 -130 179 C-130 178.01 -130 177.02 -130 176 C-131.98 176.33 -133.96 176.66 -136 177 C-136.88338189 173.75318412 -137.38805275 170.51497288 -137.875 167.1875 C-139.02921181 159.5045486 -139.02921181 159.5045486 -143 153 C-142.96232046 151.33050645 -142.84571204 149.66240712 -142.6875 148 C-142.60886719 147.0925 -142.53023437 146.185 -142.44921875 145.25 C-142.30097656 144.5075 -142.15273438 143.765 -142 143 C-141.34 142.67 -140.68 142.34 -140 142 C-136.46857315 135.78530558 -134.43297833 128.68589462 -132.1484375 121.94140625 C-131 119 -131 119 -129 117 C-128.75787127 115.01871492 -128.75787127 115.01871492 -128.875 112.875 C-128.91625 111.59625 -128.9575 110.3175 -129 109 C-134.93024803 108.02959578 -140.06390334 108.10683731 -146 109 C-146.2165625 110.5778125 -146.2165625 110.5778125 -146.4375 112.1875 C-147 116 -147 116 -147.625 118.625 C-148.15461873 121.97925198 -147.43591412 124.70033013 -146.3671875 127.88671875 C-145.65277064 131.99841581 -147.9714704 135.52086946 -150 139 C-151.10743624 140.32473461 -152.25467701 141.61711822 -153.4375 142.875 C-159.94753439 149.97430475 -162.72313112 157.44105137 -162.30859375 167.05078125 C-161.84886353 171.4444055 -161.06207597 175.71376484 -160 180 C-158.35 180 -156.7 180 -155 180 C-155 180.66 -155 181.32 -155 182 C-153.68 182.33 -152.36 182.66 -151 183 C-151 183.66 -151 184.32 -151 185 C-150.34 185 -149.68 185 -149 185 C-148.3125 187.25 -148.3125 187.25 -148 190 C-149.4375 192.3125 -149.4375 192.3125 -151 194 C-150.34 194.33 -149.68 194.66 -149 195 C-150.62344566 197.9905578 -151.83519281 199.8775718 -154.59765625 201.9296875 C-158.28654229 206.6442638 -157.50016635 211.13850511 -157.25 216.9375 C-157.18840544 219.07149473 -157.13098516 221.2056148 -157.078125 223.33984375 C-157.03848633 224.82266846 -157.03848633 224.82266846 -156.99804688 226.33544922 C-157.00022913 229.31259722 -157.33376513 232.09784054 -158 235 C-160.64 235.33 -163.28 235.66 -166 236 C-166 236.66 -166 237.32 -166 238 C-166.66 238.33 -167.32 238.66 -168 239 C-168 241.31 -168 243.62 -168 246 C-172.455 246.99 -172.455 246.99 -177 248 C-177.433125 246.63875 -177.433125 246.63875 -177.875 245.25 C-178.85360549 242.1331903 -178.85360549 242.1331903 -180.125 239.9375 C-181 238 -181 238 -180.875 235.66796875 C-181.02822337 232.39760745 -181.98098254 231.01212478 -183.875 228.375 C-184.40867188 227.61960938 -184.94234375 226.86421875 -185.4921875 226.0859375 C-185.98976562 225.39757812 -186.48734375 224.70921875 -187 224 C-189 221 -189 221 -189 218 C-189.66 218 -190.32 218 -191 218 C-191.50692692 216.4188708 -192.00526443 214.83498617 -192.5 213.25 C-192.91765625 211.92742187 -192.91765625 211.92742187 -193.34375 210.578125 C-194 208 -194 208 -194 204 C-195.32 203.67 -196.64 203.34 -198 203 C-198.433125 203.639375 -198.86625 204.27875 -199.3125 204.9375 C-201 207 -201 207 -204 208 C-205.87532041 210.46706884 -207.50765436 213.04657669 -209.18359375 215.65234375 C-211.0540867 218.06990561 -212.14272312 219.01798445 -215 220 C-217.33203812 220.0777346 -219.66839059 220.08967728 -222 220 C-222 219.34 -222 218.68 -222 218 C-222.94875 217.731875 -223.8975 217.46375 -224.875 217.1875 C-228 216 -228 216 -230 213 C-230 211.68 -230 210.36 -230 209 C-229.01 209 -228.02 209 -227 209 C-227.33 207.68 -227.66 206.36 -228 205 C-228.66 205 -229.32 205 -230 205 C-230 205.66 -230 206.32 -230 207 C-230.66 207 -231.32 207 -232 207 C-232 205.35 -232 203.7 -232 202 C-230.68 201.34 -229.36 200.68 -228 200 C-228.33 199.01 -228.66 198.02 -229 197 C-230.32 198.32 -231.64 199.64 -233 201 C-232.505 198.03 -232.505 198.03 -232 195 C-232.66 195 -233.32 195 -234 195 C-234 190.66666667 -234 186.33333333 -234 182 C-234.165 181.278125 -234.33 180.55625 -234.5 179.8125 C-235.98575021 171.45515507 -235.98575021 171.45515507 -233.6875 168.0625 C-232 167 -232 167 -229 167 C-228.67 166.01 -228.34 165.02 -228 164 C-225.36 164 -222.72 164 -220 164 C-220 163.34 -220 162.68 -220 162 C-221.65 162 -223.3 162 -225 162 C-224.34 160.68 -223.68 159.36 -223 158 C-221.02 158 -219.04 158 -217 158 C-217 155.03 -217 152.06 -217 149 C-216.34 148.67 -215.68 148.34 -215 148 C-215 148.66 -215 149.32 -215 150 C-213.68 150 -212.36 150 -211 150 C-210.54625 148.7625 -210.0925 147.525 -209.625 146.25 C-208.5615993 143.40754505 -207.44807517 140.67336954 -206 138 C-205.34 138 -204.68 138 -204 138 C-203.3185177 136.10820797 -203.3185177 136.10820797 -203 134 C-203.66 133.34 -204.32 132.68 -205 132 C-204.195625 131.54625 -203.39125 131.0925 -202.5625 130.625 C-199.91143428 129.25274335 -199.91143428 129.25274335 -199 127 C-198.855625 126.0925 -198.71125 125.185 -198.5625 124.25 C-198.0020159 121.01164742 -197.1036298 118.09016343 -196 115 C-193.525 114.505 -193.525 114.505 -191 114 C-192.65 113.67 -194.3 113.34 -196 113 C-196.125 110.625 -196.125 110.625 -196 108 C-195.34 107.34 -194.68 106.68 -194 106 C-193.690625 105.154375 -193.38125 104.30875 -193.0625 103.4375 C-192.711875 102.633125 -192.36125 101.82875 -192 101 C-191.01 100.67 -190.02 100.34 -189 100 C-189.33 98.68 -189.66 97.36 -190 96 C-189.01 95.67 -188.02 95.34 -187 95 C-187 94.34 -187 93.68 -187 93 C-187.66 93 -188.32 93 -189 93 C-189 92.01 -189 91.02 -189 90 C-188.34 90 -187.68 90 -187 90 C-187 88.68 -187 87.36 -187 86 C-185.5 84.375 -185.5 84.375 -184 83 C-184 82.34 -184 81.68 -184 81 C-184.391875 81.598125 -184.78375 82.19625 -185.1875 82.8125 C-187.63860156 85.77072602 -190.2671018 87.63241553 -194.0625 88.4375 C-196.79412711 89.23055303 -198.12661299 90.92589295 -200 93 C-199.38722388 90.03824877 -198.74627478 88.61941217 -197 86 C-195.68 86 -194.36 86 -193 86 C-193 85.34 -193 84.68 -193 84 C-191.68 83.67 -190.36 83.34 -189 83 C-189 82.34 -189 81.68 -189 81 C-190.65 81 -192.3 81 -194 81 C-192.25 77.125 -192.25 77.125 -190 76 C-189.27840576 74.35636866 -188.60648579 72.68949614 -188 71 C-187.67 71 -187.34 71 -187 71 C-186.67 72.98 -186.34 74.96 -186 77 C-183.03 77.495 -183.03 77.495 -180 78 C-180 76.35 -180 74.7 -180 73 C-180.99 73 -181.98 73 -183 73 C-182.67 70.69 -182.34 68.38 -182 66 C-180.68 66 -179.36 66 -178 66 C-177.87625 65.443125 -177.7525 64.88625 -177.625 64.3125 C-176.94023145 61.77885636 -176.00866237 59.42078968 -175 57 C-174.01 57.66 -173.02 58.32 -172 59 C-172.99 60.98 -173.98 62.96 -175 65 C-174.34 65 -173.68 65 -173 65 C-172.9175 64.38125 -172.835 63.7625 -172.75 63.125 C-172 61 -172 61 -169.9375 59.75 C-169.298125 59.5025 -168.65875 59.255 -168 59 C-167.67 59.99 -167.34 60.98 -167 62 C-167 60.68 -167 59.36 -167 58 C-166.34 58 -165.68 58 -165 58 C-165 57.34 -165 56.68 -165 56 C-164.67 55.67 -164.34 55.34 -164 55 C-164.33 54.34 -164.66 53.68 -165 53 C-164.2575 52.62875 -163.515 52.2575 -162.75 51.875 C-159.52269039 49.67456163 -158.06580434 47.27679309 -156 44 C-155.34 43.67 -154.68 43.34 -154 43 C-153.34786708 40.97536745 -153.34786708 40.97536745 -153 39 C-151.35 39 -149.7 39 -148 39 C-146.56911472 41.86177057 -147.40008303 43.93375773 -148 47 C-146.68 44.03 -145.36 41.06 -144 38 C-142 41 -142 41 -142 43 C-141.34 43 -140.68 43 -140 43 C-140.33 40.36 -140.66 37.72 -141 35 C-138.525 34.505 -138.525 34.505 -136 34 C-136.020625 34.804375 -136.04125 35.60875 -136.0625 36.4375 C-136.29633621 38.93354885 -136.29633621 38.93354885 -135 40 C-134.67 38.35 -134.34 36.7 -134 35 C-130.37 35.66 -126.74 36.32 -123 37 C-122.67 37.99 -122.34 38.98 -122 40 C-123.125 42.1875 -123.125 42.1875 -125 44 C-127.6875 44.25 -127.6875 44.25 -130 44 C-130 44.66 -130 45.32 -130 46 C-125.38 46 -120.76 46 -116 46 C-116 44.68 -116 43.36 -116 42 C-113.03 42.495 -113.03 42.495 -110 43 C-109.67 44.32 -109.34 45.64 -109 47 C-107.4372038 46.85737588 -105.87477304 46.71074489 -104.3125 46.5625 C-103.44238281 46.48128906 -102.57226562 46.40007813 -101.67578125 46.31640625 C-99.00954871 46.05046679 -99.00954871 46.05046679 -96.48046875 45.41796875 C-91.36727797 44.55637597 -85.78425809 45.86851926 -81.4375 48.625 C-78.71448226 50.16106129 -77.72851979 50.08748227 -74.6875 49.9375 C-68.82905236 49.75229117 -64.94604455 51.76072624 -60.35546875 55.25 C-58.15202596 57.3866718 -57.0595316 59.34727855 -56.78125 62.3984375 C-57.17359521 68.93098518 -59.22075713 73.01488729 -63.6875 77.8125 C-66.67536853 79.34681087 -69.33099859 79.5533895 -72.65625 79.8125 C-75.24506204 79.98610473 -75.24506204 79.98610473 -78.75 80.625 C-86.43610828 81.58383041 -94.50805515 81.48052595 -101 77 C-101 77.66 -101 78.32 -101 79 C-96.38261907 81.36555476 -91.62929624 83.43627135 -86.8984375 85.5625 C-84 87 -84 87 -82 89 C-81.87625 90.093125 -81.7525 91.18625 -81.625 92.3125 C-80.92656605 96.43326029 -79.77760707 97.9698832 -77 101 C-76.34 101.99 -75.68 102.98 -75 104 C-72.25754676 104.70445681 -69.65872904 105.24758427 -66.875 105.6875 C-65.74384766 105.88182617 -65.74384766 105.88182617 -64.58984375 106.08007812 C-62.72848134 106.39815904 -60.86445565 106.70058286 -59 107 C-59 106.34 -59 105.68 -59 105 C-58.34 105 -57.68 105 -57 105 C-57 104.01 -57 103.02 -57 102 C-57.66 102 -58.32 102 -59 102 C-59 101.34 -59 100.68 -59 100 C-59.886875 100.268125 -60.77375 100.53625 -61.6875 100.8125 C-65 101 -65 101 -67.9375 98.8125 C-70 96 -70 96 -69.8125 93.6875 C-69.544375 93.130625 -69.27625 92.57375 -69 92 C-67.865625 92.165 -66.73125 92.33 -65.5625 92.5 C-61.02939706 93.07576084 -56.56252762 93.09505266 -52 93 C-51.67 91.35 -51.34 89.7 -51 88 C-52.98 86.35 -54.96 84.7 -57 83 C-56.0676763 77.86673541 -55.2824162 74.13869869 -52 70 C-51.27954633 66.84881675 -51.27954633 66.84881675 -51 64 C-46.97959015 63.30415983 -43.91736581 62.8299903 -40 64 C-40.72191449 60.21311522 -41.51815086 56.56741459 -43 53 C-43.99 52.67 -44.98 52.34 -46 52 C-46.99 51.67 -47.98 51.34 -49 51 C-49.96137188 48.22715424 -50.52533012 45.44521389 -51.14453125 42.578125 C-51.82963985 39.6446385 -51.82963985 39.6446385 -55.1875 37.8125 C-56.115625 37.544375 -57.04375 37.27625 -58 37 C-57.401875 36.71125 -56.80375 36.4225 -56.1875 36.125 C-53.80672208 34.95257974 -53.80672208 34.95257974 -51 33 C-46.14484351 32.46053817 -43.19941352 33.60033513 -39 36 C-39.41774084 38.42289685 -39.69612938 39.70879065 -41.5 41.4375 C-43.46573078 43.48513623 -43.62668561 45.23747349 -44 48 C-42.824375 47.938125 -42.824375 47.938125 -41.625 47.875 C-39 48 -39 48 -37 50 C-33.70285207 49.67028521 -32.3773161 49.3773161 -30 47 C-30.01735043 44.45628335 -30.01735043 44.45628335 -30.4375 41.625 C-30.88954168 38.09431652 -31.1063797 35.40797252 -30 32 C-29.34 32 -28.68 32 -28 32 C-27.74476563 31.14728516 -27.74476563 31.14728516 -27.484375 30.27734375 C-25.84932263 25.0677886 -23.86690828 20.64636859 -21 16 C-19.68 16.33 -18.36 16.66 -17 17 C-17 16.34 -17 15.68 -17 15 C-17.66 15 -18.32 15 -19 15 C-18.125 8.25 -18.125 8.25 -17 6 C-16.34 6 -15.68 6 -15 6 C-14.67 7.65 -14.34 9.3 -14 11 C-13.34 11 -12.68 11 -12 11 C-12 11.99 -12 12.98 -12 14 C-9.98567734 13.49743888 -9.98567734 13.49743888 -8 12 C-7.32215008 9.66989091 -6.65583207 7.33640176 -6 5 C-2.90322581 2 -2.90322581 2 0 2 C0 1.34 0 0.68 0 0 Z " fill="#257E2F" transform="translate(440,0)"/>
<path d="M0 0 C-0.25 2.3125 -0.25 2.3125 -1 5 C-2.31787285 6.02028865 -3.65210653 7.01971384 -5 8 C-6.26847685 10.58498512 -6.26847685 10.58498512 -7 13 C-6.34 12.67 -5.68 12.34 -5 12 C-2.95944995 11.92934383 -0.91665743 11.91578024 1.125 11.9375 C2.22070312 11.94652344 3.31640625 11.95554688 4.4453125 11.96484375 C5.28835937 11.97644531 6.13140625 11.98804688 7 12 C8.305239 15.91571701 7.32239848 17.03892997 5.5625 20.6875 C5.08941406 21.68136719 4.61632812 22.67523438 4.12890625 23.69921875 C3.75636719 24.45847656 3.38382813 25.21773437 3 26 C2.34 26 1.68 26 1 26 C1.33 26.99 1.66 27.98 2 29 C1.01 29.66 0.02 30.32 -1 31 C0.093125 31.4125 1.18625 31.825 2.3125 32.25 C5.5796319 33.68595716 7.35521898 34.71043796 9 38 C9.28798502 39.47592322 9.55691901 40.95562177 9.8125 42.4375 C10.76604612 47.4072531 13.10368739 48.81933665 17 52 C18.02509984 54.27709926 18.71753248 56.50303866 19.359375 58.9140625 C19.97468652 61.27184262 19.97468652 61.27184262 22 64 C21.65394389 66.28397032 21.03295481 67.93409037 20 70 C20.99 70 21.98 70 23 70 C23 69.34 23 68.68 23 68 C26.73487777 68.4979837 28.81237635 68.87491756 32 71 C31.25 78.625 31.25 78.625 29 82 C28.01 82 27.02 82 26 82 C26 82.99 26 83.98 26 85 C25.34 85 24.68 85 24 85 C24 85.66 24 86.32 24 87 C25.98 87 27.96 87 30 87 C28.53113762 90.87245536 26.68378216 92.19903983 23 94 C19.88671875 94.29296875 19.88671875 94.29296875 16.6875 94.1875 C15.08455078 94.14689453 15.08455078 94.14689453 13.44921875 94.10546875 C12.64097656 94.07066406 11.83273438 94.03585937 11 94 C11 94.66 11 95.32 11 96 C-0.52164009 96.18451025 -0.52164009 96.18451025 -6 95 C-6.33 96.32 -6.66 97.64 -7 99 C-9.16756792 99 -11.33850276 98.97461229 -13.5 98.8125 C-16.52738113 99.03955358 -17.7653341 100.01363031 -20 102 C-20.99 101.34 -21.98 100.68 -23 100 C-22.43410156 99.51789063 -21.86820313 99.03578125 -21.28515625 98.5390625 C-20.55167969 97.90742188 -19.81820312 97.27578125 -19.0625 96.625 C-18.33160156 95.99851562 -17.60070312 95.37203125 -16.84765625 94.7265625 C-14.91619094 93.12252286 -14.91619094 93.12252286 -14 91 C-13.34 91 -12.68 91 -12 91 C-11.67 90.01 -11.34 89.02 -11 88 C-9.906875 88.020625 -8.81375 88.04125 -7.6875 88.0625 C-4.05615809 88.18544452 -4.05615809 88.18544452 -1 87 C-1 86.34 -1 85.68 -1 85 C-1.886875 85.226875 -2.77375 85.45375 -3.6875 85.6875 C-7.66760239 86.06298136 -8.72330964 85.10044254 -12 83 C-14.70953551 82.74803871 -14.70953551 82.74803871 -17 83 C-17.33 81.68 -17.66 80.36 -18 79 C-16.865625 78.46375 -15.73125 77.9275 -14.5625 77.375 C-11.45370668 75.63257149 -11.10881846 75.37723731 -10.0625 71.75 C-10.041875 70.8425 -10.02125 69.935 -10 69 C-11.98 69.495 -11.98 69.495 -14 70 C-13.67 67.69 -13.34 65.38 -13 63 C-9.7 63 -6.4 63 -3 63 C-2.34 60.03 -1.68 57.06 -1 54 C-1.99 54 -2.98 54 -4 54 C-5.125 51.75 -5.125 51.75 -6 49 C-5.0546875 46.828125 -5.0546875 46.828125 -4 45 C-4.69867188 45.15597656 -5.39734375 45.31195313 -6.1171875 45.47265625 C-7.48230469 45.76462891 -7.48230469 45.76462891 -8.875 46.0625 C-10.23238281 46.35833984 -10.23238281 46.35833984 -11.6171875 46.66015625 C-14 47 -14 47 -16 46 C-16 45.01 -16 44.02 -16 43 C-15.34 43 -14.68 43 -14 43 C-13.4254048 39.26513121 -13 35.78706732 -13 32 C-13.99 32 -14.98 32 -16 32 C-16.33 32.99 -16.66 33.98 -17 35 C-16.34 35 -15.68 35 -15 35 C-15 35.99 -15 36.98 -15 38 C-16.98 38.495 -16.98 38.495 -19 39 C-18.85795259 37.41632253 -18.71119847 35.83306682 -18.5625 34.25 C-18.44068359 32.92742187 -18.44068359 32.92742187 -18.31640625 31.578125 C-18.03761535 29.30649548 -17.61209423 27.20148177 -17 25 C-17.66 25 -18.32 25 -19 25 C-19 25.99 -19 26.98 -19 28 C-19.99 28 -20.98 28 -22 28 C-21.67 26.02 -21.34 24.04 -21 22 C-20.34 22 -19.68 22 -19 22 C-18.22689438 17.11608713 -18.22689438 17.11608713 -18.125 12.1875 C-18.08375 11.465625 -18.0425 10.74375 -18 10 C-17.01 9.34 -16.02 8.68 -15 8 C-15 6.68 -15 5.36 -15 4 C-14.34 4 -13.68 4 -13 4 C-13 3.01 -13 2.02 -13 1 C-11.58366664 0.83052421 -10.16691467 0.66454493 -8.75 0.5 C-7.56664062 0.36078125 -7.56664062 0.36078125 -6.359375 0.21875 C-4 0 -4 0 0 0 Z " fill="#257D30" transform="translate(156,214)"/>
<path d="M0 0 C2.61071393 0.36009847 3.78677793 0.78275488 5.65625 2.6875 C7.39355691 5.67728398 7.13191837 7.35625975 6.6875 10.75 C6.56761719 11.73484375 6.44773437 12.7196875 6.32421875 13.734375 C6.21722656 14.48203125 6.11023438 15.2296875 6 16 C6.66 16 7.32 16 8 16 C8.33 15.01 8.66 14.02 9 13 C9.99 13 10.98 13 12 13 C12.33 11.35 12.66 9.7 13 8 C13.66 8 14.32 8 15 8 C15.66 8.66 16.32 9.32 17 10 C18.32 9.34 19.64 8.68 21 8 C21.99 9.485 21.99 9.485 23 11 C23.66 10.34 24.32 9.68 25 9 C25.66 9.33 26.32 9.66 27 10 C27 10.66 27 11.32 27 12 C27.66 12 28.32 12 29 12 C29 11.34 29 10.68 29 10 C31.475 10.495 31.475 10.495 34 11 C34 9.68 34 8.36 34 7 C35.32 7.33 36.64 7.66 38 8 C38 8.99 38 9.98 38 11 C38.99 11 39.98 11 41 11 C41 11.99 41 12.98 41 14 C41.66 14 42.32 14 43 14 C43.495 16.97 43.495 16.97 44 20 C44.99 20.33 45.98 20.66 47 21 C47 23.31 47 25.62 47 28 C46.34 28 45.68 28 45 28 C45 28.99 45 29.98 45 31 C43.68 31.33 42.36 31.66 41 32 C41 32.99 41 33.98 41 35 C40.30132812 35.19335938 39.60265625 35.38671875 38.8828125 35.5859375 C37.51769531 35.97652344 37.51769531 35.97652344 36.125 36.375 C35.22007813 36.63023437 34.31515625 36.88546875 33.3828125 37.1484375 C30.85430274 37.8604315 30.85430274 37.8604315 29 40 C26.98704118 40.22726954 24.97360508 40.45195753 22.95703125 40.64453125 C20.41572357 41.10612606 19.02880765 42.46090455 17 44 C12.36804251 44.12866549 9.32853028 41.21344713 5.8671875 38.47265625 C2.04802709 35.46047325 -1.32381933 34.23521754 -6 33 C-5.67 32.01 -5.34 31.02 -5 30 C-3.68 30 -2.36 30 -1 30 C-1 27.36 -1 24.72 -1 22 C-5.455 21.01 -5.455 21.01 -10 20 C-10 19.34 -10 18.68 -10 18 C-9.04287109 17.92652344 -9.04287109 17.92652344 -8.06640625 17.8515625 C-7.24011719 17.77679688 -6.41382813 17.70203125 -5.5625 17.625 C-4.73878906 17.55539063 -3.91507813 17.48578125 -3.06640625 17.4140625 C-2.38449219 17.27742188 -1.70257813 17.14078125 -1 17 C-0.67 16.34 -0.34 15.68 0 15 C0.99 15 1.98 15 3 15 C3 14.34 3 13.68 3 13 C2.39671875 12.95101562 1.7934375 12.90203125 1.171875 12.8515625 C0.37265625 12.77679688 -0.4265625 12.70203125 -1.25 12.625 C-2.43335938 12.52058594 -2.43335938 12.52058594 -3.640625 12.4140625 C-6.085877 11.98492887 -7.84836903 11.21399362 -10 10 C-9.01 9.67 -8.02 9.34 -7 9 C-5.88214887 6.88214887 -5.88214887 6.88214887 -5 4 C-4.01 3.67 -3.02 3.34 -2 3 C-1.67 3.99 -1.34 4.98 -1 6 C-0.34 5.67 0.32 5.34 1 5 C0.67 3.35 0.34 1.7 0 0 Z " fill="#257D30" transform="translate(55,101)"/>
<path d="M0 0 C2.60091029 2.91617214 2.96696766 4.41642864 3.1875 8.3125 C3.0946875 9.6428125 3.0946875 9.6428125 3 11 C2.34 11 1.68 11 1 11 C1 11.66 1 12.32 1 13 C0.01 13.66 -0.98 14.32 -2 15 C-1.505 16.485 -1.505 16.485 -1 18 C-0.43689838 24.1941178 -0.33633745 29.82777052 -4 35 C-7.28590609 36.22080539 -10.531913 36.60997198 -14 37 C-15.66945178 37.31909189 -17.33710205 37.64834775 -19 38 C-19 38.66 -19 39.32 -19 40 C-22.67410785 41.17571451 -26.16929183 41.07366746 -30 41 C-30.495 39.515 -30.495 39.515 -31 38 C-31.99 37.34 -32.98 36.68 -34 36 C-33.01 35.34 -32.02 34.68 -31 34 C-31.66 33.34 -32.32 32.68 -33 32 C-31.68 32 -30.36 32 -29 32 C-28.34 30.02 -27.68 28.04 -27 26 C-26.34 26 -25.68 26 -25 26 C-24.67 24.68 -24.34 23.36 -24 22 C-25.65 21.01 -27.3 20.02 -29 19 C-28.835 18.38125 -28.67 17.7625 -28.5 17.125 C-27.92365356 15.03936614 -27.92365356 15.03936614 -28 13 C-28.66 12.34 -29.32 11.68 -30 11 C-29.34 11 -28.68 11 -28 11 C-28 10.01 -28 9.02 -28 8 C-27.31292969 8.01160156 -26.62585938 8.02320313 -25.91796875 8.03515625 C-25.01691406 8.04417969 -24.11585937 8.05320312 -23.1875 8.0625 C-21.84751953 8.07990234 -21.84751953 8.07990234 -20.48046875 8.09765625 C-17.86586209 8.11009967 -17.86586209 8.11009967 -15 7 C-15 6.34 -15 5.68 -15 5 C-15.99 5 -16.98 5 -18 5 C-18 4.34 -18 3.68 -18 3 C-17.34 3 -16.68 3 -16 3 C-15.95875 2.38125 -15.9175 1.7625 -15.875 1.125 C-15 -1 -15 -1 -12.5 -2.4375 C-7.72632624 -3.20469757 -4.2564955 -2.23674665 0 0 Z " fill="#257D31" transform="translate(134,255)"/>
<path d="M0 0 C0.66 0.33 1.32 0.66 2 1 C2.625 3.0625 2.625 3.0625 3 5 C3.515625 5.0825 4.03125 5.165 4.5625 5.25 C7 6 7 6 10.375 8.0625 C13.72028686 10.03242267 16.07089647 10.52388047 20 10 C22.30230766 9.10168984 22.30230766 9.10168984 24 8 C25.4606285 10.64738916 26 11.89448334 26 15 C26.99 15 27.98 15 29 15 C29.66 16.98 30.32 18.96 31 21 C30.34 21.66 29.68 22.32 29 23 C29 22.01 29 21.02 29 20 C28.360625 20.185625 27.72125 20.37125 27.0625 20.5625 C26.381875 20.706875 25.70125 20.85125 25 21 C24.67 20.67 24.34 20.34 24 20 C22.14894929 19.95512088 22.14894929 19.95512088 19.96484375 20.12109375 C18.75151367 20.19360352 18.75151367 20.19360352 17.51367188 20.26757812 C16.66353516 20.32365234 15.81339844 20.37972656 14.9375 20.4375 C13.65649414 20.51581055 13.65649414 20.51581055 12.34960938 20.59570312 C10.23278005 20.72578761 8.11634756 20.86229971 6 21 C6 21.66 6 22.32 6 23 C4.68 22.67 3.36 22.34 2 22 C2 23.32 2 24.64 2 26 C3.29735507 27.04625409 4.63266972 28.04701223 6 29 C6.33 29.99 6.66 30.98 7 32 C9.00016466 33.20882096 9.00016466 33.20882096 11 34 C11 34.66 11 35.32 11 36 C11.70125 36.226875 12.4025 36.45375 13.125 36.6875 C17.46067931 38.66683186 20.63121688 41.63121688 24 45 C21.1875 45.1875 21.1875 45.1875 18 45 C16.97980427 44.0206121 15.97850195 43.02104551 15 42 C12.37429296 41.74930087 12.37429296 41.74930087 10 42 C10 41.01 10 40.02 10 39 C7.525 39.495 7.525 39.495 5 40 C5 39.34 5 38.68 5 38 C2.98177083 37.83723958 0.96354167 37.67447917 -1.0546875 37.51171875 C-3 37 -3 37 -5 34 C-4.34 34 -3.68 34 -3 34 C-3.474375 33.46375 -3.94875 32.9275 -4.4375 32.375 C-6.28186076 29.57157164 -6.62456847 27.30379742 -7 24 C-7.99 26.475 -7.99 26.475 -9 29 C-9.66 28.67 -10.32 28.34 -11 28 C-10.67 26.35 -10.34 24.7 -10 23 C-10.66 22.67 -11.32 22.34 -12 22 C-12.33 23.98 -12.66 25.96 -13 28 C-13.99 27.67 -14.98 27.34 -16 27 C-17.3125 24.1875 -17.3125 24.1875 -18 21 C-17.125 18.625 -17.125 18.625 -16 17 C-15.67 17.99 -15.34 18.98 -15 20 C-14.46375 19.67 -13.9275 19.34 -13.375 19 C-10.4608939 17.77300796 -8.13132292 17.85766714 -5 18 C-5 17.01 -5 16.02 -5 15 C-4.34 14.34 -3.68 13.68 -3 13 C-2.64587656 11.67203709 -2.31478446 10.33783393 -2 9 C-1.36345658 7.6520257 -0.70394612 6.31403276 0 5 C-1.32 4.67 -2.64 4.34 -4 4 C-2.68 2.68 -1.36 1.36 0 0 Z " fill="#247638" transform="translate(302,340)"/>
<path d="M0 0 C0.66 0.33 1.32 0.66 2 1 C2 4.63 2 8.26 2 12 C3.32 12.33 4.64 12.66 6 13 C5.67 14.32 5.34 15.64 5 17 C4.01 17 3.02 17 2 17 C1.855625 17.94875 1.71125 18.8975 1.5625 19.875 C1 23 1 23 0 25 C0.78375 24.79375 1.5675 24.5875 2.375 24.375 C3.674375 24.189375 3.674375 24.189375 5 24 C7 26 7 26 7.875 28.5625 C8.7409707 31.18447843 8.7409707 31.18447843 11.125 31.8125 C12.053125 31.9053125 12.053125 31.9053125 13 32 C13 30.68 13 29.36 13 28 C11.68 28 10.36 28 9 28 C9 26.68 9 25.36 9 24 C8.34 23.34 7.68 22.68 7 22 C9.12669835 19.66063182 11.06224856 18.19346152 14 17 C14.99 17 15.98 17 17 17 C17.95585284 20.7172055 17.90395705 23.28373213 17 27 C17 27.66 17 28.32 17 29 C17.66 29.33 18.32 29.66 19 30 C18.01 30.33 17.02 30.66 16 31 C16 31.66 16 32.32 16 33 C15.195625 33.2475 14.39125 33.495 13.5625 33.75 C10.828919 34.72238859 10.828919 34.72238859 10.1875 37.125 C10.0946875 38.053125 10.0946875 38.053125 10 39 C7.36 38.67 4.72 38.34 2 38 C2 37.01 2 36.02 2 35 C0.54119891 35.14107747 -0.91703551 35.28802415 -2.375 35.4375 C-3.18710938 35.51871094 -3.99921875 35.59992188 -4.8359375 35.68359375 C-7.04272805 35.89090114 -7.04272805 35.89090114 -9 37 C-9.84454356 33.62182575 -10.10844919 31.32534757 -9 28 C-9.99 27.34 -10.98 26.68 -12 26 C-12.29296875 23.1796875 -12.29296875 23.1796875 -12.1875 19.875 C-12.16042969 18.77929688 -12.13335937 17.68359375 -12.10546875 16.5546875 C-12.07066406 15.71164063 -12.03585938 14.86859375 -12 14 C-10.68 14 -9.36 14 -8 14 C-8 13.01 -8 12.02 -8 11 C-8.99 11.66 -9.98 12.32 -11 13 C-11.33 12.01 -11.66 11.02 -12 10 C-11.34 9.01 -10.68 8.02 -10 7 C-9.195625 6.87625 -8.39125 6.7525 -7.5625 6.625 C-4.75755751 6.24524529 -4.75755751 6.24524529 -3.3125 3.5 C-2.6628125 2.2625 -2.6628125 2.2625 -2 1 C-1.34 0.67 -0.68 0.34 0 0 Z " fill="#257C31" transform="translate(242,223)"/>
<path d="M0 0 C0.56074219 0.31195313 1.12148438 0.62390625 1.69921875 0.9453125 C1.69921875 2.5953125 1.69921875 4.2453125 1.69921875 5.9453125 C3.34921875 5.9453125 4.99921875 5.9453125 6.69921875 5.9453125 C6.82296875 6.8734375 6.82296875 6.8734375 6.94921875 7.8203125 C7.49869958 10.10883879 7.49869958 10.10883879 9.63671875 11.0703125 C10.65765625 11.5034375 10.65765625 11.5034375 11.69921875 11.9453125 C13.69921875 13.9453125 13.69921875 13.9453125 13.69921875 16.9453125 C11.71921875 16.9453125 9.73921875 16.9453125 7.69921875 16.9453125 C7.50005859 17.85023438 7.50005859 17.85023438 7.296875 18.7734375 C7.12027344 19.57265625 6.94367188 20.371875 6.76171875 21.1953125 C6.50068359 22.37867188 6.50068359 22.37867188 6.234375 23.5859375 C5.75166275 25.71409953 5.23758697 27.83064092 4.69921875 29.9453125 C7.56646561 29.37186313 8.56067025 29.083861 10.69921875 26.9453125 C12.01921875 26.9453125 13.33921875 26.9453125 14.69921875 26.9453125 C14.69921875 27.6053125 14.69921875 28.2653125 14.69921875 28.9453125 C13.49265625 29.409375 13.49265625 29.409375 12.26171875 29.8828125 C9.8084147 30.70866595 9.8084147 30.70866595 8.69921875 31.9453125 C5.82421875 32.3203125 5.82421875 32.3203125 2.69921875 31.9453125 C0.0850216 29.0510228 -0.49189242 26.16939804 -1.17578125 22.4453125 C-2.24235769 17.16488486 -4.83225023 14.93756224 -8.9609375 11.60546875 C-10.42743494 10.40938928 -11.86631284 9.17962252 -13.30078125 7.9453125 C-13.30078125 7.2853125 -13.30078125 6.6253125 -13.30078125 5.9453125 C-13.96078125 5.9453125 -14.62078125 5.9453125 -15.30078125 5.9453125 C-15.30078125 5.2853125 -15.30078125 4.6253125 -15.30078125 3.9453125 C-17.28569767 4.21207454 -17.28569767 4.21207454 -19.30078125 4.9453125 C-19.63078125 5.9353125 -19.96078125 6.9253125 -20.30078125 7.9453125 C-20.96078125 7.6153125 -21.62078125 7.2853125 -22.30078125 6.9453125 C-20.45000375 3.02601897 -18.27219479 0.64352645 -14.40234375 -1.3984375 C-9.67807443 -2.87367402 -4.44107658 -2.0358076 0 0 Z " fill="#247836" transform="translate(396.30078125,304.0546875)"/>
<path d="M0 0 C0.309375 0.639375 0.61875 1.27875 0.9375 1.9375 C1.8345163 3.93610821 1.8345163 3.93610821 3 5 C5.22145633 5.28387779 7.44317648 5.44765173 9.67578125 5.62109375 C12.12054437 6.01965177 13.85466592 6.78741987 16 8 C15.67 6.02 15.34 4.04 15 2 C15.66 2.33 16.32 2.66 17 3 C17 7.29 17 11.58 17 16 C17.66 16 18.32 16 19 16 C18.979375 16.9075 18.95875 17.815 18.9375 18.75 C18.9889755 21.42672588 19.2215017 23.46988052 20 26 C19.34 26 18.68 26 18 26 C17.34 24.68 16.68 23.36 16 22 C16 23.65 16 25.3 16 27 C17.65 27 19.3 27 21 27 C21 27.66 21 28.32 21 29 C19.02 28.67 17.04 28.34 15 28 C15 27.34 15 26.68 15 26 C13.88625 25.87625 12.7725 25.7525 11.625 25.625 C8 25 8 25 6 23 C4.68 23 3.36 23 2 23 C1.67 22.01 1.34 21.02 1 20 C-0.98320018 18.96708324 -2.98347806 17.9662501 -5 17 C-5.33 16.34 -5.66 15.68 -6 15 C-8.02463255 14.34786708 -8.02463255 14.34786708 -10 14 C-10.33 12.68 -10.66 11.36 -11 10 C-9.906875 9.4225 -8.81375 8.845 -7.6875 8.25 C-3.92826372 6.10837448 -1.93526657 3.87053314 0 0 Z " fill="#247737" transform="translate(204,294)"/>
<path d="M0 0 C2.49212859 1.40182233 3.5037894 2.96162615 4.5390625 5.60546875 C5.58613257 11.32886021 4.61428381 17.37441545 4 23.125 C2.68 23.125 1.36 23.125 0 23.125 C-0.33 24.115 -0.66 25.105 -1 26.125 C-2.32 26.125 -3.64 26.125 -5 26.125 C-6.92393527 22.27712946 -6.8813393 17.6438647 -7.40234375 13.41015625 C-7.79886073 9.99682588 -7.79886073 9.99682588 -10 7.125 C-9.67 6.135 -9.34 5.145 -9 4.125 C-7.67203709 3.77087656 -6.33783393 3.43978446 -5 3.125 C-4.505 2.58875 -4.01 2.0525 -3.5 1.5 C-2 0.125 -2 0.125 0 0 Z " fill="#257D31" transform="translate(256,413.875)"/>
<path d="M0 0 C0.95585284 3.7172055 0.90395705 6.28373213 0 10 C0 10.66 0 11.32 0 12 C0.66 12.33 1.32 12.66 2 13 C1.01 13.33 0.02 13.66 -1 14 C-1 14.66 -1 15.32 -1 16 C-1.804375 16.2475 -2.60875 16.495 -3.4375 16.75 C-6.171081 17.72238859 -6.171081 17.72238859 -6.8125 20.125 C-6.874375 20.74375 -6.93625 21.3625 -7 22 C-9.64 21.67 -12.28 21.34 -15 21 C-15 19.68 -15 18.36 -15 17 C-15.66 16.67 -16.32 16.34 -17 16 C-17 15.67 -17 15.34 -17 15 C-17.66 15 -18.32 15 -19 15 C-18.34 12.69 -17.68 10.38 -17 8 C-14.625 7.375 -14.625 7.375 -12 7 C-10 9 -10 9 -9.125 11.5625 C-8.2590293 14.18447843 -8.2590293 14.18447843 -5.875 14.8125 C-5.25625 14.874375 -4.6375 14.93625 -4 15 C-4 13.68 -4 12.36 -4 11 C-5.32 11 -6.64 11 -8 11 C-8 9.68 -8 8.36 -8 7 C-8.66 6.34 -9.32 5.68 -10 5 C-6.99385784 1.69324363 -4.54252119 0 0 0 Z " fill="#17397F" transform="translate(259,240)"/>
<path d="M0 0 C2.0078125 0.23046875 2.0078125 0.23046875 5.0078125 2.23046875 C5.6953125 5.85546875 5.6953125 5.85546875 6.0078125 9.23046875 C-1.66420843 11.35935414 -9.03819942 12.7764025 -16.9921875 13.23046875 C-16.3321875 10.92046875 -15.6721875 8.61046875 -14.9921875 6.23046875 C-12.6821875 6.56046875 -10.3721875 6.89046875 -7.9921875 7.23046875 C-7.8478125 6.26109375 -7.7034375 5.29171875 -7.5546875 4.29296875 C-6.60955637 -0.8527452 -4.91387457 0.09972808 0 0 Z " fill="#247638" transform="translate(325.9921875,237.76953125)"/>
<path d="M0 0 C0.95585284 3.7172055 0.90395705 6.28373213 0 10 C0 10.66 0 11.32 0 12 C0.66 12.33 1.32 12.66 2 13 C1.01 13.33 0.02 13.66 -1 14 C-1 14.66 -1 15.32 -1 16 C-3.375 17.0625 -3.375 17.0625 -6 18 C-6.66 17.67 -7.32 17.34 -8 17 C-8 16.01 -8 15.02 -8 14 C-6.68 14.33 -5.36 14.66 -4 15 C-4 13.68 -4 12.36 -4 11 C-5.32 11 -6.64 11 -8 11 C-8 9.68 -8 8.36 -8 7 C-8.66 6.34 -9.32 5.68 -10 5 C-6.99385784 1.69324363 -4.54252119 0 0 0 Z " fill="#23753A" transform="translate(259,240)"/>
<path d="M0 0 C0.33 0 0.66 0 1 0 C1.33 1.98 1.66 3.96 2 6 C2.99 6 3.98 6 5 6 C5.33 7.32 5.66 8.64 6 10 C7.32 10.33 8.64 10.66 10 11 C8.35 11.33 6.7 11.66 5 12 C4.67 11.34 4.34 10.68 4 10 C3.608125 10.598125 3.21625 11.19625 2.8125 11.8125 C0.36139844 14.77072602 -2.2671018 16.63241553 -6.0625 17.4375 C-8.79412711 18.23055303 -10.12661299 19.92589295 -12 22 C-11.38722388 19.03824877 -10.74627478 17.61941217 -9 15 C-7.68 15 -6.36 15 -5 15 C-5 14.34 -5 13.68 -5 13 C-3.68 12.67 -2.36 12.34 -1 12 C-1 11.34 -1 10.68 -1 10 C-2.65 10 -4.3 10 -6 10 C-4.25 6.125 -4.25 6.125 -2 5 C-1.27840576 3.35636866 -0.60648579 1.68949614 0 0 Z " fill="#23713E" transform="translate(252,71)"/>
<path d="M0 0 C0.33 0.66 0.66 1.32 1 2 C0.06553465 4.03144641 -0.93224776 6.03533587 -2 8 C-1.34 8.33 -0.68 8.66 0 9 C-1.21807138 10.15762119 -2.45001235 11.3006583 -3.6875 12.4375 C-4.71423828 13.39462891 -4.71423828 13.39462891 -5.76171875 14.37109375 C-8.22289422 16.16221098 -10.00816574 16.62798558 -13 17 C-13.66 15.68 -14.32 14.36 -15 13 C-12.1385854 8.92798692 -9.60432758 6.90178748 -5 5 C-4.34 5 -3.68 5 -3 5 C-3 4.34 -3 3.68 -3 3 C-2.34 3 -1.68 3 -1 3 C-0.67 2.01 -0.34 1.02 0 0 Z " fill="#247836" transform="translate(487,421)"/>
<path d="M0 0 C0.66 0 1.32 0 2 0 C2 0.99 2 1.98 2 3 C-0.05590454 3.86992154 -2.12005336 4.72037689 -4.1875 5.5625 C-5.33605469 6.03816406 -6.48460937 6.51382812 -7.66796875 7.00390625 C-11.1462874 8.04373187 -12.58879688 7.95513687 -16 7 C-17.43628457 6.93733488 -18.8750555 6.91313653 -20.3125 6.9375 C-21.529375 6.958125 -22.74625 6.97875 -24 7 C-23.67 5.68 -23.34 4.36 -23 3 C-19.846632 2.29925156 -17.27275026 2 -14 2 C-12.31088658 1.85056816 -10.62329899 1.68307319 -8.9375 1.5 C-6.25264193 1.2093086 -3.70418697 1 -1 1 C-0.67 0.67 -0.34 0.34 0 0 Z " fill="#247638" transform="translate(416,450)"/>
<path d="M0 0 C0.66 0 1.32 0 2 0 C2.94482476 3.22307155 3.19523408 6.20808753 3.25 9.5625 C3.28867187 10.98755859 3.28867187 10.98755859 3.328125 12.44140625 C2.95193763 15.37477202 2.28811367 16.21165852 0 18 C-2.73569502 16.63215249 -3.33631214 14.66237461 -4.46875 11.921875 C-5.25126587 9.09100878 -4.74933629 6.79298073 -4 4 C-2.35 3.67 -0.7 3.34 1 3 C0.67 2.01 0.34 1.02 0 0 Z " fill="#247A34" transform="translate(253,394)"/>
<path d="M0 0 C0.309375 0.639375 0.61875 1.27875 0.9375 1.9375 C1.8345163 3.93610821 1.8345163 3.93610821 3 5 C5.22145633 5.28387779 7.44317648 5.44765173 9.67578125 5.62109375 C12.12054437 6.01965177 13.85466592 6.78741987 16 8 C15.67 6.02 15.34 4.04 15 2 C15.66 2.33 16.32 2.66 17 3 C17 6.63 17 10.26 17 14 C15.68 13.67 14.36 13.34 13 13 C12.9175 12.38125 12.835 11.7625 12.75 11.125 C12.17787812 8.89459074 12.17787812 8.89459074 10.3125 7.6875 C6.47240292 6.54584952 3.10837302 7.71646272 -0.6875 8.6875 C-3 9 -3 9 -6 7 C-5.195625 6.21625 -4.39125 5.4325 -3.5625 4.625 C-1.01309583 2.28017144 -1.01309583 2.28017144 0 0 Z " fill="#206250" transform="translate(204,294)"/>
<path d="M0 0 C2.97 0 5.94 0 9 0 C8.34 2.97 7.68 5.94 7 9 C4.625 9.1875 4.625 9.1875 2 9 C-0.29013653 5.5647952 -0.17842973 4.014669 0 0 Z " fill="#257C31" transform="translate(399,13)"/>
<path d="M0 0 C0.2226746 1.43534841 0.42761906 2.87345525 0.625 4.3125 C0.74101562 5.11300781 0.85703125 5.91351563 0.9765625 6.73828125 C1 9 1 9 -1 12 C-1 9.69 -1 7.38 -1 5 C-1.66 5 -2.32 5 -3 5 C-3 6.65 -3 8.3 -3 10 C-3.66 9.34 -4.32 8.68 -5 8 C-5.33 8.99 -5.66 9.98 -6 11 C-6.66 11 -7.32 11 -8 11 C-7.835 10.401875 -7.67 9.80375 -7.5 9.1875 C-6.8885876 6.88655664 -6.8885876 6.88655664 -7 4 C-7.66 3.67 -8.32 3.34 -9 3 C-9 2.34 -9 1.68 -9 1 C-6.04335481 -0.4783226 -3.25770263 -0.06032783 0 0 Z " fill="#1C4E67" transform="translate(273,54)"/>
<path d="M0 0 C0.12375 0.556875 0.2475 1.11375 0.375 1.6875 C1.05976855 4.22114364 1.99133763 6.57921032 3 9 C2.01 9.495 2.01 9.495 1 10 C-0.13350534 12.01669827 -0.13350534 12.01669827 -1 14 C-1 12.35 -1 10.7 -1 9 C-6.27326077 8.10622699 -9.05586231 7.80260547 -14 10 C-16.3125 9.625 -16.3125 9.625 -18 9 C-12.37062068 6.29789792 -8.29732025 4.853106 -2.125 7 C-1.42375 7.33 -0.7225 7.66 0 8 C-0.185625 6.865625 -0.37125 5.73125 -0.5625 4.5625 C-0.706875 3.386875 -0.85125 2.21125 -1 1 C-0.67 0.67 -0.34 0.34 0 0 Z " fill="#20634F" transform="translate(345,298)"/>
<path d="M0 0 C0 0.66 0 1.32 0 2 C0.66 2 1.32 2 2 2 C2.625 4.8125 2.625 4.8125 3 8 C2.01 9.485 2.01 9.485 1 11 C0.34 11 -0.32 11 -1 11 C-1 10.34 -1 9.68 -1 9 C-1.66 9 -2.32 9 -3 9 C-2.67 7.35 -2.34 5.7 -2 4 C-2.99 3.67 -3.98 3.34 -5 3 C-2.25 0 -2.25 0 0 0 Z " fill="#194275" transform="translate(136,225)"/>
<path d="M0 0 C0.99 0 1.98 0 3 0 C3.0825 0.61875 3.165 1.2375 3.25 1.875 C3.80607909 4.17381462 3.80607909 4.17381462 6 5.1875 C6.66 5.455625 7.32 5.72375 8 6 C8.33 6.33 8.66 6.66 9 7 C11.67058851 7.14115161 14.32432238 7.04247107 17 7 C17 7.33 17 7.66 17 8 C13.37 8.66 9.74 9.32 6 10 C5.67 9.34 5.34 8.68 5 8 C5.33 7.34 5.66 6.68 6 6 C5.34 6 4.68 6 4 6 C4.33 8.64 4.66 11.28 5 14 C4.34 14 3.68 14 3 14 C2.814375 12.4840625 2.814375 12.4840625 2.625 10.9375 C2.01914665 7.12062388 1.12806088 3.68499888 0 0 Z " fill="#1F6052" transform="translate(356,355)"/>
<path d="M0 0 C-2.67907165 2.67907165 -4.45336776 2.38904821 -8.1875 2.75 C-14.66309629 3.6258567 -17.57888788 5.27043819 -22 10 C-21.42168179 7.12045724 -21.08358112 6.08880494 -19 3.875 C-13.14021714 0.21263571 -6.78291194 -0.28863455 0 0 Z " fill="#216A47" transform="translate(337,221)"/>
<path d="M0 0 C0 0.66 0 1.32 0 2 C0.66 2 1.32 2 2 2 C1.67 3.65 1.34 5.3 1 7 C-1.76276177 6.47731534 -4.3260876 5.89130413 -7 5 C-7 4.34 -7 3.68 -7 3 C-4.4385343 0.70351351 -3.52032428 0 0 0 Z " fill="#247836" transform="translate(203,432)"/>
<path d="M0 0 C1.57156655 3.1431331 0.11705576 5.365464 -0.9375 8.625 C-1.31777344 9.81351563 -1.69804687 11.00203125 -2.08984375 12.2265625 C-2.39019531 13.14179688 -2.69054687 14.05703125 -3 15 C-4.91497928 11.42383387 -5.58650534 9.1055374 -5 5 C-2.5 2.125 -2.5 2.125 0 0 Z " fill="#23733C" transform="translate(298,209)"/>
<path d="M0 0 C-0.25 1.875 -0.25 1.875 -1 4 C-2.33333333 4.66666667 -3.66666667 5.33333333 -5 6 C-5.80528889 8.05000871 -5.80528889 8.05000871 -6 10 C-6 9.01 -6 8.02 -6 7 C-6.66 7 -7.32 7 -8 7 C-8 5.68 -8 4.36 -8 3 C-2.25 0 -2.25 0 0 0 Z " fill="#247836" transform="translate(322,196)"/>
<path d="M0 0 C0.99 0 1.98 0 3 0 C3.33 0.66 3.66 1.32 4 2 C4.99 2 5.98 2 7 2 C3.85714286 10.57142857 3.85714286 10.57142857 2 14 C0.875 7.375 0.875 7.375 2 4 C1.12516085 1.83284443 1.12516085 1.83284443 0 0 Z " fill="#1B4B6A" transform="translate(290,36)"/>
<path d="M0 0 C2 3 2 3 3 5 C3.66 4.34 4.32 3.68 5 3 C5 4.32 5 5.64 5 7 C7.86724686 6.42655063 8.8614515 6.1385485 11 4 C12.32 4 13.64 4 15 4 C15 4.66 15 5.32 15 6 C13.7934375 6.4640625 13.7934375 6.4640625 12.5625 6.9375 C10.10919595 7.76335345 10.10919595 7.76335345 9 9 C6.125 9.375 6.125 9.375 3 9 C0.29638531 5.75566237 0 4.29107948 0 0 Z " fill="#20634E" transform="translate(396,327)"/>
<path d="M0 0 C-0.33 1.65 -0.66 3.3 -1 5 C-2.65 4.67 -4.3 4.34 -6 4 C-6.33 2.35 -6.66 0.7 -7 -1 C-3.51418144 -2.2020064 -3.32007656 -2.21338437 0 0 Z " fill="#23733C" transform="translate(249,249)"/>
<path d="M0 0 C0.66 0 1.32 0 2 0 C2 0.66 2 1.32 2 2 C2.61875 2.061875 3.2375 2.12375 3.875 2.1875 C6 3 6 3 7.25 5.5625 C7.4975 6.366875 7.745 7.17125 8 8 C7.01 8 6.02 8 5 8 C5 7.34 5 6.68 5 6 C3.02 6 1.04 6 -1 6 C-0.67 4.02 -0.34 2.04 0 0 Z " fill="#1D565D" transform="translate(376,414)"/>
<path d="M0 0 C3.3 0 6.6 0 10 0 C8.75 2.5 8.75 2.5 7 5 C5.68 5 4.36 5 3 5 C3 4.34 3 3.68 3 3 C2.01 2.67 1.02 2.34 0 2 C0 1.34 0 0.68 0 0 Z " fill="#20644E" transform="translate(314,46)"/>
<path d="M0 0 C0.33 0 0.66 0 1 0 C1.25 5.625 1.25 5.625 -1 9 C-1.24107326 11.28648848 -1.24107326 11.28648848 -1.125 13.6875 C-1.10695312 14.49574219 -1.08890625 15.30398437 -1.0703125 16.13671875 C-1.04710937 16.75160156 -1.02390625 17.36648437 -1 18 C-1.99 18.33 -2.98 18.66 -4 19 C-4.33294453 13.33994304 -4.3282309 9.7926525 -1 5 C-0.29329272 2.30745009 -0.29329272 2.30745009 0 0 Z " fill="#216849" transform="translate(251,188)"/>
<path d="M0 0 C1.32 0.66 2.64 1.32 4 2 C3.34 2 2.68 2 2 2 C2.33 2.99 2.66 3.98 3 5 C2.01 5.33 1.02 5.66 0 6 C0 6.99 0 7.98 0 9 C-2.31 9 -4.62 9 -7 9 C-7.33 9.66 -7.66 10.32 -8 11 C-7.67 9.68 -7.34 8.36 -7 7 C-5.02 7 -3.04 7 -1 7 C-1 6.01 -1 5.02 -1 4 C-0.34 4 0.32 4 1 4 C0.67 2.68 0.34 1.36 0 0 Z " fill="#206250" transform="translate(256,347)"/>
<path d="M0 0 C0.99 0.66 1.98 1.32 3 2 C3 2.99 3 3.98 3 5 C1.02 5 -0.96 5 -3 5 C-3.66 7.97 -4.32 10.94 -5 14 C-6.06546953 10.8035914 -6.07427838 8.34252724 -6 5 C-3.69 4.34 -1.38 3.68 1 3 C0.34 2.34 -0.32 1.68 -1 1 C-0.67 0.67 -0.34 0.34 0 0 Z " fill="#206250" transform="translate(407,316)"/>
<path d="M0 0 C0.66 0 1.32 0 2 0 C2 0.66 2 1.32 2 2 C4.31 2 6.62 2 9 2 C9 3.32 9 4.64 9 6 C5.62294375 5.46274105 2.303314 4.88935377 -1 4 C-0.67 2.68 -0.34 1.36 0 0 Z " fill="#194374" transform="translate(241,251)"/>
<path d="M0 0 C-0.57584432 2.38564077 -1.22227595 4.66682784 -2 7 C-4.0625 8.1875 -4.0625 8.1875 -6 9 C-6.25 6.1875 -6.25 6.1875 -6 3 C-3.95959224 0.95959224 -2.91674756 0 0 0 Z " fill="#23713F" transform="translate(136,215)"/>
<path d="M0 0 C5.625 -0.25 5.625 -0.25 9 2 C9 2.66 9 3.32 9 4 C6.1875 4.6875 6.1875 4.6875 3 5 C1.125 3.6875 1.125 3.6875 0 2 C0 1.34 0 0.68 0 0 Z " fill="#1B496C" transform="translate(311,381)"/>
<path d="M0 0 C1.98 0.66 3.96 1.32 6 2 C5.01 2.66 4.02 3.32 3 4 C1.7625 5.299375 1.7625 5.299375 0.5 6.625 C-2 9 -2 9 -5 9 C-4.505 8.5875 -4.01 8.175 -3.5 7.75 C-1.56613908 5.87797662 -1.56613908 5.87797662 -2 2 C-1.34 1.34 -0.68 0.68 0 0 Z " fill="#20634E" transform="translate(125,252)"/>
<path d="M0 0 C1.31625194 2.63250388 0.74813658 3.80179056 0.0625 6.625 C-0.13214844 7.44226563 -0.32679688 8.25953125 -0.52734375 9.1015625 C-0.76130859 10.04128906 -0.76130859 10.04128906 -1 11 C-1.66 10.34 -2.32 9.68 -3 9 C-3.99 9.99 -4.98 10.98 -6 12 C-6.33 10.68 -6.66 9.36 -7 8 C-6.0409375 7.6596875 -6.0409375 7.6596875 -5.0625 7.3125 C-2.72567164 6.15983399 -2.72567164 6.15983399 -2.375 3.4375 C-2.189375 2.2309375 -2.189375 2.2309375 -2 1 C-1.34 0.67 -0.68 0.34 0 0 Z " fill="#1D565D" transform="translate(139,238)"/>
<path d="M0 0 C1 2 1 2 0.44140625 4.1640625 C0.15136719 4.97617188 -0.13867188 5.78828125 -0.4375 6.625 C-0.72496094 7.44226563 -1.01242188 8.25953125 -1.30859375 9.1015625 C-1.53675781 9.72804687 -1.76492187 10.35453125 -2 11 C-2.99 9.68 -3.98 8.36 -5 7 C-4.34 6.67 -3.68 6.34 -3 6 C-3.33 5.01 -3.66 4.02 -4 3 C-2.68 2.01 -1.36 1.02 0 0 Z " fill="#1F5E54" transform="translate(170,188)"/>
<path d="M0 0 C1.74965358 -0.05429959 3.49979787 -0.09292823 5.25 -0.125 C6.22453125 -0.14820313 7.1990625 -0.17140625 8.203125 -0.1953125 C11.0196498 0.00137219 12.60949036 0.55431084 15 2 C9.76528314 2.75612577 5.22745859 3.2063366 0 2 C0 1.34 0 0.68 0 0 Z " fill="#216A47" transform="translate(276,348)"/>
<path d="M0 0 C2.31 0.33 4.62 0.66 7 1 C7 1.66 7 2.32 7 3 C8.32 3.33 9.64 3.66 11 4 C10.01 4.33 9.02 4.66 8 5 C7.34 4.67 6.68 4.34 6 4 C6 3.34 6 2.68 6 2 C5.2575 2.33 4.515 2.66 3.75 3 C1 4 1 4 -3 4 C-3.33 3.34 -3.66 2.68 -4 2 C-2.68 2.33 -1.36 2.66 0 3 C0 2.01 0 1.02 0 0 Z " fill="#1F5F53" transform="translate(300,300)"/>
<path d="M0 0 C1.32 0.66 2.64 1.32 4 2 C3.01 2.33 2.02 2.66 1 3 C1 3.66 1 4.32 1 5 C-1.375 6.0625 -1.375 6.0625 -4 7 C-4.66 6.67 -5.32 6.34 -6 6 C-6 5.01 -6 4.02 -6 3 C-4.68 3.33 -3.36 3.66 -2 4 C-1.34 2.68 -0.68 1.36 0 0 Z " fill="#216A46" transform="translate(257,251)"/>
<path d="M0 0 C0.1546875 0.86625 0.1546875 0.86625 0.3125 1.75 C0.87507258 4.09150505 0.87507258 4.09150505 2.5625 5.9375 C4.3264151 8.46833471 4.25163514 9.98037834 4 13 C2 11.8125 2 11.8125 0 10 C-0.25 7.3125 -0.25 7.3125 0 5 C-0.66 4.67 -1.32 4.34 -2 4 C-1.34 2.68 -0.68 1.36 0 0 Z " fill="#1B496C" transform="translate(259,235)"/>
<path d="M0 0 C0 0.66 0 1.32 0 2 C1.98 2.66 3.96 3.32 6 4 C2.86650268 5.04449911 2.01031744 4.93423645 -1 4 C-1 3.01 -1 2.02 -1 1 C-3.64 0.67 -6.28 0.34 -9 0 C-9 -0.33 -9 -0.66 -9 -1 C-3.375 -2.25 -3.375 -2.25 0 0 Z " fill="#20664B" transform="translate(164,394)"/>
<path d="M0 0 C1.62580966 0.11398665 3.25067157 0.24155659 4.875 0.375 C5.77992188 0.44460937 6.68484375 0.51421875 7.6171875 0.5859375 C10 1 10 1 12 3 C11.06027344 3.09087891 11.06027344 3.09087891 10.1015625 3.18359375 C9.28429687 3.26738281 8.46703125 3.35117187 7.625 3.4375 C6.81289062 3.51871094 6.00078125 3.59992188 5.1640625 3.68359375 C2.95727195 3.89090114 2.95727195 3.89090114 1 5 C0.67 3.35 0.34 1.7 0 0 Z " fill="#1F6250" transform="translate(232,255)"/>
<path d="M0 0 C0.66 0.33 1.32 0.66 2 1 C2 4.3 2 7.6 2 11 C0.68 11 -0.64 11 -2 11 C-1.85957123 9.35369672 -1.71250671 7.70795821 -1.5625 6.0625 C-1.48128906 5.14597656 -1.40007812 4.22945312 -1.31640625 3.28515625 C-1 1 -1 1 0 0 Z " fill="#20674A" transform="translate(350,233)"/>
<path d="M0 0 C-1.20703125 1.55078125 -1.20703125 1.55078125 -3 3 C-5.26171875 2.85546875 -5.26171875 2.85546875 -7.6875 2.1875 C-8.89986328 1.86845703 -8.89986328 1.86845703 -10.13671875 1.54296875 C-11.05904297 1.27419922 -11.05904297 1.27419922 -12 1 C-12 0.67 -12 0.34 -12 0 C-7.74433453 -1.16063604 -4.3164922 -0.76173392 0 0 Z " fill="#17397F" transform="translate(381,426)"/>
<path d="M0 0 C1.485 0.99 1.485 0.99 3 2 C3.66 1.67 4.32 1.34 5 1 C4.34 3.31 3.68 5.62 3 8 C2.01 8 1.02 8 0 8 C0 5.36 0 2.72 0 0 Z " fill="#20644D" transform="translate(313,51)"/>
<path d="M0 0 C0.99 1.32 1.98 2.64 3 4 C2.34 5.32 1.68 6.64 1 8 C1 7.01 1 6.02 1 5 C-0.32 5.33 -1.64 5.66 -3 6 C-2.625 3.5625 -2.625 3.5625 -2 1 C-1.34 0.67 -0.68 0.34 0 0 Z " fill="#1F6151" transform="translate(330,355)"/>
<path d="M0 0 C0.66 0.33 1.32 0.66 2 1 C2 1.33 2 1.66 2 2 C3.65 2 5.3 2 7 2 C6.67 3.32 6.34 4.64 6 6 C6 5.01 6 4.02 6 3 C5.01 3 4.02 3 3 3 C2.67 3.99 2.34 4.98 2 6 C1.01 5.67 0.02 5.34 -1 5 C-0.67 3.35 -0.34 1.7 0 0 Z " fill="#1F6150" transform="translate(223,354)"/>
<path d="M0 0 C0.99 0.33 1.98 0.66 3 1 C2 3 2 3 0.0625 3.9375 C-2.31971493 4.95345922 -2.31971493 4.95345922 -4 8 C-4.99 7.01 -5.98 6.02 -7 5 C-6.21625 4.54625 -5.4325 4.0925 -4.625 3.625 C-1.96301969 2.11571258 -1.96301969 2.11571258 0 0 Z " fill="#226C45" transform="translate(242,127)"/>
<path d="M0 0 C0.99 0.66 1.98 1.32 3 2 C2.01 3.98 1.02 5.96 0 8 C-0.99 8 -1.98 8 -3 8 C-1.125 1.125 -1.125 1.125 0 0 Z " fill="#247A34" transform="translate(265,57)"/>
<path d="M0 0 C1.485 0.99 1.485 0.99 3 2 C5.05709596 2.24055468 5.05709596 2.24055468 7.1875 2.125 C8.445625 2.08375 9.70375 2.0425 11 2 C11 2.33 11 2.66 11 3 C7.37 3.66 3.74 4.32 0 5 C-0.33 4.34 -0.66 3.68 -1 3 C-0.67 2.01 -0.34 1.02 0 0 Z " fill="#21674A" transform="translate(362,360)"/>
<path d="M0 0 C-0.99 0.66 -1.98 1.32 -3 2 C-2.67 2.66 -2.34 3.32 -2 4 C-3.32 4.33 -4.64 4.66 -6 5 C-6 3.68 -6 2.36 -6 1 C-6.66 0.67 -7.32 0.34 -8 0 C-4.94736336 -0.98120464 -3.05263664 -0.98120464 0 0 Z " fill="#1C4F65" transform="translate(468,311)"/>
<path d="M0 0 C2.97 0.33 5.94 0.66 9 1 C9 1.66 9 2.32 9 3 C7.68 3 6.36 3 5 3 C4.67 3.66 4.34 4.32 4 5 C3.896875 4.360625 3.79375 3.72125 3.6875 3.0625 C3.460625 2.381875 3.23375 1.70125 3 1 C2.01 0.67 1.02 0.34 0 0 Z " fill="#1D555F" transform="translate(385,422)"/>
<path d="M0 0 C2.88575819 0.39803561 3.82189513 0.79009069 5.75 3.0625 C6.1625 3.701875 6.575 4.34125 7 5 C4.625 4.75 4.625 4.75 2 4 C0.6875 1.9375 0.6875 1.9375 0 0 Z " fill="#1C5164" transform="translate(347,415)"/>
<path d="M0 0 C1.98 0.66 3.96 1.32 6 2 C6 3.32 6 4.64 6 6 C6.66 6.33 7.32 6.66 8 7 C6.68 7.33 5.36 7.66 4 8 C4 6.35 4 4.7 4 3 C2.68 2.34 1.36 1.68 0 1 C0 0.67 0 0.34 0 0 Z " fill="#1E5B57" transform="translate(351,377)"/>
<path d="M0 0 C2.97 1.98 2.97 1.98 6 4 C6.33 3.01 6.66 2.02 7 1 C7.66 1 8.32 1 9 1 C8.34 2.32 7.68 3.64 7 5 C4.03 4.505 4.03 4.505 1 4 C0.67 2.68 0.34 1.36 0 0 Z " fill="#20664B" transform="translate(119,262)"/>
<path d="M0 0 C0.433125 0.9590625 0.433125 0.9590625 0.875 1.9375 C1.82823451 4.15206079 1.82823451 4.15206079 4 5 C4 5.66 4 6.32 4 7 C2.68 6.67 1.36 6.34 0 6 C0 5.34 0 4.68 0 4 C-0.99 3.67 -1.98 3.34 -3 3 C-2.01 2.01 -1.02 1.02 0 0 Z " fill="#23743B" transform="translate(134,225)"/>
<path d="M0 0 C1.65 0.33 3.3 0.66 5 1 C4.13375 1.37125 4.13375 1.37125 3.25 1.75 C0.6997003 3.16683317 -1.01785701 4.87627537 -3 7 C-2.38722388 4.03824877 -1.74627478 2.61941217 0 0 Z " fill="#1F5F53" transform="translate(243,86)"/>
<path d="M0 0 C1.33597652 0.80814651 2.668725 1.62163181 4 2.4375 C5.11375 3.11619141 5.11375 3.11619141 6.25 3.80859375 C6.8275 4.20175781 7.405 4.59492188 8 5 C8 5.33 8 5.66 8 6 C6.02 6 4.04 6 2 6 C1.34 4.02 0.68 2.04 0 0 Z " fill="#20644E" transform="translate(318,379)"/>
<path d="M0 0 C0.66666667 2.66666667 1.33333333 5.33333333 2 8 C0.35 7.67 -1.3 7.34 -3 7 C-2.01 4.69 -1.02 2.38 0 0 Z " fill="#1C5164" transform="translate(316,237)"/>
<path d="M0 0 C0.33 1.32 0.66 2.64 1 4 C-1.31 4 -3.62 4 -6 4 C-6 3.01 -6 2.02 -6 1 C-3.92446352 0.4465236 -2.15634036 0 0 0 Z " fill="#226E41" transform="translate(318,378)"/>
<path d="M0 0 C0.66 0.33 1.32 0.66 2 1 C1.67 2.32 1.34 3.64 1 5 C-1.31 5 -3.62 5 -6 5 C-6 4.34 -6 3.68 -6 3 C-4.02 3 -2.04 3 0 3 C0 2.01 0 1.02 0 0 Z " fill="#206250" transform="translate(297,355)"/>
<path d="M0 0 C2 2 2 2 2 5 C-1.3 5 -4.6 5 -8 5 C-6 3 -6 3 -2.875 2.875 C-1.92625 2.91625 -0.9775 2.9575 0 3 C0 2.01 0 1.02 0 0 Z " fill="#1E5B58" transform="translate(275,334)"/>
<path d="M0 0 C0.99 0.33 1.98 0.66 3 1 C2.67 2.65 2.34 4.3 2 6 C1.01 5.67 0.02 5.34 -1 5 C-0.67 3.35 -0.34 1.7 0 0 Z " fill="#226F40" transform="translate(266,255)"/>
</svg>
