<?xml version="1.0" encoding="UTF-8"?>
<svg version="1.1" xmlns="http://www.w3.org/2000/svg" width="640" height="480">
<path d="M0 0 C211.2 0 422.4 0 640 0 C640 158.4 640 316.8 640 480 C428.8 480 217.6 480 0 480 C0 321.6 0 163.2 0 0 Z " fill="#16308A" transform="translate(0,0)"/>
<path d="M0 0 C1.98 0.66 3.96 1.32 6 2 C5.67 2.99 5.34 3.98 5 5 C7.9452821 7.85603113 9.24628626 9 13.4375 9 C17.80918646 9 19.61356466 10.35692851 23 13 C22.63594751 15.70438996 22.31857318 16.74406383 20.15234375 18.484375 C19.05599609 19.11085938 19.05599609 19.11085938 17.9375 19.75 C17.20402344 20.17796875 16.47054687 20.6059375 15.71484375 21.046875 C15.14894531 21.36140625 14.58304688 21.6759375 14 22 C19.5247009 18.49823251 26.7184971 19.54615319 33 20 C35.96699727 20.72601206 38.24471845 21.65047434 41 23 C41 22.01 41 21.02 41 20 C46.625 19.75 46.625 19.75 50 22 C49.67 23.32 49.34 24.64 49 26 C51.64 26.66 54.28 27.32 57 28 C57.33 27.34 57.66 26.68 58 26 C61.3 26 64.6 26 68 26 C68.33 25.01 68.66 24.02 69 23 C72.62326739 21.7922442 73.64146369 22.45688872 77 24 C77 24.66 77 25.32 77 26 C77.66 25.67 78.32 25.34 79 25 C82.89418837 24.55747859 84.49067509 24.62096751 87.6875 27 C91.92166126 29.55647472 94.71357023 29.08478116 99.53125 28.87109375 C102.89504867 29.04673514 103.72858082 30.65286684 106 33 C108.30561186 32.96872232 110.46540755 32.60990717 112.73828125 32.23046875 C115.84570024 31.91382329 118.17196946 32.76726874 121 34 C121.33 33.01 121.66 32.02 122 31 C129.36095182 31.31323199 135.30883089 32.93914605 142 36 C142 36.66 142 37.32 142 38 C143.65 38 145.3 38 147 38 C147 38.66 147 39.32 147 40 C147.99 40 148.98 40 150 40 C150 40.66 150 41.32 150 42 C153.63 42.33 157.26 42.66 161 43 C160.67 44.32 160.34 45.64 160 47 C159.34 47.33 158.68 47.66 158 48 C157.34786708 50.02463255 157.34786708 50.02463255 157 52 C156.34 51.67 155.68 51.34 155 51 C155 50.34 155 49.68 155 49 C154.2575 48.855625 153.515 48.71125 152.75 48.5625 C151.8425 48.376875 150.935 48.19125 150 48 C149.278125 47.87625 148.55625 47.7525 147.8125 47.625 C146 47 146 47 144 44 C143.67 45.65 143.34 47.3 143 49 C142.34 49 141.68 49 141 49 C141 49.66 141 50.32 141 51 C142.65 51.66 144.3 52.32 146 53 C146 54.32 146 55.64 146 57 C144.9171875 56.9690625 144.9171875 56.9690625 143.8125 56.9375 C141.08074862 56.99820559 138.65743909 57.39258535 136 58 C135.67 59.98 135.34 61.96 135 64 C134.13375 63.4740625 134.13375 63.4740625 133.25 62.9375 C130.5611807 61.81715862 129.68358428 61.9936559 127 63 C125.6520257 63.63654342 124.31403276 64.29605388 123 65 C123.54723683 68.37462715 124.0549 70.08235 126 73 C125.34 73 124.68 73 124 73 C123.896875 74.03125 123.79375 75.0625 123.6875 76.125 C123.00872203 79.95083945 121.88841205 82.63370025 120 86 C118.1875 85.9375 118.1875 85.9375 116 85 C112.6614643 79.39602937 112.65195849 74.4065419 113 68 C113.66 68 114.32 68 115 68 C115.268125 67.21625 115.53625 66.4325 115.8125 65.625 C117 63 117 63 120 61 C119.67 60.01 119.34 59.02 119 58 C118.67 58.66 118.34 59.32 118 60 C117.01 60 116.02 60 115 60 C115 59.34 115 58.68 115 58 C113.02 58.33 111.04 58.66 109 59 C108.34 61.31 107.68 63.62 107 66 C105.35 66 103.7 66 102 66 C102 65.34 102 64.68 102 64 C101.4328125 64.33 100.865625 64.66 100.28125 65 C97.1440776 66.37519886 94.58196107 66.05928554 91.21875 65.875 C88.58985558 66.02310673 87.19422458 66.549273 85 68 C83.46370884 69.85576375 83.46370884 69.85576375 82.25 72 C81.82203125 72.70125 81.3940625 73.4025 80.953125 74.125 C79.84895112 75.94658735 79.84895112 75.94658735 80 78 C80.66 78.33 81.32 78.66 82 79 C82 79.66 82 80.32 82 81 C82.66 81 83.32 81 84 81 C84 80.34 84 79.68 84 79 C86.86724686 79.57344937 87.8614515 79.8614515 90 82 C92.53802339 90.95066238 90.16486941 97.2469382 86.25 105.1640625 C83.44621058 108.69800541 81.30962759 109.02490255 77 110 C75.59742124 112.38119246 75.59742124 112.38119246 75 115 C74.34 115.99 73.68 116.98 73 118 C73.99 118.33 74.98 118.66 76 119 C78.20477292 121.83470803 79.08977302 123.19204286 78.6875 126.8125 C78.3471875 127.8953125 78.3471875 127.8953125 78 129 C76.35 129.33 74.7 129.66 73 130 C72.57682292 127.98177083 72.15364583 125.96354167 71.73046875 123.9453125 C71.07691162 121.62953451 71.07691162 121.62953451 68 120 C68.33 118.68 68.66 117.36 69 116 C68.401875 116.33 67.80375 116.66 67.1875 117 C65 118 65 118 62 118 C62 116.68 62 115.36 62 114 C60.35 115.32 58.7 116.64 57 118 C57.33 118.99 57.66 119.98 58 121 C60.97 120.505 60.97 120.505 64 120 C64.33 121.32 64.66 122.64 65 124 C64.01 124.33 63.02 124.66 62 125 C62.28439439 129.12727394 62.28439439 129.12727394 64.484375 132.40234375 C66.99175413 135.04543154 66.87500885 137.91065803 67.13671875 141.42578125 C66.88291474 146.20454815 64.59124692 149.21780345 61.4375 152.75 C60.963125 153.1625 60.48875 153.575 60 154 C59.56816406 154.49886719 59.13632812 154.99773437 58.69140625 155.51171875 C56.62936757 157.3261223 55.18648266 157.60132048 52.5 158.0625 C49.21827148 158.63680249 47.87897329 159.08068448 45 161 C44.01 161 43.02 161 42 161 C41.01 161.33 40.02 161.66 39 162 C40.06037995 165.37393621 40.85875705 166.88229754 43.625 169.1875 C46.644615 172.76335987 46.77845954 174.97453437 46.56640625 179.55078125 C45.59004971 183.77268161 43.39937446 185.41647541 40 188 C39.34 188 38.68 188 38 188 C37.67 186.35 37.34 184.7 37 183 C36.01 182.67 35.02 182.34 34 182 C33.67 181.01 33.34 180.02 33 179 C32.01 178.67 31.02 178.34 30 178 C30.90673045 184.21178022 31.94719258 187.85410673 37 192 C38 193 38 193 38.09765625 195.06640625 C38.08025391 196.30197266 38.08025391 196.30197266 38.0625 197.5625 C38.05347656 198.38878906 38.04445313 199.21507812 38.03515625 200.06640625 C38.01775391 201.02353516 38.01775391 201.02353516 38 202 C37.34 202.33 36.68 202.66 36 203 C36.33 204.98 36.66 206.96 37 209 C38.65 208.67 40.3 208.34 42 208 C42.33 208.99 42.66 209.98 43 211 C42.34 211 41.68 211 41 211 C41 212.98 41 214.96 41 217 C39.68 217.33 38.36 217.66 37 218 C35.5345138 216.10934188 34.07765297 214.21298003 32.625 212.3125 C32.00625 211.51682617 32.00625 211.51682617 31.375 210.70507812 C28.99049502 207.57060787 27.41060948 204.65360563 26 201 C23.74965004 198.97468504 21.70560645 197.35280322 19 196 C19.33 195.01 19.66 194.02 20 193 C21.9375 193.3125 21.9375 193.3125 24 194 C24.33 194.99 24.66 195.98 25 197 C26.65 197.33 28.3 197.66 30 198 C30 198.66 30 199.32 30 200 C30.66 199.67 31.32 199.34 32 199 C31.51660156 198.44699219 31.03320312 197.89398438 30.53515625 197.32421875 C28.75447956 194.62828331 28.58381267 193.00777995 28.4375 189.8125 C28.35457434 187.22449004 28.35457434 187.22449004 28 185 C27.34 184.67 26.68 184.34 26 184 C23.82454091 178.95293491 22.56784182 174.4512815 22 169 C21.67 169.66 21.34 170.32 21 171 C19.68 170.67 18.36 170.34 17 170 C16.9175 168.9275 16.835 167.855 16.75 166.75 C15.91517942 162.57589709 14.93307471 161.83845939 12 159 C11.75 156.25 11.75 156.25 12 154 C11.4225 154.66 10.845 155.32 10.25 156 C8 158 8 158 4 158 C3.855625 158.61875 3.71125 159.2375 3.5625 159.875 C3 162 3 162 2 164 C1.01 164 0.02 164 -1 164 C-1.33 164.99 -1.66 165.98 -2 167 C-2.66 167 -3.32 167 -4 167 C-4.28875 167.639375 -4.5775 168.27875 -4.875 168.9375 C-6 171 -6 171 -8 172 C-8.35943813 175.00745071 -8.4443356 177.99353303 -8.55859375 181.01953125 C-9.03930955 184.26542642 -9.66443696 185.71965122 -12 188 C-12.99 188 -13.98 188 -15 188 C-15.32613281 187.14277344 -15.65226563 186.28554688 -15.98828125 185.40234375 C-16.42527344 184.25894531 -16.86226562 183.11554688 -17.3125 181.9375 C-17.76625 180.74511719 -18.22 179.55273438 -18.6875 178.32421875 C-19.64793255 175.89169464 -20.65739179 173.58798344 -21.8125 171.25 C-23.34096519 167.06683211 -23.26948836 163.40164317 -23 159 C-24.98 159.33 -26.96 159.66 -29 160 C-29.38671875 159.43410156 -29.7734375 158.86820313 -30.171875 158.28515625 C-30.69265625 157.55167969 -31.2134375 156.81820312 -31.75 156.0625 C-32.26046875 155.33160156 -32.7709375 154.60070312 -33.296875 153.84765625 C-35.22261951 151.75848847 -36.23938147 151.40154451 -39 151 C-39.721875 150.814375 -40.44375 150.62875 -41.1875 150.4375 C-45.12994509 149.82423076 -49.01859674 149.92193327 -53 150 C-53 148.35 -53 146.7 -53 145 C-53.66 145 -54.32 145 -55 145 C-55 145.66 -55 146.32 -55 147 C-58.81365679 147.35475877 -60.58442458 147.2619932 -63.875 145.1875 C-66 143 -66 143 -66 140 C-67.65 139.67 -69.3 139.34 -71 139 C-68.38673793 143.27103837 -68.38673793 143.27103837 -64.75 146.625 C-64.1725 147.07875 -63.595 147.5325 -63 148 C-63 149.32 -63 150.64 -63 152 C-59.85375007 152.26218749 -58.38162983 152.24754367 -55.6875 150.5 C-55.130625 150.005 -54.57375 149.51 -54 149 C-53.67 149.99 -53.34 150.98 -53 152 C-50.98491642 152.73323796 -50.98491642 152.73323796 -49 153 C-49 153.66 -49 154.32 -49 155 C-48.34 155 -47.68 155 -47 155 C-47.33 156.65 -47.66 158.3 -48 160 C-48.66 160 -49.32 160 -50 160 C-49.855625 160.721875 -49.71125 161.44375 -49.5625 162.1875 C-50 165 -50 165 -51.453125 166.41015625 C-54.27364539 168.44259006 -56.68212019 169.89404006 -60 171 C-60.33 171.66 -60.66 172.32 -61 173 C-63.75111869 173.85580402 -66.5291825 174.47309622 -69.3359375 175.12109375 C-72.05079642 176.01675835 -73.21444408 176.81967832 -75 179 C-75.99 178.67 -76.98 178.34 -78 178 C-77.67 178.99 -77.34 179.98 -77 181 C-71.95424687 182.14100277 -71.95424687 182.14100277 -67.1875 180.5625 C-66.465625 180.046875 -65.74375 179.53125 -65 179 C-64.34 179 -63.68 179 -63 179 C-61.75 180.5625 -61.75 180.5625 -61 183 C-62.75 186.375 -62.75 186.375 -63.93359375 188.21484375 C-65.16811301 190.10205297 -65.16811301 190.10205297 -65.8125 192.9375 C-68.33250644 199.43646398 -74.15257507 204.15257507 -79 209 C-79.66 209.99 -80.32 210.98 -81 212 C-81.66 212 -82.32 212 -83 212 C-83.1973573 217.03261113 -82.79273026 221.59183286 -81.9375 226.5625 C-81.02536097 232.0995693 -80.41504138 236.83008277 -83 242 C-84.97888961 242.72693904 -86.97954558 243.39816251 -89 244 C-89 244.99 -89 245.98 -89 247 C-89.66 247.33 -90.32 247.66 -91 248 C-91.46898963 250.8159849 -91.46898963 250.8159849 -91.625 254.0625 C-91.69976562 255.16722656 -91.77453125 256.27195312 -91.8515625 257.41015625 C-91.90054688 258.26480469 -91.94953125 259.11945313 -92 260 C-93.32 260.33 -94.64 260.66 -96 261 C-96.12375 262.134375 -96.2475 263.26875 -96.375 264.4375 C-96.58125 265.613125 -96.7875 266.78875 -97 268 C-97.66 268.33 -98.32 268.66 -99 269 C-99.268125 269.7425 -99.53625 270.485 -99.8125 271.25 C-101.64474832 275.49310137 -104.38357678 278.12961827 -108.4375 280.3125 C-111.38058419 281.10210795 -113.96601313 281.14111567 -117 281 C-117.33 281.66 -117.66 282.32 -118 283 C-119.98 282.67 -121.96 282.34 -124 282 C-124.4021875 280.515 -124.4021875 280.515 -124.8125 279 C-125.99363423 274.89534913 -127.36593448 270.94899168 -129 267 C-129.66 266.67 -130.32 266.34 -131 266 C-131.2734375 263.55859375 -131.2734375 263.55859375 -131.375 260.4375 C-131.63256736 256.3310015 -132.02311345 253.33502688 -134.0625 249.75 C-136.44000621 245.56767155 -136.54160155 242.79704227 -136 238 C-135.46375 237.0925 -134.9275 236.185 -134.375 235.25 C-132.48075641 230.77269696 -133.46682835 227.56529924 -134.45703125 222.90234375 C-134.965351 220.1852101 -135.09603637 217.75472733 -135 215 C-135.8971875 214.6596875 -135.8971875 214.6596875 -136.8125 214.3125 C-139.8027502 212.51834988 -140.74484659 211.27734502 -142 208 C-141.65140333 204.8990505 -140.90321969 201.98257438 -140 199 C-140.56589844 198.81824219 -141.13179688 198.63648438 -141.71484375 198.44921875 C-142.44832031 198.19785156 -143.18179688 197.94648438 -143.9375 197.6875 C-144.66839844 197.44386719 -145.39929688 197.20023438 -146.15234375 196.94921875 C-148 196 -148 196 -149 193 C-150.53177257 193.21373571 -152.06325139 193.42966875 -153.59375 193.65234375 C-155.46765065 193.92308589 -157.34294814 194.18416643 -159.21875 194.44140625 C-160.3634375 194.60511719 -161.508125 194.76882813 -162.6875 194.9375 C-163.78449219 195.09089844 -164.88148438 195.24429688 -166.01171875 195.40234375 C-168.70764117 195.94152823 -170.64116306 196.62831623 -173 198 C-174.66666667 196.33333333 -176.33333333 194.66666667 -178 193 C-178.598125 192.443125 -179.19625 191.88625 -179.8125 191.3125 C-181 190 -181 190 -181 188 C-181.66 188 -182.32 188 -183 188 C-185.04169485 185.09451118 -186 183.59857954 -186 180 C-186.99 180 -187.98 180 -189 180 C-189 172 -189 172 -188 171 C-188.06140183 169.25957559 -188.12735123 167.51917476 -188.21801758 165.7800293 C-188.5879217 157.34296547 -187.66818951 150.7255958 -182 144 C-179.35546875 142.26953125 -179.35546875 142.26953125 -177 141 C-175.62624631 139.84354174 -175.62624631 139.84354174 -175.75 136.6875 C-174.84461057 132.23600197 -173.6866196 131.4577464 -170 129 C-168.9826127 128.01769502 -167.97403883 127.02530403 -167 126 C-165.02 126.66 -163.04 127.32 -161 128 C-161 127.34 -161 126.68 -161 126 C-155.52925904 122.84380329 -149.80878291 122.87916243 -143.625 122.9375 C-142.37976563 122.94652344 -141.13453125 122.95554687 -139.8515625 122.96484375 C-138.91054688 122.97644531 -137.96953125 122.98804688 -137 123 C-137 125.64 -137 128.28 -137 131 C-134.36 131.99 -131.72 132.98 -129 134 C-129 134.66 -129 135.32 -129 136 C-127.02 136.33 -125.04 136.66 -123 137 C-122.01 135.35 -121.02 133.7 -120 132 C-117.33333333 132.66666667 -114.66666667 133.33333333 -112 134 C-112 134.66 -112 135.32 -112 136 C-111.05125 136 -110.1025 136 -109.125 136 C-104.63493987 136 -100.45792235 136.42478421 -96 137 C-95.01 133.04 -94.02 129.08 -93 125 C-94.8975 125.04125 -96.795 125.0825 -98.75 125.125 C-105.84028777 125.27913669 -105.84028777 125.27913669 -109 123 C-109.97478284 119.49078176 -110.60266274 117.18372467 -108.91015625 113.859375 C-106.26586814 111.28538494 -104.12249051 111.12268451 -100.5 110.625 C-99.3553125 110.45226562 -98.210625 110.27953125 -97.03125 110.1015625 C-94 110 -94 110 -91 112 C-88.9507906 112.45139459 -88.9507906 112.45139459 -86.8125 112.625 C-85.554375 112.74875 -84.29625 112.8725 -83 113 C-83.33 111.35 -83.66 109.7 -84 108 C-84.804375 107.87625 -85.60875 107.7525 -86.4375 107.625 C-87.283125 107.41875 -88.12875 107.2125 -89 107 C-89.33 106.34 -89.66 105.68 -90 105 C-93.63 105 -97.26 105 -101 105 C-101 104.34 -101 103.68 -101 103 C-100.34 103 -99.68 103 -99 103 C-99 102.34 -99 101.68 -99 101 C-99.66 101 -100.32 101 -101 101 C-101 100.34 -101 99.68 -101 99 C-101.99 99.495 -101.99 99.495 -103 100 C-103.65213292 102.02463255 -103.65213292 102.02463255 -104 104 C-104.99 104 -105.98 104 -107 104 C-107.66 107.3 -108.32 110.6 -109 114 C-110.65 114 -112.3 114 -114 114 C-114 114.66 -114 115.32 -114 116 C-114.66 116 -115.32 116 -116 116 C-115.649375 116.78375 -115.29875 117.5675 -114.9375 118.375 C-114.628125 119.24125 -114.31875 120.1075 -114 121 C-114.33 121.66 -114.66 122.32 -115 123 C-116.32 123 -117.64 123 -119 123 C-119.33 121.02 -119.66 119.04 -120 117 C-120.66 117 -121.32 117 -122 117 C-122.0825 116.05125 -122.165 115.1025 -122.25 114.125 C-122.64198425 110.93190284 -122.64198425 110.93190284 -124.875 109.75 C-125.926875 109.37875 -125.926875 109.37875 -127 109 C-127.99 108.34 -128.98 107.68 -130 107 C-130 106.34 -130 105.68 -130 105 C-130.66 105 -131.32 105 -132 105 C-132 104.01 -132 103.02 -132 102 C-132.99 102 -133.98 102 -135 102 C-134.43457996 103.32031595 -133.84693528 104.6311301 -133.25 105.9375 C-132.76273437 107.03384766 -132.76273437 107.03384766 -132.265625 108.15234375 C-130.66842088 110.48406457 -129.67837242 110.41410603 -127 111 C-124.75 114.0625 -124.75 114.0625 -123 117 C-124.98 116.505 -124.98 116.505 -127 116 C-127.144375 116.78375 -127.28875 117.5675 -127.4375 118.375 C-128 121 -128 121 -129 123 C-130.32 122.67 -131.64 122.34 -133 122 C-133 121.34 -133 120.68 -133 120 C-131.68 120 -130.36 120 -129 120 C-129.495 119.21625 -129.99 118.4325 -130.5 117.625 C-132 115 -132 115 -132 113 C-134.49064888 112.31292445 -136.37886292 112 -139 112 C-139.99 112 -140.98 112 -142 112 C-141.505 110.515 -141.505 110.515 -141 109 C-140.34 109 -139.68 109 -139 109 C-139.33 108.34 -139.66 107.68 -140 107 C-141.65 107 -143.3 107 -145 107 C-145 107.66 -145 108.32 -145 109 C-147.31 108.67 -149.62 108.34 -152 108 C-152.0825 108.763125 -152.165 109.52625 -152.25 110.3125 C-153 113 -153 113 -155.0625 114.5 C-155.701875 114.995 -156.34125 115.49 -157 116 C-157.33425735 118.62625139 -157.33425735 118.62625139 -157 121 C-158.485 121.495 -158.485 121.495 -160 122 C-160 122.66 -160 123.32 -160 124 C-164.455 124.495 -164.455 124.495 -169 125 C-169 124.34 -169 123.68 -169 123 C-170.65 123 -172.3 123 -174 123 C-174 122.01 -174 121.02 -174 120 C-174.66 120 -175.32 120 -176 120 C-175.69249629 117.85344499 -175.3788634 115.70776715 -175.0625 113.5625 C-174.88847656 112.36753906 -174.71445312 111.17257813 -174.53515625 109.94140625 C-174 107 -174 107 -173 106 C-171.35066772 106.06399526 -169.70384869 106.20073916 -168.0625 106.375 C-167.16660156 106.46523437 -166.27070313 106.55546875 -165.34765625 106.6484375 C-163 107 -163 107 -161 108 C-161 104.7 -161 101.4 -161 98 C-162.32 97.67 -163.64 97.34 -165 97 C-165 96.01 -165 95.02 -165 94 C-163.02 93.505 -163.02 93.505 -161 93 C-161 92.34 -161 91.68 -161 91 C-160.21625 90.896875 -159.4325 90.79375 -158.625 90.6875 C-155.66954819 90.22404978 -155.66954819 90.22404978 -154 87 C-152.68 87 -151.36 87 -150 87 C-150 85.68 -150 84.36 -150 83 C-146.04 82.01 -146.04 82.01 -142 81 C-142.33 80.2575 -142.66 79.515 -143 78.75 C-144 76 -144 76 -144 72 C-143.01 72 -142.02 72 -141 72 C-141.33 71.01 -141.66 70.02 -142 69 C-141.01 69 -140.02 69 -139 69 C-139 71.97 -139 74.94 -139 78 C-134.8811222 79.02971945 -132.84543879 78.81926586 -128.75 78.0625 C-127.67234375 77.86785156 -126.5946875 77.67320312 -125.484375 77.47265625 C-124.25460937 77.23869141 -124.25460937 77.23869141 -123 77 C-122.01 74.03 -121.02 71.06 -120 68 C-119.34 68.33 -118.68 68.66 -118 69 C-118 69.66 -118 70.32 -118 71 C-117.34 71 -116.68 71 -116 71 C-116 70.01 -116 69.02 -116 68 C-116.66 68 -117.32 68 -118 68 C-117.505 66.515 -117.505 66.515 -117 65 C-112.25 63.875 -112.25 63.875 -110 65 C-110.33 64.34 -110.66 63.68 -111 63 C-113.97 63 -116.94 63 -120 63 C-121.88343932 59.23312136 -122.22057835 57.97041037 -122 54 C-120.68 53.34 -119.36 52.68 -118 52 C-118 51.01 -118 50.02 -118 49 C-117.01 48.67 -116.02 48.34 -115 48 C-116.65 47.67 -118.3 47.34 -120 47 C-120.226875 47.763125 -120.45375 48.52625 -120.6875 49.3125 C-122 52 -122 52 -124.625 53.5 C-125.40875 53.995 -126.1925 54.49 -127 55 C-127.65325876 58.73290719 -127.14201526 59.78697711 -125 63 C-125.42338006 66.17535043 -126.77296886 69.05512526 -128 72 C-128.66 72 -129.32 72 -130 72 C-130.66 73.32 -131.32 74.64 -132 76 C-132.99 76 -133.98 76 -135 76 C-135.99 73.36 -136.98 70.72 -138 68 C-142.455 68.495 -142.455 68.495 -147 69 C-150 62.88 -150 62.88 -150 59.25 C-148.63382136 56.17609806 -147.02112854 55.36670101 -144 54 C-143.01 54 -142.02 54 -141 54 C-141 53.01 -141 52.02 -141 51 C-140 50 -139 49 -138 48 C-136.80972016 45.40084462 -136.80972016 45.40084462 -136 43 C-135.34 43 -134.68 43 -134 43 C-133.731875 42.360625 -133.46375 41.72125 -133.1875 41.0625 C-132 39 -132 39 -129 38 C-129 37.34 -129 36.68 -129 36 C-129.66 36 -130.32 36 -131 36 C-130.67 35.01 -130.34 34.02 -130 33 C-129.34 33 -128.68 33 -128 33 C-128 34.65 -128 36.3 -128 38 C-125.42672567 36.78969026 -125.42672567 36.78969026 -123 35 C-123 33.68 -123 32.36 -123 31 C-122.01 30.67 -121.02 30.34 -120 30 C-119.34 30.33 -118.68 30.66 -118 31 C-117.67 30.34 -117.34 29.68 -117 29 C-113.50765756 28.90021879 -110.40562852 29.22157062 -107 30 C-107 30.99 -107 31.98 -107 33 C-106.21625 33.04125 -105.4325 33.0825 -104.625 33.125 C-99.57282429 34.34449069 -94.98880938 36.6339494 -91 40 C-91 41.32 -91 42.64 -91 44 C-97.75 45.125 -97.75 45.125 -100 44 C-99.34 46.31 -98.68 48.62 -98 51 C-97.34 50.67 -96.68 50.34 -96 50 C-96 49.34 -96 48.68 -96 48 C-94.68 48 -93.36 48 -92 48 C-91.67 47.01 -91.34 46.02 -91 45 C-86.25 43.875 -86.25 43.875 -84 45 C-84.33 44.236875 -84.66 43.47375 -85 42.6875 C-86 40 -86 40 -86 37 C-84.02 37.495 -84.02 37.495 -82 38 C-81.505 39.98 -81.505 39.98 -81 42 C-80.2575 41.54625 -79.515 41.0925 -78.75 40.625 C-74.88024128 38.33832439 -71.95508672 36.78777442 -67.4375 36.375 C-66.67308594 36.30023438 -65.90867187 36.22546875 -65.12109375 36.1484375 C-63.41751205 36.02921815 -61.70774819 36 -60 36 C-59.67 35.67 -59.34 35.34 -59 35 C-59 34.34 -59 33.68 -59 33 C-57.56138706 33.08746284 -56.12402492 33.19565348 -54.6875 33.3125 C-53.48673828 33.39951172 -53.48673828 33.39951172 -52.26171875 33.48828125 C-49.63727666 34.08206694 -48.69179328 34.95780294 -47 37 C-47.309375 36.443125 -47.61875 35.88625 -47.9375 35.3125 C-49.58022729 31.73715238 -50.34217672 29.17784449 -49.22265625 25.32421875 C-48.83980469 24.45410156 -48.45695313 23.58398438 -48.0625 22.6875 C-47.68222656 21.80449219 -47.30195313 20.92148438 -46.91015625 20.01171875 C-46.60980469 19.34785156 -46.30945313 18.68398437 -46 18 C-45.34 18 -44.68 18 -44 18 C-39.43441402 24.92709598 -37 32.67067872 -37 41 C-39.475 41.495 -39.475 41.495 -42 42 C-42 42.66 -42 43.32 -42 44 C-40.35 44 -38.7 44 -37 44 C-36.34 41.69 -35.68 39.38 -35 37 C-33.68 36.67 -32.36 36.34 -31 36 C-33.94729537 34.84188612 -33.94729537 34.84188612 -37 35 C-37.33 31.04 -37.66 27.08 -38 23 C-35.48916886 24.25541557 -35.12874554 25.50063488 -34 28 C-33.01 26.515 -33.01 26.515 -32 25 C-31.01 25 -30.02 25 -29 25 C-29 25.66 -29 26.32 -29 27 C-27.68 27.33 -26.36 27.66 -25 28 C-25 27.34 -25 26.68 -25 26 C-25.99 25.67 -26.98 25.34 -28 25 C-27.67 23.35 -27.34 21.7 -27 20 C-24.36 20 -21.72 20 -19 20 C-19 19.34 -19 18.68 -19 18 C-19.66 18 -20.32 18 -21 18 C-20 15 -20 15 -18.35546875 14.05078125 C-11.83943527 11.83180769 -5.84318823 11.68736704 1 12 C1.33 10.35 1.66 8.7 2 7 C1.01 6.67 0.02 6.34 -1 6 C-1.33 5.01 -1.66 4.02 -2 3 C-1.34 2.01 -0.68 1.02 0 0 Z " fill="#257F2E" transform="translate(458,81)"/>
<path d="M0 0 C2.7964769 1.67788614 2.87071907 4.11215721 3.875 7.125 C5.89008358 7.85823796 5.89008358 7.85823796 7.875 8.125 C8.205 9.115 8.535 10.105 8.875 11.125 C9.4628125 9.8875 9.4628125 9.8875 10.0625 8.625 C10.660625 7.8 11.25875 6.975 11.875 6.125 C14.5625 5.8125 14.5625 5.8125 16.875 6.125 C17.78504613 9.19640568 18.21194826 11.92399154 17.875 15.125 C14.0246895 17.69187367 12.28930237 16.95788724 7.875 16.125 C7.875 16.785 7.875 17.445 7.875 18.125 C6.225 18.455 4.575 18.785 2.875 19.125 C3.865 19.455 4.855 19.785 5.875 20.125 C5.545 21.445 5.215 22.765 4.875 24.125 C4.318125 24.186875 3.76125 24.24875 3.1875 24.3125 C-0.10541671 25.46947074 -1.76719554 27.5903602 -4.125 30.125 C-5.23875 31.115 -5.23875 31.115 -6.375 32.125 C-8.41421301 34.45552916 -8.78722069 36.08498621 -9.125 39.125 C-8.465 39.125 -7.805 39.125 -7.125 39.125 C-6.795 40.445 -6.465 41.765 -6.125 43.125 C-3.815 43.785 -1.505 44.445 0.875 45.125 C0.875 45.785 0.875 46.445 0.875 47.125 C1.4525 47.269375 2.03 47.41375 2.625 47.5625 C5.75 48.34375 5.75 48.34375 8.875 49.125 C8.875 52.425 8.875 55.725 8.875 59.125 C11.35 58.63 11.35 58.63 13.875 58.125 C13.94847656 57.16787109 13.94847656 57.16787109 14.0234375 56.19140625 C14.09820312 55.36511719 14.17296875 54.53882813 14.25 53.6875 C14.31960937 52.86378906 14.38921875 52.04007813 14.4609375 51.19140625 C14.59757813 50.50949219 14.73421875 49.82757813 14.875 49.125 C15.535 48.795 16.195 48.465 16.875 48.125 C16.875 44.825 16.875 41.525 16.875 38.125 C17.535 38.125 18.195 38.125 18.875 38.125 C18.85179687 37.49851563 18.82859375 36.87203125 18.8046875 36.2265625 C18.78664062 35.40929687 18.76859375 34.59203125 18.75 33.75 C18.72679687 32.93789062 18.70359375 32.12578125 18.6796875 31.2890625 C18.875 29.125 18.875 29.125 20.875 27.125 C28.08131579 27.46815789 28.08131579 27.46815789 30.6875 29.625 C31.079375 30.12 31.47125 30.615 31.875 31.125 C32.865 31.455 33.855 31.785 34.875 32.125 C34.545 34.435 34.215 36.745 33.875 39.125 C35.855 39.125 37.835 39.125 39.875 39.125 C40.205 37.805 40.535 36.485 40.875 35.125 C41.535 35.125 42.195 35.125 42.875 35.125 C42.875 36.445 42.875 37.765 42.875 39.125 C43.865 39.125 44.855 39.125 45.875 39.125 C46.49957273 42.56015002 46.875 45.61564814 46.875 49.125 C48.525 49.125 50.175 49.125 51.875 49.125 C51.875 49.785 51.875 50.445 51.875 51.125 C52.37 51.558125 52.865 51.99125 53.375 52.4375 C54.875 54.125 54.875 54.125 55.125 56.5 C54.87741566 59.09963558 54.45665402 61.58026367 53.875 64.125 C55.195 64.125 56.515 64.125 57.875 64.125 C57.875 66.765 57.875 69.405 57.875 72.125 C56.225 72.125 54.575 72.125 52.875 72.125 C52.875 71.135 52.875 70.145 52.875 69.125 C50.895 69.125 48.915 69.125 46.875 69.125 C47.205 67.475 47.535 65.825 47.875 64.125 C48.535 64.125 49.195 64.125 49.875 64.125 C50.205 63.135 50.535 62.145 50.875 61.125 C49.946875 61.62 49.946875 61.62 49 62.125 C45.25473059 63.32348621 42.17040814 63.14828464 38.27734375 62.90234375 C35.33520408 63.17502987 34.05651409 64.19539285 31.875 66.125 C34.845 65.63 34.845 65.63 37.875 65.125 C37.936875 65.90875 37.99875 66.6925 38.0625 67.5 C38.4646875 68.799375 38.4646875 68.799375 38.875 70.125 C41.35136012 71.49966625 41.35136012 71.49966625 43.875 72.125 C42.61221868 75.91334395 41.35387048 76.34511278 37.875 78.125 C35.5625 78.8125 35.5625 78.8125 33.875 79.125 C33.875 78.135 33.875 77.145 33.875 76.125 C35.875 74.4375 35.875 74.4375 37.875 73.125 C34.75302522 74.4339572 34.75302522 74.4339572 32.875 77.125 C30.24918862 78.70048683 29.00400213 79.125 25.875 79.125 C26.060625 79.929375 26.24625 80.73375 26.4375 81.5625 C26.6540625 82.8309375 26.6540625 82.8309375 26.875 84.125 C25.875 85.125 25.875 85.125 23.3125 85.1875 C22.508125 85.166875 21.70375 85.14625 20.875 85.125 C20.875 85.785 20.875 86.445 20.875 87.125 C19.885 87.785 18.895 88.445 17.875 89.125 C15.59040535 92.93265775 14.48218135 95.67305536 14.875 100.125 C14.215 100.125 13.555 100.125 12.875 100.125 C12.875 100.785 12.875 101.445 12.875 102.125 C10.4 102.62 10.4 102.62 7.875 103.125 C7.875 103.785 7.875 104.445 7.875 105.125 C6.885 105.785 5.895 106.445 4.875 107.125 C4.36551292 113.11147324 5.27126273 119.16309445 5.875 125.125 C2.71384224 123.75516497 1.8822908 123.1359362 -0.125 120.125 C-0.20405064 117.79300612 -0.21298769 115.45667378 -0.125 113.125 C-5.57 112.63 -5.57 112.63 -11.125 112.125 C-11.125 112.785 -11.125 113.445 -11.125 114.125 C-14.61734244 114.22478121 -17.71937148 113.90342938 -21.125 113.125 C-21.74375 113.95 -22.3625 114.775 -23 115.625 C-23.70125 116.45 -24.4025 117.275 -25.125 118.125 C-25.785 118.125 -26.445 118.125 -27.125 118.125 C-28.31433594 125.11772215 -28.11915978 129.65761488 -25.125 136.125 C-21.79357722 136.62625283 -21.79357722 136.62625283 -18.125 136.125 C-15.62959629 133.25884514 -15.62959629 133.25884514 -14.125 130.125 C-12.475 130.455 -10.825 130.785 -9.125 131.125 C-9.08245644 133.12454746 -9.08419217 135.12541636 -9.125 137.125 C-9.455 137.455 -9.785 137.785 -10.125 138.125 C-10.16563832 139.79117115 -10.167721 141.45888095 -10.125 143.125 C-7.485 143.455 -4.845 143.785 -2.125 144.125 C-2.22039062 144.81207031 -2.31578125 145.49914062 -2.4140625 146.20703125 C-2.52492187 147.10808594 -2.63578125 148.00914062 -2.75 148.9375 C-2.86601562 149.83082031 -2.98203125 150.72414063 -3.1015625 151.64453125 C-3.36000743 154.38190391 -3.36000743 154.38190391 -1.125 157.125 C1.2079614 157.16666002 3.5420386 157.16666002 5.875 157.125 C6.535 157.785 7.195 158.445 7.875 159.125 C8.205 158.465 8.535 157.805 8.875 157.125 C9.535 157.125 10.195 157.125 10.875 157.125 C10.875 156.135 10.875 155.145 10.875 154.125 C12.525 153.795 14.175 153.465 15.875 153.125 C15.875 152.465 15.875 151.805 15.875 151.125 C21.41830709 150.74704724 21.41830709 150.74704724 23.6875 152.625 C26.61911331 154.63524913 28.61008706 154.42711673 32.125 154.3125 C33.20265625 154.28542969 34.2803125 154.25835937 35.390625 154.23046875 C36.21046875 154.19566406 37.0303125 154.16085937 37.875 154.125 C38.205 155.775 38.535 157.425 38.875 159.125 C39.865 159.125 40.855 159.125 41.875 159.125 C42.205 160.445 42.535 161.765 42.875 163.125 C44.091875 163.2075 45.30875 163.29 46.5625 163.375 C51.70638175 164.02025725 54.16230271 166.41230271 57.75 170 C59.32542941 172.9758111 58.67130349 174.93978604 57.875 178.125 C58.56207031 178.16238281 59.24914062 178.19976562 59.95703125 178.23828125 C61.30861328 178.33689453 61.30861328 178.33689453 62.6875 178.4375 C63.58082031 178.49550781 64.47414062 178.55351562 65.39453125 178.61328125 C68.2717707 179.20685348 68.87852935 180.08605125 70.875 182.125 C73.14661255 182.69823807 73.14661255 182.69823807 75.5625 182.8125 C76.77486328 182.91111328 76.77486328 182.91111328 78.01171875 183.01171875 C78.62660156 183.04910156 79.24148437 183.08648437 79.875 183.125 C79.875 183.785 79.875 184.445 79.875 185.125 C82.20714148 186.33128008 84.37142139 187.2904738 86.875 188.125 C87.79634803 191.69919495 88.08185778 193.60648563 86.6953125 197.08203125 C86.13585937 198.02433594 85.57640625 198.96664062 85 199.9375 C84.16855469 201.37029297 84.16855469 201.37029297 83.3203125 202.83203125 C81.875 205.125 81.875 205.125 80.875 206.125 C80.52300983 208.13933029 80.21887046 210.16209775 79.9375 212.1875 C79.75445312 213.36183594 79.57140625 214.53617188 79.3828125 215.74609375 C79.087385 217.71182291 78.81829989 219.68255104 78.6171875 221.66015625 C78.3125 223.75 78.3125 223.75 76.875 227.125 C74.66205732 228.32494534 72.61036175 228.9737937 70.1640625 229.5546875 C67.74397608 230.15764419 65.9309315 230.69955416 63.875 232.125 C63.1756486 234.31041552 63.1756486 234.31041552 63.125 236.75 C63.06828125 237.56726563 63.0115625 238.38453125 62.953125 239.2265625 C62.91445313 240.16628906 62.91445313 240.16628906 62.875 241.125 C62.215 241.125 61.555 241.125 60.875 241.125 C60.545 243.105 60.215 245.085 59.875 247.125 C59.215 247.125 58.555 247.125 57.875 247.125 C57.606875 247.888125 57.33875 248.65125 57.0625 249.4375 C55.9083905 252.04943202 55.16212117 253.45364222 52.875 255.125 C51.555 255.125 50.235 255.125 48.875 255.125 C49.205 257.435 49.535 259.745 49.875 262.125 C48.885 262.125 47.895 262.125 46.875 262.125 C46.875 262.785 46.875 263.445 46.875 264.125 C44.895 264.125 42.915 264.125 40.875 264.125 C40.875 266.105 40.875 268.085 40.875 270.125 C39.555 270.455 38.235 270.785 36.875 271.125 C37.24625 272.2078125 37.24625 272.2078125 37.625 273.3125 C37.875 276.125 37.875 276.125 36 278.75 C35.29875 279.53375 34.5975 280.3175 33.875 281.125 C33.545 282.115 33.215 283.105 32.875 284.125 C33.865 284.455 34.855 284.785 35.875 285.125 C35.215 287.765 34.555 290.405 33.875 293.125 C33.215 293.125 32.555 293.125 31.875 293.125 C31.875 295.765 31.875 298.405 31.875 301.125 C32.65875 301.228125 33.4425 301.33125 34.25 301.4375 C36.875 302.125 36.875 302.125 38.875 305.125 C36.875 306.5 36.875 306.5 33.875 307.125 C28.07780287 304.31568065 22.68684332 298.91539672 19.875 293.125 C19.68676267 290.43371492 20.10641575 288.76014599 20.875 286.125 C20.215 286.125 19.555 286.125 18.875 286.125 C18.95878906 285.41472656 19.04257813 284.70445312 19.12890625 283.97265625 C19.23074219 283.05355469 19.33257812 282.13445312 19.4375 281.1875 C19.54191406 280.27097656 19.64632812 279.35445313 19.75390625 278.41015625 C19.79386719 277.65605469 19.83382812 276.90195312 19.875 276.125 C19.545 275.795 19.215 275.465 18.875 275.125 C17.94421817 270.05741001 17.69812615 265.25434158 17.875 260.125 C18.205 259.795 18.535 259.465 18.875 259.125 C18.89636068 257.43750659 18.86471652 255.74932059 18.8125 254.0625 C18.75890171 249.04212652 19.17071951 244.21238556 19.875 239.25 C20.9185107 231.82539899 21.08608095 224.63010033 20.875 217.125 C18.88899486 216.12372241 16.91302594 215.14163635 14.875 214.25 C10.12974239 211.5807926 8.41397903 208.4579199 6.66015625 203.359375 C5.80362527 200.92188384 4.83611005 198.55955576 3.8125 196.1875 C3.33103516 195.06021484 3.33103516 195.06021484 2.83984375 193.91015625 C2.00029752 191.94839325 2.00029752 191.94839325 -0.125 191.125 C-0.125 180.79166667 -0.125 180.79166667 1.875 176.125 C2.74125 175.3 3.6075 174.475 4.5 173.625 C7.14884162 171.32012817 7.14884162 171.32012817 7.3125 168.0625 C6.89583638 165.26490138 6.43561258 163.46591886 4.875 161.125 C4.215 160.795 3.555 160.465 2.875 160.125 C2.875 160.785 2.875 161.445 2.875 162.125 C0.565 161.795 -1.745 161.465 -4.125 161.125 C-4.125 160.135 -4.125 159.145 -4.125 158.125 C-4.888125 158.104375 -5.65125 158.08375 -6.4375 158.0625 C-7.324375 157.753125 -8.21125 157.44375 -9.125 157.125 C-9.57875 156.01125 -10.0325 154.8975 -10.5 153.75 C-11.79794301 149.83874082 -11.79794301 149.83874082 -15.5625 148.375 C-16.738125 147.9625 -17.91375 147.55 -19.125 147.125 C-19.74375 146.58875 -20.3625 146.0525 -21 145.5 C-23.41774632 143.93557591 -24.37339768 144.01221068 -27.1875 143.9375 C-33.68730395 143.4075659 -38.62467 139.64931045 -43.125 135.125 C-44.30499516 132.44364929 -44.31092276 131.09976411 -44.125 128.125 C-44.785 128.125 -45.445 128.125 -46.125 128.125 C-48.125 125.125 -48.125 125.125 -48.125 122.125 C-48.785 122.125 -49.445 122.125 -50.125 122.125 C-52.47841007 118.64604598 -54.28409274 114.89447676 -56.125 111.125 C-56.40457083 114.25072654 -56.40457083 114.25072654 -54.3125 116.8125 C-51.85676217 120.53118871 -50.57268842 123.92670359 -49.125 128.125 C-51.99224686 127.55155063 -52.9864515 127.2635485 -55.125 125.125 C-55.310625 124.196875 -55.310625 124.196875 -55.5 123.25 C-55.9908016 120.93662614 -55.9908016 120.93662614 -58.125 119.1875 C-60.44039063 116.79975341 -60.68852552 115.35491115 -61.125 112.125 C-61.455 111.795 -61.785 111.465 -62.125 111.125 C-62.2075 110.01125 -62.29 108.8975 -62.375 107.75 C-62.72029449 103.96649436 -62.72029449 103.96649436 -65.6875 102.375 C-66.491875 101.9625 -67.29625 101.55 -68.125 101.125 C-68.125 100.135 -68.125 99.145 -68.125 98.125 C-68.785 98.125 -69.445 98.125 -70.125 98.125 C-72.89959831 91.8821538 -73.36621717 84.21906711 -71.37890625 77.6640625 C-71.08886719 76.92929688 -70.79882812 76.19453125 -70.5 75.4375 C-68.62397664 70.63347755 -69.4686653 66.90211166 -71.125 62.125 C-71.455 61.465 -71.785 60.805 -72.125 60.125 C-72.164992 58.12539988 -72.16846799 56.12452758 -72.125 54.125 C-72.785 54.125 -73.445 54.125 -74.125 54.125 C-75.115 51.155 -76.105 48.185 -77.125 45.125 C-77.785 45.125 -78.445 45.125 -79.125 45.125 C-79.125 44.135 -79.125 43.145 -79.125 42.125 C-81.765 41.465 -84.405 40.805 -87.125 40.125 C-87.125 39.465 -87.125 38.805 -87.125 38.125 C-87.785 38.125 -88.445 38.125 -89.125 38.125 C-89.125 37.465 -89.125 36.805 -89.125 36.125 C-91.105 36.125 -93.085 36.125 -95.125 36.125 C-95.125 35.465 -95.125 34.805 -95.125 34.125 C-96.775 33.795 -98.425 33.465 -100.125 33.125 C-100.228125 33.723125 -100.33125 34.32125 -100.4375 34.9375 C-101.23709475 37.48166511 -101.94474318 38.5907452 -104.125 40.125 C-106.3125 39.8125 -106.3125 39.8125 -108.125 39.125 C-106.75 36.625 -106.75 36.625 -105.125 34.125 C-104.465 34.125 -103.805 34.125 -103.125 34.125 C-103.125 33.465 -103.125 32.805 -103.125 32.125 C-106.97244051 33.40748017 -107.95119087 34.71936569 -110.125 38.125 C-110.73548751 40.82715783 -110.93654825 43.34533673 -111.125 46.125 C-112.61 46.62 -112.61 46.62 -114.125 47.125 C-114.455 46.135 -114.785 45.145 -115.125 44.125 C-115.62128906 44.52332031 -116.11757812 44.92164063 -116.62890625 45.33203125 C-122.26979222 49.73128008 -127.60189266 53.80891885 -135.125 53.125 C-134.125 50.125 -134.125 50.125 -131 48.40625 C-129.05552347 47.49427444 -127.09857313 46.6130871 -125.140625 45.73046875 C-123.4349135 44.93047596 -121.77578709 44.0329329 -120.125 43.125 C-119.795 42.135 -119.465 41.145 -119.125 40.125 C-122.59 40.62 -122.59 40.62 -126.125 41.125 C-125.795 39.475 -125.465 37.825 -125.125 36.125 C-126.445 36.125 -127.765 36.125 -129.125 36.125 C-129.875 33.375 -129.875 33.375 -130.125 30.125 C-128.4375 27.6875 -128.4375 27.6875 -126.125 26.125 C-123.875 26.375 -123.875 26.375 -122.125 27.125 C-122.125 26.465 -122.125 25.805 -122.125 25.125 C-121.135 25.125 -120.145 25.125 -119.125 25.125 C-119.455 24.465 -119.785 23.805 -120.125 23.125 C-122.105 23.125 -124.085 23.125 -126.125 23.125 C-126.125 22.135 -126.125 21.145 -126.125 20.125 C-126.785 20.125 -127.445 20.125 -128.125 20.125 C-127.795 19.135 -127.465 18.145 -127.125 17.125 C-123.165 16.63 -123.165 16.63 -119.125 16.125 C-119.785 15.526875 -120.445 14.92875 -121.125 14.3125 C-123.125 12.125 -123.125 12.125 -123.125 9.125 C-119.66 8.63 -119.66 8.63 -116.125 8.125 C-115.795 7.135 -115.465 6.145 -115.125 5.125 C-114.320625 5.00125 -113.51625 4.8775 -112.6875 4.75 C-111.841875 4.54375 -110.99625 4.3375 -110.125 4.125 C-109.795 3.465 -109.465 2.805 -109.125 2.125 C-106.47639573 1.53144386 -103.83302678 1.38290731 -101.125 1.125 C-101.125 2.115 -101.125 3.105 -101.125 4.125 C-99.475 3.465 -97.825 2.805 -96.125 2.125 C-96.125 2.785 -96.125 3.445 -96.125 4.125 C-95.06539062 4.10179688 -94.00578125 4.07859375 -92.9140625 4.0546875 C-91.5260487 4.03593056 -90.1380273 4.01773028 -88.75 4 C-87.70199219 3.97486328 -87.70199219 3.97486328 -86.6328125 3.94921875 C-84.79602514 3.93155733 -82.95898037 4.02196739 -81.125 4.125 C-80.465 4.785 -79.805 5.445 -79.125 6.125 C-77.47844735 6.70629984 -75.80751832 7.22040553 -74.125 7.6875 C-69.2839404 9.0455298 -69.2839404 9.0455298 -67.125 10.125 C-67.125 9.135 -67.125 8.145 -67.125 7.125 C-65.375 5.375 -65.375 5.375 -63.125 4.125 C-61.78237935 4.41869827 -60.44803717 4.7528958 -59.125 5.125 C-56.90728936 4.26709817 -56.90728936 4.26709817 -55.125 3.125 C-54.63 4.115 -54.63 4.115 -54.125 5.125 C-52.02697624 5.36187365 -49.92763462 5.59053177 -47.82421875 5.7734375 C-43.13473368 6.38422427 -38.64935818 7.78037766 -34.125 9.125 C-34.125 10.115 -34.125 11.105 -34.125 12.125 C-33.3825 11.898125 -32.64 11.67125 -31.875 11.4375 C-29.125 11.125 -29.125 11.125 -26.8125 12.5625 C-26.255625 13.078125 -25.69875 13.59375 -25.125 14.125 C-24.795 12.805 -24.465 11.485 -24.125 10.125 C-23.5578125 10.28742188 -22.990625 10.44984375 -22.40625 10.6171875 C-20.06956082 11.13734091 -18.01519234 11.25818559 -15.625 11.25 C-14.8721875 11.25257812 -14.119375 11.25515625 -13.34375 11.2578125 C-11.14615676 11.12626643 -9.24991981 10.67364733 -7.125 10.125 C-6.135 10.125 -5.145 10.125 -4.125 10.125 C-4.125 8.805 -4.125 7.485 -4.125 6.125 C-5.115 5.135 -5.115 5.135 -6.125 4.125 C-2.76289869 0.16252345 -2.76289869 0.16252345 0 0 Z " fill="#257F2F" transform="translate(150.125,109.875)"/>
<path d="M0 0 C1.21236328 0.01353516 1.21236328 0.01353516 2.44921875 0.02734375 C3.37154297 0.04474609 3.37154297 0.04474609 4.3125 0.0625 C4.8075 1.5475 4.8075 1.5475 5.3125 3.0625 C3.6625 3.3925 2.0125 3.7225 0.3125 4.0625 C5.07557437 3.10988513 9.4791528 2.97916643 14.3125 3.0625 C14.8075 4.5475 14.8075 4.5475 15.3125 6.0625 C13.3325 6.0625 11.3525 6.0625 9.3125 6.0625 C9.8075 7.5475 9.8075 7.5475 10.3125 9.0625 C9.9825 9.7225 9.6525 10.3825 9.3125 11.0625 C9.910625 10.5675 10.50875 10.0725 11.125 9.5625 C13.3125 8.0625 13.3125 8.0625 16.3125 8.0625 C14.8125 11.0625 14.8125 11.0625 13.3125 14.0625 C14.240625 13.2375 15.16875 12.4125 16.125 11.5625 C20.87794711 8.09069707 25.65952113 8.60249268 31.3125 9.0625 C31.3125 10.0525 31.3125 11.0425 31.3125 12.0625 C27.6825 13.3825 24.0525 14.7025 20.3125 16.0625 C20.3125 17.0525 20.3125 18.0425 20.3125 19.0625 C19.3225 19.7225 18.3325 20.3825 17.3125 21.0625 C16.8175 22.5475 16.8175 22.5475 16.3125 24.0625 C17.9625 24.0625 19.6125 24.0625 21.3125 24.0625 C21.8075 26.0425 21.8075 26.0425 22.3125 28.0625 C20.8275 28.5575 20.8275 28.5575 19.3125 29.0625 C19.3125 29.7225 19.3125 30.3825 19.3125 31.0625 C20.3025 31.7225 21.2925 32.3825 22.3125 33.0625 C21.16076645 35.53050047 20.26466435 37.11033565 18.3125 39.0625 C17.3225 39.0625 16.3325 39.0625 15.3125 39.0625 C15.3125 39.7225 15.3125 40.3825 15.3125 41.0625 C13.6625 40.7325 12.0125 40.4025 10.3125 40.0625 C11.56791557 42.57333114 12.81313488 42.93375446 15.3125 44.0625 C15.3125 45.7125 15.3125 47.3625 15.3125 49.0625 C14.6525 49.0625 13.9925 49.0625 13.3125 49.0625 C13.27125 49.619375 13.23 50.17625 13.1875 50.75 C11.85628277 54.26821698 9.59660892 56.37990098 6.3125 58.0625 C3.26140286 58.4650063 0.36920273 58.36817027 -2.6875 58.0625 C-2.89375 58.85785156 -3.1 59.65320313 -3.3125 60.47265625 C-4.6875 63.0625 -4.6875 63.0625 -7.4375 63.99609375 C-8.51 64.16238281 -9.5825 64.32867187 -10.6875 64.5 C-13.89948603 65.13918133 -13.89948603 65.13918133 -16.6875 66.0625 C-18.39577955 68.68276637 -18.39577955 68.68276637 -18.6875 72.0625 C-19.35785596 73.70353138 -20.06868539 75.32843166 -20.8125 76.9375 C-21.34230469 78.10925781 -21.34230469 78.10925781 -21.8828125 79.3046875 C-22.14835937 79.88476562 -22.41390625 80.46484375 -22.6875 81.0625 C-26.68704411 80.49113656 -29.44842105 79.50193133 -32.6875 77.0625 C-34.26953125 73.91796875 -34.26953125 73.91796875 -35.5 70.25 C-35.91894531 69.04730469 -36.33789062 67.84460938 -36.76953125 66.60546875 C-37.64087072 63.24246917 -37.87250619 60.51418684 -37.6875 57.0625 C-36.3675 56.4025 -35.0475 55.7425 -33.6875 55.0625 C-33.6875 53.7425 -33.6875 52.4225 -33.6875 51.0625 C-34.6775 50.4025 -35.6675 49.7425 -36.6875 49.0625 C-35.6975 49.0625 -34.7075 49.0625 -33.6875 49.0625 C-33.6875 48.0725 -33.6875 47.0825 -33.6875 46.0625 C-35.6675 46.5575 -35.6675 46.5575 -37.6875 47.0625 C-37.96464844 46.06347656 -38.24179688 45.06445312 -38.52734375 44.03515625 C-38.89305549 42.73172209 -39.25895038 41.42833931 -39.625 40.125 C-39.80740234 39.46564453 -39.98980469 38.80628906 -40.17773438 38.12695312 C-40.91346101 34.82428827 -40.91346101 34.82428827 -42.6875 32.0625 C-46.24493849 31.77590329 -49.80249153 31.6134193 -53.3671875 31.44140625 C-56.6875 31.0625 -56.6875 31.0625 -59.6875 29.0625 C-59.6875 28.4025 -59.6875 27.7425 -59.6875 27.0625 C-57.7075 27.0625 -55.7275 27.0625 -53.6875 27.0625 C-53.6875 26.4025 -53.6875 25.7425 -53.6875 25.0625 C-56.3275 25.0625 -58.9675 25.0625 -61.6875 25.0625 C-61.1925 23.5775 -61.1925 23.5775 -60.6875 22.0625 C-58.18649435 20.94212004 -55.64453412 20.15381162 -53.03515625 19.3203125 C-50.01702407 17.70327662 -49.76989995 16.21865685 -48.6875 13.0625 C-46.25 11.9375 -46.25 11.9375 -43.6875 11.0625 C-43.213125 10.546875 -42.73875 10.03125 -42.25 9.5 C-38.71598392 6.24870521 -33.20889658 7.0625 -28.6875 7.0625 C-28.1925 8.5475 -28.1925 8.5475 -27.6875 10.0625 C-27.0275 10.3925 -26.3675 10.7225 -25.6875 11.0625 C-25.6875 9.7425 -25.6875 8.4225 -25.6875 7.0625 C-23.68795254 7.01995644 -21.68708364 7.02169217 -19.6875 7.0625 C-19.1925 7.5575 -19.1925 7.5575 -18.6875 8.0625 C-18.3575 6.7425 -18.0275 5.4225 -17.6875 4.0625 C-16.32625 4.43375 -16.32625 4.43375 -14.9375 4.8125 C-13.865 4.895 -12.7925 4.9775 -11.6875 5.0625 C-9.45818176 3.24989868 -9.45818176 3.24989868 -7.6875 1.0625 C-4.80538698 0.10179566 -2.98899956 -0.04331883 0 0 Z " fill="#257E2F" transform="translate(250.6875,62.9375)"/>
<path d="M0 0 C3.69900008 0.88776002 7.34550461 1.94581864 11 3 C10.690625 3.598125 10.38125 4.19625 10.0625 4.8125 C8.89790296 7.08956772 8.89790296 7.08956772 8 10 C8.721875 10.28875 9.44375 10.5775 10.1875 10.875 C14.09375 12.4375 14.09375 12.4375 18 14 C18.09087891 12.73542969 18.09087891 12.73542969 18.18359375 11.4453125 C18.26738281 10.34960938 18.35117187 9.25390625 18.4375 8.125 C18.51871094 7.03445313 18.59992187 5.94390625 18.68359375 4.8203125 C19 2 19 2 20 0 C20.99 0 21.98 0 23 0 C23.1546875 1.6396875 23.1546875 1.6396875 23.3125 3.3125 C23.61153989 6.91169015 23.61153989 6.91169015 25.515625 8.4453125 C27.8932133 10.93552341 27.4146932 13.63654376 27.49609375 16.94140625 C27.79603439 19.2012052 27.79603439 19.2012052 30.03515625 20.27734375 C30.68355469 20.51582031 31.33195313 20.75429688 32 21 C32 22.32 32 23.64 32 25 C33.485 25.495 33.485 25.495 35 26 C38.04255313 30.65166321 38.3269122 34.15129045 37.9375 39.625 C37.86402344 40.91664063 37.79054688 42.20828125 37.71484375 43.5390625 C36.91709245 47.40139938 35.96630081 48.52904263 33 51 C32.31822584 52.32567199 31.64808564 53.65753688 31 55 C30.01 55.495 30.01 55.495 29 56 C28.773125 56.78375 28.54625 57.5675 28.3125 58.375 C26.77988397 61.44023206 25.26459193 62.38255708 22.07421875 63.56640625 C18.3322047 64.34863517 14.68244195 63.94915655 11 63 C7.35996939 60.57331293 7.28839527 59.03697185 6 55 C4.2236068 53.9254644 4.2236068 53.9254644 3 54 C2.01 54 1.02 54 0 54 C-0.66 52.35 -1.32 50.7 -2 49 C-4.3260857 48.61936779 -6.66055264 48.28730055 -9 48 C-9.33 48.33 -9.66 48.66 -10 49 C-11.6396875 49.1546875 -11.6396875 49.1546875 -13.3125 49.3125 C-17.01957634 49.6207014 -17.01957634 49.6207014 -18.81640625 51.98828125 C-21.72778054 54.67049549 -23.71981262 54.65461696 -27.625 54.875 C-28.77226563 54.95492187 -29.91953125 55.03484375 -31.1015625 55.1171875 C-34 55 -34 55 -36 53 C-35.625 51.125 -35.625 51.125 -35 49 C-35 45.76748175 -35.17888762 44.01762749 -36.0625 41.0625 C-36.96937852 37.68689661 -36.93162141 35.41594518 -36 32 C-36.33 31.67 -36.66 31.34 -37 31 C-37.04063832 29.33382885 -37.042721 27.66611905 -37 26 C-35.576875 25.319375 -35.576875 25.319375 -34.125 24.625 C-30.99686321 23.19761746 -30.99686321 23.19761746 -29 21 C-27.51303375 20.520065 -26.01051259 20.08719733 -24.5 19.6875 C-22.07903829 18.97739292 -22.07903829 18.97739292 -20 18 C-18.75285597 15.59047977 -18.75285597 15.59047977 -18 13 C-16.04402816 11.60287726 -14.04563599 10.26220093 -12 9 C-11.67 8.34 -11.34 7.68 -11 7 C-9.68 7 -8.36 7 -7 7 C-6.34 7.66 -5.68 8.32 -5 9 C-4.34 7.35 -3.68 5.7 -3 4 C-1.68 4 -0.36 4 1 4 C0.505 2.02 0.505 2.02 0 0 Z " fill="#257F2F" transform="translate(546,309)"/>
<path d="M0 0 C2.53541298 0.09086451 5.03554784 0.2370945 7.5625 0.4375 C8.62887695 0.51581055 8.62887695 0.51581055 9.71679688 0.59570312 C11.47821999 0.72574107 13.23916173 0.86226897 15 1 C15 2.32 15 3.64 15 5 C12.36 5.33 9.72 5.66 7 6 C7.0825 6.763125 7.165 7.52625 7.25 8.3125 C7 11 7 11 5.4375 12.8125 C3 14 3 14 -0.4375 13.8125 C-4.25117829 13.60518805 -4.25117829 13.60518805 -6.75 16.875 C-7.4925 17.90625 -8.235 18.9375 -9 20 C-9.99 20.66 -10.98 21.32 -12 22 C-12.72382467 24.05925139 -12.72382467 24.05925139 -13 26 C-14.65 26.33 -16.3 26.66 -18 27 C-17.67 28.98 -17.34 30.96 -17 33 C-19.56590557 32.96683318 -22.12332066 32.89953481 -24.6875 32.8125 C-25.40873047 32.80669922 -26.12996094 32.80089844 -26.87304688 32.79492188 C-31.04625667 32.6234201 -32.63601901 32.28893337 -36.03125 29.59375 C-38 27 -38 27 -37.8125 24.6875 C-37.544375 24.130625 -37.27625 23.57375 -37 23 C-35.02 23 -33.04 23 -31 23 C-31 24.32 -31 25.64 -31 27 C-30.01 27 -29.02 27 -28 27 C-28.66 25.68 -29.32 24.36 -30 23 C-28.68 23 -27.36 23 -26 23 C-26 22.34 -26 21.68 -26 21 C-24.35 20.34 -22.7 19.68 -21 19 C-21.33 17.02 -21.66 15.04 -22 13 C-19.525 13.495 -19.525 13.495 -17 14 C-17 13.34 -17 12.68 -17 12 C-15.02 11.67 -13.04 11.34 -11 11 C-11.33 10.67 -11.66 10.34 -12 10 C-12.53625 10.144375 -13.0725 10.28875 -13.625 10.4375 C-16.85319511 11.20207253 -19.69505673 11.24035951 -23 11 C-24.9375 9.6875 -24.9375 9.6875 -26 8 C-26 7.01 -26 6.02 -26 5 C-24.68 5 -23.36 5 -22 5 C-22 4.34 -22 3.68 -22 3 C-19.23723823 3.52268466 -16.6739124 4.10869587 -14 5 C-13.67 4.01 -13.34 3.02 -13 2 C-8.915021 1.45533613 -5.1274515 1 -1 1 C-0.67 0.67 -0.34 0.34 0 0 Z " fill="#257C32" transform="translate(191,67)"/>
<path d="M0 0 C-0.33 1.65 -0.66 3.3 -1 5 C-0.34 5 0.32 5 1 5 C1.33 3.35 1.66 1.7 2 0 C3.98 0 5.96 0 8 0 C8 1.32 8 2.64 8 4 C8.33 3.67 8.66 3.34 9 3 C12.375 2.625 12.375 2.625 16 3 C17.02611949 4.65071396 18.02308143 6.31970006 19 8 C21.05836415 8.92228129 23.07908528 9.55030653 25.2578125 10.12890625 C27 11 27 11 27.7421875 12.83984375 C28 15 28 15 28 19 C30.31 19.99 32.62 20.98 35 22 C34.125 26.75 34.125 26.75 33 29 C32.01 29 31.02 29 30 29 C29.34 27.35 28.68 25.7 28 24 C27.01 24 26.02 24 25 24 C25 25.32 25 26.64 25 28 C26.32 28.33 27.64 28.66 29 29 C29 31.31 29 33.62 29 36 C28.01 36 27.02 36 26 36 C26 36.99 26 37.98 26 39 C22.62256331 37.90729989 20.82670695 36.83825982 18.1875 34.375 C14.01801712 31.26832648 12.06327595 31.56351069 7 32 C7.33 30.35 7.66 28.7 8 27 C10.97 26.34 13.94 25.68 17 25 C17 22.69 17 20.38 17 18 C15.35 18 13.7 18 12 18 C11.67 16.68 11.34 15.36 11 14 C9.906875 14.020625 8.81375 14.04125 7.6875 14.0625 C4 14 4 14 1 13 C-0.99961564 12.96079185 -3.00049364 12.95556653 -5 13 C-6.90368048 10.20046988 -6.99184124 8.84226401 -6.8125 5.375 C-5.75536469 0.98382254 -4.52658576 0 0 0 Z " fill="#257C31" transform="translate(164,101)"/>
<path d="M0 0 C3.03209122 -0.22883707 5.97569273 -0.3644399 9 0 C10.04625409 1.29735507 11.04701223 2.63266972 12 4 C14.66946795 4.63324802 17.25334794 4.7784958 20 5 C20.33 5.33 20.66 5.66 21 6 C24.5900518 6.28593333 28.18014845 6.44910171 31.77734375 6.62109375 C35 7 35 7 37 9 C34.36 9.33 31.72 9.66 29 10 C28.67 11.32 28.34 12.64 28 14 C27.34 14 26.68 14 26 14 C26.33 12.35 26.66 10.7 27 9 C25.35 9.66 23.7 10.32 22 11 C21.32326553 14.40320934 21.32326553 14.40320934 21 18 C21.66 18.66 22.32 19.32 23 20 C22.67 20.66 22.34 21.32 22 22 C23.19625 21.79375 24.3925 21.5875 25.625 21.375 C29.5576018 20.86418162 32.3121243 21.43265283 36 23 C36 24.32 36 25.64 36 27 C34.35 27.33 32.7 27.66 31 28 C30.67 27.01 30.34 26.02 30 25 C28.35 24.67 26.7 24.34 25 24 C24.896875 24.598125 24.79375 25.19625 24.6875 25.8125 C23.91123545 28.28243264 22.92911079 29.32251235 21 31 C20.505 28.525 20.505 28.525 20 26 C19.01 26.66 18.02 27.32 17 28 C16.81824219 27.36191406 16.63648438 26.72382812 16.44921875 26.06640625 C16.19785156 25.24011719 15.94648438 24.41382812 15.6875 23.5625 C15.32205078 22.32693359 15.32205078 22.32693359 14.94921875 21.06640625 C14.63597656 20.38449219 14.32273438 19.70257813 14 19 C13.01 18.67 12.02 18.34 11 18 C10.34 17.34 9.68 16.68 9 16 C8.67 16.66 8.34 17.32 8 18 C5.75 18.3125 5.75 18.3125 3 18 C0.6875 15.5 0.6875 15.5 -1 13 C-0.01 12.67 0.98 12.34 2 12 C3.21869929 9.49552484 3.21869929 9.49552484 4 7 C3.34 6.401875 2.68 5.80375 2 5.1875 C0 3 0 3 0 0 Z " fill="#173584" transform="translate(137,92)"/>
<path d="M0 0 C1.32 0 2.64 0 4 0 C3.4740625 1.11375 3.4740625 1.11375 2.9375 2.25 C1.9356049 5.18889228 1.78657983 6.1997996 3 9 C4.47890069 10.73026102 4.47890069 10.73026102 6 12 C5.01 12 4.02 12 3 12 C3.33 13.65 3.66 15.3 4 17 C0.93696422 17.08115993 -2.12390815 17.14057409 -5.1875 17.1875 C-6.05181641 17.21263672 -6.91613281 17.23777344 -7.80664062 17.26367188 C-12.6396347 17.31922353 -16.17291833 17.33326468 -20 14 C-20.8125 10.8125 -20.8125 10.8125 -21 8 C-19.35 8 -17.7 8 -16 8 C-15.67 7.01 -15.34 6.02 -15 5 C-12 3 -12 3 -8.375 3.25 C-6.704375 3.62125 -6.704375 3.62125 -5 4 C-4.67 4.66 -4.34 5.32 -4 6 C-3.34 4.68 -2.68 3.36 -2 2 C-1.34 2 -0.68 2 0 2 C0 1.34 0 0.68 0 0 Z " fill="#257B32" transform="translate(131,101)"/>
<path d="M0 0 C1.98 0.66 3.96 1.32 6 2 C6 5.31254078 5.7165523 7.81532312 5 11 C4.87625 11.60328125 4.7525 12.2065625 4.625 12.828125 C3.8588713 15.49042222 2.70162817 17.78657075 1.4375 20.25 C0.98246094 21.14203125 0.52742187 22.0340625 0.05859375 22.953125 C-0.29074219 23.62859375 -0.64007812 24.3040625 -1 25 C-1.66 25 -2.32 25 -3 25 C-3.33 24.34 -3.66 23.68 -4 23 C-4.75539063 23.07863281 -5.51078125 23.15726562 -6.2890625 23.23828125 C-9 23 -9 23 -10.8359375 21.35546875 C-11.34382813 20.64003906 -11.85171875 19.92460937 -12.375 19.1875 C-13.16003906 18.12595703 -13.16003906 18.12595703 -13.9609375 17.04296875 C-14.47527344 16.03169922 -14.47527344 16.03169922 -15 15 C-14.67 14.01 -14.34 13.02 -14 12 C-12.67696283 11.6278958 -11.34262065 11.29369827 -10 11 C-9.67 10.34 -9.34 9.68 -9 9 C-8.01 9 -7.02 9 -6 9 C-5.67 8.01 -5.34 7.02 -5 6 C-3.68733482 4.64631404 -2.35432675 3.31200404 -1 2 C-0.67 1.34 -0.34 0.68 0 0 Z " fill="#257D30" transform="translate(518,271)"/>
<path d="M0 0 C1.765625 0.27734375 1.765625 0.27734375 4 1 C4.92296875 1.24878906 5.8459375 1.49757813 6.796875 1.75390625 C8.25867188 2.15416016 8.25867188 2.15416016 9.75 2.5625 C11.22726562 2.96662109 11.22726562 2.96662109 12.734375 3.37890625 C13.48203125 3.58386719 14.2296875 3.78882813 15 4 C15 4.99 15 5.98 15 7 C15.66 7 16.32 7 17 7 C18.78305524 9.63892176 19.99059621 11.97178863 21 15 C22.29355827 16.37195574 23.62298702 17.71182656 25 19 C22.9375 19.875 22.9375 19.875 20 20 C17.40994275 18.26080867 15.20875121 16.19602066 13 14 C12.525625 14.515625 12.05125 15.03125 11.5625 15.5625 C7.69002384 17.73486467 4.24770076 16.75333154 0 16 C0.33 14.02 0.66 12.04 1 10 C-1.64 8.68 -4.28 7.36 -7 6 C-7 5.34 -7 4.68 -7 4 C-5.824375 3.566875 -5.824375 3.566875 -4.625 3.125 C-1.90328368 2.15087746 -1.90328368 2.15087746 0 0 Z " fill="#257C31" transform="translate(558,289)"/>
<path d="M0 0 C0.99 0 1.98 0 3 0 C4.90629429 7.94289289 2.548927 14.40725985 0 22 C-0.25136719 22.78761719 -0.50273437 23.57523437 -0.76171875 24.38671875 C-1.88119166 27.47335792 -2.69361392 28.82065205 -5.5625 30.5 C-8 31 -8 31 -10 30 C-10 28.35 -10 26.7 -10 25 C-10.66 25 -11.32 25 -12 25 C-11.37240135 22.07120629 -10.41377341 19.63904371 -9 17 C-9.33 16.67 -9.66 16.34 -10 16 C-10.30133118 13.13735383 -10.44642032 11.5952271 -8.6875 9.25 C-7 8 -7 8 -4 7 C-3.67 6.34 -3.34 5.68 -3 5 C-2.34 5 -1.68 5 -1 5 C-0.67 3.35 -0.34 1.7 0 0 Z " fill="#247A34" transform="translate(391,312)"/>
<path d="M0 0 C3.03272094 -0.2288846 5.97543882 -0.36726814 9 0 C10.8125 2 10.8125 2 12 4 C13.32 4 14.64 4 16 4 C15.67 4.99 15.34 5.98 15 7 C16.65 7.66 18.3 8.32 20 9 C19.3125 10.9375 19.3125 10.9375 18 13 C15.375 13.75 15.375 13.75 13 14 C13 14.66 13 15.32 13 16 C11.68 16 10.36 16 9 16 C8.67 16.66 8.34 17.32 8 18 C5.75 18.3125 5.75 18.3125 3 18 C0.6875 15.5 0.6875 15.5 -1 13 C-0.01 12.67 0.98 12.34 2 12 C3.21869929 9.49552484 3.21869929 9.49552484 4 7 C3.34 6.401875 2.68 5.80375 2 5.1875 C0 3 0 3 0 0 Z " fill="#1A4671" transform="translate(137,92)"/>
<path d="M0 0 C0 1.32 0 2.64 0 4 C-0.99 4 -1.98 4 -3 4 C-3 4.66 -3 5.32 -3 6 C-3.66 6 -4.32 6 -5 6 C-4.67 6.66 -4.34 7.32 -4 8 C-3.01 8.33 -2.02 8.66 -1 9 C-0.67 9.66 -0.34 10.32 0 11 C0.99 11 1.98 11 3 11 C3 12.32 3 13.64 3 15 C2.34 15 1.68 15 1 15 C1.33 17.97 1.66 20.94 2 24 C-0.25 24.6875 -0.25 24.6875 -3 25 C-5.3125 23.5625 -5.3125 23.5625 -7 22 C-6.7525 20.948125 -6.505 19.89625 -6.25 18.8125 C-5.94200304 14.11554637 -7.01208441 13.42731494 -10 10 C-11 6.9375 -11 6.9375 -11 4 C-8.11077403 -0.57460778 -5.11098053 -0.39315235 0 0 Z " fill="#173683" transform="translate(395,180)"/>
<path d="M0 0 C0 0.66 0 1.32 0 2 C0.66 2 1.32 2 2 2 C2.66666667 5.33333333 3.33333333 8.66666667 4 12 C4.66 12 5.32 12 6 12 C6 13.32 6 14.64 6 16 C6.99 16 7.98 16 9 16 C9 19 9 19 7 21.125 C3.15630572 23.52730892 0.48939708 23.6956341 -4 24 C-3.71890887 22.35232753 -3.42481474 20.70686855 -3.125 19.0625 C-2.96257812 18.14597656 -2.80015625 17.22945312 -2.6328125 16.28515625 C-2.42398437 15.53105469 -2.21515625 14.77695313 -2 14 C-1.34 13.67 -0.68 13.34 0 13 C0 12.34 0 11.68 0 11 C-1.32 11 -2.64 11 -4 11 C-4.12375 10.030625 -4.2475 9.06125 -4.375 8.0625 C-4.58125 7.051875 -4.7875 6.04125 -5 5 C-5.66 4.67 -6.32 4.34 -7 4 C-7 3.01 -7 2.02 -7 1 C-4.50935112 0.31292445 -2.62113708 0 0 0 Z " fill="#247935" transform="translate(295,148)"/>
<path d="M0 0 C1.32 0 2.64 0 4 0 C4 0.99 4 1.98 4 3 C3.03900391 3.34611328 3.03900391 3.34611328 2.05859375 3.69921875 C-3.61704819 5.83921489 -8.45193281 7.93576975 -13 12 C-14.17853112 15.39694265 -14.38127224 17.03411033 -13.0625 20.375 C-12.711875 20.91125 -12.36125 21.4475 -12 22 C-14.8125 22.25 -14.8125 22.25 -18 22 C-19.9375 20.3125 -19.9375 20.3125 -21 18 C-20.71814575 15.11099395 -19.91884332 12.75652997 -19 10 C-18.34 10 -17.68 10 -17 10 C-16.979375 9.401875 -16.95875 8.80375 -16.9375 8.1875 C-16 6 -16 6 -12.9375 4.375 C-9.04468173 2.89202161 -5.04420823 1.97618819 -1 1 C-0.67 0.67 -0.34 0.34 0 0 Z " fill="#247935" transform="translate(405,90)"/>
<path d="M0 0 C2 0 2 0 3.5 1.4375 C3.995 1.953125 4.49 2.46875 5 3 C5.66 3.33 6.32 3.66 7 4 C7.67441131 5.6635479 8.3400321 7.33066942 9 9 C9.45375 9.598125 9.9075 10.19625 10.375 10.8125 C12.28204371 13.37967422 13.57141717 16.04782505 14.94921875 18.92578125 C15.94029984 20.88215321 17.05925612 22.66128949 18.25 24.5 C20.40498581 28.80997163 20.33270159 31.25900233 20 36 C14.56668058 32.58477065 12.33466039 27.77760315 10 22 C9.1875 18.375 9.1875 18.375 9 16 C8.01 15.67 7.02 15.34 6 15 C5.9071875 13.453125 5.9071875 13.453125 5.8125 11.875 C4.81179915 7.10242672 3.21863276 5.54874894 0 2 C0 1.34 0 0.68 0 0 Z " fill="#173782" transform="translate(359,222)"/>
<path d="M0 0 C0.99 0 1.98 0 3 0 C5.125 6.625 5.125 6.625 4 10 C3.65179959 11.66362417 3.31595508 13.32995171 3 15 C2.34 15 1.68 15 1 15 C0.67 15.66 0.34 16.32 0 17 C-1.32 17 -2.64 17 -4 17 C-5.70680947 18.62553283 -7.37660195 20.29115995 -9 22 C-9.66 22 -10.32 22 -11 22 C-10.67 20.35 -10.34 18.7 -10 17 C-10.99 16.67 -11.98 16.34 -13 16 C-11.75 14.5 -11.75 14.5 -10 13 C-8.68 13 -7.36 13 -6 13 C-5.67 12.01 -5.34 11.02 -5 10 C-3.68 10 -2.36 10 -1 10 C-1.01160156 9.36191406 -1.02320313 8.72382813 -1.03515625 8.06640625 C-1.04417969 7.24011719 -1.05320312 6.41382813 -1.0625 5.5625 C-1.07410156 4.73878906 -1.08570313 3.91507813 -1.09765625 3.06640625 C-1 1 -1 1 0 0 Z " fill="#247638" transform="translate(554,193)"/>
<path d="M0 0 C0.66 0 1.32 0 2 0 C2 0.66 2 1.32 2 2 C3.65 2 5.3 2 7 2 C7 1.34 7 0.68 7 0 C8.65 0 10.3 0 12 0 C12.185625 0.598125 12.37125 1.19625 12.5625 1.8125 C14.72273753 5.09981799 17.35107655 5.64854687 21 7 C20.67 7.99 20.34 8.98 20 10 C18.02 10 16.04 10 14 10 C14 9.01 14 8.02 14 7 C11.2160817 8.39195915 11.02101003 10.15575779 10 13 C9.01 12.67 8.02 12.34 7 12 C6.54625 11.01 6.0925 10.02 5.625 9 C4.31634538 5.7618443 4.31634538 5.7618443 1.3125 5.125 C0.1678125 5.063125 0.1678125 5.063125 -1 5 C-0.67 3.35 -0.34 1.7 0 0 Z " fill="#247935" transform="translate(318,79)"/>
<path d="M0 0 C0.78761719 0.34546875 1.57523438 0.6909375 2.38671875 1.046875 C4.3125 2.25 4.3125 2.25 5.3125 5.25 C4.69761719 5.51554687 4.08273438 5.78109375 3.44921875 6.0546875 C2.64097656 6.40789062 1.83273438 6.76109375 1 7.125 C-0.20076172 7.64707031 -0.20076172 7.64707031 -1.42578125 8.1796875 C-3.8836834 9.27571894 -3.8836834 9.27571894 -6.6875 11.25 C-9.375 10.875 -9.375 10.875 -11.6875 10.25 C-12.4375 8.6875 -12.4375 8.6875 -12.6875 6.25 C-11.6995286 3.66433771 -10.51223094 1.33775522 -8.6875 -0.75 C-5.29794056 -2.24455258 -3.27875585 -1.495763 0 0 Z " fill="#257D30" transform="translate(111.6875,99.75)"/>
<path d="M0 0 C5.28 0 10.56 0 16 0 C16 1.98 16 3.96 16 6 C15.34 6.66 14.68 7.32 14 8 C12.68 8 11.36 8 10 8 C10 8.66 10 9.32 10 10 C7.36 9.34 4.72 8.68 2 8 C2.33 6.68 2.66 5.36 3 4 C1.68 4.33 0.36 4.66 -1 5 C-0.67 3.35 -0.34 1.7 0 0 Z " fill="#257D31" transform="translate(261,125)"/>
<path d="M0 0 C1.32 0.33 2.64 0.66 4 1 C4.10957031 1.62648437 4.21914063 2.25296875 4.33203125 2.8984375 C4.49058594 3.71570313 4.64914062 4.53296875 4.8125 5.375 C4.96332031 6.18710938 5.11414063 6.99921875 5.26953125 7.8359375 C5.87544942 10.35820641 5.87544942 10.35820641 9 12 C9 12.99 9 13.98 9 15 C9.66 15 10.32 15 11 15 C11 15.66 11 16.32 11 17 C10.01 17 9.02 17 8 17 C8 16.34 8 15.68 8 15 C5.03 15 2.06 15 -1 15 C-2.51708428 4.44191344 -2.51708428 4.44191344 0 0 Z " fill="#1C5164" transform="translate(525,245)"/>
<path d="M0 0 C0.66 0 1.32 0 2 0 C2 0.99 2 1.98 2 3 C-0.31 3.33 -2.62 3.66 -5 4 C-4.01 4.33 -3.02 4.66 -2 5 C-2.185625 5.969375 -2.37125 6.93875 -2.5625 7.9375 C-2.706875 8.948125 -2.85125 9.95875 -3 11 C-2.67 11.33 -2.34 11.66 -2 12 C-1.95936168 13.66617115 -1.957279 15.33388095 -2 17 C-2.66 17 -3.32 17 -4 17 C-4.33 16.34 -4.66 15.68 -5 15 C-6.32 15.33 -7.64 15.66 -9 16 C-9 15.01 -9 14.02 -9 13 C-9.66 13 -10.32 13 -11 13 C-10.33501617 8.61110675 -8.81242323 5.0188515 -7 1 C-5.5459375 1.0309375 -5.5459375 1.0309375 -4.0625 1.0625 C-1.12534105 1.35618499 -1.12534105 1.35618499 0 0 Z " fill="#247935" transform="translate(533,282)"/>
<path d="M0 0 C1.32 0 2.64 0 4 0 C4 1.32 4 2.64 4 4 C3.01 4.495 3.01 4.495 2 5 C1.566875 5.9590625 1.566875 5.9590625 1.125 6.9375 C0 9 0 9 -1.9375 9.9375 C-4.25609863 10.89502671 -4.25609863 10.89502671 -5.5 13.625 C-6.2425 14.800625 -6.2425 14.800625 -7 16 C-8.32 16 -9.64 16 -11 16 C-11.33 14.02 -11.66 12.04 -12 10 C-10.56542672 9.0165504 -9.12722594 8.03839079 -7.6875 7.0625 C-6.88699219 6.51722656 -6.08648438 5.97195313 -5.26171875 5.41015625 C-3 4 -3 4 0 3 C0 2.01 0 1.02 0 0 Z " fill="#257B33" transform="translate(611,377)"/>
<path d="M0 0 C6.26221692 2.20023838 6.26221692 2.20023838 8 5 C7.6875 8.6875 7.6875 8.6875 7 12 C4.69 12 2.38 12 0 12 C-0.33 10.68 -0.66 9.36 -1 8 C-1.66 8 -2.32 8 -3 8 C-2.25 2.25 -2.25 2.25 0 0 Z " fill="#257D31" transform="translate(158,74)"/>
<path d="M0 0 C2.375 0.25 2.375 0.25 5 1 C6.125 2.9375 6.125 2.9375 7 5 C10.18762365 7.12508244 12.26512223 7.5020163 16 8 C16 7.34 16 6.68 16 6 C16.66 6 17.32 6 18 6 C18 8.31 18 10.62 18 13 C17.34 12.34 16.68 11.68 16 11 C15.608125 11.515625 15.21625 12.03125 14.8125 12.5625 C14.214375 13.036875 13.61625 13.51125 13 14 C10.3125 13.6875 10.3125 13.6875 8 13 C8 11.68 8 10.36 8 9 C7.4225 8.773125 6.845 8.54625 6.25 8.3125 C3.40260191 6.65151778 1.87932807 4.68475439 0 2 C0 1.34 0 0.68 0 0 Z " fill="#17397F" transform="translate(387,220)"/>
<path d="M0 0 C1.32 0 2.64 0 4 0 C4 0.66 4 1.32 4 2 C5.32 2.33 6.64 2.66 8 3 C8.33 4.32 8.66 5.64 9 7 C7.906875 6.979375 6.81375 6.95875 5.6875 6.9375 C2.05615809 6.81455548 2.05615809 6.81455548 -1 8 C-3.33299825 8.03954234 -5.66708189 8.04401732 -8 8 C-8 6.68 -8 5.36 -8 4 C-5.36 3.34 -2.72 2.68 0 2 C0 1.34 0 0.68 0 0 Z " fill="#257C32" transform="translate(127,92)"/>
<path d="M0 0 C6.24270632 -0.33310884 10.46446144 -0.21833637 16 3 C18.73572585 3.69907414 18.73572585 3.69907414 21 4 C21 4.66 21 5.32 21 6 C19.02090602 6.02686553 17.04171029 6.04633375 15.0625 6.0625 C13.96035156 6.07410156 12.85820312 6.08570313 11.72265625 6.09765625 C9 6 9 6 8 5 C6.65252916 4.76924918 5.29622435 4.58846937 3.9375 4.4375 C2.638125 4.293125 1.33875 4.14875 0 4 C0 2.68 0 1.36 0 0 Z " fill="#247638" transform="translate(499,299)"/>
<path d="M0 0 C0.99 0 1.98 0 3 0 C3 1.32 3 2.64 3 4 C3.99 4 4.98 4 6 4 C6 4.99 6 5.98 6 7 C6.99 7 7.98 7 9 7 C8.61121002 9.81872737 8.29189635 10.77195598 6 12.5625 C5.34 13.036875 4.68 13.51125 4 14 C3.67 14.99 3.34 15.98 3 17 C2.01 16.67 1.02 16.34 0 16 C-0.04254356 14.00045254 -0.04080783 11.99958364 0 10 C0.33 9.67 0.66 9.34 1 9 C1.17299981 5.79950343 0.9097643 3.07045451 0 0 Z " fill="#257C31" transform="translate(616,363)"/>
<path d="M0 0 C2.3125 0.8125 2.3125 0.8125 4 2 C4 2.99 4 3.98 4 5 C5.32 5.33 6.64 5.66 8 6 C8.33 7.65 8.66 9.3 9 11 C5.625 10.6875 5.625 10.6875 2 10 C1.34 9.01 0.68 8.02 0 7 C-0.680625 6.835 -1.36125 6.67 -2.0625 6.5 C-2.701875 6.335 -3.34125 6.17 -4 6 C-4.33 5.01 -4.66 4.02 -5 3 C-2.75 1.375 -2.75 1.375 0 0 Z " fill="#247737" transform="translate(446,73)"/>
<path d="M0 0 C-0.33 2.31 -0.66 4.62 -1 7 C-3.90600261 8.25664978 -5.79604584 9 -9 9 C-9.48492623 2.57472739 -9.48492623 2.57472739 -7.3125 0 C-4.44360465 -1.2406034 -2.94358324 -0.89942821 0 0 Z " fill="#247935" transform="translate(291,159)"/>
<path d="M0 0 C0.33 0 0.66 0 1 0 C1.33 3.63 1.66 7.26 2 11 C3.65 10.67 5.3 10.34 7 10 C7.66 11.32 8.32 12.64 9 14 C7.35 13.67 5.7 13.34 4 13 C3.855625 13.78375 3.71125 14.5675 3.5625 15.375 C3 18 3 18 2 20 C0.35 20 -1.3 20 -3 20 C-3 19.34 -3 18.68 -3 18 C-1.35 17.67 0.3 17.34 2 17 C1.77183594 16.19175781 1.54367187 15.38351563 1.30859375 14.55078125 C0.87740234 12.94783203 0.87740234 12.94783203 0.4375 11.3125 C0.14746094 10.25675781 -0.14257812 9.20101562 -0.44140625 8.11328125 C-1.00124767 4.99304618 -0.84690764 3.02306766 0 0 Z " fill="#183D7A" transform="translate(419,105)"/>
<path d="M0 0 C1.65 0 3.3 0 5 0 C5 2.97 5 5.94 5 9 C2.75 9.3125 2.75 9.3125 0 9 C-2.3125 6.5 -2.3125 6.5 -4 4 C-3.01 3.67 -2.02 3.34 -1 3 C-0.67 2.01 -0.34 1.02 0 0 Z " fill="#247A34" transform="translate(140,101)"/>
<path d="M0 0 C0.99 0.66 1.98 1.32 3 2 C3.1875 4.625 3.1875 4.625 3 7 C1.02 7.99 1.02 7.99 -1 9 C-1.66 8.01 -2.32 7.02 -3 6 C-4.32 6 -5.64 6 -7 6 C-6.875 4.125 -6.875 4.125 -6 2 C-3.125 0.625 -3.125 0.625 0 0 Z " fill="#247639" transform="translate(535,265)"/>
<path d="M0 0 C6.30596952 1.10938353 11.37529486 2.93197901 17 6 C16.67 6.99 16.34 7.98 16 9 C13.1875 9.3125 13.1875 9.3125 10 9 C9.566875 8.195625 9.13375 7.39125 8.6875 6.5625 C7.28940791 3.81304265 7.28940791 3.81304265 4.8203125 3.4453125 C2.54131713 3.21102326 0.29003353 3.05281 -2 3 C-1.34 2.01 -0.68 1.02 0 0 Z " fill="#247935" transform="translate(148,237)"/>
<path d="M0 0 C3.3 0 6.6 0 10 0 C10.33 0.99 10.66 1.98 11 3 C11.66 3 12.32 3 13 3 C13 3.66 13 4.32 13 5 C4.89626263 6.43720128 4.89626263 6.43720128 1.4375 4.75 C0 3 0 3 0 0 Z " fill="#247738" transform="translate(517,93)"/>
<path d="M0 0 C0.33 0.99 0.66 1.98 1 3 C-0.98 3 -2.96 3 -5 3 C-5 3.66 -5 4.32 -5 5 C-8.3 5.33 -11.6 5.66 -15 6 C-14.01 5.67 -13.02 5.34 -12 5 C-12 4.34 -12 3.68 -12 3 C-12.66 2.67 -13.32 2.34 -14 2 C-9.07262981 0.02905192 -5.21979128 -0.1799928 0 0 Z " fill="#226E42" transform="translate(265,66)"/>
<path d="M0 0 C0.66 0 1.32 0 2 0 C2.33 0.99 2.66 1.98 3 3 C5.50447516 4.21869929 5.50447516 4.21869929 8 5 C7.49396008 7.16874252 7.00016187 8.99967627 6 11 C3.69 10.67 1.38 10.34 -1 10 C-0.67 6.7 -0.34 3.4 0 0 Z " fill="#247A34" transform="translate(553,181)"/>
<path d="M0 0 C3.96 0 7.92 0 12 0 C11.67 1.32 11.34 2.64 11 4 C8.01405576 5.49297212 5.29146376 5.11755228 2 5 C1.34 4.67 0.68 4.34 0 4 C0 2.68 0 1.36 0 0 Z " fill="#247935" transform="translate(331,77)"/>
<path d="M0 0 C0.95003906 0.08765625 1.90007812 0.1753125 2.87890625 0.265625 C5.4375 0.75 5.4375 0.75 8.4375 2.75 C7.4475 3.08 6.4575 3.41 5.4375 3.75 C5.1075 4.74 4.7775 5.73 4.4375 6.75 C3.6021875 6.255 3.6021875 6.255 2.75 5.75 C0.13465478 4.6190399 -1.7431646 4.59337026 -4.5625 4.75 C-4.5625 3.76 -4.5625 2.77 -4.5625 1.75 C-6.2125 1.75 -7.8625 1.75 -9.5625 1.75 C-6.19089885 -0.32237896 -3.89980154 -0.40324478 0 0 Z " fill="#183D7B" transform="translate(120.5625,117.25)"/>
<path d="M0 0 C1.32 0.33 2.64 0.66 4 1 C4 3.97 4 6.94 4 10 C1.03 9.505 1.03 9.505 -2 9 C-1.51421457 5.87709365 -1.0013988 3.00419641 0 0 Z " fill="#257B32" transform="translate(525,245)"/>
<path d="M0 0 C2.97 0 5.94 0 9 0 C9.33 1.65 9.66 3.3 10 5 C3.53104925 6.34261242 3.53104925 6.34261242 1.0625 4.75 C0 3 0 3 0 0 Z " fill="#247837" transform="translate(137,92)"/>
<path d="M0 0 C0 1.32 0 2.64 0 4 C-0.804375 4.28875 -1.60875 4.5775 -2.4375 4.875 C-5.1326468 5.73262568 -5.1326468 5.73262568 -6 8 C-7.65 8 -9.3 8 -11 8 C-11.33 6.68 -11.66 5.36 -12 4 C-10.56570999 3.32645501 -9.12742943 2.66140299 -7.6875 2 C-6.88699219 1.62875 -6.08648437 1.2575 -5.26171875 0.875 C-3 0 -3 0 0 0 Z " fill="#247936" transform="translate(120,88)"/>
<path d="M0 0 C2.31 0.33 4.62 0.66 7 1 C7 1.66 7 2.32 7 3 C7.66 3 8.32 3 9 3 C9 3.66 9 4.32 9 5 C5.04 5 1.08 5 -3 5 C-3 4.34 -3 3.68 -3 3 C-2.01 2.67 -1.02 2.34 0 2 C0 1.34 0 0.68 0 0 Z " fill="#247A33" transform="translate(167,244)"/>
<path d="M0 0 C0.66 0 1.32 0 2 0 C4.33796852 3.27315593 5.39266535 6.05232477 6 10 C6.32483418 11.33542939 6.6550855 12.66961551 7 14 C5.109375 13.8046875 5.109375 13.8046875 3 13 C1.953125 10.8203125 1.953125 10.8203125 1.25 8.125 C1.00765625 7.24070313 0.7653125 6.35640625 0.515625 5.4453125 C0 3 0 3 0 0 Z " fill="#247935" transform="translate(549,161)"/>
<path d="M0 0 C3.68754757 0.49831724 5.60490662 1.10067643 8 4 C7.67 4.99 7.34 5.98 7 7 C5.68 7 4.36 7 3 7 C3 6.34 3 5.68 3 5 C1.68 4.67 0.36 4.34 -1 4 C-0.67 2.68 -0.34 1.36 0 0 Z " fill="#247638" transform="translate(138,82)"/>
<path d="M0 0 C2.31 0 4.62 0 7 0 C6.25 4.75 6.25 4.75 4 7 C1.875 6.625 1.875 6.625 0 6 C0 4.02 0 2.04 0 0 Z " fill="#257B33" transform="translate(561,378)"/>
<path d="M0 0 C2.97 0.495 2.97 0.495 6 1 C6.33 2.65 6.66 4.3 7 6 C5.25 6.6875 5.25 6.6875 3 7 C0.75 5.5625 0.75 5.5625 -1 4 C-0.67 2.68 -0.34 1.36 0 0 Z " fill="#17397F" transform="translate(140,114)"/>
<path d="M0 0 C3.53640412 2.23972261 4.60286482 4.10798056 6 8 C6.66 8.66 7.32 9.32 8 10 C8 10.99 8 11.98 8 13 C8.66 13 9.32 13 10 13 C9.67 14.65 9.34 16.3 9 18 C6.46879111 14.86612233 4.76839611 11.61047539 3 8 C2.443125 7.113125 1.88625 6.22625 1.3125 5.3125 C0 3 0 3 0 0 Z " fill="#183B7E" transform="translate(92,219)"/>
<path d="M0 0 C2.64 0 5.28 0 8 0 C7.3125 1.9375 7.3125 1.9375 6 4 C3.375 4.75 3.375 4.75 1 5 C1 5.66 1 6.32 1 7 C0.34 7 -0.32 7 -1 7 C-0.67 4.69 -0.34 2.38 0 0 Z " fill="#247A34" transform="translate(149,101)"/>
<path d="M0 0 C1.4540625 0.0309375 1.4540625 0.0309375 2.9375 0.0625 C2.6075 2.3725 2.2775 4.6825 1.9375 7.0625 C-0.0425 7.3925 -2.0225 7.7225 -4.0625 8.0625 C-4.10491723 5.72955225 -4.10342937 3.39547433 -4.0625 1.0625 C-3.0625 0.0625 -3.0625 0.0625 0 0 Z " fill="#226E42" transform="translate(128.0625,82.9375)"/>
<path d="M0 0 C1.98 0.66 3.96 1.32 6 2 C5.67 2.99 5.34 3.98 5 5 C5.66 5.66 6.32 6.32 7 7 C4.36 6.67 1.72 6.34 -1 6 C-1.33 5.01 -1.66 4.02 -2 3 C-1.34 2.01 -0.68 1.02 0 0 Z " fill="#23713E" transform="translate(458,81)"/>
<path d="M0 0 C0.99 0 1.98 0 3 0 C3.84454356 3.37817425 4.10844919 5.67465243 3 9 C0.525 8.01 0.525 8.01 -2 7 C-1.125 2.25 -1.125 2.25 0 0 Z " fill="#163485" transform="translate(411,180)"/>
<path d="M0 0 C2.875 -0.1875 2.875 -0.1875 6 0 C6.66 0.99 7.32 1.98 8 3 C3.375 6 3.375 6 0 6 C0 4.02 0 2.04 0 0 Z " fill="#257B33" transform="translate(157,130)"/>
<path d="M0 0 C2.3125 -0.25 2.3125 -0.25 5 0 C6.8125 2 6.8125 2 8 4 C5.75 5.1875 5.75 5.1875 3 6 C0.6875 4.625 0.6875 4.625 -1 3 C-0.67 2.01 -0.34 1.02 0 0 Z " fill="#237639" transform="translate(181,411)"/>
<path d="M0 0 C0.66 0 1.32 0 2 0 C2 1.32 2 2.64 2 4 C2.66 4.33 3.32 4.66 4 5 C2.68 5.99 1.36 6.98 0 8 C-1.32 7.34 -2.64 6.68 -4 6 C-3.67 5.01 -3.34 4.02 -3 3 C-2.34 3 -1.68 3 -1 3 C-0.67 2.01 -0.34 1.02 0 0 Z " fill="#173880" transform="translate(518,195)"/>
<path d="M0 0 C2.64 0.33 5.28 0.66 8 1 C8 1.99 8 2.98 8 4 C6.68 4 5.36 4 4 4 C4.33 5.32 4.66 6.64 5 8 C2 7 2 7 0.8125 5.125 C0 3 0 3 0 0 Z " fill="#183B7D" transform="translate(358,125)"/>
<path d="M0 0 C-0.33 1.65 -0.66 3.3 -1 5 C-3.97 4.505 -3.97 4.505 -7 4 C-6.625 2.0625 -6.625 2.0625 -6 0 C-3.50907189 -1.24546405 -2.58919267 -0.7767578 0 0 Z " fill="#1C5263" transform="translate(218,114)"/>
<path d="M0 0 C1.9453125 0.2421875 1.9453125 0.2421875 4.125 0.875 C4.84945312 1.07867187 5.57390625 1.28234375 6.3203125 1.4921875 C6.87460938 1.65976563 7.42890625 1.82734375 8 2 C8 3.32 8 4.64 8 6 C6.35 6.33 4.7 6.66 3 7 C2.67 6.01 2.34 5.02 2 4 C-0.00016466 2.79117904 -0.00016466 2.79117904 -2 2 C-1.34 1.34 -0.68 0.68 0 0 Z " fill="#1B4B6A" transform="translate(165,113)"/>
<path d="M0 0 C0.99 0.33 1.98 0.66 3 1 C3 3.31 3 5.62 3 8 C1.68 7.67 0.36 7.34 -1 7 C-1.04254356 5.00045254 -1.04080783 2.99958364 -1 1 C-0.67 0.67 -0.34 0.34 0 0 Z " fill="#257B33" transform="translate(450,266)"/>
<path d="M0 0 C0.66 0.33 1.32 0.66 2 1 C1.67 3.31 1.34 5.62 1 8 C-0.65 8.66 -2.3 9.32 -4 10 C-2.8905928 6.51329166 -1.73662334 3.22515763 0 0 Z " fill="#17397F" transform="translate(523,282)"/>
<path d="M0 0 C0.66 0 1.32 0 2 0 C2 0.99 2 1.98 2 3 C0.3603125 3.2165625 0.3603125 3.2165625 -1.3125 3.4375 C-4.93122987 3.88288104 -4.93122987 3.88288104 -8 5 C-7.67 3.68 -7.34 2.36 -7 1 C-5.5459375 1.0309375 -5.5459375 1.0309375 -4.0625 1.0625 C-1.12534105 1.35618499 -1.12534105 1.35618499 0 0 Z " fill="#22713F" transform="translate(533,282)"/>
<path d="M0 0 C0.99 0.33 1.98 0.66 3 1 C3 2.65 3 4.3 3 6 C0 6 0 6 -2 5 C-1.125 1.125 -1.125 1.125 0 0 Z " fill="#23723D" transform="translate(539,211)"/>
<path d="M0 0 C-0.33 1.32 -0.66 2.64 -1 4 C-3.64 3.67 -6.28 3.34 -9 3 C-9 2.34 -9 1.68 -9 1 C-5.8035914 -0.06546953 -3.34252724 -0.07427838 0 0 Z " fill="#183A7E" transform="translate(298,205)"/>
<path d="M0 0 C1.32 0.66 2.64 1.32 4 2 C3.67 3.32 3.34 4.64 3 6 C1.68 5.67 0.36 5.34 -1 5 C-0.67 3.35 -0.34 1.7 0 0 Z " fill="#247639" transform="translate(150,83)"/>
<path d="M0 0 C2.475 0.495 2.475 0.495 5 1 C5 1.99 5 2.98 5 4 C5.66 4 6.32 4 7 4 C7 4.66 7 5.32 7 6 C6.01 6 5.02 6 4 6 C4 5.34 4 4.68 4 4 C2.68 3.34 1.36 2.68 0 2 C0 1.34 0 0.68 0 0 Z " fill="#216A47" transform="translate(529,256)"/>
<path d="M0 0 C0.99 0 1.98 0 3 0 C3 1.98 3 3.96 3 6 C1.68 5.67 0.36 5.34 -1 5 C-0.67 3.35 -0.34 1.7 0 0 Z " fill="#23723D" transform="translate(523,232)"/>
<path d="M0 0 C0.33 0.99 0.66 1.98 1 3 C3.01508358 3.73323796 3.01508358 3.73323796 5 4 C3.02 4 1.04 4 -1 4 C-1.33 5.32 -1.66 6.64 -2 8 C-2.12375 7.360625 -2.2475 6.72125 -2.375 6.0625 C-2.684375 5.0415625 -2.684375 5.0415625 -3 4 C-3.66 3.67 -4.32 3.34 -5 3 C-4.67 2.34 -4.34 1.68 -4 1 C-2.02 1.495 -2.02 1.495 0 2 C0 1.34 0 0.68 0 0 Z " fill="#1B4D69" transform="translate(158,126)"/>
<path d="M0 0 C0.99 0.99 1.98 1.98 3 3 C0.69 3.66 -1.62 4.32 -4 5 C-3.6875 3.0625 -3.6875 3.0625 -3 1 C-2.01 0.67 -1.02 0.34 0 0 Z " fill="#23743A" transform="translate(199,404)"/>
<path d="M0 0 C1.32 0 2.64 0 4 0 C4.33 0.99 4.66 1.98 5 3 C4.01 3 3.02 3 2 3 C1.67 3.99 1.34 4.98 1 6 C0.01 6.495 0.01 6.495 -1 7 C-0.67 4.69 -0.34 2.38 0 0 Z " fill="#183E7A" transform="translate(291,159)"/>
<path d="M0 0 C0.99 0 1.98 0 3 0 C3 1.32 3 2.64 3 4 C3.99 4 4.98 4 6 4 C5.67 4.99 5.34 5.98 5 7 C5 6.34 5 5.68 5 5 C4.34 5 3.68 5 3 5 C2.67 5.99 2.34 6.98 2 8 C0.74335022 5.09399739 0 3.20395416 0 0 Z " fill="#216B45" transform="translate(616,363)"/>
<path d="M0 0 C0.99 0 1.98 0 3 0 C2.67 1.65 2.34 3.3 2 5 C1.01 5.33 0.02 5.66 -1 6 C-1.042721 4.33388095 -1.04063832 2.66617115 -1 1 C-0.67 0.67 -0.34 0.34 0 0 Z " fill="#23713E" transform="translate(503,243)"/>
<path d="M0 0 C2.31 0 4.62 0 7 0 C7 0.99 7 1.98 7 3 C5.02 3 3.04 3 1 3 C0.67 2.01 0.34 1.02 0 0 Z " fill="#23723D" transform="translate(533,95)"/>
<path d="M0 0 C-1.75 2.0625 -1.75 2.0625 -4 4 C-6.25 3.75 -6.25 3.75 -8 3 C-7.34 2.67 -6.68 2.34 -6 2 C-6 1.34 -6 0.68 -6 0 C-2.25 -1.125 -2.25 -1.125 0 0 Z " fill="#183A7E" transform="translate(369,180)"/>
<path d="M0 0 C1.875 0.1875 1.875 0.1875 4 1 C5.25 3.5625 5.25 3.5625 6 6 C5.01 6.495 5.01 6.495 4 7 C3.34 5.35 2.68 3.7 2 2 C1.34 2 0.68 2 0 2 C0 1.34 0 0.68 0 0 Z " fill="#1E575C" transform="translate(394,112)"/>
<path d="M0 0 C1.65 0 3.3 0 5 0 C5 0.66 5 1.32 5 2 C0.61538462 5 0.61538462 5 -2 5 C-1.34 3.35 -0.68 1.7 0 0 Z " fill="#20644D" transform="translate(525,304)"/>
<path d="M0 0 C0 0.66 0 1.32 0 2 C-4.455 2.495 -4.455 2.495 -9 3 C-9 2.34 -9 1.68 -9 1 C-5.8035914 -0.06546953 -3.34252724 -0.07427838 0 0 Z " fill="#23753A" transform="translate(366,183)"/>
<path d="M0 0 C1.98 0.495 1.98 0.495 4 1 C4 1.99 4 2.98 4 4 C2.35 4 0.7 4 -1 4 C-0.67 2.68 -0.34 1.36 0 0 Z " fill="#257B33" transform="translate(140,114)"/>
<path d="M0 0 C0.66 0 1.32 0 2 0 C2 2.31 2 4.62 2 7 C1.01 6.67 0.02 6.34 -1 6 C-0.67 4.02 -0.34 2.04 0 0 Z " fill="#247836" transform="translate(540,280)"/>
<path d="M0 0 C1.98 0 3.96 0 6 0 C5.67 0.99 5.34 1.98 5 3 C3.35 3 1.7 3 0 3 C0 2.01 0 1.02 0 0 Z " fill="#247738" transform="translate(125,83)"/>
</svg>
